<?xml version="1.0" encoding="utf-8" ?>
<svg baseProfile="full" height="98mm" version="1.1" viewBox="0,0,200,98" width="200mm" xmlns="http://www.w3.org/2000/svg" xmlns:ev="http://www.w3.org/2001/xml-events" xmlns:xlink="http://www.w3.org/1999/xlink"><defs /><rect fill="#222222" height="98" width="200" x="0" y="0" /><text fill="#FFFFFF" style="font-size:12px; font-family:Arial; font-weight:bold;" x="10" y="20">2016 Running</text><text fill="#FFFFFF" style="font-size:4px; font-family:Arial" x="10" y="78">Runner</text><text fill="#FFFFFF" style="font-size:9px; font-family:Arial" x="10" y="88">cigar</text><text fill="#FFFFFF" style="font-size:4px; font-family:Arial" x="65" y="78">SPECIAL TRACKS</text><rect fill="yellow" height="2.6" width="2.6" x="65" y="81" /><text fill="#FFFFFF" style="font-size:3px; font-family:Arial" x="70" y="83.5">Over 10.0 km</text><rect fill="red" height="2.6" width="2.6" x="65" y="85" /><text fill="#FFFFFF" style="font-size:3px; font-family:Arial" x="70" y="87.5">Over 20.0 km</text><text fill="#FFFFFF" style="font-size:4px; font-family:Arial" x="120" y="78">STATISTICS</text><text fill="#FFFFFF" style="font-size:3px; font-family:Arial" x="120" y="83">Number: 196</text><text fill="#FFFFFF" style="font-size:3px; font-family:Arial" x="120" y="88">Weekly: 3.7</text><text fill="#FFFFFF" style="font-size:3px; font-family:Arial" x="141" y="83">Total: 2515.0 km</text><text fill="#FFFFFF" style="font-size:3px; font-family:Arial" x="141" y="88">Avg: 12.8 km</text><text fill="#FFFFFF" style="font-size:3px; font-family:Arial" x="167" y="83">Min: 5.2 km</text><text fill="#FFFFFF" style="font-size:3px; font-family:Arial" x="167" y="88">Max: 43.7 km</text><text dominant-baseline="hanging" fill="#FFFFFF" style="font-size:10.0px; font-family:Arial;" x="10" y="30">2016</text><text dominant-baseline="hanging" fill="#FFFFFF" style="font-size:4.125px; font-family:Arial;" x="175" y="35">2515.0 km</text><text fill="#FFFFFF" style="font-size:2.5px; font-family:Arial" x="10.0" y="44">Jan</text><text fill="#FFFFFF" style="font-size:2.5px; font-family:Arial" x="25.5" y="44">Feb</text><text fill="#FFFFFF" style="font-size:2.5px; font-family:Arial" x="41.0" y="44">Mar</text><text fill="#FFFFFF" style="font-size:2.5px; font-family:Arial" x="56.5" y="44">Apr</text><text fill="#FFFFFF" style="font-size:2.5px; font-family:Arial" x="72.0" y="44">May</text><text fill="#FFFFFF" style="font-size:2.5px; font-family:Arial" x="87.5" y="44">Jun</text><text fill="#FFFFFF" style="font-size:2.5px; font-family:Arial" x="103.0" y="44">Jul</text><text fill="#FFFFFF" style="font-size:2.5px; font-family:Arial" x="118.5" y="44">Aug</text><text fill="#FFFFFF" style="font-size:2.5px; font-family:Arial" x="134.0" y="44">Sep</text><text fill="#FFFFFF" style="font-size:2.5px; font-family:Arial" x="149.5" y="44">Oct</text><text fill="#FFFFFF" style="font-size:2.5px; font-family:Arial" x="165.0" y="44">Nov</text><text fill="#FFFFFF" style="font-size:2.5px; font-family:Arial" x="180.5" y="44">Dec</text><rect fill="#4dd2ff" height="2.6" width="2.6" x="10.0" y="59.5"><title>2016-01-01 9.7 km</title></rect><rect fill="#444444" height="2.6" width="2.6" x="10.0" y="63.0"><title>2016-01-02</title></rect><rect fill="#444444" height="2.6" width="2.6" x="10.0" y="66.5"><title>2016-01-03</title></rect><rect fill="#444444" height="2.6" width="2.6" x="13.5" y="45.5"><title>2016-01-04</title></rect><rect fill="#444444" height="2.6" width="2.6" x="13.5" y="49.0"><title>2016-01-05</title></rect><rect fill="#444444" height="2.6" width="2.6" x="13.5" y="52.5"><title>2016-01-06</title></rect><rect fill="#444444" height="2.6" width="2.6" x="13.5" y="56.0"><title>2016-01-07</title></rect><rect fill="#444444" height="2.6" width="2.6" x="13.5" y="59.5"><title>2016-01-08</title></rect><rect fill="#ffd900" height="2.6" width="2.6" x="13.5" y="63.0"><title>2016-01-09 11.0 km</title></rect><rect fill="red" height="2.6" width="2.6" x="13.5" y="66.5"><title>2016-01-10 21.2 km</title></rect><rect fill="#444444" height="2.6" width="2.6" x="17.0" y="45.5"><title>2016-01-11</title></rect><rect fill="#ffdd00" height="2.6" width="2.6" x="17.0" y="49.0"><title>2016-01-12 10.4 km</title></rect><rect fill="#444444" height="2.6" width="2.6" x="17.0" y="52.5"><title>2016-01-13</title></rect><rect fill="#444444" height="2.6" width="2.6" x="17.0" y="56.0"><title>2016-01-14</title></rect><rect fill="#444444" height="2.6" width="2.6" x="17.0" y="59.5"><title>2016-01-15</title></rect><rect fill="#444444" height="2.6" width="2.6" x="17.0" y="63.0"><title>2016-01-16</title></rect><rect fill="#ffb000" height="2.6" width="2.6" x="17.0" y="66.5"><title>2016-01-17 17.1 km</title></rect><rect fill="#444444" height="2.6" width="2.6" x="20.5" y="45.5"><title>2016-01-18</title></rect><rect fill="#ffbe00" height="2.6" width="2.6" x="20.5" y="49.0"><title>2016-01-19 15.0 km</title></rect><rect fill="#444444" height="2.6" width="2.6" x="20.5" y="52.5"><title>2016-01-20</title></rect><rect fill="#444444" height="2.6" width="2.6" x="20.5" y="56.0"><title>2016-01-21</title></rect><rect fill="#ffda00" height="2.6" width="2.6" x="20.5" y="59.5"><title>2016-01-22 10.8 km</title></rect><rect fill="#444444" height="2.6" width="2.6" x="20.5" y="63.0"><title>2016-01-23</title></rect><rect fill="#444444" height="2.6" width="2.6" x="20.5" y="66.5"><title>2016-01-24</title></rect><rect fill="#444444" height="2.6" width="2.6" x="24.0" y="45.5"><title>2016-01-25</title></rect><rect fill="#444444" height="2.6" width="2.6" x="24.0" y="49.0"><title>2016-01-26</title></rect><rect fill="#4dd2ff" height="2.6" width="2.6" x="24.0" y="52.5"><title>2016-01-27 7.1 km</title></rect><rect fill="#444444" height="2.6" width="2.6" x="24.0" y="56.0"><title>2016-01-28</title></rect><rect fill="#444444" height="2.6" width="2.6" x="24.0" y="59.5"><title>2016-01-29</title></rect><rect fill="#ffde00" height="2.6" width="2.6" x="24.0" y="63.0"><title>2016-01-30 10.2 km</title></rect><rect fill="red" height="2.6" width="2.6" x="24.0" y="66.5"><title>2016-01-31 23.1 km</title></rect><rect fill="#444444" height="2.6" width="2.6" x="27.5" y="45.5"><title>2016-02-01</title></rect><rect fill="#ffd900" height="2.6" width="2.6" x="27.5" y="49.0"><title>2016-02-02 11.0 km</title></rect><rect fill="#ffde00" height="2.6" width="2.6" x="27.5" y="52.5"><title>2016-02-03 10.2 km</title></rect><rect fill="#444444" height="2.6" width="2.6" x="27.5" y="56.0"><title>2016-02-04</title></rect><rect fill="#ffd900" height="2.6" width="2.6" x="27.5" y="59.5"><title>2016-02-05 11.0 km</title></rect><rect fill="#444444" height="2.6" width="2.6" x="27.5" y="63.0"><title>2016-02-06</title></rect><rect fill="#ffd200" height="2.6" width="2.6" x="27.5" y="66.5"><title>2016-02-07 12.0 km</title></rect><rect fill="#444444" height="2.6" width="2.6" x="31.0" y="45.5"><title>2016-02-08</title></rect><rect fill="#ffd600" height="2.6" width="2.6" x="31.0" y="49.0"><title>2016-02-09 11.4 km</title></rect><rect fill="#444444" height="2.6" width="2.6" x="31.0" y="52.5"><title>2016-02-10</title></rect><rect fill="#444444" height="2.6" width="2.6" x="31.0" y="56.0"><title>2016-02-11</title></rect><rect fill="#444444" height="2.6" width="2.6" x="31.0" y="59.5"><title>2016-02-12</title></rect><rect fill="#ffd200" height="2.6" width="2.6" x="31.0" y="63.0"><title>2016-02-13 12.0 km</title></rect><rect fill="#444444" height="2.6" width="2.6" x="31.0" y="66.5"><title>2016-02-14</title></rect><rect fill="#ffdc00" height="2.6" width="2.6" x="34.5" y="45.5"><title>2016-02-15 10.6 km</title></rect><rect fill="#444444" height="2.6" width="2.6" x="34.5" y="49.0"><title>2016-02-16</title></rect><rect fill="#444444" height="2.6" width="2.6" x="34.5" y="52.5"><title>2016-02-17</title></rect><rect fill="#ffd900" height="2.6" width="2.6" x="34.5" y="56.0"><title>2016-02-18 11.0 km</title></rect><rect fill="#444444" height="2.6" width="2.6" x="34.5" y="59.5"><title>2016-02-19</title></rect><rect fill="#ffb100" height="2.6" width="2.6" x="34.5" y="63.0"><title>2016-02-20 17.0 km</title></rect><rect fill="red" height="2.6" width="2.6" x="34.5" y="66.5"><title>2016-02-21 21.2 km</title></rect><rect fill="#444444" height="2.6" width="2.6" x="38.0" y="45.5"><title>2016-02-22</title></rect><rect fill="#ffd800" height="2.6" width="2.6" x="38.0" y="49.0"><title>2016-02-23 11.1 km</title></rect><rect fill="#444444" height="2.6" width="2.6" x="38.0" y="52.5"><title>2016-02-24</title></rect><rect fill="#ffde00" height="2.6" width="2.6" x="38.0" y="56.0"><title>2016-02-25 10.2 km</title></rect><rect fill="#444444" height="2.6" width="2.6" x="38.0" y="59.5"><title>2016-02-26</title></rect><rect fill="#444444" height="2.6" width="2.6" x="38.0" y="63.0"><title>2016-02-27</title></rect><rect fill="#444444" height="2.6" width="2.6" x="38.0" y="66.5"><title>2016-02-28</title></rect><rect fill="#ffd800" height="2.6" width="2.6" x="41.5" y="45.5"><title>2016-02-29 11.0 km</title></rect><rect fill="#ffd900" height="2.6" width="2.6" x="41.5" y="49.0"><title>2016-03-01 11.0 km</title></rect><rect fill="#ffd800" height="2.6" width="2.6" x="41.5" y="52.5"><title>2016-03-02 11.1 km</title></rect><rect fill="#444444" height="2.6" width="2.6" x="41.5" y="56.0"><title>2016-03-03</title></rect><rect fill="#ffdf00" height="2.6" width="2.6" x="41.5" y="59.5"><title>2016-03-04 10.1 km</title></rect><rect fill="red" height="2.6" width="2.6" x="41.5" y="63.0"><title>2016-03-05 21.1 km</title></rect><rect fill="#444444" height="2.6" width="2.6" x="41.5" y="66.5"><title>2016-03-06</title></rect><rect fill="#444444" height="2.6" width="2.6" x="45.0" y="45.5"><title>2016-03-07</title></rect><rect fill="#444444" height="2.6" width="2.6" x="45.0" y="49.0"><title>2016-03-08</title></rect><rect fill="#ffce00" height="2.6" width="2.6" x="45.0" y="52.5"><title>2016-03-09 12.6 km</title></rect><rect fill="#444444" height="2.6" width="2.6" x="45.0" y="56.0"><title>2016-03-10</title></rect><rect fill="#ffd800" height="2.6" width="2.6" x="45.0" y="59.5"><title>2016-03-11 11.0 km</title></rect><rect fill="#444444" height="2.6" width="2.6" x="45.0" y="63.0"><title>2016-03-12</title></rect><rect fill="#ffd200" height="2.6" width="2.6" x="45.0" y="66.5"><title>2016-03-13 12.0 km</title></rect><rect fill="#444444" height="2.6" width="2.6" x="48.5" y="45.5"><title>2016-03-14</title></rect><rect fill="#444444" height="2.6" width="2.6" x="48.5" y="49.0"><title>2016-03-15</title></rect><rect fill="#444444" height="2.6" width="2.6" x="48.5" y="52.5"><title>2016-03-16</title></rect><rect fill="#444444" height="2.6" width="2.6" x="48.5" y="56.0"><title>2016-03-17</title></rect><rect fill="#444444" height="2.6" width="2.6" x="48.5" y="59.5"><title>2016-03-18</title></rect><rect fill="#444444" height="2.6" width="2.6" x="48.5" y="63.0"><title>2016-03-19</title></rect><rect fill="red" height="2.6" width="2.6" x="48.5" y="66.5"><title>2016-03-20 42.8 km</title></rect><rect fill="#444444" height="2.6" width="2.6" x="52.0" y="45.5"><title>2016-03-21</title></rect><rect fill="#444444" height="2.6" width="2.6" x="52.0" y="49.0"><title>2016-03-22</title></rect><rect fill="#ffdf00" height="2.6" width="2.6" x="52.0" y="52.5"><title>2016-03-23 10.1 km</title></rect><rect fill="#ffd900" height="2.6" width="2.6" x="52.0" y="56.0"><title>2016-03-24 11.0 km</title></rect><rect fill="#ffd800" height="2.6" width="2.6" x="52.0" y="59.5"><title>2016-03-25 11.1 km</title></rect><rect fill="red" height="2.6" width="2.6" x="52.0" y="63.0"><title>2016-03-26 21.3 km</title></rect><rect fill="#444444" height="2.6" width="2.6" x="52.0" y="66.5"><title>2016-03-27</title></rect><rect fill="#444444" height="2.6" width="2.6" x="55.5" y="45.5"><title>2016-03-28</title></rect><rect fill="#ffde00" height="2.6" width="2.6" x="55.5" y="49.0"><title>2016-03-29 10.2 km</title></rect><rect fill="#444444" height="2.6" width="2.6" x="55.5" y="52.5"><title>2016-03-30</title></rect><rect fill="#444444" height="2.6" width="2.6" x="55.5" y="56.0"><title>2016-03-31</title></rect><rect fill="#ffdd00" height="2.6" width="2.6" x="55.5" y="59.5"><title>2016-04-01 10.4 km</title></rect><rect fill="red" height="2.6" width="2.6" x="55.5" y="63.0"><title>2016-04-02 21.4 km</title></rect><rect fill="#444444" height="2.6" width="2.6" x="55.5" y="66.5"><title>2016-04-03</title></rect><rect fill="#ffd200" height="2.6" width="2.6" x="59.0" y="45.5"><title>2016-04-04 12.0 km</title></rect><rect fill="#ffdd00" height="2.6" width="2.6" x="59.0" y="49.0"><title>2016-04-05 10.4 km</title></rect><rect fill="#444444" height="2.6" width="2.6" x="59.0" y="52.5"><title>2016-04-06</title></rect><rect fill="#444444" height="2.6" width="2.6" x="59.0" y="56.0"><title>2016-04-07</title></rect><rect fill="#ffd700" height="2.6" width="2.6" x="59.0" y="59.5"><title>2016-04-08 11.2 km</title></rect><rect fill="red" height="2.6" width="2.6" x="59.0" y="63.0"><title>2016-04-09 21.2 km</title></rect><rect fill="#ffde00" height="2.6" width="2.6" x="59.0" y="66.5"><title>2016-04-10 10.3 km</title></rect><rect fill="#ffda00" height="2.6" width="2.6" x="62.5" y="45.5"><title>2016-04-11 10.9 km</title></rect><rect fill="#444444" height="2.6" width="2.6" x="62.5" y="49.0"><title>2016-04-12</title></rect><rect fill="#444444" height="2.6" width="2.6" x="62.5" y="52.5"><title>2016-04-13</title></rect><rect fill="#444444" height="2.6" width="2.6" x="62.5" y="56.0"><title>2016-04-14</title></rect><rect fill="#444444" height="2.6" width="2.6" x="62.5" y="59.5"><title>2016-04-15</title></rect><rect fill="#444444" height="2.6" width="2.6" x="62.5" y="63.0"><title>2016-04-16</title></rect><rect fill="red" height="2.6" width="2.6" x="62.5" y="66.5"><title>2016-04-17 41.7 km</title></rect><rect fill="#4dd2ff" height="2.6" width="2.6" x="66.0" y="45.5"><title>2016-04-18 5.2 km</title></rect><rect fill="#444444" height="2.6" width="2.6" x="66.0" y="49.0"><title>2016-04-19</title></rect><rect fill="#4dd2ff" height="2.6" width="2.6" x="66.0" y="52.5"><title>2016-04-20 7.3 km</title></rect><rect fill="#444444" height="2.6" width="2.6" x="66.0" y="56.0"><title>2016-04-21</title></rect><rect fill="#444444" height="2.6" width="2.6" x="66.0" y="59.5"><title>2016-04-22</title></rect><rect fill="#444444" height="2.6" width="2.6" x="66.0" y="63.0"><title>2016-04-23</title></rect><rect fill="red" height="2.6" width="2.6" x="66.0" y="66.5"><title>2016-04-24 21.5 km</title></rect><rect fill="#444444" height="2.6" width="2.6" x="69.5" y="45.5"><title>2016-04-25</title></rect><rect fill="#4dd2ff" height="2.6" width="2.6" x="69.5" y="49.0"><title>2016-04-26 9.7 km</title></rect><rect fill="#444444" height="2.6" width="2.6" x="69.5" y="52.5"><title>2016-04-27</title></rect><rect fill="#ffdf00" height="2.6" width="2.6" x="69.5" y="56.0"><title>2016-04-28 10.0 km</title></rect><rect fill="#444444" height="2.6" width="2.6" x="69.5" y="59.5"><title>2016-04-29</title></rect><rect fill="#444444" height="2.6" width="2.6" x="69.5" y="63.0"><title>2016-04-30</title></rect><rect fill="#ffd100" height="2.6" width="2.6" x="69.5" y="66.5"><title>2016-05-01 12.2 km</title></rect><rect fill="red" height="2.6" width="2.6" x="73.0" y="45.5"><title>2016-05-02 21.5 km</title></rect><rect fill="#ffd500" height="2.6" width="2.6" x="73.0" y="49.0"><title>2016-05-03 11.6 km</title></rect><rect fill="#ffdd00" height="2.6" width="2.6" x="73.0" y="52.5"><title>2016-05-04 10.3 km</title></rect><rect fill="#444444" height="2.6" width="2.6" x="73.0" y="56.0"><title>2016-05-05</title></rect><rect fill="#4dd2ff" height="2.6" width="2.6" x="73.0" y="59.5"><title>2016-05-06 8.6 km</title></rect><rect fill="#444444" height="2.6" width="2.6" x="73.0" y="63.0"><title>2016-05-07</title></rect><rect fill="red" height="2.6" width="2.6" x="73.0" y="66.5"><title>2016-05-08 21.4 km</title></rect><rect fill="#ffd800" height="2.6" width="2.6" x="76.5" y="45.5"><title>2016-05-09 11.2 km</title></rect><rect fill="#444444" height="2.6" width="2.6" x="76.5" y="49.0"><title>2016-05-10</title></rect><rect fill="#444444" height="2.6" width="2.6" x="76.5" y="52.5"><title>2016-05-11</title></rect><rect fill="#444444" height="2.6" width="2.6" x="76.5" y="56.0"><title>2016-05-12</title></rect><rect fill="#444444" height="2.6" width="2.6" x="76.5" y="59.5"><title>2016-05-13</title></rect><rect fill="red" height="2.6" width="2.6" x="76.5" y="63.0"><title>2016-05-14 24.1 km</title></rect><rect fill="#ffdc00" height="2.6" width="2.6" x="76.5" y="66.5"><title>2016-05-15 10.4 km</title></rect><rect fill="#ffd700" height="2.6" width="2.6" x="80.0" y="45.5"><title>2016-05-16 11.3 km</title></rect><rect fill="#ffdf00" height="2.6" width="2.6" x="80.0" y="49.0"><title>2016-05-17 10.1 km</title></rect><rect fill="#ffdc00" height="2.6" width="2.6" x="80.0" y="52.5"><title>2016-05-18 10.5 km</title></rect><rect fill="#444444" height="2.6" width="2.6" x="80.0" y="56.0"><title>2016-05-19</title></rect><rect fill="#ffd700" height="2.6" width="2.6" x="80.0" y="59.5"><title>2016-05-20 11.2 km</title></rect><rect fill="#444444" height="2.6" width="2.6" x="80.0" y="63.0"><title>2016-05-21</title></rect><rect fill="red" height="2.6" width="2.6" x="80.0" y="66.5"><title>2016-05-22 21.2 km</title></rect><rect fill="#444444" height="2.6" width="2.6" x="83.5" y="45.5"><title>2016-05-23</title></rect><rect fill="#444444" height="2.6" width="2.6" x="83.5" y="49.0"><title>2016-05-24</title></rect><rect fill="#444444" height="2.6" width="2.6" x="83.5" y="52.5"><title>2016-05-25</title></rect><rect fill="#444444" height="2.6" width="2.6" x="83.5" y="56.0"><title>2016-05-26</title></rect><rect fill="#ffbe00" height="2.6" width="2.6" x="83.5" y="59.5"><title>2016-05-27 15.0 km</title></rect><rect fill="#444444" height="2.6" width="2.6" x="83.5" y="63.0"><title>2016-05-28</title></rect><rect fill="#444444" height="2.6" width="2.6" x="83.5" y="66.5"><title>2016-05-29</title></rect><rect fill="#444444" height="2.6" width="2.6" x="87.0" y="45.5"><title>2016-05-30</title></rect><rect fill="#ffdd00" height="2.6" width="2.6" x="87.0" y="49.0"><title>2016-05-31 10.3 km</title></rect><rect fill="#ffd200" height="2.6" width="2.6" x="87.0" y="52.5"><title>2016-06-01 12.1 km</title></rect><rect fill="#ffde00" height="2.6" width="2.6" x="87.0" y="56.0"><title>2016-06-02 10.2 km</title></rect><rect fill="#ffdd00" height="2.6" width="2.6" x="87.0" y="59.5"><title>2016-06-03 10.4 km</title></rect><rect fill="red" height="2.6" width="2.6" x="87.0" y="63.0"><title>2016-06-04 21.3 km</title></rect><rect fill="#ffd100" height="2.6" width="2.6" x="87.0" y="66.5"><title>2016-06-05 12.2 km</title></rect><rect fill="#ffde00" height="2.6" width="2.6" x="90.5" y="45.5"><title>2016-06-06 10.2 km</title></rect><rect fill="#ffd800" height="2.6" width="2.6" x="90.5" y="49.0"><title>2016-06-07 11.2 km</title></rect><rect fill="#ffdb00" height="2.6" width="2.6" x="90.5" y="52.5"><title>2016-06-08 10.7 km</title></rect><rect fill="#ffd700" height="2.6" width="2.6" x="90.5" y="56.0"><title>2016-06-09 11.2 km</title></rect><rect fill="#ffce00" height="2.6" width="2.6" x="90.5" y="59.5"><title>2016-06-10 12.6 km</title></rect><rect fill="#444444" height="2.6" width="2.6" x="90.5" y="63.0"><title>2016-06-11</title></rect><rect fill="#444444" height="2.6" width="2.6" x="90.5" y="66.5"><title>2016-06-12</title></rect><rect fill="#ffdd00" height="2.6" width="2.6" x="94.0" y="45.5"><title>2016-06-13 10.3 km</title></rect><rect fill="#ffde00" height="2.6" width="2.6" x="94.0" y="49.0"><title>2016-06-14 10.1 km</title></rect><rect fill="#ffde00" height="2.6" width="2.6" x="94.0" y="52.5"><title>2016-06-15 10.2 km</title></rect><rect fill="#444444" height="2.6" width="2.6" x="94.0" y="56.0"><title>2016-06-16</title></rect><rect fill="#ffde00" height="2.6" width="2.6" x="94.0" y="59.5"><title>2016-06-17 10.2 km</title></rect><rect fill="#ffd100" height="2.6" width="2.6" x="94.0" y="63.0"><title>2016-06-18 12.1 km</title></rect><rect fill="#ffd800" height="2.6" width="2.6" x="94.0" y="66.5"><title>2016-06-19 11.1 km</title></rect><rect fill="#444444" height="2.6" width="2.6" x="97.5" y="45.5"><title>2016-06-20</title></rect><rect fill="#ffd900" height="2.6" width="2.6" x="97.5" y="49.0"><title>2016-06-21 11.0 km</title></rect><rect fill="#444444" height="2.6" width="2.6" x="97.5" y="52.5"><title>2016-06-22</title></rect><rect fill="#ffdf00" height="2.6" width="2.6" x="97.5" y="56.0"><title>2016-06-23 10.1 km</title></rect><rect fill="#ffdf00" height="2.6" width="2.6" x="97.5" y="59.5"><title>2016-06-24 10.0 km</title></rect><rect fill="#444444" height="2.6" width="2.6" x="97.5" y="63.0"><title>2016-06-25</title></rect><rect fill="red" height="2.6" width="2.6" x="97.5" y="66.5"><title>2016-06-26 21.5 km</title></rect><rect fill="#444444" height="2.6" width="2.6" x="101.0" y="45.5"><title>2016-06-27</title></rect><rect fill="#444444" height="2.6" width="2.6" x="101.0" y="49.0"><title>2016-06-28</title></rect><rect fill="#444444" height="2.6" width="2.6" x="101.0" y="52.5"><title>2016-06-29</title></rect><rect fill="#ffd800" height="2.6" width="2.6" x="101.0" y="56.0"><title>2016-06-30 11.2 km</title></rect><rect fill="#ffdf00" height="2.6" width="2.6" x="101.0" y="59.5"><title>2016-07-01 10.1 km</title></rect><rect fill="#444444" height="2.6" width="2.6" x="101.0" y="63.0"><title>2016-07-02</title></rect><rect fill="#ffd800" height="2.6" width="2.6" x="101.0" y="66.5"><title>2016-07-03 11.1 km</title></rect><rect fill="#ffdf00" height="2.6" width="2.6" x="104.5" y="45.5"><title>2016-07-04 10.0 km</title></rect><rect fill="#444444" height="2.6" width="2.6" x="104.5" y="49.0"><title>2016-07-05</title></rect><rect fill="#ffdf00" height="2.6" width="2.6" x="104.5" y="52.5"><title>2016-07-06 10.1 km</title></rect><rect fill="#ffdf00" height="2.6" width="2.6" x="104.5" y="56.0"><title>2016-07-07 10.0 km</title></rect><rect fill="#444444" height="2.6" width="2.6" x="104.5" y="59.5"><title>2016-07-08</title></rect><rect fill="#444444" height="2.6" width="2.6" x="104.5" y="63.0"><title>2016-07-09</title></rect><rect fill="#444444" height="2.6" width="2.6" x="104.5" y="66.5"><title>2016-07-10</title></rect><rect fill="#444444" height="2.6" width="2.6" x="108.0" y="45.5"><title>2016-07-11</title></rect><rect fill="#ffde00" height="2.6" width="2.6" x="108.0" y="49.0"><title>2016-07-12 10.2 km</title></rect><rect fill="#ffde00" height="2.6" width="2.6" x="108.0" y="52.5"><title>2016-07-13 10.2 km</title></rect><rect fill="#444444" height="2.6" width="2.6" x="108.0" y="56.0"><title>2016-07-14</title></rect><rect fill="#444444" height="2.6" width="2.6" x="108.0" y="59.5"><title>2016-07-15</title></rect><rect fill="red" height="2.6" width="2.6" x="108.0" y="63.0"><title>2016-07-16 21.2 km</title></rect><rect fill="#444444" height="2.6" width="2.6" x="108.0" y="66.5"><title>2016-07-17</title></rect><rect fill="#ffdf00" height="2.6" width="2.6" x="111.5" y="45.5"><title>2016-07-18 10.1 km</title></rect><rect fill="#444444" height="2.6" width="2.6" x="111.5" y="49.0"><title>2016-07-19</title></rect><rect fill="#ffdf00" height="2.6" width="2.6" x="111.5" y="52.5"><title>2016-07-20 10.1 km</title></rect><rect fill="#444444" height="2.6" width="2.6" x="111.5" y="56.0"><title>2016-07-21</title></rect><rect fill="#4dd2ff" height="2.6" width="2.6" x="111.5" y="59.5"><title>2016-07-22 8.1 km</title></rect><rect fill="#4dd2ff" height="2.6" width="2.6" x="111.5" y="63.0"><title>2016-07-23 8.1 km</title></rect><rect fill="#ffdf00" height="2.6" width="2.6" x="111.5" y="66.5"><title>2016-07-24 10.1 km</title></rect><rect fill="#ffd800" height="2.6" width="2.6" x="115.0" y="45.5"><title>2016-07-25 11.1 km</title></rect><rect fill="#ffde00" height="2.6" width="2.6" x="115.0" y="49.0"><title>2016-07-26 10.3 km</title></rect><rect fill="#444444" height="2.6" width="2.6" x="115.0" y="52.5"><title>2016-07-27</title></rect><rect fill="#444444" height="2.6" width="2.6" x="115.0" y="56.0"><title>2016-07-28</title></rect><rect fill="#444444" height="2.6" width="2.6" x="115.0" y="59.5"><title>2016-07-29</title></rect><rect fill="#ffdf00" height="2.6" width="2.6" x="115.0" y="63.0"><title>2016-07-30 10.0 km</title></rect><rect fill="#ffde00" height="2.6" width="2.6" x="115.0" y="66.5"><title>2016-07-31 10.2 km</title></rect><rect fill="#ffdf00" height="2.6" width="2.6" x="118.5" y="45.5"><title>2016-08-01 10.1 km</title></rect><rect fill="#ffde00" height="2.6" width="2.6" x="118.5" y="49.0"><title>2016-08-02 10.2 km</title></rect><rect fill="#444444" height="2.6" width="2.6" x="118.5" y="52.5"><title>2016-08-03</title></rect><rect fill="#ffdf00" height="2.6" width="2.6" x="118.5" y="56.0"><title>2016-08-04 10.1 km</title></rect><rect fill="#ffdf00" height="2.6" width="2.6" x="118.5" y="59.5"><title>2016-08-05 10.1 km</title></rect><rect fill="#ffd800" height="2.6" width="2.6" x="118.5" y="63.0"><title>2016-08-06 11.2 km</title></rect><rect fill="#ffdf00" height="2.6" width="2.6" x="118.5" y="66.5"><title>2016-08-07 10.1 km</title></rect><rect fill="#4dd2ff" height="2.6" width="2.6" x="122.0" y="45.5"><title>2016-08-08 9.0 km</title></rect><rect fill="#444444" height="2.6" width="2.6" x="122.0" y="49.0"><title>2016-08-09</title></rect><rect fill="#444444" height="2.6" width="2.6" x="122.0" y="52.5"><title>2016-08-10</title></rect><rect fill="#ffdf00" height="2.6" width="2.6" x="122.0" y="56.0"><title>2016-08-11 10.0 km</title></rect><rect fill="#ffde00" height="2.6" width="2.6" x="122.0" y="59.5"><title>2016-08-12 10.2 km</title></rect><rect fill="#ffdf00" height="2.6" width="2.6" x="122.0" y="63.0"><title>2016-08-13 10.1 km</title></rect><rect fill="#444444" height="2.6" width="2.6" x="122.0" y="66.5"><title>2016-08-14</title></rect><rect fill="#ffde00" height="2.6" width="2.6" x="125.5" y="45.5"><title>2016-08-15 10.2 km</title></rect><rect fill="#ffdd00" height="2.6" width="2.6" x="125.5" y="49.0"><title>2016-08-16 10.3 km</title></rect><rect fill="#444444" height="2.6" width="2.6" x="125.5" y="52.5"><title>2016-08-17</title></rect><rect fill="#ffdf00" height="2.6" width="2.6" x="125.5" y="56.0"><title>2016-08-18 10.1 km</title></rect><rect fill="#ffde00" height="2.6" width="2.6" x="125.5" y="59.5"><title>2016-08-19 10.3 km</title></rect><rect fill="#ffce00" height="2.6" width="2.6" x="125.5" y="63.0"><title>2016-08-20 12.6 km</title></rect><rect fill="#4dd2ff" height="2.6" width="2.6" x="125.5" y="66.5"><title>2016-08-21 6.5 km</title></rect><rect fill="#ffde00" height="2.6" width="2.6" x="129.0" y="45.5"><title>2016-08-22 10.2 km</title></rect><rect fill="#ffdf00" height="2.6" width="2.6" x="129.0" y="49.0"><title>2016-08-23 10.1 km</title></rect><rect fill="#444444" height="2.6" width="2.6" x="129.0" y="52.5"><title>2016-08-24</title></rect><rect fill="#444444" height="2.6" width="2.6" x="129.0" y="56.0"><title>2016-08-25</title></rect><rect fill="#444444" height="2.6" width="2.6" x="129.0" y="59.5"><title>2016-08-26</title></rect><rect fill="#ffd200" height="2.6" width="2.6" x="129.0" y="63.0"><title>2016-08-27 12.0 km</title></rect><rect fill="#ffcb00" height="2.6" width="2.6" x="129.0" y="66.5"><title>2016-08-28 13.1 km</title></rect><rect fill="#444444" height="2.6" width="2.6" x="132.5" y="45.5"><title>2016-08-29</title></rect><rect fill="#444444" height="2.6" width="2.6" x="132.5" y="49.0"><title>2016-08-30</title></rect><rect fill="#ffde00" height="2.6" width="2.6" x="132.5" y="52.5"><title>2016-08-31 10.2 km</title></rect><rect fill="#444444" height="2.6" width="2.6" x="132.5" y="56.0"><title>2016-09-01</title></rect><rect fill="#ffde00" height="2.6" width="2.6" x="132.5" y="59.5"><title>2016-09-02 10.2 km</title></rect><rect fill="#444444" height="2.6" width="2.6" x="132.5" y="63.0"><title>2016-09-03</title></rect><rect fill="#444444" height="2.6" width="2.6" x="132.5" y="66.5"><title>2016-09-04</title></rect><rect fill="#ffdf00" height="2.6" width="2.6" x="136.0" y="45.5"><title>2016-09-05 10.0 km</title></rect><rect fill="#ffdf00" height="2.6" width="2.6" x="136.0" y="49.0"><title>2016-09-06 10.0 km</title></rect><rect fill="#444444" height="2.6" width="2.6" x="136.0" y="52.5"><title>2016-09-07</title></rect><rect fill="#ffd900" height="2.6" width="2.6" x="136.0" y="56.0"><title>2016-09-08 11.0 km</title></rect><rect fill="#444444" height="2.6" width="2.6" x="136.0" y="59.5"><title>2016-09-09</title></rect><rect fill="red" height="2.6" width="2.6" x="136.0" y="63.0"><title>2016-09-10 21.1 km</title></rect><rect fill="#444444" height="2.6" width="2.6" x="136.0" y="66.5"><title>2016-09-11</title></rect><rect fill="#ffd000" height="2.6" width="2.6" x="139.5" y="45.5"><title>2016-09-12 12.3 km</title></rect><rect fill="#ffdc00" height="2.6" width="2.6" x="139.5" y="49.0"><title>2016-09-13 10.5 km</title></rect><rect fill="#444444" height="2.6" width="2.6" x="139.5" y="52.5"><title>2016-09-14</title></rect><rect fill="#444444" height="2.6" width="2.6" x="139.5" y="56.0"><title>2016-09-15</title></rect><rect fill="#444444" height="2.6" width="2.6" x="139.5" y="59.5"><title>2016-09-16</title></rect><rect fill="red" height="2.6" width="2.6" x="139.5" y="63.0"><title>2016-09-17 21.2 km</title></rect><rect fill="#444444" height="2.6" width="2.6" x="139.5" y="66.5"><title>2016-09-18</title></rect><rect fill="#ffdf00" height="2.6" width="2.6" x="143.0" y="45.5"><title>2016-09-19 10.0 km</title></rect><rect fill="#ffd000" height="2.6" width="2.6" x="143.0" y="49.0"><title>2016-09-20 12.3 km</title></rect><rect fill="#ffde00" height="2.6" width="2.6" x="143.0" y="52.5"><title>2016-09-21 10.3 km</title></rect><rect fill="#ffd100" height="2.6" width="2.6" x="143.0" y="56.0"><title>2016-09-22 12.2 km</title></rect><rect fill="#ffdb00" height="2.6" width="2.6" x="143.0" y="59.5"><title>2016-09-23 10.6 km</title></rect><rect fill="#444444" height="2.6" width="2.6" x="143.0" y="63.0"><title>2016-09-24</title></rect><rect fill="#444444" height="2.6" width="2.6" x="143.0" y="66.5"><title>2016-09-25</title></rect><rect fill="#ffdf00" height="2.6" width="2.6" x="146.5" y="45.5"><title>2016-09-26 10.1 km</title></rect><rect fill="#ffd600" height="2.6" width="2.6" x="146.5" y="49.0"><title>2016-09-27 11.4 km</title></rect><rect fill="#444444" height="2.6" width="2.6" x="146.5" y="52.5"><title>2016-09-28</title></rect><rect fill="#ffd100" height="2.6" width="2.6" x="146.5" y="56.0"><title>2016-09-29 12.2 km</title></rect><rect fill="#ffde00" height="2.6" width="2.6" x="146.5" y="59.5"><title>2016-09-30 10.2 km</title></rect><rect fill="#444444" height="2.6" width="2.6" x="146.5" y="63.0"><title>2016-10-01</title></rect><rect fill="#444444" height="2.6" width="2.6" x="146.5" y="66.5"><title>2016-10-02</title></rect><rect fill="#444444" height="2.6" width="2.6" x="150.0" y="45.5"><title>2016-10-03</title></rect><rect fill="#444444" height="2.6" width="2.6" x="150.0" y="49.0"><title>2016-10-04</title></rect><rect fill="#444444" height="2.6" width="2.6" x="150.0" y="52.5"><title>2016-10-05</title></rect><rect fill="#ffd100" height="2.6" width="2.6" x="150.0" y="56.0"><title>2016-10-06 12.2 km</title></rect><rect fill="red" height="2.6" width="2.6" x="150.0" y="59.5"><title>2016-10-07 21.2 km</title></rect><rect fill="#444444" height="2.6" width="2.6" x="150.0" y="63.0"><title>2016-10-08</title></rect><rect fill="#ffdf00" height="2.6" width="2.6" x="150.0" y="66.5"><title>2016-10-09 10.1 km</title></rect><rect fill="#ffd100" height="2.6" width="2.6" x="153.5" y="45.5"><title>2016-10-10 12.1 km</title></rect><rect fill="#ffdf00" height="2.6" width="2.6" x="153.5" y="49.0"><title>2016-10-11 10.0 km</title></rect><rect fill="#ffd100" height="2.6" width="2.6" x="153.5" y="52.5"><title>2016-10-12 12.2 km</title></rect><rect fill="#444444" height="2.6" width="2.6" x="153.5" y="56.0"><title>2016-10-13</title></rect><rect fill="#ffd000" height="2.6" width="2.6" x="153.5" y="59.5"><title>2016-10-14 12.3 km</title></rect><rect fill="#ffd800" height="2.6" width="2.6" x="153.5" y="63.0"><title>2016-10-15 11.1 km</title></rect><rect fill="red" height="2.6" width="2.6" x="153.5" y="66.5"><title>2016-10-16 21.4 km</title></rect><rect fill="#ffd600" height="2.6" width="2.6" x="157.0" y="45.5"><title>2016-10-17 11.4 km</title></rect><rect fill="#ffde00" height="2.6" width="2.6" x="157.0" y="49.0"><title>2016-10-18 10.3 km</title></rect><rect fill="#444444" height="2.6" width="2.6" x="157.0" y="52.5"><title>2016-10-19</title></rect><rect fill="#444444" height="2.6" width="2.6" x="157.0" y="56.0"><title>2016-10-20</title></rect><rect fill="#4dd2ff" height="2.6" width="2.6" x="157.0" y="59.5"><title>2016-10-21 6.2 km</title></rect><rect fill="#444444" height="2.6" width="2.6" x="157.0" y="63.0"><title>2016-10-22</title></rect><rect fill="#444444" height="2.6" width="2.6" x="157.0" y="66.5"><title>2016-10-23</title></rect><rect fill="#444444" height="2.6" width="2.6" x="160.5" y="45.5"><title>2016-10-24</title></rect><rect fill="#444444" height="2.6" width="2.6" x="160.5" y="49.0"><title>2016-10-25</title></rect><rect fill="#444444" height="2.6" width="2.6" x="160.5" y="52.5"><title>2016-10-26</title></rect><rect fill="#ffd600" height="2.6" width="2.6" x="160.5" y="56.0"><title>2016-10-27 11.5 km</title></rect><rect fill="#ffdf00" height="2.6" width="2.6" x="160.5" y="59.5"><title>2016-10-28 10.1 km</title></rect><rect fill="#ffd700" height="2.6" width="2.6" x="160.5" y="63.0"><title>2016-10-29 11.3 km</title></rect><rect fill="red" height="2.6" width="2.6" x="160.5" y="66.5"><title>2016-10-30 43.7 km</title></rect><rect fill="#444444" height="2.6" width="2.6" x="164.0" y="45.5"><title>2016-10-31</title></rect><rect fill="#ffde00" height="2.6" width="2.6" x="164.0" y="49.0"><title>2016-11-01 10.2 km</title></rect><rect fill="#ffde00" height="2.6" width="2.6" x="164.0" y="52.5"><title>2016-11-02 10.2 km</title></rect><rect fill="#444444" height="2.6" width="2.6" x="164.0" y="56.0"><title>2016-11-03</title></rect><rect fill="#444444" height="2.6" width="2.6" x="164.0" y="59.5"><title>2016-11-04</title></rect><rect fill="#ffdf00" height="2.6" width="2.6" x="164.0" y="63.0"><title>2016-11-05 10.1 km</title></rect><rect fill="#444444" height="2.6" width="2.6" x="164.0" y="66.5"><title>2016-11-06</title></rect><rect fill="#ffd700" height="2.6" width="2.6" x="167.5" y="45.5"><title>2016-11-07 11.2 km</title></rect><rect fill="#444444" height="2.6" width="2.6" x="167.5" y="49.0"><title>2016-11-08</title></rect><rect fill="#ffd600" height="2.6" width="2.6" x="167.5" y="52.5"><title>2016-11-09 11.5 km</title></rect><rect fill="#ffd300" height="2.6" width="2.6" x="167.5" y="56.0"><title>2016-11-10 11.9 km</title></rect><rect fill="#444444" height="2.6" width="2.6" x="167.5" y="59.5"><title>2016-11-11</title></rect><rect fill="red" height="2.6" width="2.6" x="167.5" y="63.0"><title>2016-11-12 21.1 km</title></rect><rect fill="#ffdf00" height="2.6" width="2.6" x="167.5" y="66.5"><title>2016-11-13 10.1 km</title></rect><rect fill="#ffdf00" height="2.6" width="2.6" x="171.0" y="45.5"><title>2016-11-14 10.1 km</title></rect><rect fill="#444444" height="2.6" width="2.6" x="171.0" y="49.0"><title>2016-11-15</title></rect><rect fill="#ffd700" height="2.6" width="2.6" x="171.0" y="52.5"><title>2016-11-16 11.2 km</title></rect><rect fill="#444444" height="2.6" width="2.6" x="171.0" y="56.0"><title>2016-11-17</title></rect><rect fill="#444444" height="2.6" width="2.6" x="171.0" y="59.5"><title>2016-11-18</title></rect><rect fill="#444444" height="2.6" width="2.6" x="171.0" y="63.0"><title>2016-11-19</title></rect><rect fill="red" height="2.6" width="2.6" x="171.0" y="66.5"><title>2016-11-20 21.3 km</title></rect><rect fill="#ffde00" height="2.6" width="2.6" x="174.5" y="45.5"><title>2016-11-21 10.2 km</title></rect><rect fill="#ffd500" height="2.6" width="2.6" x="174.5" y="49.0"><title>2016-11-22 11.6 km</title></rect><rect fill="#444444" height="2.6" width="2.6" x="174.5" y="52.5"><title>2016-11-23</title></rect><rect fill="#444444" height="2.6" width="2.6" x="174.5" y="56.0"><title>2016-11-24</title></rect><rect fill="#444444" height="2.6" width="2.6" x="174.5" y="59.5"><title>2016-11-25</title></rect><rect fill="#444444" height="2.6" width="2.6" x="174.5" y="63.0"><title>2016-11-26</title></rect><rect fill="red" height="2.6" width="2.6" x="174.5" y="66.5"><title>2016-11-27 21.6 km</title></rect><rect fill="#444444" height="2.6" width="2.6" x="178.0" y="45.5"><title>2016-11-28</title></rect><rect fill="#ffd600" height="2.6" width="2.6" x="178.0" y="49.0"><title>2016-11-29 11.5 km</title></rect><rect fill="#ffdf00" height="2.6" width="2.6" x="178.0" y="52.5"><title>2016-11-30 10.0 km</title></rect><rect fill="#444444" height="2.6" width="2.6" x="178.0" y="56.0"><title>2016-12-01</title></rect><rect fill="#ffd200" height="2.6" width="2.6" x="178.0" y="59.5"><title>2016-12-02 12.0 km</title></rect><rect fill="red" height="2.6" width="2.6" x="178.0" y="63.0"><title>2016-12-03 21.2 km</title></rect><rect fill="#ffd800" height="2.6" width="2.6" x="178.0" y="66.5"><title>2016-12-04 11.2 km</title></rect><rect fill="#444444" height="2.6" width="2.6" x="181.5" y="45.5"><title>2016-12-05</title></rect><rect fill="#ffd700" height="2.6" width="2.6" x="181.5" y="49.0"><title>2016-12-06 11.3 km</title></rect><rect fill="#ffdc00" height="2.6" width="2.6" x="181.5" y="52.5"><title>2016-12-07 10.6 km</title></rect><rect fill="#444444" height="2.6" width="2.6" x="181.5" y="56.0"><title>2016-12-08</title></rect><rect fill="#ffd500" height="2.6" width="2.6" x="181.5" y="59.5"><title>2016-12-09 11.5 km</title></rect><rect fill="#444444" height="2.6" width="2.6" x="181.5" y="63.0"><title>2016-12-10</title></rect><rect fill="red" height="2.6" width="2.6" x="181.5" y="66.5"><title>2016-12-11 43.4 km</title></rect><rect fill="#4dd2ff" height="2.6" width="2.6" x="185.0" y="45.5"><title>2016-12-12 8.1 km</title></rect><rect fill="#ffd600" height="2.6" width="2.6" x="185.0" y="49.0"><title>2016-12-13 11.4 km</title></rect><rect fill="#ffd800" height="2.6" width="2.6" x="185.0" y="52.5"><title>2016-12-14 11.1 km</title></rect><rect fill="#ffd800" height="2.6" width="2.6" x="185.0" y="56.0"><title>2016-12-15 11.1 km</title></rect><rect fill="#444444" height="2.6" width="2.6" x="185.0" y="59.5"><title>2016-12-16</title></rect><rect fill="#ffd700" height="2.6" width="2.6" x="185.0" y="63.0"><title>2016-12-17 11.3 km</title></rect><rect fill="red" height="2.6" width="2.6" x="185.0" y="66.5"><title>2016-12-18 21.3 km</title></rect><rect fill="#ffdf00" height="2.6" width="2.6" x="188.5" y="45.5"><title>2016-12-19 10.1 km</title></rect><rect fill="#444444" height="2.6" width="2.6" x="188.5" y="49.0"><title>2016-12-20</title></rect><rect fill="#ffd100" height="2.6" width="2.6" x="188.5" y="52.5"><title>2016-12-21 12.2 km</title></rect><rect fill="#ffd600" height="2.6" width="2.6" x="188.5" y="56.0"><title>2016-12-22 11.5 km</title></rect><rect fill="#444444" height="2.6" width="2.6" x="188.5" y="59.5"><title>2016-12-23</title></rect><rect fill="red" height="2.6" width="2.6" x="188.5" y="63.0"><title>2016-12-24 21.6 km</title></rect><rect fill="#ffde00" height="2.6" width="2.6" x="188.5" y="66.5"><title>2016-12-25 10.2 km</title></rect><rect fill="#444444" height="2.6" width="2.6" x="192.0" y="45.5"><title>2016-12-26</title></rect><rect fill="#444444" height="2.6" width="2.6" x="192.0" y="49.0"><title>2016-12-27</title></rect><rect fill="#ffdf00" height="2.6" width="2.6" x="192.0" y="52.5"><title>2016-12-28 10.1 km</title></rect><rect fill="#ffd000" height="2.6" width="2.6" x="192.0" y="56.0"><title>2016-12-29 12.3 km</title></rect><rect fill="#ffd600" height="2.6" width="2.6" x="192.0" y="59.5"><title>2016-12-30 11.5 km</title></rect><rect fill="red" height="2.6" width="2.6" x="192.0" y="63.0"><title>2016-12-31 21.4 km</title></rect></svg>