<?xml version="1.0" encoding="utf-8" ?>
<svg baseProfile="full" height="98mm" version="1.1" viewBox="0,0,200,98" width="200mm" xmlns="http://www.w3.org/2000/svg" xmlns:ev="http://www.w3.org/2001/xml-events" xmlns:xlink="http://www.w3.org/1999/xlink"><defs /><rect fill="#222222" height="98" width="200" x="0" y="0" /><text fill="#FFFFFF" style="font-size:12px; font-family:Arial; font-weight:bold;" x="10" y="20">2018 Running</text><text fill="#FFFFFF" style="font-size:4px; font-family:Arial" x="10" y="78">Runner</text><text fill="#FFFFFF" style="font-size:9px; font-family:Arial" x="10" y="88">cigar</text><text fill="#FFFFFF" style="font-size:4px; font-family:Arial" x="65" y="78">SPECIAL TRACKS</text><rect fill="yellow" height="2.6" width="2.6" x="65" y="81" /><text fill="#FFFFFF" style="font-size:3px; font-family:Arial" x="70" y="83.5">Over 10.0 km</text><rect fill="red" height="2.6" width="2.6" x="65" y="85" /><text fill="#FFFFFF" style="font-size:3px; font-family:Arial" x="70" y="87.5">Over 20.0 km</text><text fill="#FFFFFF" style="font-size:4px; font-family:Arial" x="120" y="78">STATISTICS</text><text fill="#FFFFFF" style="font-size:3px; font-family:Arial" x="120" y="83">Number: 308</text><text fill="#FFFFFF" style="font-size:3px; font-family:Arial" x="120" y="88">Weekly: 5.9</text><text fill="#FFFFFF" style="font-size:3px; font-family:Arial" x="141" y="83">Total: 3822.4 km</text><text fill="#FFFFFF" style="font-size:3px; font-family:Arial" x="141" y="88">Avg: 12.4 km</text><text fill="#FFFFFF" style="font-size:3px; font-family:Arial" x="167" y="83">Min: 2.1 km</text><text fill="#FFFFFF" style="font-size:3px; font-family:Arial" x="167" y="88">Max: 42.9 km</text><text dominant-baseline="hanging" fill="#FFFFFF" style="font-size:10.0px; font-family:Arial;" x="10" y="30">2018</text><text dominant-baseline="hanging" fill="#FFFFFF" style="font-size:4.125px; font-family:Arial;" x="175" y="35">3822.4 km</text><text fill="#FFFFFF" style="font-size:2.5px; font-family:Arial" x="10.0" y="44">Jan</text><text fill="#FFFFFF" style="font-size:2.5px; font-family:Arial" x="25.5" y="44">Feb</text><text fill="#FFFFFF" style="font-size:2.5px; font-family:Arial" x="41.0" y="44">Mar</text><text fill="#FFFFFF" style="font-size:2.5px; font-family:Arial" x="56.5" y="44">Apr</text><text fill="#FFFFFF" style="font-size:2.5px; font-family:Arial" x="72.0" y="44">May</text><text fill="#FFFFFF" style="font-size:2.5px; font-family:Arial" x="87.5" y="44">Jun</text><text fill="#FFFFFF" style="font-size:2.5px; font-family:Arial" x="103.0" y="44">Jul</text><text fill="#FFFFFF" style="font-size:2.5px; font-family:Arial" x="118.5" y="44">Aug</text><text fill="#FFFFFF" style="font-size:2.5px; font-family:Arial" x="134.0" y="44">Sep</text><text fill="#FFFFFF" style="font-size:2.5px; font-family:Arial" x="149.5" y="44">Oct</text><text fill="#FFFFFF" style="font-size:2.5px; font-family:Arial" x="165.0" y="44">Nov</text><text fill="#FFFFFF" style="font-size:2.5px; font-family:Arial" x="180.5" y="44">Dec</text><rect fill="#4dd2ff" height="2.6" width="2.6" x="10.0" y="45.5"><title>2018-01-01 3.1 km</title></rect><rect fill="#ffad00" height="2.6" width="2.6" x="10.0" y="49.0"><title>2018-01-02 15.3 km</title></rect><rect fill="#444444" height="2.6" width="2.6" x="10.0" y="52.5"><title>2018-01-03</title></rect><rect fill="#444444" height="2.6" width="2.6" x="10.0" y="56.0"><title>2018-01-04</title></rect><rect fill="#ffc300" height="2.6" width="2.6" x="10.0" y="59.5"><title>2018-01-05 11.7 km</title></rect><rect fill="red" height="2.6" width="2.6" x="10.0" y="63.0"><title>2018-01-06 21.7 km</title></rect><rect fill="#444444" height="2.6" width="2.6" x="10.0" y="66.5"><title>2018-01-07</title></rect><rect fill="#444444" height="2.6" width="2.6" x="13.5" y="45.5"><title>2018-01-08</title></rect><rect fill="#ffc400" height="2.6" width="2.6" x="13.5" y="49.0"><title>2018-01-09 11.5 km</title></rect><rect fill="#444444" height="2.6" width="2.6" x="13.5" y="52.5"><title>2018-01-10</title></rect><rect fill="#ffc500" height="2.6" width="2.6" x="13.5" y="56.0"><title>2018-01-11 11.5 km</title></rect><rect fill="#ffc400" height="2.6" width="2.6" x="13.5" y="59.5"><title>2018-01-12 11.5 km</title></rect><rect fill="#444444" height="2.6" width="2.6" x="13.5" y="63.0"><title>2018-01-13</title></rect><rect fill="red" height="2.6" width="2.6" x="13.5" y="66.5"><title>2018-01-14 25.1 km</title></rect><rect fill="#ffac00" height="2.6" width="2.6" x="17.0" y="45.5"><title>2018-01-15 15.4 km</title></rect><rect fill="#444444" height="2.6" width="2.6" x="17.0" y="49.0"><title>2018-01-16</title></rect><rect fill="#444444" height="2.6" width="2.6" x="17.0" y="52.5"><title>2018-01-17</title></rect><rect fill="#444444" height="2.6" width="2.6" x="17.0" y="56.0"><title>2018-01-18</title></rect><rect fill="#444444" height="2.6" width="2.6" x="17.0" y="59.5"><title>2018-01-19</title></rect><rect fill="#ffae00" height="2.6" width="2.6" x="17.0" y="63.0"><title>2018-01-20 15.1 km</title></rect><rect fill="red" height="2.6" width="2.6" x="17.0" y="66.5"><title>2018-01-21 21.3 km</title></rect><rect fill="#ffad00" height="2.6" width="2.6" x="20.5" y="45.5"><title>2018-01-22 15.2 km</title></rect><rect fill="#ffc800" height="2.6" width="2.6" x="20.5" y="49.0"><title>2018-01-23 10.9 km</title></rect><rect fill="#ffbf00" height="2.6" width="2.6" x="20.5" y="52.5"><title>2018-01-24 12.4 km</title></rect><rect fill="#ffc300" height="2.6" width="2.6" x="20.5" y="56.0"><title>2018-01-25 11.7 km</title></rect><rect fill="#ffc100" height="2.6" width="2.6" x="20.5" y="59.5"><title>2018-01-26 12.1 km</title></rect><rect fill="red" height="2.6" width="2.6" x="20.5" y="63.0"><title>2018-01-27 21.2 km</title></rect><rect fill="#ffcb00" height="2.6" width="2.6" x="20.5" y="66.5"><title>2018-01-28 10.5 km</title></rect><rect fill="#444444" height="2.6" width="2.6" x="24.0" y="45.5"><title>2018-01-29</title></rect><rect fill="#444444" height="2.6" width="2.6" x="24.0" y="49.0"><title>2018-01-30</title></rect><rect fill="#444444" height="2.6" width="2.6" x="24.0" y="52.5"><title>2018-01-31</title></rect><rect fill="#4dd2ff" height="2.6" width="2.6" x="24.0" y="56.0"><title>2018-02-01 8.6 km</title></rect><rect fill="#444444" height="2.6" width="2.6" x="24.0" y="59.5"><title>2018-02-02</title></rect><rect fill="red" height="2.6" width="2.6" x="24.0" y="63.0"><title>2018-02-03 21.2 km</title></rect><rect fill="#ffab00" height="2.6" width="2.6" x="24.0" y="66.5"><title>2018-02-04 15.6 km</title></rect><rect fill="#ffbf00" height="2.6" width="2.6" x="27.5" y="45.5"><title>2018-02-05 12.3 km</title></rect><rect fill="#ffbd00" height="2.6" width="2.6" x="27.5" y="49.0"><title>2018-02-06 12.8 km</title></rect><rect fill="#ffc000" height="2.6" width="2.6" x="27.5" y="52.5"><title>2018-02-07 12.3 km</title></rect><rect fill="#444444" height="2.6" width="2.6" x="27.5" y="56.0"><title>2018-02-08</title></rect><rect fill="#444444" height="2.6" width="2.6" x="27.5" y="59.5"><title>2018-02-09</title></rect><rect fill="#444444" height="2.6" width="2.6" x="27.5" y="63.0"><title>2018-02-10</title></rect><rect fill="#444444" height="2.6" width="2.6" x="27.5" y="66.5"><title>2018-02-11</title></rect><rect fill="#ffc400" height="2.6" width="2.6" x="31.0" y="45.5"><title>2018-02-12 11.6 km</title></rect><rect fill="#444444" height="2.6" width="2.6" x="31.0" y="49.0"><title>2018-02-13</title></rect><rect fill="#ffb800" height="2.6" width="2.6" x="31.0" y="52.5"><title>2018-02-14 13.4 km</title></rect><rect fill="#444444" height="2.6" width="2.6" x="31.0" y="56.0"><title>2018-02-15</title></rect><rect fill="#ffc400" height="2.6" width="2.6" x="31.0" y="59.5"><title>2018-02-16 11.5 km</title></rect><rect fill="#444444" height="2.6" width="2.6" x="31.0" y="63.0"><title>2018-02-17</title></rect><rect fill="red" height="2.6" width="2.6" x="31.0" y="66.5"><title>2018-02-18 25.0 km</title></rect><rect fill="#ffac00" height="2.6" width="2.6" x="34.5" y="45.5"><title>2018-02-19 15.4 km</title></rect><rect fill="#ffc500" height="2.6" width="2.6" x="34.5" y="49.0"><title>2018-02-20 11.5 km</title></rect><rect fill="#ffc300" height="2.6" width="2.6" x="34.5" y="52.5"><title>2018-02-21 11.7 km</title></rect><rect fill="#ffad00" height="2.6" width="2.6" x="34.5" y="56.0"><title>2018-02-22 15.2 km</title></rect><rect fill="#ffbe00" height="2.6" width="2.6" x="34.5" y="59.5"><title>2018-02-23 12.5 km</title></rect><rect fill="#ffc000" height="2.6" width="2.6" x="34.5" y="63.0"><title>2018-02-24 12.2 km</title></rect><rect fill="red" height="2.6" width="2.6" x="34.5" y="66.5"><title>2018-02-25 22.3 km</title></rect><rect fill="#ffad00" height="2.6" width="2.6" x="38.0" y="45.5"><title>2018-02-26 15.3 km</title></rect><rect fill="#ffbd00" height="2.6" width="2.6" x="38.0" y="49.0"><title>2018-02-27 12.6 km</title></rect><rect fill="#ffc700" height="2.6" width="2.6" x="38.0" y="52.5"><title>2018-02-28 11.1 km</title></rect><rect fill="#ffc200" height="2.6" width="2.6" x="38.0" y="56.0"><title>2018-03-01 11.9 km</title></rect><rect fill="#ffbd00" height="2.6" width="2.6" x="38.0" y="59.5"><title>2018-03-02 12.7 km</title></rect><rect fill="#ffad00" height="2.6" width="2.6" x="38.0" y="63.0"><title>2018-03-03 15.2 km</title></rect><rect fill="red" height="2.6" width="2.6" x="38.0" y="66.5"><title>2018-03-04 25.2 km</title></rect><rect fill="#4dd2ff" height="2.6" width="2.6" x="41.5" y="45.5"><title>2018-03-05 8.1 km</title></rect><rect fill="#ffbe00" height="2.6" width="2.6" x="41.5" y="49.0"><title>2018-03-06 12.6 km</title></rect><rect fill="#ffbd00" height="2.6" width="2.6" x="41.5" y="52.5"><title>2018-03-07 12.6 km</title></rect><rect fill="#ffc100" height="2.6" width="2.6" x="41.5" y="56.0"><title>2018-03-08 12.1 km</title></rect><rect fill="#ffc100" height="2.6" width="2.6" x="41.5" y="59.5"><title>2018-03-09 12.1 km</title></rect><rect fill="red" height="2.6" width="2.6" x="41.5" y="63.0"><title>2018-03-10 21.4 km</title></rect><rect fill="#ffcb00" height="2.6" width="2.6" x="41.5" y="66.5"><title>2018-03-11 10.5 km</title></rect><rect fill="#ffac00" height="2.6" width="2.6" x="45.0" y="45.5"><title>2018-03-12 15.4 km</title></rect><rect fill="#ffbd00" height="2.6" width="2.6" x="45.0" y="49.0"><title>2018-03-13 12.7 km</title></rect><rect fill="#ffbe00" height="2.6" width="2.6" x="45.0" y="52.5"><title>2018-03-14 12.5 km</title></rect><rect fill="#4dd2ff" height="2.6" width="2.6" x="45.0" y="56.0"><title>2018-03-15 8.7 km</title></rect><rect fill="#ffbd00" height="2.6" width="2.6" x="45.0" y="59.5"><title>2018-03-16 12.6 km</title></rect><rect fill="red" height="2.6" width="2.6" x="45.0" y="63.0"><title>2018-03-17 21.7 km</title></rect><rect fill="#ffcd00" height="2.6" width="2.6" x="45.0" y="66.5"><title>2018-03-18 10.1 km</title></rect><rect fill="#ffbd00" height="2.6" width="2.6" x="48.5" y="45.5"><title>2018-03-19 12.7 km</title></rect><rect fill="#ffca00" height="2.6" width="2.6" x="48.5" y="49.0"><title>2018-03-20 10.6 km</title></rect><rect fill="#ffc900" height="2.6" width="2.6" x="48.5" y="52.5"><title>2018-03-21 10.7 km</title></rect><rect fill="#ffcd00" height="2.6" width="2.6" x="48.5" y="56.0"><title>2018-03-22 10.1 km</title></rect><rect fill="#4dd2ff" height="2.6" width="2.6" x="48.5" y="59.5"><title>2018-03-23 6.7 km</title></rect><rect fill="#ffcc00" height="2.6" width="2.6" x="48.5" y="63.0"><title>2018-03-24 10.2 km</title></rect><rect fill="red" height="2.6" width="2.6" x="48.5" y="66.5"><title>2018-03-25 42.9 km</title></rect><rect fill="#4dd2ff" height="2.6" width="2.6" x="52.0" y="45.5"><title>2018-03-26 6.5 km</title></rect><rect fill="#4dd2ff" height="2.6" width="2.6" x="52.0" y="49.0"><title>2018-03-27 8.4 km</title></rect><rect fill="#ffc100" height="2.6" width="2.6" x="52.0" y="52.5"><title>2018-03-28 12.0 km</title></rect><rect fill="#4dd2ff" height="2.6" width="2.6" x="52.0" y="56.0"><title>2018-03-29 9.5 km</title></rect><rect fill="#ffc100" height="2.6" width="2.6" x="52.0" y="59.5"><title>2018-03-30 12.0 km</title></rect><rect fill="#444444" height="2.6" width="2.6" x="52.0" y="63.0"><title>2018-03-31</title></rect><rect fill="#444444" height="2.6" width="2.6" x="52.0" y="66.5"><title>2018-04-01</title></rect><rect fill="#ffce00" height="2.6" width="2.6" x="55.5" y="45.5"><title>2018-04-02 10.1 km</title></rect><rect fill="#ffbe00" height="2.6" width="2.6" x="55.5" y="49.0"><title>2018-04-03 12.6 km</title></rect><rect fill="#ffbd00" height="2.6" width="2.6" x="55.5" y="52.5"><title>2018-04-04 12.7 km</title></rect><rect fill="#ffbd00" height="2.6" width="2.6" x="55.5" y="56.0"><title>2018-04-05 12.7 km</title></rect><rect fill="#ffbd00" height="2.6" width="2.6" x="55.5" y="59.5"><title>2018-04-06 12.6 km</title></rect><rect fill="red" height="2.6" width="2.6" x="55.5" y="63.0"><title>2018-04-07 21.2 km</title></rect><rect fill="#ffbd00" height="2.6" width="2.6" x="55.5" y="66.5"><title>2018-04-08 12.6 km</title></rect><rect fill="#ffbd00" height="2.6" width="2.6" x="59.0" y="45.5"><title>2018-04-09 12.6 km</title></rect><rect fill="#ffb100" height="2.6" width="2.6" x="59.0" y="49.0"><title>2018-04-10 14.6 km</title></rect><rect fill="#ffbd00" height="2.6" width="2.6" x="59.0" y="52.5"><title>2018-04-11 12.7 km</title></rect><rect fill="#ffbd00" height="2.6" width="2.6" x="59.0" y="56.0"><title>2018-04-12 12.6 km</title></rect><rect fill="#ffbe00" height="2.6" width="2.6" x="59.0" y="59.5"><title>2018-04-13 12.5 km</title></rect><rect fill="#444444" height="2.6" width="2.6" x="59.0" y="63.0"><title>2018-04-14</title></rect><rect fill="red" height="2.6" width="2.6" x="59.0" y="66.5"><title>2018-04-15 25.2 km</title></rect><rect fill="#444444" height="2.6" width="2.6" x="62.5" y="45.5"><title>2018-04-16</title></rect><rect fill="#ffbd00" height="2.6" width="2.6" x="62.5" y="49.0"><title>2018-04-17 12.8 km</title></rect><rect fill="#ffbd00" height="2.6" width="2.6" x="62.5" y="52.5"><title>2018-04-18 12.6 km</title></rect><rect fill="#ffbe00" height="2.6" width="2.6" x="62.5" y="56.0"><title>2018-04-19 12.6 km</title></rect><rect fill="#ffbd00" height="2.6" width="2.6" x="62.5" y="59.5"><title>2018-04-20 12.6 km</title></rect><rect fill="#ffae00" height="2.6" width="2.6" x="62.5" y="63.0"><title>2018-04-21 15.1 km</title></rect><rect fill="red" height="2.6" width="2.6" x="62.5" y="66.5"><title>2018-04-22 21.3 km</title></rect><rect fill="#ffc000" height="2.6" width="2.6" x="66.0" y="45.5"><title>2018-04-23 12.2 km</title></rect><rect fill="#ffbd00" height="2.6" width="2.6" x="66.0" y="49.0"><title>2018-04-24 12.6 km</title></rect><rect fill="#ffcd00" height="2.6" width="2.6" x="66.0" y="52.5"><title>2018-04-25 10.2 km</title></rect><rect fill="#ffcd00" height="2.6" width="2.6" x="66.0" y="56.0"><title>2018-04-26 10.2 km</title></rect><rect fill="#ffbd00" height="2.6" width="2.6" x="66.0" y="59.5"><title>2018-04-27 12.6 km</title></rect><rect fill="#444444" height="2.6" width="2.6" x="66.0" y="63.0"><title>2018-04-28</title></rect><rect fill="#444444" height="2.6" width="2.6" x="66.0" y="66.5"><title>2018-04-29</title></rect><rect fill="#ffcc00" height="2.6" width="2.6" x="69.5" y="45.5"><title>2018-04-30 10.4 km</title></rect><rect fill="#ffad00" height="2.6" width="2.6" x="69.5" y="49.0"><title>2018-05-01 15.2 km</title></rect><rect fill="#ffad00" height="2.6" width="2.6" x="69.5" y="52.5"><title>2018-05-02 15.2 km</title></rect><rect fill="#ffad00" height="2.6" width="2.6" x="69.5" y="56.0"><title>2018-05-03 15.3 km</title></rect><rect fill="#ffac00" height="2.6" width="2.6" x="69.5" y="59.5"><title>2018-05-04 15.3 km</title></rect><rect fill="red" height="2.6" width="2.6" x="69.5" y="63.0"><title>2018-05-05 21.4 km</title></rect><rect fill="#ffcb00" height="2.6" width="2.6" x="69.5" y="66.5"><title>2018-05-06 10.4 km</title></rect><rect fill="#ffac00" height="2.6" width="2.6" x="73.0" y="45.5"><title>2018-05-07 15.4 km</title></rect><rect fill="#ffac00" height="2.6" width="2.6" x="73.0" y="49.0"><title>2018-05-08 15.4 km</title></rect><rect fill="#ffcc00" height="2.6" width="2.6" x="73.0" y="52.5"><title>2018-05-09 10.4 km</title></rect><rect fill="#ffca00" height="2.6" width="2.6" x="73.0" y="56.0"><title>2018-05-10 10.6 km</title></rect><rect fill="#ffac00" height="2.6" width="2.6" x="73.0" y="59.5"><title>2018-05-11 15.4 km</title></rect><rect fill="#4dd2ff" height="2.6" width="2.6" x="73.0" y="63.0"><title>2018-05-12 9.9 km</title></rect><rect fill="#444444" height="2.6" width="2.6" x="73.0" y="66.5"><title>2018-05-13</title></rect><rect fill="#ffb800" height="2.6" width="2.6" x="76.5" y="45.5"><title>2018-05-14 13.5 km</title></rect><rect fill="#ffcc00" height="2.6" width="2.6" x="76.5" y="49.0"><title>2018-05-15 10.2 km</title></rect><rect fill="#ffae00" height="2.6" width="2.6" x="76.5" y="52.5"><title>2018-05-16 15.1 km</title></rect><rect fill="#ffcc00" height="2.6" width="2.6" x="76.5" y="56.0"><title>2018-05-17 10.3 km</title></rect><rect fill="#ffc600" height="2.6" width="2.6" x="76.5" y="59.5"><title>2018-05-18 11.2 km</title></rect><rect fill="#444444" height="2.6" width="2.6" x="76.5" y="63.0"><title>2018-05-19</title></rect><rect fill="#ffce00" height="2.6" width="2.6" x="76.5" y="66.5"><title>2018-05-20 10.0 km</title></rect><rect fill="#4dd2ff" height="2.6" width="2.6" x="80.0" y="45.5"><title>2018-05-21 9.9 km</title></rect><rect fill="#ffcc00" height="2.6" width="2.6" x="80.0" y="49.0"><title>2018-05-22 10.3 km</title></rect><rect fill="#ffac00" height="2.6" width="2.6" x="80.0" y="52.5"><title>2018-05-23 15.4 km</title></rect><rect fill="#ffad00" height="2.6" width="2.6" x="80.0" y="56.0"><title>2018-05-24 15.2 km</title></rect><rect fill="#444444" height="2.6" width="2.6" x="80.0" y="59.5"><title>2018-05-25</title></rect><rect fill="red" height="2.6" width="2.6" x="80.0" y="63.0"><title>2018-05-26 22.5 km</title></rect><rect fill="#ffca00" height="2.6" width="2.6" x="80.0" y="66.5"><title>2018-05-27 10.6 km</title></rect><rect fill="#ffc500" height="2.6" width="2.6" x="83.5" y="45.5"><title>2018-05-28 11.4 km</title></rect><rect fill="#444444" height="2.6" width="2.6" x="83.5" y="49.0"><title>2018-05-29</title></rect><rect fill="#444444" height="2.6" width="2.6" x="83.5" y="52.5"><title>2018-05-30</title></rect><rect fill="#ffc000" height="2.6" width="2.6" x="83.5" y="56.0"><title>2018-05-31 12.2 km</title></rect><rect fill="#ffc900" height="2.6" width="2.6" x="83.5" y="59.5"><title>2018-06-01 10.7 km</title></rect><rect fill="red" height="2.6" width="2.6" x="83.5" y="63.0"><title>2018-06-02 22.5 km</title></rect><rect fill="#ffb400" height="2.6" width="2.6" x="83.5" y="66.5"><title>2018-06-03 14.1 km</title></rect><rect fill="#ffc500" height="2.6" width="2.6" x="87.0" y="45.5"><title>2018-06-04 11.4 km</title></rect><rect fill="#ffc500" height="2.6" width="2.6" x="87.0" y="49.0"><title>2018-06-05 11.3 km</title></rect><rect fill="#ffc500" height="2.6" width="2.6" x="87.0" y="52.5"><title>2018-06-06 11.3 km</title></rect><rect fill="#ffc600" height="2.6" width="2.6" x="87.0" y="56.0"><title>2018-06-07 11.3 km</title></rect><rect fill="#ffcd00" height="2.6" width="2.6" x="87.0" y="59.5"><title>2018-06-08 10.1 km</title></rect><rect fill="#444444" height="2.6" width="2.6" x="87.0" y="63.0"><title>2018-06-09</title></rect><rect fill="#ffcd00" height="2.6" width="2.6" x="87.0" y="66.5"><title>2018-06-10 10.2 km</title></rect><rect fill="#ffcc00" height="2.6" width="2.6" x="90.5" y="45.5"><title>2018-06-11 10.3 km</title></rect><rect fill="#444444" height="2.6" width="2.6" x="90.5" y="49.0"><title>2018-06-12</title></rect><rect fill="#4dd2ff" height="2.6" width="2.6" x="90.5" y="52.5"><title>2018-06-13 5.3 km</title></rect><rect fill="#444444" height="2.6" width="2.6" x="90.5" y="56.0"><title>2018-06-14</title></rect><rect fill="#ffc100" height="2.6" width="2.6" x="90.5" y="59.5"><title>2018-06-15 12.1 km</title></rect><rect fill="red" height="2.6" width="2.6" x="90.5" y="63.0"><title>2018-06-16 21.2 km</title></rect><rect fill="#ffc600" height="2.6" width="2.6" x="90.5" y="66.5"><title>2018-06-17 11.3 km</title></rect><rect fill="#4dd2ff" height="2.6" width="2.6" x="94.0" y="45.5"><title>2018-06-18 6.9 km</title></rect><rect fill="#ffc600" height="2.6" width="2.6" x="94.0" y="49.0"><title>2018-06-19 11.2 km</title></rect><rect fill="#444444" height="2.6" width="2.6" x="94.0" y="52.5"><title>2018-06-20</title></rect><rect fill="#ffbb00" height="2.6" width="2.6" x="94.0" y="56.0"><title>2018-06-21 13.1 km</title></rect><rect fill="#444444" height="2.6" width="2.6" x="94.0" y="59.5"><title>2018-06-22</title></rect><rect fill="#ffcc00" height="2.6" width="2.6" x="94.0" y="63.0"><title>2018-06-23 10.3 km</title></rect><rect fill="red" height="2.6" width="2.6" x="94.0" y="66.5"><title>2018-06-24 21.3 km</title></rect><rect fill="#ffc500" height="2.6" width="2.6" x="97.5" y="45.5"><title>2018-06-25 11.4 km</title></rect><rect fill="#ffcc00" height="2.6" width="2.6" x="97.5" y="49.0"><title>2018-06-26 10.2 km</title></rect><rect fill="#ffcc00" height="2.6" width="2.6" x="97.5" y="52.5"><title>2018-06-27 10.2 km</title></rect><rect fill="#ffce00" height="2.6" width="2.6" x="97.5" y="56.0"><title>2018-06-28 10.0 km</title></rect><rect fill="#ffc600" height="2.6" width="2.6" x="97.5" y="59.5"><title>2018-06-29 11.2 km</title></rect><rect fill="#4dd2ff" height="2.6" width="2.6" x="97.5" y="63.0"><title>2018-06-30 5.6 km</title></rect><rect fill="#ffc900" height="2.6" width="2.6" x="97.5" y="66.5"><title>2018-07-01 10.8 km</title></rect><rect fill="#ffcc00" height="2.6" width="2.6" x="101.0" y="45.5"><title>2018-07-02 10.2 km</title></rect><rect fill="#444444" height="2.6" width="2.6" x="101.0" y="49.0"><title>2018-07-03</title></rect><rect fill="#ffcd00" height="2.6" width="2.6" x="101.0" y="52.5"><title>2018-07-04 10.2 km</title></rect><rect fill="#ffc600" height="2.6" width="2.6" x="101.0" y="56.0"><title>2018-07-05 11.3 km</title></rect><rect fill="#ffc600" height="2.6" width="2.6" x="101.0" y="59.5"><title>2018-07-06 11.2 km</title></rect><rect fill="#ffcc00" height="2.6" width="2.6" x="101.0" y="63.0"><title>2018-07-07 10.2 km</title></rect><rect fill="#ffbf00" height="2.6" width="2.6" x="101.0" y="66.5"><title>2018-07-08 12.3 km</title></rect><rect fill="#ffc500" height="2.6" width="2.6" x="104.5" y="45.5"><title>2018-07-09 11.4 km</title></rect><rect fill="#4dd2ff" height="2.6" width="2.6" x="104.5" y="49.0"><title>2018-07-10 8.4 km</title></rect><rect fill="#ffcc00" height="2.6" width="2.6" x="104.5" y="52.5"><title>2018-07-11 10.3 km</title></rect><rect fill="#4dd2ff" height="2.6" width="2.6" x="104.5" y="56.0"><title>2018-07-12 9.6 km</title></rect><rect fill="#ffc800" height="2.6" width="2.6" x="104.5" y="59.5"><title>2018-07-13 10.9 km</title></rect><rect fill="#ffcc00" height="2.6" width="2.6" x="104.5" y="63.0"><title>2018-07-14 10.3 km</title></rect><rect fill="#ffc600" height="2.6" width="2.6" x="104.5" y="66.5"><title>2018-07-15 11.3 km</title></rect><rect fill="#ffc500" height="2.6" width="2.6" x="108.0" y="45.5"><title>2018-07-16 11.4 km</title></rect><rect fill="#444444" height="2.6" width="2.6" x="108.0" y="49.0"><title>2018-07-17</title></rect><rect fill="#ffc600" height="2.6" width="2.6" x="108.0" y="52.5"><title>2018-07-18 11.3 km</title></rect><rect fill="#ffcd00" height="2.6" width="2.6" x="108.0" y="56.0"><title>2018-07-19 10.2 km</title></rect><rect fill="#4dd2ff" height="2.6" width="2.6" x="108.0" y="59.5"><title>2018-07-20 8.1 km</title></rect><rect fill="#ffbd00" height="2.6" width="2.6" x="108.0" y="63.0"><title>2018-07-21 12.8 km</title></rect><rect fill="#ffc600" height="2.6" width="2.6" x="108.0" y="66.5"><title>2018-07-22 11.2 km</title></rect><rect fill="#ffce00" height="2.6" width="2.6" x="111.5" y="45.5"><title>2018-07-23 10.0 km</title></rect><rect fill="#4dd2ff" height="2.6" width="2.6" x="111.5" y="49.0"><title>2018-07-24 8.2 km</title></rect><rect fill="#444444" height="2.6" width="2.6" x="111.5" y="52.5"><title>2018-07-25</title></rect><rect fill="#4dd2ff" height="2.6" width="2.6" x="111.5" y="56.0"><title>2018-07-26 7.9 km</title></rect><rect fill="#ffc700" height="2.6" width="2.6" x="111.5" y="59.5"><title>2018-07-27 11.2 km</title></rect><rect fill="#ffcb00" height="2.6" width="2.6" x="111.5" y="63.0"><title>2018-07-28 10.5 km</title></rect><rect fill="#4dd2ff" height="2.6" width="2.6" x="111.5" y="66.5"><title>2018-07-29 6.3 km</title></rect><rect fill="#ffcd00" height="2.6" width="2.6" x="115.0" y="45.5"><title>2018-07-30 10.2 km</title></rect><rect fill="#ffc600" height="2.6" width="2.6" x="115.0" y="49.0"><title>2018-07-31 11.2 km</title></rect><rect fill="#ffcd00" height="2.6" width="2.6" x="115.0" y="52.5"><title>2018-08-01 10.2 km</title></rect><rect fill="#4dd2ff" height="2.6" width="2.6" x="115.0" y="56.0"><title>2018-08-02 7.1 km</title></rect><rect fill="#444444" height="2.6" width="2.6" x="115.0" y="59.5"><title>2018-08-03</title></rect><rect fill="#4dd2ff" height="2.6" width="2.6" x="115.0" y="63.0"><title>2018-08-04 6.7 km</title></rect><rect fill="#ffcd00" height="2.6" width="2.6" x="115.0" y="66.5"><title>2018-08-05 10.1 km</title></rect><rect fill="#ffcd00" height="2.6" width="2.6" x="118.5" y="45.5"><title>2018-08-06 10.1 km</title></rect><rect fill="#ffcd00" height="2.6" width="2.6" x="118.5" y="49.0"><title>2018-08-07 10.1 km</title></rect><rect fill="#ffc800" height="2.6" width="2.6" x="118.5" y="52.5"><title>2018-08-08 11.0 km</title></rect><rect fill="#ffc600" height="2.6" width="2.6" x="118.5" y="56.0"><title>2018-08-09 11.3 km</title></rect><rect fill="#4dd2ff" height="2.6" width="2.6" x="118.5" y="59.5"><title>2018-08-10 8.1 km</title></rect><rect fill="#ffcc00" height="2.6" width="2.6" x="118.5" y="63.0"><title>2018-08-11 10.3 km</title></rect><rect fill="#444444" height="2.6" width="2.6" x="118.5" y="66.5"><title>2018-08-12</title></rect><rect fill="#ffcd00" height="2.6" width="2.6" x="122.0" y="45.5"><title>2018-08-13 10.1 km</title></rect><rect fill="#4dd2ff" height="2.6" width="2.6" x="122.0" y="49.0"><title>2018-08-14 8.8 km</title></rect><rect fill="#4dd2ff" height="2.6" width="2.6" x="122.0" y="52.5"><title>2018-08-15 8.1 km</title></rect><rect fill="#ffcc00" height="2.6" width="2.6" x="122.0" y="56.0"><title>2018-08-16 10.3 km</title></rect><rect fill="#444444" height="2.6" width="2.6" x="122.0" y="59.5"><title>2018-08-17</title></rect><rect fill="#ffc700" height="2.6" width="2.6" x="122.0" y="63.0"><title>2018-08-18 11.1 km</title></rect><rect fill="#4dd2ff" height="2.6" width="2.6" x="122.0" y="66.5"><title>2018-08-19 2.1 km</title></rect><rect fill="#ffcd00" height="2.6" width="2.6" x="125.5" y="45.5"><title>2018-08-20 10.1 km</title></rect><rect fill="#4dd2ff" height="2.6" width="2.6" x="125.5" y="49.0"><title>2018-08-21 7.5 km</title></rect><rect fill="#4dd2ff" height="2.6" width="2.6" x="125.5" y="52.5"><title>2018-08-22 5.6 km</title></rect><rect fill="#ffcd00" height="2.6" width="2.6" x="125.5" y="56.0"><title>2018-08-23 10.1 km</title></rect><rect fill="#ffc700" height="2.6" width="2.6" x="125.5" y="59.5"><title>2018-08-24 11.2 km</title></rect><rect fill="#ffb400" height="2.6" width="2.6" x="125.5" y="63.0"><title>2018-08-25 14.2 km</title></rect><rect fill="#ffbf00" height="2.6" width="2.6" x="125.5" y="66.5"><title>2018-08-26 12.4 km</title></rect><rect fill="#ffc400" height="2.6" width="2.6" x="129.0" y="45.5"><title>2018-08-27 11.6 km</title></rect><rect fill="#ffc300" height="2.6" width="2.6" x="129.0" y="49.0"><title>2018-08-28 11.7 km</title></rect><rect fill="#ffc600" height="2.6" width="2.6" x="129.0" y="52.5"><title>2018-08-29 11.2 km</title></rect><rect fill="#ffcd00" height="2.6" width="2.6" x="129.0" y="56.0"><title>2018-08-30 10.2 km</title></rect><rect fill="#444444" height="2.6" width="2.6" x="129.0" y="59.5"><title>2018-08-31</title></rect><rect fill="#ffbe00" height="2.6" width="2.6" x="129.0" y="63.0"><title>2018-09-01 12.6 km</title></rect><rect fill="#ffb300" height="2.6" width="2.6" x="129.0" y="66.5"><title>2018-09-02 14.2 km</title></rect><rect fill="#ffcc00" height="2.6" width="2.6" x="132.5" y="45.5"><title>2018-09-03 10.2 km</title></rect><rect fill="#4dd2ff" height="2.6" width="2.6" x="132.5" y="49.0"><title>2018-09-04 8.7 km</title></rect><rect fill="#ffcb00" height="2.6" width="2.6" x="132.5" y="52.5"><title>2018-09-05 10.5 km</title></rect><rect fill="#4dd2ff" height="2.6" width="2.6" x="132.5" y="56.0"><title>2018-09-06 4.2 km</title></rect><rect fill="#4dd2ff" height="2.6" width="2.6" x="132.5" y="59.5"><title>2018-09-07 3.9 km</title></rect><rect fill="red" height="2.6" width="2.6" x="132.5" y="63.0"><title>2018-09-08 21.9 km</title></rect><rect fill="#ffcd00" height="2.6" width="2.6" x="132.5" y="66.5"><title>2018-09-09 10.1 km</title></rect><rect fill="#ffc500" height="2.6" width="2.6" x="136.0" y="45.5"><title>2018-09-10 11.3 km</title></rect><rect fill="#4dd2ff" height="2.6" width="2.6" x="136.0" y="49.0"><title>2018-09-11 8.6 km</title></rect><rect fill="#ffcd00" height="2.6" width="2.6" x="136.0" y="52.5"><title>2018-09-12 10.1 km</title></rect><rect fill="#ffc700" height="2.6" width="2.6" x="136.0" y="56.0"><title>2018-09-13 11.0 km</title></rect><rect fill="#ffcd00" height="2.6" width="2.6" x="136.0" y="59.5"><title>2018-09-14 10.2 km</title></rect><rect fill="#ffc700" height="2.6" width="2.6" x="136.0" y="63.0"><title>2018-09-15 11.1 km</title></rect><rect fill="red" height="2.6" width="2.6" x="136.0" y="66.5"><title>2018-09-16 21.4 km</title></rect><rect fill="#ffcd00" height="2.6" width="2.6" x="139.5" y="45.5"><title>2018-09-17 10.1 km</title></rect><rect fill="#444444" height="2.6" width="2.6" x="139.5" y="49.0"><title>2018-09-18</title></rect><rect fill="#ffcd00" height="2.6" width="2.6" x="139.5" y="52.5"><title>2018-09-19 10.2 km</title></rect><rect fill="#ffcd00" height="2.6" width="2.6" x="139.5" y="56.0"><title>2018-09-20 10.1 km</title></rect><rect fill="#ffc600" height="2.6" width="2.6" x="139.5" y="59.5"><title>2018-09-21 11.2 km</title></rect><rect fill="#ffcc00" height="2.6" width="2.6" x="139.5" y="63.0"><title>2018-09-22 10.2 km</title></rect><rect fill="red" height="2.6" width="2.6" x="139.5" y="66.5"><title>2018-09-23 23.3 km</title></rect><rect fill="#ffc500" height="2.6" width="2.6" x="143.0" y="45.5"><title>2018-09-24 11.4 km</title></rect><rect fill="#ffc600" height="2.6" width="2.6" x="143.0" y="49.0"><title>2018-09-25 11.2 km</title></rect><rect fill="#ffc600" height="2.6" width="2.6" x="143.0" y="52.5"><title>2018-09-26 11.3 km</title></rect><rect fill="#ffc700" height="2.6" width="2.6" x="143.0" y="56.0"><title>2018-09-27 11.2 km</title></rect><rect fill="#4dd2ff" height="2.6" width="2.6" x="143.0" y="59.5"><title>2018-09-28 8.2 km</title></rect><rect fill="#ffcc00" height="2.6" width="2.6" x="143.0" y="63.0"><title>2018-09-29 10.3 km</title></rect><rect fill="#ffcc00" height="2.6" width="2.6" x="143.0" y="66.5"><title>2018-09-30 10.2 km</title></rect><rect fill="red" height="2.6" width="2.6" x="146.5" y="45.5"><title>2018-10-01 24.1 km</title></rect><rect fill="#ffac00" height="2.6" width="2.6" x="146.5" y="49.0"><title>2018-10-02 15.5 km</title></rect><rect fill="#ffc100" height="2.6" width="2.6" x="146.5" y="52.5"><title>2018-10-03 12.0 km</title></rect><rect fill="#4dd2ff" height="2.6" width="2.6" x="146.5" y="56.0"><title>2018-10-04 6.1 km</title></rect><rect fill="#ffa700" height="2.6" width="2.6" x="146.5" y="59.5"><title>2018-10-05 16.2 km</title></rect><rect fill="#4dd2ff" height="2.6" width="2.6" x="146.5" y="63.0"><title>2018-10-06 8.9 km</title></rect><rect fill="red" height="2.6" width="2.6" x="146.5" y="66.5"><title>2018-10-07 21.4 km</title></rect><rect fill="#ffcc00" height="2.6" width="2.6" x="150.0" y="45.5"><title>2018-10-08 10.3 km</title></rect><rect fill="#ffcc00" height="2.6" width="2.6" x="150.0" y="49.0"><title>2018-10-09 10.2 km</title></rect><rect fill="#ffcc00" height="2.6" width="2.6" x="150.0" y="52.5"><title>2018-10-10 10.4 km</title></rect><rect fill="#ffc600" height="2.6" width="2.6" x="150.0" y="56.0"><title>2018-10-11 11.3 km</title></rect><rect fill="#ffcc00" height="2.6" width="2.6" x="150.0" y="59.5"><title>2018-10-12 10.4 km</title></rect><rect fill="red" height="2.6" width="2.6" x="150.0" y="63.0"><title>2018-10-13 21.3 km</title></rect><rect fill="#ffad00" height="2.6" width="2.6" x="150.0" y="66.5"><title>2018-10-14 15.3 km</title></rect><rect fill="#ffcc00" height="2.6" width="2.6" x="153.5" y="45.5"><title>2018-10-15 10.2 km</title></rect><rect fill="#ffc500" height="2.6" width="2.6" x="153.5" y="49.0"><title>2018-10-16 11.4 km</title></rect><rect fill="#4dd2ff" height="2.6" width="2.6" x="153.5" y="52.5"><title>2018-10-17 6.5 km</title></rect><rect fill="#ffc600" height="2.6" width="2.6" x="153.5" y="56.0"><title>2018-10-18 11.3 km</title></rect><rect fill="#ffcd00" height="2.6" width="2.6" x="153.5" y="59.5"><title>2018-10-19 10.2 km</title></rect><rect fill="#4dd2ff" height="2.6" width="2.6" x="153.5" y="63.0"><title>2018-10-20 4.2 km</title></rect><rect fill="red" height="2.6" width="2.6" x="153.5" y="66.5"><title>2018-10-21 24.0 km</title></rect><rect fill="#ffba00" height="2.6" width="2.6" x="157.0" y="45.5"><title>2018-10-22 13.2 km</title></rect><rect fill="#ffcc00" height="2.6" width="2.6" x="157.0" y="49.0"><title>2018-10-23 10.4 km</title></rect><rect fill="#ffc900" height="2.6" width="2.6" x="157.0" y="52.5"><title>2018-10-24 10.8 km</title></rect><rect fill="#ffcc00" height="2.6" width="2.6" x="157.0" y="56.0"><title>2018-10-25 10.3 km</title></rect><rect fill="#4dd2ff" height="2.6" width="2.6" x="157.0" y="59.5"><title>2018-10-26 7.7 km</title></rect><rect fill="#ffc600" height="2.6" width="2.6" x="157.0" y="63.0"><title>2018-10-27 11.3 km</title></rect><rect fill="red" height="2.6" width="2.6" x="157.0" y="66.5"><title>2018-10-28 24.2 km</title></rect><rect fill="#ffcb00" height="2.6" width="2.6" x="160.5" y="45.5"><title>2018-10-29 10.5 km</title></rect><rect fill="#444444" height="2.6" width="2.6" x="160.5" y="49.0"><title>2018-10-30</title></rect><rect fill="#ffc600" height="2.6" width="2.6" x="160.5" y="52.5"><title>2018-10-31 11.2 km</title></rect><rect fill="#444444" height="2.6" width="2.6" x="160.5" y="56.0"><title>2018-11-01</title></rect><rect fill="#ffc600" height="2.6" width="2.6" x="160.5" y="59.5"><title>2018-11-02 11.3 km</title></rect><rect fill="#ffae00" height="2.6" width="2.6" x="160.5" y="63.0"><title>2018-11-03 15.1 km</title></rect><rect fill="red" height="2.6" width="2.6" x="160.5" y="66.5"><title>2018-11-04 42.9 km</title></rect><rect fill="#ffcc00" height="2.6" width="2.6" x="164.0" y="45.5"><title>2018-11-05 10.3 km</title></rect><rect fill="#ffc700" height="2.6" width="2.6" x="164.0" y="49.0"><title>2018-11-06 11.0 km</title></rect><rect fill="#ffcc00" height="2.6" width="2.6" x="164.0" y="52.5"><title>2018-11-07 10.3 km</title></rect><rect fill="#444444" height="2.6" width="2.6" x="164.0" y="56.0"><title>2018-11-08</title></rect><rect fill="#ffcd00" height="2.6" width="2.6" x="164.0" y="59.5"><title>2018-11-09 10.2 km</title></rect><rect fill="red" height="2.6" width="2.6" x="164.0" y="63.0"><title>2018-11-10 21.3 km</title></rect><rect fill="#ffc500" height="2.6" width="2.6" x="164.0" y="66.5"><title>2018-11-11 11.4 km</title></rect><rect fill="#4dd2ff" height="2.6" width="2.6" x="167.5" y="45.5"><title>2018-11-12 8.4 km</title></rect><rect fill="#ffc500" height="2.6" width="2.6" x="167.5" y="49.0"><title>2018-11-13 11.4 km</title></rect><rect fill="#ffc500" height="2.6" width="2.6" x="167.5" y="52.5"><title>2018-11-14 11.4 km</title></rect><rect fill="#4dd2ff" height="2.6" width="2.6" x="167.5" y="56.0"><title>2018-11-15 8.9 km</title></rect><rect fill="#ffcc00" height="2.6" width="2.6" x="167.5" y="59.5"><title>2018-11-16 10.3 km</title></rect><rect fill="#ffac00" height="2.6" width="2.6" x="167.5" y="63.0"><title>2018-11-17 15.4 km</title></rect><rect fill="#444444" height="2.6" width="2.6" x="167.5" y="66.5"><title>2018-11-18</title></rect><rect fill="#ffc300" height="2.6" width="2.6" x="171.0" y="45.5"><title>2018-11-19 11.7 km</title></rect><rect fill="#4dd2ff" height="2.6" width="2.6" x="171.0" y="49.0"><title>2018-11-20 8.2 km</title></rect><rect fill="#444444" height="2.6" width="2.6" x="171.0" y="52.5"><title>2018-11-21</title></rect><rect fill="#ffc500" height="2.6" width="2.6" x="171.0" y="56.0"><title>2018-11-22 11.5 km</title></rect><rect fill="#4dd2ff" height="2.6" width="2.6" x="171.0" y="59.5"><title>2018-11-23 6.5 km</title></rect><rect fill="#ffa600" height="2.6" width="2.6" x="171.0" y="63.0"><title>2018-11-24 16.4 km</title></rect><rect fill="#444444" height="2.6" width="2.6" x="171.0" y="66.5"><title>2018-11-25</title></rect><rect fill="#ffcd00" height="2.6" width="2.6" x="174.5" y="45.5"><title>2018-11-26 10.2 km</title></rect><rect fill="#ffc400" height="2.6" width="2.6" x="174.5" y="49.0"><title>2018-11-27 11.5 km</title></rect><rect fill="#444444" height="2.6" width="2.6" x="174.5" y="52.5"><title>2018-11-28</title></rect><rect fill="#444444" height="2.6" width="2.6" x="174.5" y="56.0"><title>2018-11-29</title></rect><rect fill="#4dd2ff" height="2.6" width="2.6" x="174.5" y="59.5"><title>2018-11-30 9.2 km</title></rect><rect fill="red" height="2.6" width="2.6" x="174.5" y="63.0"><title>2018-12-01 21.3 km</title></rect><rect fill="#444444" height="2.6" width="2.6" x="174.5" y="66.5"><title>2018-12-02</title></rect><rect fill="#ffc600" height="2.6" width="2.6" x="178.0" y="45.5"><title>2018-12-03 11.3 km</title></rect><rect fill="#ffcd00" height="2.6" width="2.6" x="178.0" y="49.0"><title>2018-12-04 10.1 km</title></rect><rect fill="#ffc600" height="2.6" width="2.6" x="178.0" y="52.5"><title>2018-12-05 11.3 km</title></rect><rect fill="#444444" height="2.6" width="2.6" x="178.0" y="56.0"><title>2018-12-06</title></rect><rect fill="#4dd2ff" height="2.6" width="2.6" x="178.0" y="59.5"><title>2018-12-07 9.0 km</title></rect><rect fill="#ffc700" height="2.6" width="2.6" x="178.0" y="63.0"><title>2018-12-08 11.1 km</title></rect><rect fill="red" height="2.6" width="2.6" x="178.0" y="66.5"><title>2018-12-09 22.4 km</title></rect><rect fill="#4dd2ff" height="2.6" width="2.6" x="181.5" y="45.5"><title>2018-12-10 5.8 km</title></rect><rect fill="#ffcd00" height="2.6" width="2.6" x="181.5" y="49.0"><title>2018-12-11 10.1 km</title></rect><rect fill="#ffc800" height="2.6" width="2.6" x="181.5" y="52.5"><title>2018-12-12 10.9 km</title></rect><rect fill="#ffcc00" height="2.6" width="2.6" x="181.5" y="56.0"><title>2018-12-13 10.3 km</title></rect><rect fill="#ffc400" height="2.6" width="2.6" x="181.5" y="59.5"><title>2018-12-14 11.5 km</title></rect><rect fill="red" height="2.6" width="2.6" x="181.5" y="63.0"><title>2018-12-15 21.3 km</title></rect><rect fill="#ffcb00" height="2.6" width="2.6" x="181.5" y="66.5"><title>2018-12-16 10.5 km</title></rect><rect fill="#444444" height="2.6" width="2.6" x="185.0" y="45.5"><title>2018-12-17</title></rect><rect fill="#444444" height="2.6" width="2.6" x="185.0" y="49.0"><title>2018-12-18</title></rect><rect fill="#ffc600" height="2.6" width="2.6" x="185.0" y="52.5"><title>2018-12-19 11.2 km</title></rect><rect fill="#ffc600" height="2.6" width="2.6" x="185.0" y="56.0"><title>2018-12-20 11.3 km</title></rect><rect fill="#ffcc00" height="2.6" width="2.6" x="185.0" y="59.5"><title>2018-12-21 10.3 km</title></rect><rect fill="#ffca00" height="2.6" width="2.6" x="185.0" y="63.0"><title>2018-12-22 10.7 km</title></rect><rect fill="red" height="2.6" width="2.6" x="185.0" y="66.5"><title>2018-12-23 25.3 km</title></rect><rect fill="#ffc700" height="2.6" width="2.6" x="188.5" y="45.5"><title>2018-12-24 11.2 km</title></rect><rect fill="#ffc600" height="2.6" width="2.6" x="188.5" y="49.0"><title>2018-12-25 11.2 km</title></rect><rect fill="#444444" height="2.6" width="2.6" x="188.5" y="52.5"><title>2018-12-26</title></rect><rect fill="#ffae00" height="2.6" width="2.6" x="188.5" y="56.0"><title>2018-12-27 15.1 km</title></rect><rect fill="#ffc600" height="2.6" width="2.6" x="188.5" y="59.5"><title>2018-12-28 11.3 km</title></rect><rect fill="#ffc600" height="2.6" width="2.6" x="188.5" y="63.0"><title>2018-12-29 11.3 km</title></rect><rect fill="red" height="2.6" width="2.6" x="188.5" y="66.5"><title>2018-12-30 21.3 km</title></rect><rect fill="#ffa400" height="2.6" width="2.6" x="192.0" y="45.5"><title>2018-12-31 16.7 km</title></rect></svg>