<?xml version="1.0" encoding="utf-8" ?>
<svg baseProfile="full" height="98mm" version="1.1" viewBox="0,0,200,98" width="200mm" xmlns="http://www.w3.org/2000/svg" xmlns:ev="http://www.w3.org/2001/xml-events" xmlns:xlink="http://www.w3.org/1999/xlink"><defs /><rect fill="#222222" height="98" width="200" x="0" y="0" /><text fill="#FFFFFF" style="font-size:12px; font-family:Arial; font-weight:bold;" x="10" y="20">2017 Running</text><text fill="#FFFFFF" style="font-size:4px; font-family:Arial" x="10" y="78">Runner</text><text fill="#FFFFFF" style="font-size:9px; font-family:Arial" x="10" y="88">cigar</text><text fill="#FFFFFF" style="font-size:4px; font-family:Arial" x="65" y="78">SPECIAL TRACKS</text><rect fill="yellow" height="2.6" width="2.6" x="65" y="81" /><text fill="#FFFFFF" style="font-size:3px; font-family:Arial" x="70" y="83.5">Over 10.0 km</text><rect fill="red" height="2.6" width="2.6" x="65" y="85" /><text fill="#FFFFFF" style="font-size:3px; font-family:Arial" x="70" y="87.5">Over 20.0 km</text><text fill="#FFFFFF" style="font-size:4px; font-family:Arial" x="120" y="78">STATISTICS</text><text fill="#FFFFFF" style="font-size:3px; font-family:Arial" x="120" y="83">Number: 304</text><text fill="#FFFFFF" style="font-size:3px; font-family:Arial" x="120" y="88">Weekly: 5.8</text><text fill="#FFFFFF" style="font-size:3px; font-family:Arial" x="141" y="83">Total: 3948.2 km</text><text fill="#FFFFFF" style="font-size:3px; font-family:Arial" x="141" y="88">Avg: 13.0 km</text><text fill="#FFFFFF" style="font-size:3px; font-family:Arial" x="167" y="83">Min: 0.8 km</text><text fill="#FFFFFF" style="font-size:3px; font-family:Arial" x="167" y="88">Max: 50.3 km</text><text dominant-baseline="hanging" fill="#FFFFFF" style="font-size:10.0px; font-family:Arial;" x="10" y="30">2017</text><text dominant-baseline="hanging" fill="#FFFFFF" style="font-size:4.125px; font-family:Arial;" x="175" y="35">3948.2 km</text><text fill="#FFFFFF" style="font-size:2.5px; font-family:Arial" x="10.0" y="44">Jan</text><text fill="#FFFFFF" style="font-size:2.5px; font-family:Arial" x="25.5" y="44">Feb</text><text fill="#FFFFFF" style="font-size:2.5px; font-family:Arial" x="41.0" y="44">Mar</text><text fill="#FFFFFF" style="font-size:2.5px; font-family:Arial" x="56.5" y="44">Apr</text><text fill="#FFFFFF" style="font-size:2.5px; font-family:Arial" x="72.0" y="44">May</text><text fill="#FFFFFF" style="font-size:2.5px; font-family:Arial" x="87.5" y="44">Jun</text><text fill="#FFFFFF" style="font-size:2.5px; font-family:Arial" x="103.0" y="44">Jul</text><text fill="#FFFFFF" style="font-size:2.5px; font-family:Arial" x="118.5" y="44">Aug</text><text fill="#FFFFFF" style="font-size:2.5px; font-family:Arial" x="134.0" y="44">Sep</text><text fill="#FFFFFF" style="font-size:2.5px; font-family:Arial" x="149.5" y="44">Oct</text><text fill="#FFFFFF" style="font-size:2.5px; font-family:Arial" x="165.0" y="44">Nov</text><text fill="#FFFFFF" style="font-size:2.5px; font-family:Arial" x="180.5" y="44">Dec</text><rect fill="#ffce00" height="2.6" width="2.6" x="10.0" y="66.5"><title>2017-01-01 10.4 km</title></rect><rect fill="#ffcf00" height="2.6" width="2.6" x="13.5" y="45.5"><title>2017-01-02 10.2 km</title></rect><rect fill="#444444" height="2.6" width="2.6" x="13.5" y="49.0"><title>2017-01-03</title></rect><rect fill="#ffc300" height="2.6" width="2.6" x="13.5" y="52.5"><title>2017-01-04 12.4 km</title></rect><rect fill="#444444" height="2.6" width="2.6" x="13.5" y="56.0"><title>2017-01-05</title></rect><rect fill="#444444" height="2.6" width="2.6" x="13.5" y="59.5"><title>2017-01-06</title></rect><rect fill="#444444" height="2.6" width="2.6" x="13.5" y="63.0"><title>2017-01-07</title></rect><rect fill="#ffc900" height="2.6" width="2.6" x="13.5" y="66.5"><title>2017-01-08 11.3 km</title></rect><rect fill="#ffc400" height="2.6" width="2.6" x="17.0" y="45.5"><title>2017-01-09 12.2 km</title></rect><rect fill="#444444" height="2.6" width="2.6" x="17.0" y="49.0"><title>2017-01-10</title></rect><rect fill="#ffc900" height="2.6" width="2.6" x="17.0" y="52.5"><title>2017-01-11 11.2 km</title></rect><rect fill="#444444" height="2.6" width="2.6" x="17.0" y="56.0"><title>2017-01-12</title></rect><rect fill="#444444" height="2.6" width="2.6" x="17.0" y="59.5"><title>2017-01-13</title></rect><rect fill="#444444" height="2.6" width="2.6" x="17.0" y="63.0"><title>2017-01-14</title></rect><rect fill="#ffc400" height="2.6" width="2.6" x="17.0" y="66.5"><title>2017-01-15 12.2 km</title></rect><rect fill="#ffc800" height="2.6" width="2.6" x="20.5" y="45.5"><title>2017-01-16 11.5 km</title></rect><rect fill="#444444" height="2.6" width="2.6" x="20.5" y="49.0"><title>2017-01-17</title></rect><rect fill="#ffca00" height="2.6" width="2.6" x="20.5" y="52.5"><title>2017-01-18 11.1 km</title></rect><rect fill="#ffce00" height="2.6" width="2.6" x="20.5" y="56.0"><title>2017-01-19 10.3 km</title></rect><rect fill="#ffca00" height="2.6" width="2.6" x="20.5" y="59.5"><title>2017-01-20 11.0 km</title></rect><rect fill="red" height="2.6" width="2.6" x="20.5" y="63.0"><title>2017-01-21 21.4 km</title></rect><rect fill="#ffcf00" height="2.6" width="2.6" x="20.5" y="66.5"><title>2017-01-22 10.2 km</title></rect><rect fill="#ffc800" height="2.6" width="2.6" x="24.0" y="45.5"><title>2017-01-23 11.6 km</title></rect><rect fill="#ffc700" height="2.6" width="2.6" x="24.0" y="49.0"><title>2017-01-24 11.6 km</title></rect><rect fill="#ffce00" height="2.6" width="2.6" x="24.0" y="52.5"><title>2017-01-25 10.3 km</title></rect><rect fill="#ffc900" height="2.6" width="2.6" x="24.0" y="56.0"><title>2017-01-26 11.3 km</title></rect><rect fill="red" height="2.6" width="2.6" x="24.0" y="59.5"><title>2017-01-27 21.4 km</title></rect><rect fill="#ffca00" height="2.6" width="2.6" x="24.0" y="63.0"><title>2017-01-28 11.0 km</title></rect><rect fill="#ffc400" height="2.6" width="2.6" x="24.0" y="66.5"><title>2017-01-29 12.4 km</title></rect><rect fill="#444444" height="2.6" width="2.6" x="27.5" y="45.5"><title>2017-01-30</title></rect><rect fill="#ffc400" height="2.6" width="2.6" x="27.5" y="49.0"><title>2017-01-31 12.2 km</title></rect><rect fill="#ffc900" height="2.6" width="2.6" x="27.5" y="52.5"><title>2017-02-01 11.2 km</title></rect><rect fill="#444444" height="2.6" width="2.6" x="27.5" y="56.0"><title>2017-02-02</title></rect><rect fill="#ffc900" height="2.6" width="2.6" x="27.5" y="59.5"><title>2017-02-03 11.2 km</title></rect><rect fill="#ffb000" height="2.6" width="2.6" x="27.5" y="63.0"><title>2017-02-04 16.1 km</title></rect><rect fill="#4dd2ff" height="2.6" width="2.6" x="27.5" y="66.5"><title>2017-02-05 4.1 km</title></rect><rect fill="#444444" height="2.6" width="2.6" x="31.0" y="45.5"><title>2017-02-06</title></rect><rect fill="#ffc500" height="2.6" width="2.6" x="31.0" y="49.0"><title>2017-02-07 12.1 km</title></rect><rect fill="#ffc700" height="2.6" width="2.6" x="31.0" y="52.5"><title>2017-02-08 11.7 km</title></rect><rect fill="#444444" height="2.6" width="2.6" x="31.0" y="56.0"><title>2017-02-09</title></rect><rect fill="#ffc800" height="2.6" width="2.6" x="31.0" y="59.5"><title>2017-02-10 11.6 km</title></rect><rect fill="red" height="2.6" width="2.6" x="31.0" y="63.0"><title>2017-02-11 21.2 km</title></rect><rect fill="#ffc400" height="2.6" width="2.6" x="31.0" y="66.5"><title>2017-02-12 12.3 km</title></rect><rect fill="#ffca00" height="2.6" width="2.6" x="34.5" y="45.5"><title>2017-02-13 11.1 km</title></rect><rect fill="#ffc700" height="2.6" width="2.6" x="34.5" y="49.0"><title>2017-02-14 11.8 km</title></rect><rect fill="#444444" height="2.6" width="2.6" x="34.5" y="52.5"><title>2017-02-15</title></rect><rect fill="#ffcb00" height="2.6" width="2.6" x="34.5" y="56.0"><title>2017-02-16 10.9 km</title></rect><rect fill="#444444" height="2.6" width="2.6" x="34.5" y="59.5"><title>2017-02-17</title></rect><rect fill="red" height="2.6" width="2.6" x="34.5" y="63.0"><title>2017-02-18 21.6 km</title></rect><rect fill="#ffc500" height="2.6" width="2.6" x="34.5" y="66.5"><title>2017-02-19 12.2 km</title></rect><rect fill="#ffc300" height="2.6" width="2.6" x="38.0" y="45.5"><title>2017-02-20 12.4 km</title></rect><rect fill="#ffce00" height="2.6" width="2.6" x="38.0" y="49.0"><title>2017-02-21 10.3 km</title></rect><rect fill="#444444" height="2.6" width="2.6" x="38.0" y="52.5"><title>2017-02-22</title></rect><rect fill="#444444" height="2.6" width="2.6" x="38.0" y="56.0"><title>2017-02-23</title></rect><rect fill="#ffc400" height="2.6" width="2.6" x="38.0" y="59.5"><title>2017-02-24 12.2 km</title></rect><rect fill="red" height="2.6" width="2.6" x="38.0" y="63.0"><title>2017-02-25 21.6 km</title></rect><rect fill="#444444" height="2.6" width="2.6" x="38.0" y="66.5"><title>2017-02-26</title></rect><rect fill="#ffc800" height="2.6" width="2.6" x="41.5" y="45.5"><title>2017-02-27 11.6 km</title></rect><rect fill="#ffc700" height="2.6" width="2.6" x="41.5" y="49.0"><title>2017-02-28 11.7 km</title></rect><rect fill="#ffc400" height="2.6" width="2.6" x="41.5" y="52.5"><title>2017-03-01 12.3 km</title></rect><rect fill="#ffc600" height="2.6" width="2.6" x="41.5" y="56.0"><title>2017-03-02 11.8 km</title></rect><rect fill="#ffc400" height="2.6" width="2.6" x="41.5" y="59.5"><title>2017-03-03 12.2 km</title></rect><rect fill="red" height="2.6" width="2.6" x="41.5" y="63.0"><title>2017-03-04 21.4 km</title></rect><rect fill="#ffc800" height="2.6" width="2.6" x="41.5" y="66.5"><title>2017-03-05 11.5 km</title></rect><rect fill="#ffc400" height="2.6" width="2.6" x="45.0" y="45.5"><title>2017-03-06 12.2 km</title></rect><rect fill="#ffc900" height="2.6" width="2.6" x="45.0" y="49.0"><title>2017-03-07 11.3 km</title></rect><rect fill="#ffc700" height="2.6" width="2.6" x="45.0" y="52.5"><title>2017-03-08 11.6 km</title></rect><rect fill="#ffcd00" height="2.6" width="2.6" x="45.0" y="56.0"><title>2017-03-09 10.6 km</title></rect><rect fill="#444444" height="2.6" width="2.6" x="45.0" y="59.5"><title>2017-03-10</title></rect><rect fill="red" height="2.6" width="2.6" x="45.0" y="63.0"><title>2017-03-11 21.4 km</title></rect><rect fill="#ffc900" height="2.6" width="2.6" x="45.0" y="66.5"><title>2017-03-12 11.3 km</title></rect><rect fill="#444444" height="2.6" width="2.6" x="48.5" y="45.5"><title>2017-03-13</title></rect><rect fill="#ffc700" height="2.6" width="2.6" x="48.5" y="49.0"><title>2017-03-14 11.8 km</title></rect><rect fill="#ffcd00" height="2.6" width="2.6" x="48.5" y="52.5"><title>2017-03-15 10.5 km</title></rect><rect fill="#ffc900" height="2.6" width="2.6" x="48.5" y="56.0"><title>2017-03-16 11.3 km</title></rect><rect fill="#ffc800" height="2.6" width="2.6" x="48.5" y="59.5"><title>2017-03-17 11.5 km</title></rect><rect fill="#ffcb00" height="2.6" width="2.6" x="48.5" y="63.0"><title>2017-03-18 10.9 km</title></rect><rect fill="red" height="2.6" width="2.6" x="48.5" y="66.5"><title>2017-03-19 42.7 km</title></rect><rect fill="#4dd2ff" height="2.6" width="2.6" x="52.0" y="45.5"><title>2017-03-20 7.4 km</title></rect><rect fill="#ffcf00" height="2.6" width="2.6" x="52.0" y="49.0"><title>2017-03-21 10.1 km</title></rect><rect fill="#ffcf00" height="2.6" width="2.6" x="52.0" y="52.5"><title>2017-03-22 10.1 km</title></rect><rect fill="#444444" height="2.6" width="2.6" x="52.0" y="56.0"><title>2017-03-23</title></rect><rect fill="#ffd000" height="2.6" width="2.6" x="52.0" y="59.5"><title>2017-03-24 10.0 km</title></rect><rect fill="#ffcf00" height="2.6" width="2.6" x="52.0" y="63.0"><title>2017-03-25 10.2 km</title></rect><rect fill="#444444" height="2.6" width="2.6" x="52.0" y="66.5"><title>2017-03-26</title></rect><rect fill="#ffc900" height="2.6" width="2.6" x="55.5" y="45.5"><title>2017-03-27 11.3 km</title></rect><rect fill="#ffcf00" height="2.6" width="2.6" x="55.5" y="49.0"><title>2017-03-28 10.2 km</title></rect><rect fill="#444444" height="2.6" width="2.6" x="55.5" y="52.5"><title>2017-03-29</title></rect><rect fill="#ffc400" height="2.6" width="2.6" x="55.5" y="56.0"><title>2017-03-30 12.2 km</title></rect><rect fill="#ffc400" height="2.6" width="2.6" x="55.5" y="59.5"><title>2017-03-31 12.3 km</title></rect><rect fill="#ffc400" height="2.6" width="2.6" x="55.5" y="63.0"><title>2017-04-01 12.2 km</title></rect><rect fill="#444444" height="2.6" width="2.6" x="55.5" y="66.5"><title>2017-04-02</title></rect><rect fill="#444444" height="2.6" width="2.6" x="59.0" y="45.5"><title>2017-04-03</title></rect><rect fill="#ffc400" height="2.6" width="2.6" x="59.0" y="49.0"><title>2017-04-04 12.2 km</title></rect><rect fill="#ffc500" height="2.6" width="2.6" x="59.0" y="52.5"><title>2017-04-05 12.1 km</title></rect><rect fill="#ffcf00" height="2.6" width="2.6" x="59.0" y="56.0"><title>2017-04-06 10.1 km</title></rect><rect fill="#444444" height="2.6" width="2.6" x="59.0" y="59.5"><title>2017-04-07</title></rect><rect fill="#444444" height="2.6" width="2.6" x="59.0" y="63.0"><title>2017-04-08</title></rect><rect fill="red" height="2.6" width="2.6" x="59.0" y="66.5"><title>2017-04-09 21.3 km</title></rect><rect fill="#444444" height="2.6" width="2.6" x="62.5" y="45.5"><title>2017-04-10</title></rect><rect fill="#ffc500" height="2.6" width="2.6" x="62.5" y="49.0"><title>2017-04-11 12.1 km</title></rect><rect fill="#ffcf00" height="2.6" width="2.6" x="62.5" y="52.5"><title>2017-04-12 10.2 km</title></rect><rect fill="#ffc800" height="2.6" width="2.6" x="62.5" y="56.0"><title>2017-04-13 11.4 km</title></rect><rect fill="#ffc800" height="2.6" width="2.6" x="62.5" y="59.5"><title>2017-04-14 11.4 km</title></rect><rect fill="#ffc900" height="2.6" width="2.6" x="62.5" y="63.0"><title>2017-04-15 11.4 km</title></rect><rect fill="red" height="2.6" width="2.6" x="62.5" y="66.5"><title>2017-04-16 41.1 km</title></rect><rect fill="#444444" height="2.6" width="2.6" x="66.0" y="45.5"><title>2017-04-17</title></rect><rect fill="#4dd2ff" height="2.6" width="2.6" x="66.0" y="49.0"><title>2017-04-18 6.4 km</title></rect><rect fill="#444444" height="2.6" width="2.6" x="66.0" y="52.5"><title>2017-04-19</title></rect><rect fill="#ffc800" height="2.6" width="2.6" x="66.0" y="56.0"><title>2017-04-20 11.5 km</title></rect><rect fill="#ffc800" height="2.6" width="2.6" x="66.0" y="59.5"><title>2017-04-21 11.4 km</title></rect><rect fill="#ffc900" height="2.6" width="2.6" x="66.0" y="63.0"><title>2017-04-22 11.4 km</title></rect><rect fill="red" height="2.6" width="2.6" x="66.0" y="66.5"><title>2017-04-23 21.5 km</title></rect><rect fill="#ffc400" height="2.6" width="2.6" x="69.5" y="45.5"><title>2017-04-24 12.2 km</title></rect><rect fill="#ffc400" height="2.6" width="2.6" x="69.5" y="49.0"><title>2017-04-25 12.2 km</title></rect><rect fill="#444444" height="2.6" width="2.6" x="69.5" y="52.5"><title>2017-04-26</title></rect><rect fill="#ffc400" height="2.6" width="2.6" x="69.5" y="56.0"><title>2017-04-27 12.2 km</title></rect><rect fill="#ffc800" height="2.6" width="2.6" x="69.5" y="59.5"><title>2017-04-28 11.4 km</title></rect><rect fill="red" height="2.6" width="2.6" x="69.5" y="63.0"><title>2017-04-29 21.1 km</title></rect><rect fill="#ffc900" height="2.6" width="2.6" x="69.5" y="66.5"><title>2017-04-30 11.3 km</title></rect><rect fill="#ffc400" height="2.6" width="2.6" x="73.0" y="45.5"><title>2017-05-01 12.3 km</title></rect><rect fill="#ffca00" height="2.6" width="2.6" x="73.0" y="49.0"><title>2017-05-02 11.1 km</title></rect><rect fill="#ffc600" height="2.6" width="2.6" x="73.0" y="52.5"><title>2017-05-03 11.8 km</title></rect><rect fill="#ffc800" height="2.6" width="2.6" x="73.0" y="56.0"><title>2017-05-04 11.5 km</title></rect><rect fill="#ffc800" height="2.6" width="2.6" x="73.0" y="59.5"><title>2017-05-05 11.5 km</title></rect><rect fill="red" height="2.6" width="2.6" x="73.0" y="63.0"><title>2017-05-06 21.4 km</title></rect><rect fill="#444444" height="2.6" width="2.6" x="73.0" y="66.5"><title>2017-05-07</title></rect><rect fill="#ffc500" height="2.6" width="2.6" x="76.5" y="45.5"><title>2017-05-08 12.2 km</title></rect><rect fill="#ffc800" height="2.6" width="2.6" x="76.5" y="49.0"><title>2017-05-09 11.5 km</title></rect><rect fill="#444444" height="2.6" width="2.6" x="76.5" y="52.5"><title>2017-05-10</title></rect><rect fill="#ffc800" height="2.6" width="2.6" x="76.5" y="56.0"><title>2017-05-11 11.5 km</title></rect><rect fill="#ffcf00" height="2.6" width="2.6" x="76.5" y="59.5"><title>2017-05-12 10.2 km</title></rect><rect fill="red" height="2.6" width="2.6" x="76.5" y="63.0"><title>2017-05-13 21.3 km</title></rect><rect fill="#ffc800" height="2.6" width="2.6" x="76.5" y="66.5"><title>2017-05-14 11.5 km</title></rect><rect fill="#ffc700" height="2.6" width="2.6" x="80.0" y="45.5"><title>2017-05-15 11.6 km</title></rect><rect fill="#ffc800" height="2.6" width="2.6" x="80.0" y="49.0"><title>2017-05-16 11.5 km</title></rect><rect fill="#ffc800" height="2.6" width="2.6" x="80.0" y="52.5"><title>2017-05-17 11.5 km</title></rect><rect fill="#ffc700" height="2.6" width="2.6" x="80.0" y="56.0"><title>2017-05-18 11.6 km</title></rect><rect fill="#ffc700" height="2.6" width="2.6" x="80.0" y="59.5"><title>2017-05-19 11.7 km</title></rect><rect fill="red" height="2.6" width="2.6" x="80.0" y="63.0"><title>2017-05-20 21.5 km</title></rect><rect fill="#ffc700" height="2.6" width="2.6" x="80.0" y="66.5"><title>2017-05-21 11.6 km</title></rect><rect fill="#ffce00" height="2.6" width="2.6" x="83.5" y="45.5"><title>2017-05-22 10.2 km</title></rect><rect fill="#ffc800" height="2.6" width="2.6" x="83.5" y="49.0"><title>2017-05-23 11.6 km</title></rect><rect fill="#ffc900" height="2.6" width="2.6" x="83.5" y="52.5"><title>2017-05-24 11.3 km</title></rect><rect fill="#ffc700" height="2.6" width="2.6" x="83.5" y="56.0"><title>2017-05-25 11.7 km</title></rect><rect fill="#444444" height="2.6" width="2.6" x="83.5" y="59.5"><title>2017-05-26</title></rect><rect fill="#ffc700" height="2.6" width="2.6" x="83.5" y="63.0"><title>2017-05-27 11.7 km</title></rect><rect fill="#ffc700" height="2.6" width="2.6" x="83.5" y="66.5"><title>2017-05-28 11.6 km</title></rect><rect fill="#ffce00" height="2.6" width="2.6" x="87.0" y="45.5"><title>2017-05-29 10.3 km</title></rect><rect fill="#4dd2ff" height="2.6" width="2.6" x="87.0" y="49.0"><title>2017-05-30 6.5 km</title></rect><rect fill="#ffc700" height="2.6" width="2.6" x="87.0" y="52.5"><title>2017-05-31 11.6 km</title></rect><rect fill="#ffc700" height="2.6" width="2.6" x="87.0" y="56.0"><title>2017-06-01 11.7 km</title></rect><rect fill="#ffc800" height="2.6" width="2.6" x="87.0" y="59.5"><title>2017-06-02 11.5 km</title></rect><rect fill="#ffc700" height="2.6" width="2.6" x="87.0" y="63.0"><title>2017-06-03 11.7 km</title></rect><rect fill="red" height="2.6" width="2.6" x="87.0" y="66.5"><title>2017-06-04 20.9 km</title></rect><rect fill="#ffc800" height="2.6" width="2.6" x="90.5" y="45.5"><title>2017-06-05 11.6 km</title></rect><rect fill="#ffc800" height="2.6" width="2.6" x="90.5" y="49.0"><title>2017-06-06 11.6 km</title></rect><rect fill="#ffc700" height="2.6" width="2.6" x="90.5" y="52.5"><title>2017-06-07 11.7 km</title></rect><rect fill="#444444" height="2.6" width="2.6" x="90.5" y="56.0"><title>2017-06-08</title></rect><rect fill="#ffc800" height="2.6" width="2.6" x="90.5" y="59.5"><title>2017-06-09 11.6 km</title></rect><rect fill="#4dd2ff" height="2.6" width="2.6" x="90.5" y="63.0"><title>2017-06-10 9.0 km</title></rect><rect fill="red" height="2.6" width="2.6" x="90.5" y="66.5"><title>2017-06-11 42.5 km</title></rect><rect fill="#ffcf00" height="2.6" width="2.6" x="94.0" y="45.5"><title>2017-06-12 10.2 km</title></rect><rect fill="#ffcf00" height="2.6" width="2.6" x="94.0" y="49.0"><title>2017-06-13 10.1 km</title></rect><rect fill="#ffc700" height="2.6" width="2.6" x="94.0" y="52.5"><title>2017-06-14 11.6 km</title></rect><rect fill="#ffc800" height="2.6" width="2.6" x="94.0" y="56.0"><title>2017-06-15 11.6 km</title></rect><rect fill="#ffc800" height="2.6" width="2.6" x="94.0" y="59.5"><title>2017-06-16 11.5 km</title></rect><rect fill="red" height="2.6" width="2.6" x="94.0" y="63.0"><title>2017-06-17 21.4 km</title></rect><rect fill="#ffca00" height="2.6" width="2.6" x="94.0" y="66.5"><title>2017-06-18 11.1 km</title></rect><rect fill="#ffc800" height="2.6" width="2.6" x="97.5" y="45.5"><title>2017-06-19 11.5 km</title></rect><rect fill="#ffc800" height="2.6" width="2.6" x="97.5" y="49.0"><title>2017-06-20 11.6 km</title></rect><rect fill="#ffc800" height="2.6" width="2.6" x="97.5" y="52.5"><title>2017-06-21 11.6 km</title></rect><rect fill="#ffcf00" height="2.6" width="2.6" x="97.5" y="56.0"><title>2017-06-22 10.2 km</title></rect><rect fill="#444444" height="2.6" width="2.6" x="97.5" y="59.5"><title>2017-06-23</title></rect><rect fill="red" height="2.6" width="2.6" x="97.5" y="63.0"><title>2017-06-24 21.5 km</title></rect><rect fill="#ffc400" height="2.6" width="2.6" x="97.5" y="66.5"><title>2017-06-25 12.2 km</title></rect><rect fill="#ffca00" height="2.6" width="2.6" x="101.0" y="45.5"><title>2017-06-26 11.1 km</title></rect><rect fill="#444444" height="2.6" width="2.6" x="101.0" y="49.0"><title>2017-06-27</title></rect><rect fill="#4dd2ff" height="2.6" width="2.6" x="101.0" y="52.5"><title>2017-06-28 6.3 km</title></rect><rect fill="#ffc400" height="2.6" width="2.6" x="101.0" y="56.0"><title>2017-06-29 12.4 km</title></rect><rect fill="#444444" height="2.6" width="2.6" x="101.0" y="59.5"><title>2017-06-30</title></rect><rect fill="red" height="2.6" width="2.6" x="101.0" y="63.0"><title>2017-07-01 21.4 km</title></rect><rect fill="#ffc800" height="2.6" width="2.6" x="101.0" y="66.5"><title>2017-07-02 11.5 km</title></rect><rect fill="#4dd2ff" height="2.6" width="2.6" x="104.5" y="45.5"><title>2017-07-03 8.3 km</title></rect><rect fill="#ffc800" height="2.6" width="2.6" x="104.5" y="49.0"><title>2017-07-04 11.5 km</title></rect><rect fill="#4dd2ff" height="2.6" width="2.6" x="104.5" y="52.5"><title>2017-07-05 6.1 km</title></rect><rect fill="#ffc800" height="2.6" width="2.6" x="104.5" y="56.0"><title>2017-07-06 11.5 km</title></rect><rect fill="#ffc900" height="2.6" width="2.6" x="104.5" y="59.5"><title>2017-07-07 11.2 km</title></rect><rect fill="#444444" height="2.6" width="2.6" x="104.5" y="63.0"><title>2017-07-08</title></rect><rect fill="red" height="2.6" width="2.6" x="104.5" y="66.5"><title>2017-07-09 21.4 km</title></rect><rect fill="#ffd000" height="2.6" width="2.6" x="108.0" y="45.5"><title>2017-07-10 10.0 km</title></rect><rect fill="#ffc700" height="2.6" width="2.6" x="108.0" y="49.0"><title>2017-07-11 11.7 km</title></rect><rect fill="#ffcf00" height="2.6" width="2.6" x="108.0" y="52.5"><title>2017-07-12 10.1 km</title></rect><rect fill="#ffc800" height="2.6" width="2.6" x="108.0" y="56.0"><title>2017-07-13 11.5 km</title></rect><rect fill="#ffc800" height="2.6" width="2.6" x="108.0" y="59.5"><title>2017-07-14 11.6 km</title></rect><rect fill="red" height="2.6" width="2.6" x="108.0" y="63.0"><title>2017-07-15 21.2 km</title></rect><rect fill="#4dd2ff" height="2.6" width="2.6" x="108.0" y="66.5"><title>2017-07-16 6.1 km</title></rect><rect fill="#ffc800" height="2.6" width="2.6" x="111.5" y="45.5"><title>2017-07-17 11.5 km</title></rect><rect fill="#ffcd00" height="2.6" width="2.6" x="111.5" y="49.0"><title>2017-07-18 10.5 km</title></rect><rect fill="#ffc800" height="2.6" width="2.6" x="111.5" y="52.5"><title>2017-07-19 11.5 km</title></rect><rect fill="#ffc800" height="2.6" width="2.6" x="111.5" y="56.0"><title>2017-07-20 11.6 km</title></rect><rect fill="#ffc700" height="2.6" width="2.6" x="111.5" y="59.5"><title>2017-07-21 11.6 km</title></rect><rect fill="#444444" height="2.6" width="2.6" x="111.5" y="63.0"><title>2017-07-22</title></rect><rect fill="#ffc800" height="2.6" width="2.6" x="111.5" y="66.5"><title>2017-07-23 11.4 km</title></rect><rect fill="#ffc700" height="2.6" width="2.6" x="115.0" y="45.5"><title>2017-07-24 11.6 km</title></rect><rect fill="#ffc400" height="2.6" width="2.6" x="115.0" y="49.0"><title>2017-07-25 12.2 km</title></rect><rect fill="#ffc800" height="2.6" width="2.6" x="115.0" y="52.5"><title>2017-07-26 11.5 km</title></rect><rect fill="#ffc400" height="2.6" width="2.6" x="115.0" y="56.0"><title>2017-07-27 12.2 km</title></rect><rect fill="#ffc600" height="2.6" width="2.6" x="115.0" y="59.5"><title>2017-07-28 11.9 km</title></rect><rect fill="#ffb500" height="2.6" width="2.6" x="115.0" y="63.0"><title>2017-07-29 15.1 km</title></rect><rect fill="#4dd2ff" height="2.6" width="2.6" x="115.0" y="66.5"><title>2017-07-30 6.1 km</title></rect><rect fill="#ffc700" height="2.6" width="2.6" x="118.5" y="45.5"><title>2017-07-31 11.7 km</title></rect><rect fill="#ffc800" height="2.6" width="2.6" x="118.5" y="49.0"><title>2017-08-01 11.6 km</title></rect><rect fill="#ffc500" height="2.6" width="2.6" x="118.5" y="52.5"><title>2017-08-02 12.0 km</title></rect><rect fill="#ffc800" height="2.6" width="2.6" x="118.5" y="56.0"><title>2017-08-03 11.5 km</title></rect><rect fill="#ffc700" height="2.6" width="2.6" x="118.5" y="59.5"><title>2017-08-04 11.6 km</title></rect><rect fill="#ffb000" height="2.6" width="2.6" x="118.5" y="63.0"><title>2017-08-05 16.1 km</title></rect><rect fill="#ffc700" height="2.6" width="2.6" x="118.5" y="66.5"><title>2017-08-06 11.7 km</title></rect><rect fill="#4dd2ff" height="2.6" width="2.6" x="122.0" y="45.5"><title>2017-08-07 6.3 km</title></rect><rect fill="#ffc900" height="2.6" width="2.6" x="122.0" y="49.0"><title>2017-08-08 11.3 km</title></rect><rect fill="#ffc400" height="2.6" width="2.6" x="122.0" y="52.5"><title>2017-08-09 12.2 km</title></rect><rect fill="#ffc800" height="2.6" width="2.6" x="122.0" y="56.0"><title>2017-08-10 11.4 km</title></rect><rect fill="#ffca00" height="2.6" width="2.6" x="122.0" y="59.5"><title>2017-08-11 11.2 km</title></rect><rect fill="#ffcf00" height="2.6" width="2.6" x="122.0" y="63.0"><title>2017-08-12 10.2 km</title></rect><rect fill="red" height="2.6" width="2.6" x="122.0" y="66.5"><title>2017-08-13 21.4 km</title></rect><rect fill="#ffc400" height="2.6" width="2.6" x="125.5" y="45.5"><title>2017-08-14 12.2 km</title></rect><rect fill="#ffc300" height="2.6" width="2.6" x="125.5" y="49.0"><title>2017-08-15 12.4 km</title></rect><rect fill="#ffc400" height="2.6" width="2.6" x="125.5" y="52.5"><title>2017-08-16 12.2 km</title></rect><rect fill="#ffc700" height="2.6" width="2.6" x="125.5" y="56.0"><title>2017-08-17 11.6 km</title></rect><rect fill="#ffc800" height="2.6" width="2.6" x="125.5" y="59.5"><title>2017-08-18 11.4 km</title></rect><rect fill="red" height="2.6" width="2.6" x="125.5" y="63.0"><title>2017-08-19 21.4 km</title></rect><rect fill="#ffc700" height="2.6" width="2.6" x="125.5" y="66.5"><title>2017-08-20 11.7 km</title></rect><rect fill="#4dd2ff" height="2.6" width="2.6" x="129.0" y="45.5"><title>2017-08-21 7.8 km</title></rect><rect fill="#ffc600" height="2.6" width="2.6" x="129.0" y="49.0"><title>2017-08-22 11.8 km</title></rect><rect fill="#ffc700" height="2.6" width="2.6" x="129.0" y="52.5"><title>2017-08-23 11.7 km</title></rect><rect fill="#ffc700" height="2.6" width="2.6" x="129.0" y="56.0"><title>2017-08-24 11.8 km</title></rect><rect fill="#ffc700" height="2.6" width="2.6" x="129.0" y="59.5"><title>2017-08-25 11.7 km</title></rect><rect fill="red" height="2.6" width="2.6" x="129.0" y="63.0"><title>2017-08-26 22.5 km</title></rect><rect fill="#444444" height="2.6" width="2.6" x="129.0" y="66.5"><title>2017-08-27</title></rect><rect fill="#4dd2ff" height="2.6" width="2.6" x="132.5" y="45.5"><title>2017-08-28 7.9 km</title></rect><rect fill="#ffc800" height="2.6" width="2.6" x="132.5" y="49.0"><title>2017-08-29 11.5 km</title></rect><rect fill="#ffcc00" height="2.6" width="2.6" x="132.5" y="52.5"><title>2017-08-30 10.7 km</title></rect><rect fill="#ffc500" height="2.6" width="2.6" x="132.5" y="56.0"><title>2017-08-31 12.1 km</title></rect><rect fill="#ffc800" height="2.6" width="2.6" x="132.5" y="59.5"><title>2017-09-01 11.4 km</title></rect><rect fill="red" height="2.6" width="2.6" x="132.5" y="63.0"><title>2017-09-02 24.3 km</title></rect><rect fill="#ffb300" height="2.6" width="2.6" x="132.5" y="66.5"><title>2017-09-03 15.6 km</title></rect><rect fill="#ffc800" height="2.6" width="2.6" x="136.0" y="45.5"><title>2017-09-04 11.5 km</title></rect><rect fill="#ffc800" height="2.6" width="2.6" x="136.0" y="49.0"><title>2017-09-05 11.6 km</title></rect><rect fill="#444444" height="2.6" width="2.6" x="136.0" y="52.5"><title>2017-09-06</title></rect><rect fill="#ffce00" height="2.6" width="2.6" x="136.0" y="56.0"><title>2017-09-07 10.3 km</title></rect><rect fill="#ffc400" height="2.6" width="2.6" x="136.0" y="59.5"><title>2017-09-08 12.2 km</title></rect><rect fill="#444444" height="2.6" width="2.6" x="136.0" y="63.0"><title>2017-09-09</title></rect><rect fill="red" height="2.6" width="2.6" x="136.0" y="66.5"><title>2017-09-10 42.5 km</title></rect><rect fill="#4dd2ff" height="2.6" width="2.6" x="139.5" y="45.5"><title>2017-09-11 7.7 km</title></rect><rect fill="#ffc700" height="2.6" width="2.6" x="139.5" y="49.0"><title>2017-09-12 11.6 km</title></rect><rect fill="#ffc400" height="2.6" width="2.6" x="139.5" y="52.5"><title>2017-09-13 12.3 km</title></rect><rect fill="#ffc700" height="2.6" width="2.6" x="139.5" y="56.0"><title>2017-09-14 11.7 km</title></rect><rect fill="#ffc400" height="2.6" width="2.6" x="139.5" y="59.5"><title>2017-09-15 12.3 km</title></rect><rect fill="red" height="2.6" width="2.6" x="139.5" y="63.0"><title>2017-09-16 21.5 km</title></rect><rect fill="#ffc800" height="2.6" width="2.6" x="139.5" y="66.5"><title>2017-09-17 11.4 km</title></rect><rect fill="#ffc400" height="2.6" width="2.6" x="143.0" y="45.5"><title>2017-09-18 12.2 km</title></rect><rect fill="#ffcf00" height="2.6" width="2.6" x="143.0" y="49.0"><title>2017-09-19 10.1 km</title></rect><rect fill="#ffc600" height="2.6" width="2.6" x="143.0" y="52.5"><title>2017-09-20 11.8 km</title></rect><rect fill="#4dd2ff" height="2.6" width="2.6" x="143.0" y="56.0"><title>2017-09-21 9.7 km</title></rect><rect fill="#ffc700" height="2.6" width="2.6" x="143.0" y="59.5"><title>2017-09-22 11.7 km</title></rect><rect fill="red" height="2.6" width="2.6" x="143.0" y="63.0"><title>2017-09-23 21.4 km</title></rect><rect fill="#444444" height="2.6" width="2.6" x="143.0" y="66.5"><title>2017-09-24</title></rect><rect fill="#ffc400" height="2.6" width="2.6" x="146.5" y="45.5"><title>2017-09-25 12.3 km</title></rect><rect fill="#ffc800" height="2.6" width="2.6" x="146.5" y="49.0"><title>2017-09-26 11.5 km</title></rect><rect fill="#4dd2ff" height="2.6" width="2.6" x="146.5" y="52.5"><title>2017-09-27 7.6 km</title></rect><rect fill="#ffce00" height="2.6" width="2.6" x="146.5" y="56.0"><title>2017-09-28 10.4 km</title></rect><rect fill="#ffc300" height="2.6" width="2.6" x="146.5" y="59.5"><title>2017-09-29 12.4 km</title></rect><rect fill="#444444" height="2.6" width="2.6" x="146.5" y="63.0"><title>2017-09-30</title></rect><rect fill="red" height="2.6" width="2.6" x="146.5" y="66.5"><title>2017-10-01 50.3 km</title></rect><rect fill="#444444" height="2.6" width="2.6" x="150.0" y="45.5"><title>2017-10-02</title></rect><rect fill="#444444" height="2.6" width="2.6" x="150.0" y="49.0"><title>2017-10-03</title></rect><rect fill="#444444" height="2.6" width="2.6" x="150.0" y="52.5"><title>2017-10-04</title></rect><rect fill="#444444" height="2.6" width="2.6" x="150.0" y="56.0"><title>2017-10-05</title></rect><rect fill="#444444" height="2.6" width="2.6" x="150.0" y="59.5"><title>2017-10-06</title></rect><rect fill="#444444" height="2.6" width="2.6" x="150.0" y="63.0"><title>2017-10-07</title></rect><rect fill="#4dd2ff" height="2.6" width="2.6" x="150.0" y="66.5"><title>2017-10-08 3.0 km</title></rect><rect fill="#444444" height="2.6" width="2.6" x="153.5" y="45.5"><title>2017-10-09</title></rect><rect fill="#444444" height="2.6" width="2.6" x="153.5" y="49.0"><title>2017-10-10</title></rect><rect fill="#4dd2ff" height="2.6" width="2.6" x="153.5" y="52.5"><title>2017-10-11 6.5 km</title></rect><rect fill="#444444" height="2.6" width="2.6" x="153.5" y="56.0"><title>2017-10-12</title></rect><rect fill="#4dd2ff" height="2.6" width="2.6" x="153.5" y="59.5"><title>2017-10-13 5.2 km</title></rect><rect fill="#444444" height="2.6" width="2.6" x="153.5" y="63.0"><title>2017-10-14</title></rect><rect fill="#ffc800" height="2.6" width="2.6" x="153.5" y="66.5"><title>2017-10-15 11.5 km</title></rect><rect fill="#444444" height="2.6" width="2.6" x="157.0" y="45.5"><title>2017-10-16</title></rect><rect fill="#ffc500" height="2.6" width="2.6" x="157.0" y="49.0"><title>2017-10-17 12.2 km</title></rect><rect fill="#ffc500" height="2.6" width="2.6" x="157.0" y="52.5"><title>2017-10-18 12.1 km</title></rect><rect fill="#ffc400" height="2.6" width="2.6" x="157.0" y="56.0"><title>2017-10-19 12.3 km</title></rect><rect fill="#ffcc00" height="2.6" width="2.6" x="157.0" y="59.5"><title>2017-10-20 10.7 km</title></rect><rect fill="red" height="2.6" width="2.6" x="157.0" y="63.0"><title>2017-10-21 21.3 km</title></rect><rect fill="#4dd2ff" height="2.6" width="2.6" x="157.0" y="66.5"><title>2017-10-22 5.6 km</title></rect><rect fill="#ffc400" height="2.6" width="2.6" x="160.5" y="45.5"><title>2017-10-23 12.2 km</title></rect><rect fill="#ffc500" height="2.6" width="2.6" x="160.5" y="49.0"><title>2017-10-24 12.1 km</title></rect><rect fill="#ffc800" height="2.6" width="2.6" x="160.5" y="52.5"><title>2017-10-25 11.4 km</title></rect><rect fill="#ffc800" height="2.6" width="2.6" x="160.5" y="56.0"><title>2017-10-26 11.6 km</title></rect><rect fill="#ffc500" height="2.6" width="2.6" x="160.5" y="59.5"><title>2017-10-27 12.1 km</title></rect><rect fill="red" height="2.6" width="2.6" x="160.5" y="63.0"><title>2017-10-28 21.3 km</title></rect><rect fill="#4dd2ff" height="2.6" width="2.6" x="160.5" y="66.5"><title>2017-10-29 8.6 km</title></rect><rect fill="#ffc800" height="2.6" width="2.6" x="164.0" y="45.5"><title>2017-10-30 11.4 km</title></rect><rect fill="#ffc500" height="2.6" width="2.6" x="164.0" y="49.0"><title>2017-10-31 12.1 km</title></rect><rect fill="#ffc400" height="2.6" width="2.6" x="164.0" y="52.5"><title>2017-11-01 12.2 km</title></rect><rect fill="#ffc500" height="2.6" width="2.6" x="164.0" y="56.0"><title>2017-11-02 12.1 km</title></rect><rect fill="#444444" height="2.6" width="2.6" x="164.0" y="59.5"><title>2017-11-03</title></rect><rect fill="#ffce00" height="2.6" width="2.6" x="164.0" y="63.0"><title>2017-11-04 10.3 km</title></rect><rect fill="red" height="2.6" width="2.6" x="164.0" y="66.5"><title>2017-11-05 43.0 km</title></rect><rect fill="#4dd2ff" height="2.6" width="2.6" x="167.5" y="45.5"><title>2017-11-06 8.7 km</title></rect><rect fill="#ffcf00" height="2.6" width="2.6" x="167.5" y="49.0"><title>2017-11-07 10.0 km</title></rect><rect fill="#ffcc00" height="2.6" width="2.6" x="167.5" y="52.5"><title>2017-11-08 10.8 km</title></rect><rect fill="#ffc400" height="2.6" width="2.6" x="167.5" y="56.0"><title>2017-11-09 12.2 km</title></rect><rect fill="#ffc400" height="2.6" width="2.6" x="167.5" y="59.5"><title>2017-11-10 12.2 km</title></rect><rect fill="#ffcf00" height="2.6" width="2.6" x="167.5" y="63.0"><title>2017-11-11 10.0 km</title></rect><rect fill="red" height="2.6" width="2.6" x="167.5" y="66.5"><title>2017-11-12 43.3 km</title></rect><rect fill="#ffcc00" height="2.6" width="2.6" x="171.0" y="45.5"><title>2017-11-13 10.7 km</title></rect><rect fill="#ffcf00" height="2.6" width="2.6" x="171.0" y="49.0"><title>2017-11-14 10.2 km</title></rect><rect fill="#ffc700" height="2.6" width="2.6" x="171.0" y="52.5"><title>2017-11-15 11.6 km</title></rect><rect fill="#4dd2ff" height="2.6" width="2.6" x="171.0" y="56.0"><title>2017-11-16 7.4 km</title></rect><rect fill="#ffcf00" height="2.6" width="2.6" x="171.0" y="59.5"><title>2017-11-17 10.1 km</title></rect><rect fill="#ffc500" height="2.6" width="2.6" x="171.0" y="63.0"><title>2017-11-18 12.1 km</title></rect><rect fill="red" height="2.6" width="2.6" x="171.0" y="66.5"><title>2017-11-19 21.2 km</title></rect><rect fill="#ffcd00" height="2.6" width="2.6" x="174.5" y="45.5"><title>2017-11-20 10.5 km</title></rect><rect fill="#ffc800" height="2.6" width="2.6" x="174.5" y="49.0"><title>2017-11-21 11.5 km</title></rect><rect fill="#ffca00" height="2.6" width="2.6" x="174.5" y="52.5"><title>2017-11-22 11.1 km</title></rect><rect fill="#ffc700" height="2.6" width="2.6" x="174.5" y="56.0"><title>2017-11-23 11.7 km</title></rect><rect fill="#ffce00" height="2.6" width="2.6" x="174.5" y="59.5"><title>2017-11-24 10.2 km</title></rect><rect fill="red" height="2.6" width="2.6" x="174.5" y="63.0"><title>2017-11-25 21.4 km</title></rect><rect fill="#ffb400" height="2.6" width="2.6" x="174.5" y="66.5"><title>2017-11-26 15.4 km</title></rect><rect fill="#ffc400" height="2.6" width="2.6" x="178.0" y="45.5"><title>2017-11-27 12.3 km</title></rect><rect fill="#ffcd00" height="2.6" width="2.6" x="178.0" y="49.0"><title>2017-11-28 10.6 km</title></rect><rect fill="#4dd2ff" height="2.6" width="2.6" x="178.0" y="52.5"><title>2017-11-29 6.0 km</title></rect><rect fill="#ffb300" height="2.6" width="2.6" x="178.0" y="56.0"><title>2017-11-30 15.5 km</title></rect><rect fill="#4dd2ff" height="2.6" width="2.6" x="178.0" y="59.5"><title>2017-12-01 0.8 km</title></rect><rect fill="red" height="2.6" width="2.6" x="178.0" y="63.0"><title>2017-12-02 21.3 km</title></rect><rect fill="#ffc800" height="2.6" width="2.6" x="178.0" y="66.5"><title>2017-12-03 11.6 km</title></rect><rect fill="#ffcf00" height="2.6" width="2.6" x="181.5" y="45.5"><title>2017-12-04 10.1 km</title></rect><rect fill="#ffc900" height="2.6" width="2.6" x="181.5" y="49.0"><title>2017-12-05 11.4 km</title></rect><rect fill="#ffc400" height="2.6" width="2.6" x="181.5" y="52.5"><title>2017-12-06 12.3 km</title></rect><rect fill="#ffcf00" height="2.6" width="2.6" x="181.5" y="56.0"><title>2017-12-07 10.2 km</title></rect><rect fill="#ffc800" height="2.6" width="2.6" x="181.5" y="59.5"><title>2017-12-08 11.5 km</title></rect><rect fill="#444444" height="2.6" width="2.6" x="181.5" y="63.0"><title>2017-12-09</title></rect><rect fill="#4dd2ff" height="2.6" width="2.6" x="181.5" y="66.5"><title>2017-12-10 6.2 km</title></rect><rect fill="#ffcf00" height="2.6" width="2.6" x="185.0" y="45.5"><title>2017-12-11 10.2 km</title></rect><rect fill="#ffc400" height="2.6" width="2.6" x="185.0" y="49.0"><title>2017-12-12 12.2 km</title></rect><rect fill="#ffc400" height="2.6" width="2.6" x="185.0" y="52.5"><title>2017-12-13 12.2 km</title></rect><rect fill="#ffcf00" height="2.6" width="2.6" x="185.0" y="56.0"><title>2017-12-14 10.1 km</title></rect><rect fill="#ffaa00" height="2.6" width="2.6" x="185.0" y="59.5"><title>2017-12-15 17.3 km</title></rect><rect fill="#4dd2ff" height="2.6" width="2.6" x="185.0" y="63.0"><title>2017-12-16 8.2 km</title></rect><rect fill="red" height="2.6" width="2.6" x="185.0" y="66.5"><title>2017-12-17 24.4 km</title></rect><rect fill="#ffcf00" height="2.6" width="2.6" x="188.5" y="45.5"><title>2017-12-18 10.1 km</title></rect><rect fill="#ffcc00" height="2.6" width="2.6" x="188.5" y="49.0"><title>2017-12-19 10.7 km</title></rect><rect fill="#ffc400" height="2.6" width="2.6" x="188.5" y="52.5"><title>2017-12-20 12.3 km</title></rect><rect fill="#444444" height="2.6" width="2.6" x="188.5" y="56.0"><title>2017-12-21</title></rect><rect fill="#ffbe00" height="2.6" width="2.6" x="188.5" y="59.5"><title>2017-12-22 13.4 km</title></rect><rect fill="#ffc400" height="2.6" width="2.6" x="188.5" y="63.0"><title>2017-12-23 12.2 km</title></rect><rect fill="#444444" height="2.6" width="2.6" x="188.5" y="66.5"><title>2017-12-24</title></rect><rect fill="#ffc700" height="2.6" width="2.6" x="192.0" y="45.5"><title>2017-12-25 11.6 km</title></rect><rect fill="#ffb400" height="2.6" width="2.6" x="192.0" y="49.0"><title>2017-12-26 15.3 km</title></rect><rect fill="#ffb500" height="2.6" width="2.6" x="192.0" y="52.5"><title>2017-12-27 15.2 km</title></rect><rect fill="#ffb300" height="2.6" width="2.6" x="192.0" y="56.0"><title>2017-12-28 15.6 km</title></rect><rect fill="#ffb400" height="2.6" width="2.6" x="192.0" y="59.5"><title>2017-12-29 15.4 km</title></rect><rect fill="red" height="2.6" width="2.6" x="192.0" y="63.0"><title>2017-12-30 24.2 km</title></rect><rect fill="#444444" height="2.6" width="2.6" x="192.0" y="66.5"><title>2017-12-31</title></rect></svg>