<?xml version="1.0" encoding="utf-8" ?>
<svg baseProfile="full" height="98mm" version="1.1" viewBox="0,0,200,98" width="200mm" xmlns="http://www.w3.org/2000/svg" xmlns:ev="http://www.w3.org/2001/xml-events" xmlns:xlink="http://www.w3.org/1999/xlink"><defs /><rect fill="#222222" height="98" width="200" x="0" y="0" /><text fill="#FFFFFF" style="font-size:12px; font-family:Arial; font-weight:bold;" x="10" y="20">2019 Running</text><text fill="#FFFFFF" style="font-size:4px; font-family:Arial" x="10" y="78">Runner</text><text fill="#FFFFFF" style="font-size:9px; font-family:Arial" x="10" y="88">cigar</text><text fill="#FFFFFF" style="font-size:4px; font-family:Arial" x="65" y="78">SPECIAL TRACKS</text><rect fill="yellow" height="2.6" width="2.6" x="65" y="81" /><text fill="#FFFFFF" style="font-size:3px; font-family:Arial" x="70" y="83.5">Over 10.0 km</text><rect fill="red" height="2.6" width="2.6" x="65" y="85" /><text fill="#FFFFFF" style="font-size:3px; font-family:Arial" x="70" y="87.5">Over 20.0 km</text><text fill="#FFFFFF" style="font-size:4px; font-family:Arial" x="120" y="78">STATISTICS</text><text fill="#FFFFFF" style="font-size:3px; font-family:Arial" x="120" y="83">Number: 341</text><text fill="#FFFFFF" style="font-size:3px; font-family:Arial" x="120" y="88">Weekly: 6.6</text><text fill="#FFFFFF" style="font-size:3px; font-family:Arial" x="141" y="83">Total: 4045.5 km</text><text fill="#FFFFFF" style="font-size:3px; font-family:Arial" x="141" y="88">Avg: 11.9 km</text><text fill="#FFFFFF" style="font-size:3px; font-family:Arial" x="167" y="83">Min: 2.3 km</text><text fill="#FFFFFF" style="font-size:3px; font-family:Arial" x="167" y="88">Max: 45.0 km</text><text dominant-baseline="hanging" fill="#FFFFFF" style="font-size:10.0px; font-family:Arial;" x="10" y="30">2019</text><text dominant-baseline="hanging" fill="#FFFFFF" style="font-size:4.125px; font-family:Arial;" x="175" y="35">4045.5 km</text><text fill="#FFFFFF" style="font-size:2.5px; font-family:Arial" x="10.0" y="44">Jan</text><text fill="#FFFFFF" style="font-size:2.5px; font-family:Arial" x="25.5" y="44">Feb</text><text fill="#FFFFFF" style="font-size:2.5px; font-family:Arial" x="41.0" y="44">Mar</text><text fill="#FFFFFF" style="font-size:2.5px; font-family:Arial" x="56.5" y="44">Apr</text><text fill="#FFFFFF" style="font-size:2.5px; font-family:Arial" x="72.0" y="44">May</text><text fill="#FFFFFF" style="font-size:2.5px; font-family:Arial" x="87.5" y="44">Jun</text><text fill="#FFFFFF" style="font-size:2.5px; font-family:Arial" x="103.0" y="44">Jul</text><text fill="#FFFFFF" style="font-size:2.5px; font-family:Arial" x="118.5" y="44">Aug</text><text fill="#FFFFFF" style="font-size:2.5px; font-family:Arial" x="134.0" y="44">Sep</text><text fill="#FFFFFF" style="font-size:2.5px; font-family:Arial" x="149.5" y="44">Oct</text><text fill="#FFFFFF" style="font-size:2.5px; font-family:Arial" x="165.0" y="44">Nov</text><text fill="#FFFFFF" style="font-size:2.5px; font-family:Arial" x="180.5" y="44">Dec</text><rect fill="#4dd2ff" height="2.6" width="2.6" x="10.0" y="49.0"><title>2019-01-01 5.3 km</title></rect><rect fill="#ffca00" height="2.6" width="2.6" x="10.0" y="52.5"><title>2019-01-02 11.2 km</title></rect><rect fill="#ffca00" height="2.6" width="2.6" x="10.0" y="56.0"><title>2019-01-03 11.2 km</title></rect><rect fill="#ffca00" height="2.6" width="2.6" x="10.0" y="59.5"><title>2019-01-04 11.2 km</title></rect><rect fill="#ffc900" height="2.6" width="2.6" x="10.0" y="63.0"><title>2019-01-05 11.4 km</title></rect><rect fill="red" height="2.6" width="2.6" x="10.0" y="66.5"><title>2019-01-06 22.2 km</title></rect><rect fill="#ffc900" height="2.6" width="2.6" x="13.5" y="45.5"><title>2019-01-07 11.3 km</title></rect><rect fill="#ffc900" height="2.6" width="2.6" x="13.5" y="49.0"><title>2019-01-08 11.2 km</title></rect><rect fill="#ffc900" height="2.6" width="2.6" x="13.5" y="52.5"><title>2019-01-09 11.2 km</title></rect><rect fill="#ffc800" height="2.6" width="2.6" x="13.5" y="56.0"><title>2019-01-10 11.6 km</title></rect><rect fill="#ffca00" height="2.6" width="2.6" x="13.5" y="59.5"><title>2019-01-11 11.2 km</title></rect><rect fill="#ffc500" height="2.6" width="2.6" x="13.5" y="63.0"><title>2019-01-12 12.0 km</title></rect><rect fill="#444444" height="2.6" width="2.6" x="13.5" y="66.5"><title>2019-01-13</title></rect><rect fill="#ffc800" height="2.6" width="2.6" x="17.0" y="45.5"><title>2019-01-14 11.5 km</title></rect><rect fill="#ffca00" height="2.6" width="2.6" x="17.0" y="49.0"><title>2019-01-15 11.2 km</title></rect><rect fill="#ffc900" height="2.6" width="2.6" x="17.0" y="52.5"><title>2019-01-16 11.3 km</title></rect><rect fill="#ffd000" height="2.6" width="2.6" x="17.0" y="56.0"><title>2019-01-17 10.2 km</title></rect><rect fill="#444444" height="2.6" width="2.6" x="17.0" y="59.5"><title>2019-01-18</title></rect><rect fill="red" height="2.6" width="2.6" x="17.0" y="63.0"><title>2019-01-19 21.4 km</title></rect><rect fill="#444444" height="2.6" width="2.6" x="17.0" y="66.5"><title>2019-01-20</title></rect><rect fill="#ffca00" height="2.6" width="2.6" x="20.5" y="45.5"><title>2019-01-21 11.2 km</title></rect><rect fill="#ffd000" height="2.6" width="2.6" x="20.5" y="49.0"><title>2019-01-22 10.2 km</title></rect><rect fill="#ffcc00" height="2.6" width="2.6" x="20.5" y="52.5"><title>2019-01-23 10.9 km</title></rect><rect fill="#4dd2ff" height="2.6" width="2.6" x="20.5" y="56.0"><title>2019-01-24 8.2 km</title></rect><rect fill="#ffc900" height="2.6" width="2.6" x="20.5" y="59.5"><title>2019-01-25 11.4 km</title></rect><rect fill="red" height="2.6" width="2.6" x="20.5" y="63.0"><title>2019-01-26 22.4 km</title></rect><rect fill="#ffd100" height="2.6" width="2.6" x="20.5" y="66.5"><title>2019-01-27 10.1 km</title></rect><rect fill="#ffd100" height="2.6" width="2.6" x="24.0" y="45.5"><title>2019-01-28 10.0 km</title></rect><rect fill="#ffc800" height="2.6" width="2.6" x="24.0" y="49.0"><title>2019-01-29 11.5 km</title></rect><rect fill="#ffc700" height="2.6" width="2.6" x="24.0" y="52.5"><title>2019-01-30 11.7 km</title></rect><rect fill="#ffca00" height="2.6" width="2.6" x="24.0" y="56.0"><title>2019-01-31 11.1 km</title></rect><rect fill="#ffca00" height="2.6" width="2.6" x="24.0" y="59.5"><title>2019-02-01 11.2 km</title></rect><rect fill="#ffd000" height="2.6" width="2.6" x="24.0" y="63.0"><title>2019-02-02 10.2 km</title></rect><rect fill="#ffca00" height="2.6" width="2.6" x="24.0" y="66.5"><title>2019-02-03 11.2 km</title></rect><rect fill="#ffc800" height="2.6" width="2.6" x="27.5" y="45.5"><title>2019-02-04 11.6 km</title></rect><rect fill="red" height="2.6" width="2.6" x="27.5" y="49.0"><title>2019-02-05 24.1 km</title></rect><rect fill="#ffc300" height="2.6" width="2.6" x="27.5" y="52.5"><title>2019-02-06 12.4 km</title></rect><rect fill="#ffc600" height="2.6" width="2.6" x="27.5" y="56.0"><title>2019-02-07 11.8 km</title></rect><rect fill="#ffc600" height="2.6" width="2.6" x="27.5" y="59.5"><title>2019-02-08 11.8 km</title></rect><rect fill="#ffa600" height="2.6" width="2.6" x="27.5" y="63.0"><title>2019-02-09 17.2 km</title></rect><rect fill="red" height="2.6" width="2.6" x="27.5" y="66.5"><title>2019-02-10 22.4 km</title></rect><rect fill="#ffca00" height="2.6" width="2.6" x="31.0" y="45.5"><title>2019-02-11 11.1 km</title></rect><rect fill="#444444" height="2.6" width="2.6" x="31.0" y="49.0"><title>2019-02-12</title></rect><rect fill="#ffc900" height="2.6" width="2.6" x="31.0" y="52.5"><title>2019-02-13 11.3 km</title></rect><rect fill="#ffca00" height="2.6" width="2.6" x="31.0" y="56.0"><title>2019-02-14 11.1 km</title></rect><rect fill="#444444" height="2.6" width="2.6" x="31.0" y="59.5"><title>2019-02-15</title></rect><rect fill="#ffac00" height="2.6" width="2.6" x="31.0" y="63.0"><title>2019-02-16 16.2 km</title></rect><rect fill="red" height="2.6" width="2.6" x="31.0" y="66.5"><title>2019-02-17 24.2 km</title></rect><rect fill="#444444" height="2.6" width="2.6" x="34.5" y="45.5"><title>2019-02-18</title></rect><rect fill="#ffca00" height="2.6" width="2.6" x="34.5" y="49.0"><title>2019-02-19 11.1 km</title></rect><rect fill="#4dd2ff" height="2.6" width="2.6" x="34.5" y="52.5"><title>2019-02-20 6.3 km</title></rect><rect fill="#ffca00" height="2.6" width="2.6" x="34.5" y="56.0"><title>2019-02-21 11.2 km</title></rect><rect fill="#ffbe00" height="2.6" width="2.6" x="34.5" y="59.5"><title>2019-02-22 13.3 km</title></rect><rect fill="#ffc400" height="2.6" width="2.6" x="34.5" y="63.0"><title>2019-02-23 12.2 km</title></rect><rect fill="#ffd000" height="2.6" width="2.6" x="34.5" y="66.5"><title>2019-02-24 10.2 km</title></rect><rect fill="red" height="2.6" width="2.6" x="38.0" y="45.5"><title>2019-02-25 21.6 km</title></rect><rect fill="#ffce00" height="2.6" width="2.6" x="38.0" y="49.0"><title>2019-02-26 10.5 km</title></rect><rect fill="#4dd2ff" height="2.6" width="2.6" x="38.0" y="52.5"><title>2019-02-27 9.8 km</title></rect><rect fill="#ffcd00" height="2.6" width="2.6" x="38.0" y="56.0"><title>2019-02-28 10.6 km</title></rect><rect fill="#ffc900" height="2.6" width="2.6" x="38.0" y="59.5"><title>2019-03-01 11.3 km</title></rect><rect fill="#ffc700" height="2.6" width="2.6" x="38.0" y="63.0"><title>2019-03-02 11.7 km</title></rect><rect fill="red" height="2.6" width="2.6" x="38.0" y="66.5"><title>2019-03-03 22.3 km</title></rect><rect fill="#444444" height="2.6" width="2.6" x="41.5" y="45.5"><title>2019-03-04</title></rect><rect fill="#444444" height="2.6" width="2.6" x="41.5" y="49.0"><title>2019-03-05</title></rect><rect fill="#ffc100" height="2.6" width="2.6" x="41.5" y="52.5"><title>2019-03-06 12.6 km</title></rect><rect fill="#ffca00" height="2.6" width="2.6" x="41.5" y="56.0"><title>2019-03-07 11.1 km</title></rect><rect fill="#ffca00" height="2.6" width="2.6" x="41.5" y="59.5"><title>2019-03-08 11.1 km</title></rect><rect fill="#ffb300" height="2.6" width="2.6" x="41.5" y="63.0"><title>2019-03-09 15.1 km</title></rect><rect fill="#ffb200" height="2.6" width="2.6" x="41.5" y="66.5"><title>2019-03-10 15.2 km</title></rect><rect fill="#ffca00" height="2.6" width="2.6" x="45.0" y="45.5"><title>2019-03-11 11.2 km</title></rect><rect fill="#ffca00" height="2.6" width="2.6" x="45.0" y="49.0"><title>2019-03-12 11.1 km</title></rect><rect fill="#ffc700" height="2.6" width="2.6" x="45.0" y="52.5"><title>2019-03-13 11.7 km</title></rect><rect fill="#ffca00" height="2.6" width="2.6" x="45.0" y="56.0"><title>2019-03-14 11.2 km</title></rect><rect fill="#ffc700" height="2.6" width="2.6" x="45.0" y="59.5"><title>2019-03-15 11.6 km</title></rect><rect fill="red" height="2.6" width="2.6" x="45.0" y="63.0"><title>2019-03-16 25.1 km</title></rect><rect fill="#ffc800" height="2.6" width="2.6" x="45.0" y="66.5"><title>2019-03-17 11.5 km</title></rect><rect fill="#4dd2ff" height="2.6" width="2.6" x="48.5" y="45.5"><title>2019-03-18 9.5 km</title></rect><rect fill="#ffc700" height="2.6" width="2.6" x="48.5" y="49.0"><title>2019-03-19 11.7 km</title></rect><rect fill="#4dd2ff" height="2.6" width="2.6" x="48.5" y="52.5"><title>2019-03-20 9.5 km</title></rect><rect fill="#4dd2ff" height="2.6" width="2.6" x="48.5" y="56.0"><title>2019-03-21 9.6 km</title></rect><rect fill="#ffb200" height="2.6" width="2.6" x="48.5" y="59.5"><title>2019-03-22 15.2 km</title></rect><rect fill="#ffca00" height="2.6" width="2.6" x="48.5" y="63.0"><title>2019-03-23 11.1 km</title></rect><rect fill="red" height="2.6" width="2.6" x="48.5" y="66.5"><title>2019-03-24 42.8 km</title></rect><rect fill="#ffca00" height="2.6" width="2.6" x="52.0" y="45.5"><title>2019-03-25 11.2 km</title></rect><rect fill="#ffca00" height="2.6" width="2.6" x="52.0" y="49.0"><title>2019-03-26 11.1 km</title></rect><rect fill="#ffc700" height="2.6" width="2.6" x="52.0" y="52.5"><title>2019-03-27 11.7 km</title></rect><rect fill="#ffcc00" height="2.6" width="2.6" x="52.0" y="56.0"><title>2019-03-28 10.8 km</title></rect><rect fill="#4dd2ff" height="2.6" width="2.6" x="52.0" y="59.5"><title>2019-03-29 6.1 km</title></rect><rect fill="#ffb800" height="2.6" width="2.6" x="52.0" y="63.0"><title>2019-03-30 14.2 km</title></rect><rect fill="red" height="2.6" width="2.6" x="52.0" y="66.5"><title>2019-03-31 22.4 km</title></rect><rect fill="#ffc700" height="2.6" width="2.6" x="55.5" y="45.5"><title>2019-04-01 11.7 km</title></rect><rect fill="#ffcd00" height="2.6" width="2.6" x="55.5" y="49.0"><title>2019-04-02 10.7 km</title></rect><rect fill="#4dd2ff" height="2.6" width="2.6" x="55.5" y="52.5"><title>2019-04-03 8.0 km</title></rect><rect fill="#ff9b00" height="2.6" width="2.6" x="55.5" y="56.0"><title>2019-04-04 19.0 km</title></rect><rect fill="#ffc900" height="2.6" width="2.6" x="55.5" y="59.5"><title>2019-04-05 11.3 km</title></rect><rect fill="#ffc900" height="2.6" width="2.6" x="55.5" y="63.0"><title>2019-04-06 11.4 km</title></rect><rect fill="#ffb300" height="2.6" width="2.6" x="55.5" y="66.5"><title>2019-04-07 15.0 km</title></rect><rect fill="#ffcd00" height="2.6" width="2.6" x="59.0" y="45.5"><title>2019-04-08 10.7 km</title></rect><rect fill="#ffcc00" height="2.6" width="2.6" x="59.0" y="49.0"><title>2019-04-09 10.8 km</title></rect><rect fill="#ffca00" height="2.6" width="2.6" x="59.0" y="52.5"><title>2019-04-10 11.2 km</title></rect><rect fill="#444444" height="2.6" width="2.6" x="59.0" y="56.0"><title>2019-04-11</title></rect><rect fill="#ffcf00" height="2.6" width="2.6" x="59.0" y="59.5"><title>2019-04-12 10.3 km</title></rect><rect fill="#ffcd00" height="2.6" width="2.6" x="59.0" y="63.0"><title>2019-04-13 10.6 km</title></rect><rect fill="red" height="2.6" width="2.6" x="59.0" y="66.5"><title>2019-04-14 45.0 km</title></rect><rect fill="#ffd000" height="2.6" width="2.6" x="62.5" y="45.5"><title>2019-04-15 10.2 km</title></rect><rect fill="#4dd2ff" height="2.6" width="2.6" x="62.5" y="49.0"><title>2019-04-16 8.1 km</title></rect><rect fill="#ffcf00" height="2.6" width="2.6" x="62.5" y="52.5"><title>2019-04-17 10.3 km</title></rect><rect fill="#ffcf00" height="2.6" width="2.6" x="62.5" y="56.0"><title>2019-04-18 10.4 km</title></rect><rect fill="#4dd2ff" height="2.6" width="2.6" x="62.5" y="59.5"><title>2019-04-19 7.7 km</title></rect><rect fill="#ffb900" height="2.6" width="2.6" x="62.5" y="63.0"><title>2019-04-20 13.9 km</title></rect><rect fill="red" height="2.6" width="2.6" x="62.5" y="66.5"><title>2019-04-21 21.8 km</title></rect><rect fill="#4dd2ff" height="2.6" width="2.6" x="66.0" y="45.5"><title>2019-04-22 7.8 km</title></rect><rect fill="#4dd2ff" height="2.6" width="2.6" x="66.0" y="49.0"><title>2019-04-23 10.0 km</title></rect><rect fill="#ffcf00" height="2.6" width="2.6" x="66.0" y="52.5"><title>2019-04-24 10.4 km</title></rect><rect fill="#4dd2ff" height="2.6" width="2.6" x="66.0" y="56.0"><title>2019-04-25 8.1 km</title></rect><rect fill="#4dd2ff" height="2.6" width="2.6" x="66.0" y="59.5"><title>2019-04-26 9.5 km</title></rect><rect fill="red" height="2.6" width="2.6" x="66.0" y="63.0"><title>2019-04-27 21.7 km</title></rect><rect fill="#ffcf00" height="2.6" width="2.6" x="66.0" y="66.5"><title>2019-04-28 10.3 km</title></rect><rect fill="#ffcf00" height="2.6" width="2.6" x="69.5" y="45.5"><title>2019-04-29 10.3 km</title></rect><rect fill="#ffcf00" height="2.6" width="2.6" x="69.5" y="49.0"><title>2019-04-30 10.3 km</title></rect><rect fill="#ffb300" height="2.6" width="2.6" x="69.5" y="52.5"><title>2019-05-01 15.1 km</title></rect><rect fill="#ffb200" height="2.6" width="2.6" x="69.5" y="56.0"><title>2019-05-02 15.1 km</title></rect><rect fill="#ffb800" height="2.6" width="2.6" x="69.5" y="59.5"><title>2019-05-03 14.1 km</title></rect><rect fill="#ff9700" height="2.6" width="2.6" x="69.5" y="63.0"><title>2019-05-04 19.6 km</title></rect><rect fill="#ffcf00" height="2.6" width="2.6" x="69.5" y="66.5"><title>2019-05-05 10.3 km</title></rect><rect fill="#ffd000" height="2.6" width="2.6" x="73.0" y="45.5"><title>2019-05-06 10.2 km</title></rect><rect fill="#ffcf00" height="2.6" width="2.6" x="73.0" y="49.0"><title>2019-05-07 10.3 km</title></rect><rect fill="#4dd2ff" height="2.6" width="2.6" x="73.0" y="52.5"><title>2019-05-08 9.7 km</title></rect><rect fill="#ffcf00" height="2.6" width="2.6" x="73.0" y="56.0"><title>2019-05-09 10.3 km</title></rect><rect fill="#ffcf00" height="2.6" width="2.6" x="73.0" y="59.5"><title>2019-05-10 10.3 km</title></rect><rect fill="red" height="2.6" width="2.6" x="73.0" y="63.0"><title>2019-05-11 34.0 km</title></rect><rect fill="#ffc800" height="2.6" width="2.6" x="73.0" y="66.5"><title>2019-05-12 11.5 km</title></rect><rect fill="#ffd000" height="2.6" width="2.6" x="76.5" y="45.5"><title>2019-05-13 10.2 km</title></rect><rect fill="#ffd000" height="2.6" width="2.6" x="76.5" y="49.0"><title>2019-05-14 10.2 km</title></rect><rect fill="#ffcf00" height="2.6" width="2.6" x="76.5" y="52.5"><title>2019-05-15 10.2 km</title></rect><rect fill="#4dd2ff" height="2.6" width="2.6" x="76.5" y="56.0"><title>2019-05-16 8.1 km</title></rect><rect fill="#ffcf00" height="2.6" width="2.6" x="76.5" y="59.5"><title>2019-05-17 10.4 km</title></rect><rect fill="#ffcf00" height="2.6" width="2.6" x="76.5" y="63.0"><title>2019-05-18 10.3 km</title></rect><rect fill="#ff9900" height="2.6" width="2.6" x="76.5" y="66.5"><title>2019-05-19 19.4 km</title></rect><rect fill="#ffd000" height="2.6" width="2.6" x="80.0" y="45.5"><title>2019-05-20 10.2 km</title></rect><rect fill="#4dd2ff" height="2.6" width="2.6" x="80.0" y="49.0"><title>2019-05-21 9.3 km</title></rect><rect fill="#4dd2ff" height="2.6" width="2.6" x="80.0" y="52.5"><title>2019-05-22 8.0 km</title></rect><rect fill="#4dd2ff" height="2.6" width="2.6" x="80.0" y="56.0"><title>2019-05-23 9.3 km</title></rect><rect fill="#4dd2ff" height="2.6" width="2.6" x="80.0" y="59.5"><title>2019-05-24 9.5 km</title></rect><rect fill="red" height="2.6" width="2.6" x="80.0" y="63.0"><title>2019-05-25 20.4 km</title></rect><rect fill="#ffc200" height="2.6" width="2.6" x="80.0" y="66.5"><title>2019-05-26 12.5 km</title></rect><rect fill="#ffcf00" height="2.6" width="2.6" x="83.5" y="45.5"><title>2019-05-27 10.4 km</title></rect><rect fill="#ffd000" height="2.6" width="2.6" x="83.5" y="49.0"><title>2019-05-28 10.2 km</title></rect><rect fill="#4dd2ff" height="2.6" width="2.6" x="83.5" y="52.5"><title>2019-05-29 9.3 km</title></rect><rect fill="#ffae00" height="2.6" width="2.6" x="83.5" y="56.0"><title>2019-05-30 15.8 km</title></rect><rect fill="#ffd100" height="2.6" width="2.6" x="83.5" y="59.5"><title>2019-05-31 10.1 km</title></rect><rect fill="red" height="2.6" width="2.6" x="83.5" y="63.0"><title>2019-06-01 21.2 km</title></rect><rect fill="#ffc700" height="2.6" width="2.6" x="83.5" y="66.5"><title>2019-06-02 11.7 km</title></rect><rect fill="#444444" height="2.6" width="2.6" x="87.0" y="45.5"><title>2019-06-03</title></rect><rect fill="#444444" height="2.6" width="2.6" x="87.0" y="49.0"><title>2019-06-04</title></rect><rect fill="#ffcf00" height="2.6" width="2.6" x="87.0" y="52.5"><title>2019-06-05 10.3 km</title></rect><rect fill="#444444" height="2.6" width="2.6" x="87.0" y="56.0"><title>2019-06-06</title></rect><rect fill="#ffc900" height="2.6" width="2.6" x="87.0" y="59.5"><title>2019-06-07 11.3 km</title></rect><rect fill="#444444" height="2.6" width="2.6" x="87.0" y="63.0"><title>2019-06-08</title></rect><rect fill="red" height="2.6" width="2.6" x="87.0" y="66.5"><title>2019-06-09 21.2 km</title></rect><rect fill="#ffd000" height="2.6" width="2.6" x="90.5" y="45.5"><title>2019-06-10 10.2 km</title></rect><rect fill="#ffd000" height="2.6" width="2.6" x="90.5" y="49.0"><title>2019-06-11 10.2 km</title></rect><rect fill="#ffd000" height="2.6" width="2.6" x="90.5" y="52.5"><title>2019-06-12 10.2 km</title></rect><rect fill="#ffd000" height="2.6" width="2.6" x="90.5" y="56.0"><title>2019-06-13 10.2 km</title></rect><rect fill="#4dd2ff" height="2.6" width="2.6" x="90.5" y="59.5"><title>2019-06-14 8.1 km</title></rect><rect fill="#444444" height="2.6" width="2.6" x="90.5" y="63.0"><title>2019-06-15</title></rect><rect fill="red" height="2.6" width="2.6" x="90.5" y="66.5"><title>2019-06-16 26.0 km</title></rect><rect fill="#4dd2ff" height="2.6" width="2.6" x="94.0" y="45.5"><title>2019-06-17 8.1 km</title></rect><rect fill="#444444" height="2.6" width="2.6" x="94.0" y="49.0"><title>2019-06-18</title></rect><rect fill="#ffb700" height="2.6" width="2.6" x="94.0" y="52.5"><title>2019-06-19 14.4 km</title></rect><rect fill="#ffcb00" height="2.6" width="2.6" x="94.0" y="56.0"><title>2019-06-20 11.1 km</title></rect><rect fill="#ffcc00" height="2.6" width="2.6" x="94.0" y="59.5"><title>2019-06-21 10.8 km</title></rect><rect fill="red" height="2.6" width="2.6" x="94.0" y="63.0"><title>2019-06-22 21.9 km</title></rect><rect fill="#4dd2ff" height="2.6" width="2.6" x="94.0" y="66.5"><title>2019-06-23 8.3 km</title></rect><rect fill="#ffd000" height="2.6" width="2.6" x="97.5" y="45.5"><title>2019-06-24 10.1 km</title></rect><rect fill="#ffcf00" height="2.6" width="2.6" x="97.5" y="49.0"><title>2019-06-25 10.4 km</title></rect><rect fill="#ffd000" height="2.6" width="2.6" x="97.5" y="52.5"><title>2019-06-26 10.2 km</title></rect><rect fill="#ffcf00" height="2.6" width="2.6" x="97.5" y="56.0"><title>2019-06-27 10.3 km</title></rect><rect fill="#4dd2ff" height="2.6" width="2.6" x="97.5" y="59.5"><title>2019-06-28 8.1 km</title></rect><rect fill="#4dd2ff" height="2.6" width="2.6" x="97.5" y="63.0"><title>2019-06-29 9.0 km</title></rect><rect fill="red" height="2.6" width="2.6" x="97.5" y="66.5"><title>2019-06-30 26.7 km</title></rect><rect fill="#4dd2ff" height="2.6" width="2.6" x="101.0" y="45.5"><title>2019-07-01 6.7 km</title></rect><rect fill="#4dd2ff" height="2.6" width="2.6" x="101.0" y="49.0"><title>2019-07-02 8.2 km</title></rect><rect fill="#ffd000" height="2.6" width="2.6" x="101.0" y="52.5"><title>2019-07-03 10.1 km</title></rect><rect fill="#4dd2ff" height="2.6" width="2.6" x="101.0" y="56.0"><title>2019-07-04 8.1 km</title></rect><rect fill="#ffca00" height="2.6" width="2.6" x="101.0" y="59.5"><title>2019-07-05 11.1 km</title></rect><rect fill="red" height="2.6" width="2.6" x="101.0" y="63.0"><title>2019-07-06 21.1 km</title></rect><rect fill="#ffcf00" height="2.6" width="2.6" x="101.0" y="66.5"><title>2019-07-07 10.3 km</title></rect><rect fill="#4dd2ff" height="2.6" width="2.6" x="104.5" y="45.5"><title>2019-07-08 8.1 km</title></rect><rect fill="#4dd2ff" height="2.6" width="2.6" x="104.5" y="49.0"><title>2019-07-09 9.7 km</title></rect><rect fill="#4dd2ff" height="2.6" width="2.6" x="104.5" y="52.5"><title>2019-07-10 8.1 km</title></rect><rect fill="#ffcf00" height="2.6" width="2.6" x="104.5" y="56.0"><title>2019-07-11 10.3 km</title></rect><rect fill="#4dd2ff" height="2.6" width="2.6" x="104.5" y="59.5"><title>2019-07-12 8.1 km</title></rect><rect fill="#444444" height="2.6" width="2.6" x="104.5" y="63.0"><title>2019-07-13</title></rect><rect fill="red" height="2.6" width="2.6" x="104.5" y="66.5"><title>2019-07-14 23.1 km</title></rect><rect fill="#4dd2ff" height="2.6" width="2.6" x="108.0" y="45.5"><title>2019-07-15 8.1 km</title></rect><rect fill="#ffcf00" height="2.6" width="2.6" x="108.0" y="49.0"><title>2019-07-16 10.3 km</title></rect><rect fill="#444444" height="2.6" width="2.6" x="108.0" y="52.5"><title>2019-07-17</title></rect><rect fill="#4dd2ff" height="2.6" width="2.6" x="108.0" y="56.0"><title>2019-07-18 8.8 km</title></rect><rect fill="#ffc400" height="2.6" width="2.6" x="108.0" y="59.5"><title>2019-07-19 12.2 km</title></rect><rect fill="#ffcb00" height="2.6" width="2.6" x="108.0" y="63.0"><title>2019-07-20 11.0 km</title></rect><rect fill="#4dd2ff" height="2.6" width="2.6" x="108.0" y="66.5"><title>2019-07-21 7.0 km</title></rect><rect fill="#ffca00" height="2.6" width="2.6" x="111.5" y="45.5"><title>2019-07-22 11.2 km</title></rect><rect fill="#4dd2ff" height="2.6" width="2.6" x="111.5" y="49.0"><title>2019-07-23 8.1 km</title></rect><rect fill="#4dd2ff" height="2.6" width="2.6" x="111.5" y="52.5"><title>2019-07-24 7.3 km</title></rect><rect fill="#4dd2ff" height="2.6" width="2.6" x="111.5" y="56.0"><title>2019-07-25 5.1 km</title></rect><rect fill="#ffcf00" height="2.6" width="2.6" x="111.5" y="59.5"><title>2019-07-26 10.3 km</title></rect><rect fill="#4dd2ff" height="2.6" width="2.6" x="111.5" y="63.0"><title>2019-07-27 8.4 km</title></rect><rect fill="#ffb900" height="2.6" width="2.6" x="111.5" y="66.5"><title>2019-07-28 14.1 km</title></rect><rect fill="#4dd2ff" height="2.6" width="2.6" x="115.0" y="45.5"><title>2019-07-29 7.3 km</title></rect><rect fill="#4dd2ff" height="2.6" width="2.6" x="115.0" y="49.0"><title>2019-07-30 6.2 km</title></rect><rect fill="#4dd2ff" height="2.6" width="2.6" x="115.0" y="52.5"><title>2019-07-31 8.1 km</title></rect><rect fill="#ffcf00" height="2.6" width="2.6" x="115.0" y="56.0"><title>2019-08-01 10.3 km</title></rect><rect fill="#4dd2ff" height="2.6" width="2.6" x="115.0" y="59.5"><title>2019-08-02 7.2 km</title></rect><rect fill="red" height="2.6" width="2.6" x="115.0" y="63.0"><title>2019-08-03 21.4 km</title></rect><rect fill="#ffb700" height="2.6" width="2.6" x="115.0" y="66.5"><title>2019-08-04 14.4 km</title></rect><rect fill="#ffcf00" height="2.6" width="2.6" x="118.5" y="45.5"><title>2019-08-05 10.3 km</title></rect><rect fill="#4dd2ff" height="2.6" width="2.6" x="118.5" y="49.0"><title>2019-08-06 8.2 km</title></rect><rect fill="#4dd2ff" height="2.6" width="2.6" x="118.5" y="52.5"><title>2019-08-07 7.1 km</title></rect><rect fill="#ffc900" height="2.6" width="2.6" x="118.5" y="56.0"><title>2019-08-08 11.3 km</title></rect><rect fill="#ffce00" height="2.6" width="2.6" x="118.5" y="59.5"><title>2019-08-09 10.4 km</title></rect><rect fill="#4dd2ff" height="2.6" width="2.6" x="118.5" y="63.0"><title>2019-08-10 8.5 km</title></rect><rect fill="#ff9d00" height="2.6" width="2.6" x="118.5" y="66.5"><title>2019-08-11 18.7 km</title></rect><rect fill="#4dd2ff" height="2.6" width="2.6" x="122.0" y="45.5"><title>2019-08-12 5.9 km</title></rect><rect fill="#4dd2ff" height="2.6" width="2.6" x="122.0" y="49.0"><title>2019-08-13 7.0 km</title></rect><rect fill="#ffcf00" height="2.6" width="2.6" x="122.0" y="52.5"><title>2019-08-14 10.3 km</title></rect><rect fill="#ffc900" height="2.6" width="2.6" x="122.0" y="56.0"><title>2019-08-15 11.4 km</title></rect><rect fill="#ffc900" height="2.6" width="2.6" x="122.0" y="59.5"><title>2019-08-16 11.4 km</title></rect><rect fill="#ffcf00" height="2.6" width="2.6" x="122.0" y="63.0"><title>2019-08-17 10.3 km</title></rect><rect fill="red" height="2.6" width="2.6" x="122.0" y="66.5"><title>2019-08-18 20.5 km</title></rect><rect fill="#ffce00" height="2.6" width="2.6" x="125.5" y="45.5"><title>2019-08-19 10.6 km</title></rect><rect fill="#4dd2ff" height="2.6" width="2.6" x="125.5" y="49.0"><title>2019-08-20 8.2 km</title></rect><rect fill="#ffd000" height="2.6" width="2.6" x="125.5" y="52.5"><title>2019-08-21 10.1 km</title></rect><rect fill="#ffc900" height="2.6" width="2.6" x="125.5" y="56.0"><title>2019-08-22 11.3 km</title></rect><rect fill="#ffc900" height="2.6" width="2.6" x="125.5" y="59.5"><title>2019-08-23 11.4 km</title></rect><rect fill="#ffc200" height="2.6" width="2.6" x="125.5" y="63.0"><title>2019-08-24 12.6 km</title></rect><rect fill="#ffd000" height="2.6" width="2.6" x="125.5" y="66.5"><title>2019-08-25 10.2 km</title></rect><rect fill="#4dd2ff" height="2.6" width="2.6" x="129.0" y="45.5"><title>2019-08-26 6.3 km</title></rect><rect fill="#ffcf00" height="2.6" width="2.6" x="129.0" y="49.0"><title>2019-08-27 10.3 km</title></rect><rect fill="#ffd000" height="2.6" width="2.6" x="129.0" y="52.5"><title>2019-08-28 10.2 km</title></rect><rect fill="#ffb900" height="2.6" width="2.6" x="129.0" y="56.0"><title>2019-08-29 13.9 km</title></rect><rect fill="#ffcf00" height="2.6" width="2.6" x="129.0" y="59.5"><title>2019-08-30 10.3 km</title></rect><rect fill="#ff9900" height="2.6" width="2.6" x="129.0" y="63.0"><title>2019-08-31 19.3 km</title></rect><rect fill="#444444" height="2.6" width="2.6" x="129.0" y="66.5"><title>2019-09-01</title></rect><rect fill="#ffcf00" height="2.6" width="2.6" x="132.5" y="45.5"><title>2019-09-02 10.4 km</title></rect><rect fill="#ffc900" height="2.6" width="2.6" x="132.5" y="49.0"><title>2019-09-03 11.4 km</title></rect><rect fill="#ffd000" height="2.6" width="2.6" x="132.5" y="52.5"><title>2019-09-04 10.2 km</title></rect><rect fill="#ffc800" height="2.6" width="2.6" x="132.5" y="56.0"><title>2019-09-05 11.4 km</title></rect><rect fill="#ffc800" height="2.6" width="2.6" x="132.5" y="59.5"><title>2019-09-06 11.4 km</title></rect><rect fill="red" height="2.6" width="2.6" x="132.5" y="63.0"><title>2019-09-07 21.4 km</title></rect><rect fill="#ffca00" height="2.6" width="2.6" x="132.5" y="66.5"><title>2019-09-08 11.2 km</title></rect><rect fill="#ffca00" height="2.6" width="2.6" x="136.0" y="45.5"><title>2019-09-09 11.2 km</title></rect><rect fill="#ffcf00" height="2.6" width="2.6" x="136.0" y="49.0"><title>2019-09-10 10.2 km</title></rect><rect fill="#ffd000" height="2.6" width="2.6" x="136.0" y="52.5"><title>2019-09-11 10.2 km</title></rect><rect fill="#ffd000" height="2.6" width="2.6" x="136.0" y="56.0"><title>2019-09-12 10.2 km</title></rect><rect fill="#ffc800" height="2.6" width="2.6" x="136.0" y="59.5"><title>2019-09-13 11.5 km</title></rect><rect fill="red" height="2.6" width="2.6" x="136.0" y="63.0"><title>2019-09-14 22.2 km</title></rect><rect fill="#ffc800" height="2.6" width="2.6" x="136.0" y="66.5"><title>2019-09-15 11.5 km</title></rect><rect fill="#ffcf00" height="2.6" width="2.6" x="139.5" y="45.5"><title>2019-09-16 10.3 km</title></rect><rect fill="#ffce00" height="2.6" width="2.6" x="139.5" y="49.0"><title>2019-09-17 10.5 km</title></rect><rect fill="#ffc900" height="2.6" width="2.6" x="139.5" y="52.5"><title>2019-09-18 11.3 km</title></rect><rect fill="#ffcf00" height="2.6" width="2.6" x="139.5" y="56.0"><title>2019-09-19 10.3 km</title></rect><rect fill="#ffc900" height="2.6" width="2.6" x="139.5" y="59.5"><title>2019-09-20 11.3 km</title></rect><rect fill="#444444" height="2.6" width="2.6" x="139.5" y="63.0"><title>2019-09-21</title></rect><rect fill="#ff9b00" height="2.6" width="2.6" x="139.5" y="66.5"><title>2019-09-22 19.0 km</title></rect><rect fill="#ffd000" height="2.6" width="2.6" x="143.0" y="45.5"><title>2019-09-23 10.2 km</title></rect><rect fill="#ffcf00" height="2.6" width="2.6" x="143.0" y="49.0"><title>2019-09-24 10.3 km</title></rect><rect fill="#444444" height="2.6" width="2.6" x="143.0" y="52.5"><title>2019-09-25</title></rect><rect fill="#ff9e00" height="2.6" width="2.6" x="143.0" y="56.0"><title>2019-09-26 18.5 km</title></rect><rect fill="#4dd2ff" height="2.6" width="2.6" x="143.0" y="59.5"><title>2019-09-27 8.1 km</title></rect><rect fill="red" height="2.6" width="2.6" x="143.0" y="63.0"><title>2019-09-28 29.8 km</title></rect><rect fill="#4dd2ff" height="2.6" width="2.6" x="143.0" y="66.5"><title>2019-09-29 7.5 km</title></rect><rect fill="#ffc900" height="2.6" width="2.6" x="146.5" y="45.5"><title>2019-09-30 11.3 km</title></rect><rect fill="#ffb800" height="2.6" width="2.6" x="146.5" y="49.0"><title>2019-10-01 14.2 km</title></rect><rect fill="#ffb100" height="2.6" width="2.6" x="146.5" y="52.5"><title>2019-10-02 15.3 km</title></rect><rect fill="#4dd2ff" height="2.6" width="2.6" x="146.5" y="56.0"><title>2019-10-03 7.5 km</title></rect><rect fill="#444444" height="2.6" width="2.6" x="146.5" y="59.5"><title>2019-10-04</title></rect><rect fill="#ffce00" height="2.6" width="2.6" x="146.5" y="63.0"><title>2019-10-05 10.6 km</title></rect><rect fill="#ffc900" height="2.6" width="2.6" x="146.5" y="66.5"><title>2019-10-06 11.3 km</title></rect><rect fill="#444444" height="2.6" width="2.6" x="150.0" y="45.5"><title>2019-10-07</title></rect><rect fill="#ffca00" height="2.6" width="2.6" x="150.0" y="49.0"><title>2019-10-08 11.2 km</title></rect><rect fill="#ffc900" height="2.6" width="2.6" x="150.0" y="52.5"><title>2019-10-09 11.3 km</title></rect><rect fill="#ffcd00" height="2.6" width="2.6" x="150.0" y="56.0"><title>2019-10-10 10.7 km</title></rect><rect fill="#ffcb00" height="2.6" width="2.6" x="150.0" y="59.5"><title>2019-10-11 11.0 km</title></rect><rect fill="#ffcf00" height="2.6" width="2.6" x="150.0" y="63.0"><title>2019-10-12 10.4 km</title></rect><rect fill="red" height="2.6" width="2.6" x="150.0" y="66.5"><title>2019-10-13 22.1 km</title></rect><rect fill="#ffcc00" height="2.6" width="2.6" x="153.5" y="45.5"><title>2019-10-14 10.9 km</title></rect><rect fill="#4dd2ff" height="2.6" width="2.6" x="153.5" y="49.0"><title>2019-10-15 9.4 km</title></rect><rect fill="#ffd000" height="2.6" width="2.6" x="153.5" y="52.5"><title>2019-10-16 10.2 km</title></rect><rect fill="#ffca00" height="2.6" width="2.6" x="153.5" y="56.0"><title>2019-10-17 11.1 km</title></rect><rect fill="#4dd2ff" height="2.6" width="2.6" x="153.5" y="59.5"><title>2019-10-18 2.3 km</title></rect><rect fill="#ffc600" height="2.6" width="2.6" x="153.5" y="63.0"><title>2019-10-19 11.9 km</title></rect><rect fill="#444444" height="2.6" width="2.6" x="153.5" y="66.5"><title>2019-10-20</title></rect><rect fill="#ffce00" height="2.6" width="2.6" x="157.0" y="45.5"><title>2019-10-21 10.6 km</title></rect><rect fill="#ffce00" height="2.6" width="2.6" x="157.0" y="49.0"><title>2019-10-22 10.5 km</title></rect><rect fill="#ffcb00" height="2.6" width="2.6" x="157.0" y="52.5"><title>2019-10-23 11.0 km</title></rect><rect fill="red" height="2.6" width="2.6" x="157.0" y="56.0"><title>2019-10-24 27.4 km</title></rect><rect fill="#ffcf00" height="2.6" width="2.6" x="157.0" y="59.5"><title>2019-10-25 10.3 km</title></rect><rect fill="red" height="2.6" width="2.6" x="157.0" y="63.0"><title>2019-10-26 26.6 km</title></rect><rect fill="#ffcc00" height="2.6" width="2.6" x="157.0" y="66.5"><title>2019-10-27 10.9 km</title></rect><rect fill="#4dd2ff" height="2.6" width="2.6" x="160.5" y="45.5"><title>2019-10-28 8.1 km</title></rect><rect fill="#ffcf00" height="2.6" width="2.6" x="160.5" y="49.0"><title>2019-10-29 10.4 km</title></rect><rect fill="#444444" height="2.6" width="2.6" x="160.5" y="52.5"><title>2019-10-30</title></rect><rect fill="#444444" height="2.6" width="2.6" x="160.5" y="56.0"><title>2019-10-31</title></rect><rect fill="#ffcf00" height="2.6" width="2.6" x="160.5" y="59.5"><title>2019-11-01 10.4 km</title></rect><rect fill="#444444" height="2.6" width="2.6" x="160.5" y="63.0"><title>2019-11-02</title></rect><rect fill="red" height="2.6" width="2.6" x="160.5" y="66.5"><title>2019-11-03 42.8 km</title></rect><rect fill="#4dd2ff" height="2.6" width="2.6" x="164.0" y="45.5"><title>2019-11-04 8.1 km</title></rect><rect fill="#ffcf00" height="2.6" width="2.6" x="164.0" y="49.0"><title>2019-11-05 10.3 km</title></rect><rect fill="#ffd100" height="2.6" width="2.6" x="164.0" y="52.5"><title>2019-11-06 10.0 km</title></rect><rect fill="#4dd2ff" height="2.6" width="2.6" x="164.0" y="56.0"><title>2019-11-07 8.1 km</title></rect><rect fill="#4dd2ff" height="2.6" width="2.6" x="164.0" y="59.5"><title>2019-11-08 8.2 km</title></rect><rect fill="red" height="2.6" width="2.6" x="164.0" y="63.0"><title>2019-11-09 21.5 km</title></rect><rect fill="#ffc100" height="2.6" width="2.6" x="164.0" y="66.5"><title>2019-11-10 12.6 km</title></rect><rect fill="#4dd2ff" height="2.6" width="2.6" x="167.5" y="45.5"><title>2019-11-11 8.5 km</title></rect><rect fill="#4dd2ff" height="2.6" width="2.6" x="167.5" y="49.0"><title>2019-11-12 8.4 km</title></rect><rect fill="#444444" height="2.6" width="2.6" x="167.5" y="52.5"><title>2019-11-13</title></rect><rect fill="#ffc800" height="2.6" width="2.6" x="167.5" y="56.0"><title>2019-11-14 11.5 km</title></rect><rect fill="#ffcf00" height="2.6" width="2.6" x="167.5" y="59.5"><title>2019-11-15 10.4 km</title></rect><rect fill="#ffd000" height="2.6" width="2.6" x="167.5" y="63.0"><title>2019-11-16 10.2 km</title></rect><rect fill="red" height="2.6" width="2.6" x="167.5" y="66.5"><title>2019-11-17 43.7 km</title></rect><rect fill="#444444" height="2.6" width="2.6" x="171.0" y="45.5"><title>2019-11-18</title></rect><rect fill="#ffcf00" height="2.6" width="2.6" x="171.0" y="49.0"><title>2019-11-19 10.4 km</title></rect><rect fill="#4dd2ff" height="2.6" width="2.6" x="171.0" y="52.5"><title>2019-11-20 8.1 km</title></rect><rect fill="#4dd2ff" height="2.6" width="2.6" x="171.0" y="56.0"><title>2019-11-21 8.8 km</title></rect><rect fill="#4dd2ff" height="2.6" width="2.6" x="171.0" y="59.5"><title>2019-11-22 8.3 km</title></rect><rect fill="#4dd2ff" height="2.6" width="2.6" x="171.0" y="63.0"><title>2019-11-23 9.9 km</title></rect><rect fill="red" height="2.6" width="2.6" x="171.0" y="66.5"><title>2019-11-24 22.3 km</title></rect><rect fill="#4dd2ff" height="2.6" width="2.6" x="174.5" y="45.5"><title>2019-11-25 8.1 km</title></rect><rect fill="#4dd2ff" height="2.6" width="2.6" x="174.5" y="49.0"><title>2019-11-26 9.5 km</title></rect><rect fill="#4dd2ff" height="2.6" width="2.6" x="174.5" y="52.5"><title>2019-11-27 6.2 km</title></rect><rect fill="#ffcf00" height="2.6" width="2.6" x="174.5" y="56.0"><title>2019-11-28 10.3 km</title></rect><rect fill="#444444" height="2.6" width="2.6" x="174.5" y="59.5"><title>2019-11-29</title></rect><rect fill="#ffd000" height="2.6" width="2.6" x="174.5" y="63.0"><title>2019-11-30 10.2 km</title></rect><rect fill="#ffc700" height="2.6" width="2.6" x="174.5" y="66.5"><title>2019-12-01 11.6 km</title></rect><rect fill="#4dd2ff" height="2.6" width="2.6" x="178.0" y="45.5"><title>2019-12-02 4.1 km</title></rect><rect fill="#ffcf00" height="2.6" width="2.6" x="178.0" y="49.0"><title>2019-12-03 10.3 km</title></rect><rect fill="#444444" height="2.6" width="2.6" x="178.0" y="52.5"><title>2019-12-04</title></rect><rect fill="#4dd2ff" height="2.6" width="2.6" x="178.0" y="56.0"><title>2019-12-05 8.2 km</title></rect><rect fill="#4dd2ff" height="2.6" width="2.6" x="178.0" y="59.5"><title>2019-12-06 8.8 km</title></rect><rect fill="red" height="2.6" width="2.6" x="178.0" y="63.0"><title>2019-12-07 22.3 km</title></rect><rect fill="#ffc700" height="2.6" width="2.6" x="178.0" y="66.5"><title>2019-12-08 11.6 km</title></rect><rect fill="#444444" height="2.6" width="2.6" x="181.5" y="45.5"><title>2019-12-09</title></rect><rect fill="#4dd2ff" height="2.6" width="2.6" x="181.5" y="49.0"><title>2019-12-10 9.5 km</title></rect><rect fill="#444444" height="2.6" width="2.6" x="181.5" y="52.5"><title>2019-12-11</title></rect><rect fill="#444444" height="2.6" width="2.6" x="181.5" y="56.0"><title>2019-12-12</title></rect><rect fill="#ffd000" height="2.6" width="2.6" x="181.5" y="59.5"><title>2019-12-13 10.1 km</title></rect><rect fill="#4dd2ff" height="2.6" width="2.6" x="181.5" y="63.0"><title>2019-12-14 6.4 km</title></rect><rect fill="red" height="2.6" width="2.6" x="181.5" y="66.5"><title>2019-12-15 22.3 km</title></rect><rect fill="#4dd2ff" height="2.6" width="2.6" x="185.0" y="45.5"><title>2019-12-16 7.2 km</title></rect><rect fill="#444444" height="2.6" width="2.6" x="185.0" y="49.0"><title>2019-12-17</title></rect><rect fill="#ffd000" height="2.6" width="2.6" x="185.0" y="52.5"><title>2019-12-18 10.2 km</title></rect><rect fill="#ffd000" height="2.6" width="2.6" x="185.0" y="56.0"><title>2019-12-19 10.2 km</title></rect><rect fill="#ffce00" height="2.6" width="2.6" x="185.0" y="59.5"><title>2019-12-20 10.5 km</title></rect><rect fill="#444444" height="2.6" width="2.6" x="185.0" y="63.0"><title>2019-12-21</title></rect><rect fill="red" height="2.6" width="2.6" x="185.0" y="66.5"><title>2019-12-22 21.4 km</title></rect><rect fill="#4dd2ff" height="2.6" width="2.6" x="188.5" y="45.5"><title>2019-12-23 8.5 km</title></rect><rect fill="#ffcf00" height="2.6" width="2.6" x="188.5" y="49.0"><title>2019-12-24 10.4 km</title></rect><rect fill="#4dd2ff" height="2.6" width="2.6" x="188.5" y="52.5"><title>2019-12-25 6.4 km</title></rect><rect fill="#4dd2ff" height="2.6" width="2.6" x="188.5" y="56.0"><title>2019-12-26 7.3 km</title></rect><rect fill="#ffd000" height="2.6" width="2.6" x="188.5" y="59.5"><title>2019-12-27 10.1 km</title></rect><rect fill="red" height="2.6" width="2.6" x="188.5" y="63.0"><title>2019-12-28 22.4 km</title></rect><rect fill="#ffca00" height="2.6" width="2.6" x="188.5" y="66.5"><title>2019-12-29 11.2 km</title></rect><rect fill="#4dd2ff" height="2.6" width="2.6" x="192.0" y="45.5"><title>2019-12-30 8.2 km</title></rect><rect fill="#ffc200" height="2.6" width="2.6" x="192.0" y="49.0"><title>2019-12-31 12.5 km</title></rect></svg>