<?xml version="1.0" encoding="utf-8" ?>
<svg baseProfile="full" height="200mm" version="1.1" viewBox="0,0,200,200" width="200mm" xmlns="http://www.w3.org/2000/svg" xmlns:ev="http://www.w3.org/2001/xml-events" xmlns:xlink="http://www.w3.org/1999/xlink"><defs /><rect fill="#1a1a1a" height="200" width="200" x="0" y="0" /><rect fill="#1a1a1a" height="200" width="180" x="10" y="0" /><text alignment-baseline="middle" fill="#e1ed5e" style="dominant-baseline: central; font-size:9.0px; font-family:Arial;" text-anchor="middle" x="100.0" y="100.0">2026</text><line stroke="#e1ed5e" stroke-width="0.3" x1="100.0" x2="100.0" y1="15.0" y2="10.0" /><path d="M 100.0 14.0 a86.0,86.0 0 0,1 42.46469731375804,11.215312516191453" fill="none" id="id145" stroke="none" /><text fill="#e1ed5e" style="font-size:6.75px; font-family:Arial;" text-anchor="middle"><textPath startOffset="22.20632615414155" xlink:href="#id145">January</textPath></text><path d="M 100.36148047927253 79.00311137660856 l 0.6572947916436868 -38.17950435567718 a59.185161899464234,59.185161899464234 0 0,0 1.0184733858164714,0.02630416276646649 l -1.314394812655026 38.16253340076836" fill="red" stroke="none" /><path d="M 102.16513564639614 79.11191278185805 l 5.387848492440496 -51.979121684850355 a73.25761190971104,73.25761190971104 0 0,0 1.2531701628252718,0.1408082693217259 l -6.281785358775493 51.87867746205803" fill="red" stroke="none" /><path d="M 103.2404852339499 79.25152402106235 l 6.5605808898943945 -42.00668886737336 a63.515916210440025,63.515916210440025 0 0,0 1.0787748694092538,0.17800709675228898 l -7.282684965442524 41.88753550768145" fill="red" stroke="none" /><path d="M 104.307194497241 79.44645832069477 l 12.921583491723009 -61.66062503791566 a84.0,84.0 0 0,0 1.4126291033858882,0.3087460076165178 l -13.981055319262426 61.429065532203275" fill="red" stroke="none" /><path d="M 105.01212808612495 79.60689891045804 l 9.163348300420033 -37.2833824272083 a59.39293629417104,59.39293629417104 0 0,0 0.9907056027973659,0.25255291713346567 l -9.803762791902424 37.12012651390597" fill="red" stroke="none" /><path d="M 106.40334571778207 80.00007090966166 l 9.744396375002234 -30.43522013609127 a52.95709444623357,52.95709444623357 0 0,0 0.8657657241677456,0.285429347353384 l -10.266844921412396 30.26297706447865" fill="red" stroke="none" /><path d="M 107.08798089147638 80.2323363322302 l 18.112030230151202 -50.512625162499866 a74.66163377931318,74.66163377931318 0 0,0 1.2060259887922982,0.4441895497442053 l -18.978838544716076 50.19337234494933" fill="red" stroke="none" /><path d="M 107.76421540070413 80.48803036053334 l 19.167214896769163 -48.16843632454811 a72.84187867786984,72.84187867786984 0 0,0 1.161016750617559,0.4736078839714085 l -19.99351551697511 47.831367554393125" fill="red" stroke="none" /><path d="M 108.43124777332544 80.76684994638697 l 15.139109205163262 -34.53495459380808 a58.70750212255175,58.70750212255175 0 0,0 0.9220373323889058,0.4136912742997737 l -15.731328656018947 34.26924298899178" fill="red" stroke="none" /><path d="M 108.76106565485865 80.91482961587045 l 15.459259054861057 -33.67656455248663 a58.05535980911672,58.05535980911672 0 0,0 0.9046180323992669,0.42473029581497734 l -16.03665529855992 33.40546927403165" fill="red" stroke="none" /><path d="M 109.41281617654863 81.2277094730956 l 25.972147070082144 -51.79711164675503 a78.94387973182657,78.94387973182657 0 0,0 1.2094935891795144,0.6195495933636195 l -26.859901146850415 51.342369528078905" fill="red" stroke="none" /><path d="M 109.73455568895987 81.39251694778311 l 17.140300542054206 -32.76347293466006 a57.97614178645666,57.97614178645666 0 0,0 0.8802847615137463,0.4702176334087698 l -17.701730350096263 32.46357657474954" fill="red" stroke="none" /><path d="M 110.36928655335952 81.73862282372117 l 21.46578470921367 -37.803448573108255 a64.47275741429283,64.47275741429283 0 0,0 0.9603471041029061,0.5562950288128439 l -22.113328545781904 37.42834938690537" fill="red" stroke="none" /><line stroke="#e1ed5e" stroke-width="0.3" x1="143.23703022742887" x2="145.7803849466894" y1="26.81831364943548" y2="22.513508569990506" /><path d="M 143.74570117128098 25.957352633546492 a86.0,86.0 0 0,1 28.547481713284135,27.462654790039103" fill="none" id="id146" stroke="none" /><text fill="#e1ed5e" style="font-size:6.75px; font-family:Arial;" text-anchor="middle"><textPath startOffset="19.985693538727396" xlink:href="#id146">February</textPath></text><path d="M 110.99172775467656 82.1063720568725 l 20.277295244232832 -33.00976742613361 a59.74033360658138,59.74033360658138 0 0,0 0.8715854308546749,0.5457867168417962 l -20.84249982745977 32.65583636796887" fill="red" stroke="none" /><path d="M 111.2981086023043 82.29822771554956 l 22.663065808072755 -35.50828234384269 a63.124252715402406,63.124252715402406 0 0,0 0.9108919069282438,0.5924694343729356 l -23.27092474078528 35.11291398531023" fill="red" stroke="none" /><path d="M 111.60114157652 82.49532879139004 l 15.772425652592625 -23.798617005904887 a49.55071947185057,49.55071947185057 0 0,0 0.7069125210735614,0.4773104898183668 l -16.17974286807273 23.523594603787853" fill="red" stroke="none" /><path d="M 111.90073688211348 82.69761687909136 l 3.2161726616366577 -4.675966885568803 a26.67524738706561,26.67524738706561 0 0,0 0.37608143310536707,0.2634690776713871 l -3.2961852343256757 4.61991296513348" fill="red" stroke="none" /><path d="M 112.19680574252982 82.90503203632743 l 16.821286575458803 -23.576611875723717 a49.96225663846357,49.96225663846357 0 0,0 0.695795045688223,0.5055246914679241 l -17.224626937500815 23.283567949439117" fill="red" stroke="none" /><path d="M 112.48926042617603 83.11751280151076 l 31.462509970100495 -42.52977387590551 a73.90246874725534,73.90246874725534 0 0,0 1.0161724808343275,0.7653600450995534 l -32.18992860469321 41.98189724130012" fill="red" stroke="none" /><path d="M 112.77801427241765 83.33499621200491 l 15.778717146847969 -20.57850112043841 a46.931498667915804,46.931498667915804 0 0,0 0.6368547265683127,0.4970752157088546 l -16.13060442857571 20.303847515506334" fill="red" stroke="none" /><path d="M 113.34407831869373 83.78471172551755 l 23.9433070349897 -29.095124934399202 a58.68034297508564,58.68034297508564 0 0,0 0.7744197516285233,0.6485542708690999 l -24.44058432357734 28.678669506136284" fill="red" stroke="none" /><path d="M 113.6212207817346 84.01681056812373 l 15.152167517165656 -17.779607834793524 a44.36027900576749,44.36027900576749 0 0,0 0.5769079662016597,0.5002889033445791 l -15.455969282014081 17.516153938029273" fill="red" stroke="none" /><path d="M 114.94478906791727 85.2469230424477 l 23.842598042983557 -23.53674462701152 a54.502952542670606,54.502952542670606 0 0,0 0.6533495661277947,0.6733341589429377 l -24.24421187281446 23.122846272518466" fill="red" stroke="none" /><path d="M 115.19652480421416 85.50635884689758 l 45.04131029608208 -42.9580181592517 a83.24235661796996,83.24235661796996 0 0,0 0.9800109881976415,1.0454073929191492 l -45.77408860625019 42.176341349454496" fill="red" stroke="none" /><path d="M 115.68641384162765 86.03803664274999 l 18.468758029344592 -16.4384368194681 a45.72483019586029,45.72483019586029 0 0,0 0.5182324582445734,0.5924292853121574 l -18.74898235116701 16.118091977952997" fill="red" stroke="none" /><path d="M 115.9244219780498 86.31012108654704 l 28.31307634207968 -24.340135379776495 a58.337280059724215,58.337280059724215 0 0,0 0.6480699179030139,0.7671103710225343 l -28.72785687346981 23.84916605912485" fill="red" stroke="none" /><path d="M 117.04232023915458 87.72973835380427 l 32.56456749647211 -23.446089380417362 a61.12692566677402,61.12692566677402 0 0,0 0.6074484750877076,0.8591927891914297 l -32.9633285913637 22.88207009089414" fill="red" stroke="none" /><path d="M 117.2510076193507 88.02491185347247 l 25.837647798253172 -17.93565435192013 a52.452690517317095,52.452690517317095 0 0,0 0.5084802142464472,0.7461319712437414 l -26.142552478168355 17.488244357405986" fill="red" stroke="none" /><path d="M 117.65298651832404 88.62581576622439 l 44.56513424054992 -28.714237487735897 a74.01470196445824,74.01470196445824 0 0,0 0.6808379948387421,1.0769222042367703 l -45.052799831634616 27.94286763578492" fill="red" stroke="none" /><line stroke="#e1ed5e" stroke-width="0.3" x1="172.23445277983987" x2="176.4835382374775" y1="55.19839476539836" y2="52.563006222186495" /><path d="M 173.08426987136738 54.67131705675599 a86.0,86.0 0 0,1 12.851231095245387,41.99856678651699" fill="none" id="id147" stroke="none" /><text fill="#e1ed5e" style="font-size:6.75px; font-family:Arial;" text-anchor="middle"><textPath startOffset="22.20632615414155" xlink:href="#id147">March</textPath></text><path d="M 117.84615892207809 88.93136811851018 l 33.559159263277856 -20.814225725513033 a60.489861521796406,60.489861521796406 0 0,0 0.5411947306571228,0.8895818396272221 l -33.9124697922212 20.23347611267873" fill="red" stroke="none" /><path d="M 118.03404312379186 89.2402003453031 l 35.857054627810925 -21.393689776297148 a62.754261205609396,62.754261205609396 0 0,0 0.5454849175640976,0.9324105456510188 l -36.21999921984535 20.773299818292234" fill="red" stroke="none" /><path d="M 118.3937258080291 89.86733742301442 l 33.289119195291306 -18.33817769229232 a59.005976081037566,59.005976081037566 0 0,0 0.4824213424201495,0.8938534804003873 l -33.59984863692992 17.762443228559473" fill="red" stroke="none" /><path d="M 118.56541770881063 90.18545643968196 l 37.15536229275989 -19.6420531679517 a63.02774321515355,63.02774321515355 0 0,0 0.49879125578880945,0.9635059441159411 l -37.48796298170882 18.999574501575417" fill="red" stroke="none" /><path d="M 118.89224826269711 90.83032412892265 l 47.449371840625915 -23.03036430681801 a73.743156600404,73.743156600404 0 0,0 0.5444415329112788,1.1467327182128226 l -47.83877156737895 22.210189172964647" fill="red" stroke="none" /><path d="M 119.04729006885535 91.15688171328212 l 22.998067855607065 -10.67735271935822 a46.35580774072665,46.35580774072665 0 0,0 0.3297833462741479,0.7266338890759978 l -23.17845351884456 10.27989682144016" fill="red" stroke="none" /><path d="M 119.196687751892 91.48605970444005 l 34.84606005592876 -15.45460751803047 a59.11945428462687,59.11945428462687 0 0,0 0.40457213379675305,0.9338082646563792 l -35.10692289956819 14.852500108787488" fill="red" stroke="none" /><path d="M 119.34039704204932 91.81776055985345 l 15.157498979911693 -6.412602890094184 a37.45816670082267,37.45816670082267 0 0,0 0.24611498351024405,0.5959869542354359 l -15.265635650308134 6.150741365405445" fill="red" stroke="none" /><path d="M 119.61058180528143 92.48833698450437 l 33.657822920287884 -12.892336704887452 a57.042494217876275,57.042494217876275 0 0,0 0.34332902521724445,0.9199510951301302 l -33.87475653400676 12.311062472727988" fill="red" stroke="none" /><path d="M 120.18372546131832 94.20196356495316 l 25.17380102405308 -7.231500241410138 a47.191885265099394,47.191885265099394 0 0,0 0.21756184836075887,0.7826857241992303 l -25.2945496429802 6.797103213791956" fill="red" stroke="none" /><path d="M 120.67395015179393 96.31383870115 l 14.41658030064959 -2.570473469067857 a35.64394487220775,35.64394487220775 0 0,0 0.1024986418527818,0.604952786330555 l -14.458690804022595 2.321934894421464" fill="red" stroke="none" /><path d="M 120.73433829027371 96.67025291283417 l 55.83611553565222 -8.966774847630713 a77.551523845771,77.551523845771 0 0,0 0.20031967254450847,1.3198563551345315 l -55.98219110163603 8.0043193801041" fill="red" stroke="none" /><line stroke="#e1ed5e" stroke-width="0.3" x1="184.98032266829074" x2="189.97916517819016" y1="98.17113171792111" y2="98.06355123074" /><path d="M 185.9800911702706 98.14961562048488 a86.0,86.0 0 0,1 -9.607161424134198,41.387399972396054" fill="none" id="id148" stroke="none" /><text fill="#e1ed5e" style="font-size:6.75px; font-family:Arial;" text-anchor="middle"><textPath startOffset="21.466115282336823" xlink:href="#id148">April</textPath></text><path d="M 120.99513854157772 99.54816195383933 l 42.67065061864368 -0.9183184652842777 a63.68053107708523,63.68053107708523 0 0,0 0.014152218346516685,1.0961049072295341 l -42.68013584410791 0.18367729999428078" fill="red" stroke="none" /><path d="M 120.92983693683757 101.71520430193887 l 9.963287440859515 0.8164933884381167 a30.99668735544691,30.99668735544691 0 0,0 -0.04815616376403473,0.531399254347718 l -9.947756680818406 -0.9878740313344052" fill="red" stroke="none" /><path d="M 120.89721153311464 102.0752229133903 l 9.440957851771831 0.9375457595049209 a30.487395702198672,30.487395702198672 0 0,0 -0.05635478735171784,0.5217753405487622 l -9.423420762919061 -1.0999174219384744" fill="red" stroke="none" /><path d="M 120.8583938346157 102.4346265915055 l 37.10593580789102 4.331066847086999 a58.35784539040314,58.35784539040314 0 0,0 -0.12504833172256774,0.9967582399799427 l -37.02588596692161 -4.969142841354337" fill="red" stroke="none" /><path d="M 120.64145759157962 103.86396538481128 l 37.00986091735196 6.928038916188967 a58.65272272155049,58.65272272155049 0 0,0 -0.19430827861419311,0.990773726455242 l -36.8851227057621 -7.564076369712154" fill="red" stroke="none" /><path d="M 120.49622156327973 104.57218783832717 l 36.19297475008848 8.073735857818132 a58.08256506718974,58.08256506718974 0 0,0 -0.22607790466161576,0.9739376962737555 l -36.048636279496314 -8.695542211440452" fill="red" stroke="none" /><path d="M 120.02730092923936 106.31721596034902 l 35.459659350654846 11.185048189466835 a58.1818873144597,58.1818873144597 0 0,0 -0.30949369826307943,0.9525236600037718 l -35.261873401375524 -11.793770749448402" fill="red" stroke="none" /><path d="M 119.12269723197855 108.67885076344098 l 34.005756388798595 15.433538544069542 a58.344150540152825,58.344150540152825 0 0,0 -0.42292669862520593,0.9109464835132899 l -33.735055073333555 -16.01660509486166" fill="red" stroke="none" /><path d="M 118.64920377521936 109.65438752849418 l 27.290573898499172 14.127883392062953 a51.730644523816494,51.730644523816494 0 0,0 -0.4161791733432604,0.7872541547489734 l -27.04334221693102 -14.595552561898062" fill="red" stroke="none" /><line stroke="#e1ed5e" stroke-width="0.3" x1="174.80103733775053" x2="179.2010983576182" y1="140.37084112569926" y2="142.7455964860345" /><path d="M 175.68104954172406 140.8457921977663 a86.0,86.0 0 0,1 -30.038265399797805,32.042727171017184" fill="none" id="id149" stroke="none" /><text fill="#e1ed5e" style="font-size:6.75px; font-family:Arial;" text-anchor="middle"><textPath startOffset="22.206326154141568" xlink:href="#id149">May</textPath></text><path d="M 118.48025628344425 109.97397251340804 l 31.087944081231836 16.77846318843277 a56.326719266914544,56.326719266914544 0 0,0 -0.46784326754057476,0.8492714248493104 l -30.794524404239752 -17.311105131679888" fill="red" stroke="none" /><path d="M 118.30583269289576 110.29060199501025 l 32.601848220448794 18.327090057398568 a58.40003659571976,58.40003659571976 0 0,0 -0.5001490479222944,0.8720520227412305 l -32.28154717637412 -18.88556192599811" fill="red" stroke="none" /><line stroke="#e1ed5e" stroke-width="0.3" x1="143.8653032363475" x2="146.44561519142675" y1="172.8068346515853" y2="177.08958963109032" /><path d="M 144.38136562736335 173.6633856474863 a86.0,86.0 0 0,1 -40.68145358897372,12.25698825130547" fill="none" id="id150" stroke="none" /><text fill="#e1ed5e" style="font-size:6.75px; font-family:Arial;" text-anchor="middle"><textPath startOffset="21.466115282336833" xlink:href="#id150">June</textPath></text><line stroke="#e1ed5e" stroke-width="0.3" x1="102.19456741930631" x2="102.32365962044197" y1="184.97166512339345" y2="189.96999836594603" /><path d="M 102.22038585953345 185.97133177190398 a86.0,86.0 0 0,1 -42.740103519485714,-10.115201625700543" fill="none" id="id151" stroke="none" /><text fill="#e1ed5e" style="font-size:6.75px; font-family:Arial;" text-anchor="middle"><textPath startOffset="22.20632615414155" xlink:href="#id151">July</textPath></text><line stroke="#e1ed5e" stroke-width="0.3" x1="58.666819895761336" x2="56.23545636021788" y1="174.27360380694188" y2="178.64263932499728" /><path d="M 58.180547188652646 175.14741091055294 a86.0,86.0 0 0,1 -31.652253787137756,-30.449443065178592" fill="none" id="id152" stroke="none" /><text fill="#e1ed5e" style="font-size:6.75px; font-family:Arial;" text-anchor="middle"><textPath startOffset="22.20632615414155" xlink:href="#id152">August</textPath></text><line stroke="#e1ed5e" stroke-width="0.3" x1="26.63291911575756" x2="22.317208475507996" y1="142.92168965132927" y2="145.44649492493687" /><path d="M 25.769776987707644 143.4266507060508 a86.0,86.0 0 0,1 -11.730757126820373,-40.83630448921669" fill="none" id="id153" stroke="none" /><text fill="#e1ed5e" style="font-size:6.75px; font-family:Arial;" text-anchor="middle"><textPath startOffset="21.46611528233685" xlink:href="#id153">September</textPath></text><line stroke="#e1ed5e" stroke-width="0.3" x1="15.007084014347285" x2="10.007500721073583" y1="101.09737516637583" y2="101.16192664675087" /><path d="M 14.007167355692545 101.11028546245083 a86.0,86.0 0 0,1 10.666146001902534,-42.60595125391555" fill="none" id="id154" stroke="none" /><text fill="#e1ed5e" style="font-size:6.75px; font-family:Arial;" text-anchor="middle"><textPath startOffset="22.20632615414155" xlink:href="#id154">October</textPath></text><line stroke="#e1ed5e" stroke-width="0.3" x1="26.266209847984243" x2="21.928928074336255" y1="57.711370442889674" y2="55.22380399835377" /><path d="M 25.398753493254645 57.213857153982495 a86.0,86.0 0 0,1 29.58750427330803,-30.492523968695096" fill="none" id="id155" stroke="none" /><text fill="#e1ed5e" style="font-size:6.75px; font-family:Arial;" text-anchor="middle"><textPath startOffset="21.46611528233685" xlink:href="#id155">November</textPath></text><line stroke="#e1ed5e" stroke-width="0.3" x1="56.762969772571076" x2="54.21961505331055" y1="26.818313649435495" y2="22.513508569990535" /><path d="M 56.25429882871897 25.957352633546506 a86.0,86.0 0 0,1 42.265352541879196,-11.944610805530505" fill="none" id="id156" stroke="none" /><text fill="#e1ed5e" style="font-size:6.75px; font-family:Arial;" text-anchor="middle"><textPath startOffset="22.20632615414155" xlink:href="#id156">December</textPath></text></svg>