<?xml version="1.0" encoding="utf-8" ?>
<svg baseProfile="full" height="200mm" version="1.1" viewBox="0,0,200,200" width="200mm" xmlns="http://www.w3.org/2000/svg" xmlns:ev="http://www.w3.org/2001/xml-events" xmlns:xlink="http://www.w3.org/1999/xlink"><defs /><rect fill="#1a1a1a" height="200" width="200" x="0" y="0" /><text alignment-baseline="middle" fill="#e1ed5e" style="dominant-baseline: central; font-size:9.0px; font-family:Arial;" text-anchor="middle" x="100.0" y="100.0">2025</text><line stroke="#e1ed5e" stroke-width="0.3" x1="100.0" x2="100.0" y1="15.0" y2="10.0" /><path d="M 100.0 14.0 a86.0,86.0 0 0,1 42.46469731375804,11.215312516191453" fill="none" id="id133" stroke="none" /><text fill="#e1ed5e" style="font-size:6.75px; font-family:Arial;" text-anchor="middle"><textPath startOffset="22.20632615414155" xlink:href="#id133">January</textPath></text><path d="M 100.0 79.0 l 0.0 -16.513008861134736 a37.513008861134736,37.513008861134736 0 0,0 0.6457247820036947,0.005557957061295057 l -0.2842443027311663 16.510562280682" fill="#ffce13" stroke="none" /><path d="M 100.36148047927253 79.00311137660856 l 0.4568952600844247 -26.539134029739582 a47.54306667149011,47.54306667149011 0 0,0 0.8181332369633866,0.021129967782603377 l -0.913655132242679 26.52733726981462" fill="#b6ff1f" stroke="none" /><path d="M 101.08401301168833 79.027996857942 l 2.8444381337253235 -55.03030391209771 a76.10376735718191,76.10376735718191 0 0,0 1.3076727375596353,0.0788823906289422 l -3.791272920124571 54.973188252088455" fill="#43ffe0" stroke="none" /><path d="M 101.80526077348638 79.07773832637324 l 1.6956043625332096 -19.651387039973617 a40.72440333062282,40.72440333062282 0 0,0 0.6978899749015963,0.06627306232229989 l -2.0336194645250503 19.619288433136138" fill="#fff717" stroke="none" /><path d="M 102.16513564639614 79.11191278185805 l 2.4419613869464163 -23.55875601548303 a44.684977526111254,44.684977526111254 0 0,0 0.7643967514427994,0.08588888152519578 l -2.847124841898941 23.513231180487235" fill="#d7ff1c" stroke="none" /><path d="M 102.52436894288641 79.15227682838746 l 2.2051328174837788 -18.211283522991952 a39.34430315649908,39.34430315649908 0 0,0 0.6716358666060562,0.08719761156390556 l -2.518283412597681 18.17062758826391" fill="#ffe615" stroke="none" /><path d="M 102.88285421437855 79.19881850522331 l 3.6819153687191024 -26.566792538846194 a47.82071897963408,47.82071897963408 0 0,0 0.8143891659676794,0.12001979341023603 l -4.138673515115437 26.49947826127499" fill="#b3ff20" stroke="none" /><path d="M 103.2404852339499 79.25152402106235 l 2.819140194655172 -18.050649327836037 a39.2694688645737,39.2694688645737 0 0,0 0.6669653635443917,0.11005499976458175 l -3.129434764338439 17.99944806513183" fill="#ffe515" stroke="none" /><path d="M 103.59715602781102 79.31037775812273 l 6.367946365355884 -36.62626912403421 a58.17572233135801,58.17572233135801 0 0,0 0.9851224140187539,0.18002482441792342 l -6.9974639004775385 36.51122881826554" fill="#44ff2d" stroke="none" /><path d="M 104.307194497241 79.44645832069477 l 3.6897219081986776 -17.6070184603423 a38.98947322248975,38.98947322248975 0 0,0 0.6556864833306404,0.143307669006129 l -3.992251115682846 17.5408972932403" fill="#ffe115" stroke="none" /><path d="M 104.66035177308747 79.52364482259891 l 6.425618161512267 -28.23246958937547 a49.95446265901971,49.95446265901971 0 0,0 0.8367998425694404,0.1980434868176059 l -6.910641691044231 28.117680190416994" fill="#9bff22" stroke="none" /><path d="M 105.01212808612495 79.60689891045804 l 4.387730314082498 -17.85258203924148 a39.38387507510225,39.38387507510225 0 0,0 0.6569438746641767,0.1674696211174398 l -4.6943830774316995 17.77440942195517" fill="#ffe615" stroke="none" /><path d="M 105.36241919743992 79.69619591428918 l 6.7919173935869095 -25.716333439869086 a47.59811924689107,47.59811924689107 0 0,0 0.7903602214463062,0.2160353045516076 l -7.233575504256926 25.59561159449118" fill="#b6ff1f" stroke="none" /><path d="M 106.0581310904928 79.89281104454417 l 14.92828129941191 -49.5475862743433 a72.7476268844076,72.7476268844076 0 0,0 1.195883090527643,0.37156669748753707 l -15.778949762650273 49.28327944197324" fill="#3fffbd" stroke="none" /><path d="M 107.08798089147638 80.2323363322302 l 4.546153626563347 -12.678763846553977 a34.46917092745501,34.46917092745501 0 0,0 0.5567881902170864,0.20506978938578405 l -4.76372414255301 12.598630789361868" fill="#ffa70f" stroke="none" /><path d="M 107.4271985657038 80.35727306442388 l 5.35690796584521 -14.167425235942762 a36.146365926206975,36.146365926206975 0 0,0 0.5800920876768645,0.2250667177473188 l -5.599983218521741 14.073115814304897" fill="#ffbd11" stroke="none" /><path d="M 107.76421540070413 80.48803036053334 l 8.701307306165672 -21.866941502701835 a44.53456775721441,44.53456775721441 0 0,0 0.7098303899642178,0.28955763884606656 l -9.076421565718277 21.71392297767219" fill="#d9ff1c" stroke="none" /><path d="M 108.09893153111575 80.62456947434976 l 4.842550022875596 -11.585045653829116 a33.55641563207261,33.55641563207261 0 0,0 0.5310162830893663,0.22735345980990834 l -5.041250063755277 11.499972666056417" fill="#ff9b0e" stroke="none" /><path d="M 108.43124777332544 80.76684994638697 l 21.478656007747166 -48.99656907888539 a74.49763027836954,74.49763027836954 0 0,0 1.1700309808408045,0.524958795518799 l -22.31886910705475 48.61958995285006" fill="#41ffd0" stroke="none" /><path d="M 108.76106565485865 80.91482961587045 l 4.953737617298939 -10.791258756517967 a32.87395392997498,32.87395392997498 0 0,0 0.5122416193629059,0.24050430870111666 l -5.138757447961443 10.704389465176849" fill="#ff920d" stroke="none" /><path d="M 109.08828744355905 81.06846463323043 l 5.7256394266895265 -11.926905478827425 a34.23004237126039,34.23004237126039 0 0,0 0.528982489567827,0.25956941028520364 l -5.930093183267785 11.82658090840739" fill="#ffa40f" stroke="none" /><path d="M 109.41281617654863 81.2277094730956 l 6.820711073598341 -13.602769614545934 a36.21701155733021,36.21701155733021 0 0,0 0.5548782685451346,0.284230200737694 l -7.053849829732231 13.48334688849574" fill="#ffbe11" stroke="none" /><path d="M 110.05341064243156 81.56283822128135 l 11.309456788941489 -20.74065129370963 a44.62368364477042,44.62368364477042 0 0,0 0.671216510488247,0.3735312613760129 l -11.664797388501771 20.542904634773436" fill="#d8ff1c" stroke="none" /><path d="M 110.36928655335952 81.73862282372117 l 9.047072678892253 -15.932822926658545 a39.32223704871801,39.32223704871801 0 0,0 0.5857202016958056,0.3392869464452701 l -9.319989613053385 15.774731822823226" fill="#ffe515" stroke="none" /><line stroke="#e1ed5e" stroke-width="0.3" x1="143.23703022742887" x2="145.7803849466894" y1="26.81831364943548" y2="22.513508569990506" /><path d="M 143.74570117128098 25.957352633546492 a86.0,86.0 0 0,1 28.547481713284135,27.462654790039103" fill="none" id="id134" stroke="none" /><text fill="#e1ed5e" style="font-size:6.75px; font-family:Arial;" text-anchor="middle"><textPath startOffset="19.985693538727396" xlink:href="#id134">February</textPath></text><path d="M 110.68208982089419 81.91981866633111 l 11.0430171046869 -18.691075910353355 a42.709549637452156,42.709549637452156 0 0,0 0.6297379382150445,0.37941006158868085 l -11.363117109119582 18.49821923930606" fill="#efff19" stroke="none" /><path d="M 110.99172775467656 82.1063720568725 l 19.530890096095213 -31.794681289204217 a58.314305919148794,58.314305919148794 0 0,0 0.8507803083967598,0.5327585510673155 l -20.075289556864234 31.453778396813956" fill="#43ff2d" stroke="none" /><path d="M 111.2981086023043 82.29822771554956 l 6.423512580715794 -10.06430022693732 a32.93949969356106,32.93949969356106 0 0,0 0.4753216457770286,0.30916242034513247 l -6.595801252277103 9.952238882432658" fill="#ff930d" stroke="none" /><path d="M 111.60114157652 82.49532879139004 l 13.651725617101429 -20.59874597523892 a45.71189891685876,45.71189891685876 0 0,0 0.6521462059644556,0.44033202938513577 l -14.004276517472425 20.360702033555114" fill="#cbff1d" stroke="none" /><path d="M 111.90073688211348 82.69761687909136 l 10.253891562028686 -14.908048303557226 a39.093982325266005,39.093982325266005 0 0,0 0.5511671807704,0.3861278329037605 l -10.508989882382735 14.72933562788953" fill="#ffe215" stroke="none" /><path d="M 112.48926042617603 83.11751280151076 l 10.888943200062739 -14.719241805130785 a39.309155178000495,39.309155178000495 0 0,0 0.5405080833407724,0.4070994824645442 l -11.140697437161895 14.529625733160394" fill="#ffe515" stroke="none" /><path d="M 112.77801427241765 83.33499621200491 l 10.62416598149879 -13.855968740631802 a38.46026267109982,38.46026267109982 0 0,0 0.521901084822879,0.4073520749620918 l -10.861099621481099 13.671038276446486" fill="#ffdb14" stroke="none" /><path d="M 113.06298171725822 83.55741782278167 l 11.071153541331208 -13.935436475382893 a38.797944558155095,38.797944558155095 0 0,0 0.5193319218086044,0.41993029698823786 l -11.309388861704305 13.742800081130525" fill="#ffdf14" stroke="none" /><path d="M 113.34407831869373 83.78471172551755 l 11.640643954902119 -14.145330454552292 a39.3192512225059,39.3192512225059 0 0,0 0.5189063870823105,0.43456917623263197 l -11.882407878943546 13.942860120925841" fill="#ffe515" stroke="none" /><path d="M 113.6212207817346 84.01681056812373 l 14.154547854675078 -16.608997336508885 a42.82223676652891,42.82223676652891 0 0,0 0.556905638893123,0.48294308220882237 l -14.438347292214965 16.362889260880394" fill="#eeff19" stroke="none" /><path d="M 113.89432698308785 84.25364557470407 l 11.994761770571492 -13.59358897457256 a39.12898152523699,39.12898152523699 0 0,0 0.5012031474689642,0.449985134485361 l -12.226975905636445 13.385104831317902" fill="#ffe315" stroke="none" /><path d="M 114.16331599549186 84.49514656593476 l 14.63666598564016 -16.02303873915917 a42.70183774733815,42.70183774733815 0 0,0 0.538433808712703,0.5004155445621297 l -14.910307678147712 15.768718608522398" fill="#efff19" stroke="none" /><path d="M 114.42810811169701 84.74124197986012 l 8.183319679541947 -8.654446849503993 a32.91075863446439,32.91075863446439 0 0,0 0.4082763852240602,0.3927615591085898 l -8.331079308378426 8.512302203633102" fill="#ff920d" stroke="none" /><path d="M 114.68862486808459 84.99185889309783 l 13.265093964282743 -13.553644660423044 a39.964809555127744,39.964809555127744 0 0,0 0.4875025457692686,0.48540905490993647 l -13.496432310219335 13.323299754862989" fill="#ffed16" stroke="none" /><path d="M 114.94478906791727 85.2469230424477 l 26.32761748875012 -25.98988618409857 a57.99483242962913,57.99483242962913 0 0,0 0.6952081830041665,0.7164731431103405 l -26.771089935457397 25.532848845438117" fill="#46ff2c" stroke="none" /><path d="M 115.4437574822437 85.77008943001954 l 16.609982798130098 -15.30447302465453 a43.58580136095587,43.58580136095587 0 0,0 0.503636756146771,0.5561282852043439 l -16.870963194892905 15.016291952180639" fill="#e5ff1a" stroke="none" /><path d="M 115.68641384162765 86.03803664274999 l 13.507807230387913 -12.022856944331629 a39.083416305476774,39.083416305476774 0 0,0 0.4429605276132223,0.5063804565316328 l -13.712759621578984 11.788560931597047" fill="#ffe215" stroke="none" /><path d="M 115.9244219780498 86.31012108654704 l 24.100901272694312 -20.71902016808246 a52.78256186781623,52.78256186781623 0 0,0 0.5863624512724347,0.6940681940688305 l -24.453974337453865 20.30109302438452" fill="#7cff26" stroke="none" /><path d="M 116.38621287248628 86.86637796730983 l 32.80330483449258 -26.29199379209422 a63.03957356620266,63.03957356620266 0 0,0 0.6713592090084683,0.8525580178456448 l -33.25101812409501 25.723443380295535" fill="#33ff50" stroke="none" /><path d="M 116.82858285166822 87.43820079747576 l 16.97541321215704 -12.671401628441654 a42.183226216814795,42.183226216814795 0 0,0 0.4293396460632713,0.5856187947287032 l -17.191015470733937 12.377320390041458" fill="#f5ff19" stroke="none" /><path d="M 117.04232023915458 87.72973835380427 l 19.70653610594926 -14.188464409010303 a45.282917608492475,45.282917608492475 0 0,0 0.44999873539775787,0.63649129836599 l -19.9478474611509 13.84714661031252" fill="#d0ff1d" stroke="none" /><path d="M 117.2510076193507 88.02491185347247 l 13.31712398487719 -9.244314134917914 a37.21120399765651,37.21120399765651 0 0,0 0.36072813033012807,0.5293240197461003 l -13.474276580876051 9.013712091901407" fill="#ffcb12" stroke="none" /><path d="M 117.45458315368197 88.32363383020206 l 6.182639064069667 -4.135919888327206 a28.43847155800308,28.43847155800308 0 0,0 0.26868040201836985,0.4092186853768202 l -6.252916101445962 4.028883138972711" fill="#ff5507" stroke="none" /><path d="M 117.65298651832404 88.62581576622439 l 8.267386042600188 -5.326847776305173 a30.83488582594164,30.83488582594164 0 0,0 0.28364042926088845,0.4486510426943024 l -8.357854068107033 5.183749085896665" fill="#ff760a" stroke="none" /><line stroke="#e1ed5e" stroke-width="0.3" x1="172.23445277983987" x2="176.4835382374775" y1="55.19839476539836" y2="52.563006222186495" /><path d="M 173.08426987136738 54.67131705675599 a86.0,86.0 0 0,1 12.851231095245387,41.99856678651699" fill="none" id="id135" stroke="none" /><text fill="#e1ed5e" style="font-size:6.75px; font-family:Arial;" text-anchor="middle"><textPath startOffset="22.20632615414155" xlink:href="#id135">March</textPath></text><path d="M 117.84615892207809 88.93136811851018 l 17.318653504131287 -10.741459893823542 a41.37927181836433,41.37927181836433 0 0,0 0.3702148310995587,0.6085358408921389 l -17.500984133517072 10.441756279724322" fill="#ffff18" stroke="none" /><path d="M 118.21658344932153 89.55222093294921 l 16.034384153206492 -9.19621967395654 a39.48436992337756,39.48436992337756 0 0,0 0.3330644962052008,0.5924845744138536 l -16.190306290704125 8.918851589607891" fill="#ffe715" stroke="none" /><path d="M 118.3937258080291 89.86733742301442 l 20.871237582805623 -11.497464417913385 a44.828559467141574,44.828559467141574 0 0,0 0.3665095516291248,0.6790865360147369 l -21.066055233653213 11.136496898566188" fill="#d6ff1c" stroke="none" /><path d="M 118.56541770881063 90.18545643968196 l 16.479543342744424 -8.711853324730608 a39.640593797865236,39.640593797865236 0 0,0 0.3137091787208,0.6059862816624826 l -16.627061954625344 8.426894320807781" fill="#ffe915" stroke="none" /><path d="M 118.73160827565052 90.50648371742162 l 9.133907078738341 -4.629228537107505 a31.240020281805933,31.240020281805933 0 0,0 0.23897125968593202,0.4817514773029136 l -9.212238351377682 4.471317471305641" fill="#ff7c0b" stroke="none" /><path d="M 119.04729006885535 91.15688171328212 l 28.240229892871618 -13.111140350359435 a52.135391208222565,52.135391208222565 0 0,0 0.3709003167008543,0.8172296831502802 l -28.46173252653582 12.623088658367092" fill="#83ff25" stroke="none" /><path d="M 119.196687751892 91.48605970444005 l 10.256195421359724 -4.548734479907646 a32.21964927659599,32.21964927659599 0 0,0 0.22048871079320925,0.5089183441031683 l -10.332974841995615 4.371516991217875" fill="#ff890c" stroke="none" /><path d="M 119.61058180528143 92.48833698450437 l 19.655949241559313 -7.529040617882967 a42.04858173874163,42.04858173874163 0 0,0 0.2530832281805378,0.6781372264591752 l -19.782637058241477 7.189580254394459" fill="#f7ff18" stroke="none" /><path d="M 119.85752413597 93.16781622104841 l 15.860535801665351 -5.456979162539771 a37.77305033368414,37.77305033368414 0 0,0 0.2062457225597794,0.6166484590026755 l -15.952118817996901 5.183157600614782" fill="#ffd213" stroke="none" /><path d="M 119.97218684219823 93.5106431181261 l 35.25524559672035 -11.455123689902885 a58.069558951193954,58.069558951193954 0 0,0 0.30070219504481993,0.9533081325769218 l -35.447203275533376 10.846565390899544" fill="#45ff2d" stroke="none" /><path d="M 120.18372546131832 94.20196356495316 l 16.419678006335864 -4.7167650746600325 a38.08372613340785,38.08372613340785 0 0,0 0.1755718340876861,0.6316253017121056 l -16.498436610989913 4.433428469528975" fill="#ffd614" stroke="none" /><path d="M 120.28053869075195 94.5502522615342 l 29.289629415020997 -7.870653442642534 a51.32869230420995,51.32869230420995 0 0,0 0.22194445435822996,0.855242519483156 l -29.42077020124953 7.365314497610528" fill="#8cff24" stroke="none" /><path d="M 120.37134235888165 94.90015583598534 l 12.302813825345911 -3.0799361270757966 a33.682477461757586,33.682477461757586 0 0,0 0.13596044260529774,0.563643810207658 l -12.354007068212029 2.8677070852087323" fill="#ff9d0e" stroke="none" /><path d="M 120.45610955862082 95.25157060432595 l 17.435472207674575 -4.047255834308398 a38.89904944104396,38.89904944104396 0 0,0 0.14578921577597198,0.6535444679312182 l -17.502555810452588 3.746533196827216" fill="#ffe015" stroke="none" /><path d="M 120.6074358757038 95.95851677861258 l 12.918607397468891 -2.533567754643271 a34.16470214844628,34.16470214844628 0 0,0 0.1082114491066276,0.5780698881097545 l -12.960304570485379 2.310819789070954" fill="#ffa30f" stroke="none" /><path d="M 120.67395015179393 96.31383870115 l 62.01458113048375 -11.05718777733177 a83.99261603023426,83.99261603023426 0 0,0 0.24153132038631056,1.4255315252241172 l -62.19572431239028 9.988070463791814" fill="#4dd2ff" stroke="none" /><path d="M 120.73433829027371 96.67025291283417 l 11.70056022193884 -1.8790040835537523 a32.85047534292313,32.85047534292313 0 0,0 0.08485450881291305,0.5590851926620356 l -11.731170624191053 1.6773197784996345" fill="#ff920d" stroke="none" /><path d="M 120.78858239683441 97.02765380044208 l 17.64616475408787 -2.523044127894588 a38.82562431444454,38.82562431444454 0 0,0 0.08889958838646901,0.6624051928454128 l -17.686980341532173 2.2189205929845106" fill="#ffdf14" stroke="none" /><path d="M 120.87857604477298 97.74499172005257 l 16.260839271598204 -1.7562657107321407 a37.35540776206585,37.35540776206585 0 0,0 0.06354488269397038,0.6398882967870747 l -16.288661279974402 1.476101883240631" fill="#ffcc13" stroke="none" /><path d="M 120.94382443527127 98.46500227214037 l 30.330641544612554 -2.2229686846065397 a51.411994447594495,51.411994447594495 0 0,0 0.05709034884772261,0.8831624278877617 l -30.36441248446469 1.7005471924657427" fill="#8bff24" stroke="none" /><path d="M 120.98425023603335 99.18683210126433 l 13.16190935632927 -0.5100416766979404 a34.17178804931953,34.17178804931953 0 0,0 0.017717755679901314,0.5879660541945145 l -13.168738806464816 0.2834054750784269" fill="#ffa30f" stroke="none" /><line stroke="#e1ed5e" stroke-width="0.3" x1="184.98032266829074" x2="189.97916517819016" y1="98.17113171792111" y2="98.06355123074" /><path d="M 185.9800911702706 98.14961562048488 a86.0,86.0 0 0,1 -9.607161424134198,41.387399972396054" fill="none" id="id136" stroke="none" /><text fill="#e1ed5e" style="font-size:6.75px; font-family:Arial;" text-anchor="middle"><textPath startOffset="21.466115282336823" xlink:href="#id136">April</textPath></text><path d="M 120.99513854157772 99.54816195383933 l 19.805337758064155 -0.4262322488815227 a40.809923716182965,40.809923716182965 0 0,0 0.00906950588142844,0.7024432254627886 l -19.8097402710633 0.08525276535827137" fill="#fff817" stroke="none" /><path d="M 120.99980553446 99.90962569577887 l 15.07583346655655 -0.06488002747729783 a36.075973074044406,36.075973074044406 0 0,0 -0.0026725470997670093,0.6210058252783872 l -15.07471662216728 -0.19463527600477415" fill="#ffbc11" stroke="none" /><path d="M 120.99824983174949 100.27111621757518 l 15.254094303117052 0.19695128799463904 a36.25536570581744,36.25536570581744 0 0,0 -0.01342818865676088,0.6239551618255349 l -15.248444051775282 -0.45949626561028883" fill="#ffbe11" stroke="none" /><path d="M 120.9904718944345 100.63252640178507 l 15.186295171105451 0.4576234726562876 a36.19318861420034,36.19318861420034 0 0,0 -0.02412511647204388,0.6225620585982272 l -15.176167921782206 -0.7189627782685211" fill="#ffbe11" stroke="none" /><path d="M 120.9764740272857 100.99374915477107 l 32.14313919610204 1.522763900466083 a53.179189040069886,53.179189040069886 0 0,0 -0.05118787939722477,0.9139939727098328 l -32.112164965817286 -2.075829589511339" fill="#78ff26" stroke="none" /><path d="M 120.89721153311464 102.0752229133903 l 25.89613458382461 2.5716470243617255 a47.023511577061726,47.023511577061726 0 0,0 -0.08692116641715135,0.8047820485090037 l -25.84803111590641 -3.0170253947555206" fill="#bcff1f" stroke="none" /><path d="M 120.8583938346157 102.4346265915055 l 14.628403369552807 1.7074516914949325 a35.72771456883697,35.72771456883697 0 0,0 -0.0765568206503362,0.610233185510924 l -14.596845039655623 -1.9590026312932514" fill="#ffb811" stroke="none" /><path d="M 120.81339534386255 102.79330883721812 l 17.579397703593592 2.3592828631345717 a38.73700761823685,38.73700761823685 0 0,0 -0.0943817026459158,0.6601054084816874 l -17.536181949931077 -2.6615337435966686" fill="#ffde14" stroke="none" /><path d="M 120.76222939487914 103.15116336523771 l 14.720985187907747 2.2342605094124957 a35.889571012172226,35.889571012172226 0 0,0 -0.09795844034017476,0.6099873015069016 l -14.680344993206283 -2.487327040612602" fill="#ffba11" stroke="none" /><path d="M 120.64145759157962 103.86396538481128 l 31.01285522341232 5.8054329998629965 a52.551548954436946,52.551548954436946 0 0,0 -0.1740959420472784,0.8877114577573046 l -30.90832934838938 -6.338408184688246" fill="#7fff26" stroke="none" /><path d="M 120.49622156327973 104.57218783832717 l 19.645360426613877 4.382382272010565 a41.12822547244538,41.12822547244538 0 0,0 -0.16008561306658603,0.6896446312611021 l -19.567014247616736 -4.719895560620232" fill="#fffc17" stroke="none" /><path d="M 120.41448212921028 104.9243191809786 l 15.957444311825236 3.849206098237608 a37.415127673938855,37.415127673938855 0 0,0 -0.15641070876083757,0.6247830314591629 l -15.888822288769338 -4.123316969094167" fill="#ffcd13" stroke="none" /><path d="M 120.32669344350535 105.2749913415812 l 11.050719442675751 2.8677782513113512 a32.41676628031888,32.41676628031888 0 0,0 -0.1448132954064631,0.5389041440756418 l -10.99971807092751 -3.0575733285625413" fill="#ff8c0c" stroke="none" /><path d="M 120.13307415673323 105.97154293290107 l 15.945273186013603 4.72942595183718 a37.63187322013114,37.63187322013114 0 0,0 -0.1895449851015859,0.6194439783114237 l -15.861501428405884 -5.003196902700661" fill="#ffd013" stroke="none" /><path d="M 120.02730092923936 106.31721596034902 l 30.008254331945288 9.465510299054422 a52.46571488576445,52.46571488576445 0 0,0 -0.2790869956529585,0.8589414519608182 l -29.840875085276082 -9.980650650993036" fill="#80ff26" stroke="none" /><path d="M 119.9155931802556 106.66101706037122 l 10.869005198379831 3.6352735467326105 a32.46082404375801,32.46082404375801 0 0,0 -0.181794787746875,0.5283807494462689 l -10.804819579689726 -3.8218269992681795" fill="#ff8c0c" stroke="none" /><path d="M 119.67450827220406 107.3425965602758 l 19.42759968585991 7.250449396458008 a41.73645692987648,41.73645692987648 0 0,0 -0.2569886966920122,0.6709163934957056 l -19.29991670957439 -7.583789356786857" fill="#fbff18" stroke="none" /><path d="M 119.54520255179757 107.68017299344265 l 16.617947793566795 6.529925362111612 a38.85486247789268,38.85486247789268 0 0,0 -0.24996144495961123,0.6203838072008553 l -16.50308373434979 -6.815008537155281" fill="#ffdf14" stroke="none" /><path d="M 119.41010516605496 108.01547362559984 l 13.823753575849151 5.708569389298719 a35.95606657508051,35.95606657508051 0 0,0 -0.24116079510876703,0.5700328818898898 l -13.723441799548077 -5.945676796854772" fill="#ffba11" stroke="none" /><path d="M 119.12269723197855 108.67885076344098 l 28.500341002451165 12.934901560529461 a52.2982605848406,52.2982605848406 0 0,0 -0.379101083625605,0.8165500077138914 l -28.273465301985727 -13.423571635522183" fill="#82ff25" stroke="none" /><path d="M 118.81262510543309 109.33194174019688 l 16.35946496326662 8.115059598668468 a39.26160688916201,39.26160688916201 0 0,0 -0.30553257257883043,0.6028447515807034 l -16.217353720901524 -8.395458561951866" fill="#ffe515" stroke="none" /><path d="M 118.64920377521936 109.65438752849418 l 15.628076148943935 8.090399208743003 a38.59804885417755,38.59804885417755 0 0,0 -0.31052588292030175,0.5873979457508086 l -15.48649775779874 -8.358212169579947" fill="#ffdc14" stroke="none" /><line stroke="#e1ed5e" stroke-width="0.3" x1="174.80103733775053" x2="179.2010983576182" y1="140.37084112569926" y2="142.7455964860345" /><path d="M 175.68104954172406 140.8457921977663 a86.0,86.0 0 0,1 -30.038265399797805,32.042727171017184" fill="none" id="id137" stroke="none" /><text fill="#e1ed5e" style="font-size:6.75px; font-family:Arial;" text-anchor="middle"><textPath startOffset="22.206326154141568" xlink:href="#id137">May</textPath></text><path d="M 118.48025628344425 109.97397251340804 l 15.065041528750541 8.130748178839884 a38.119127962915826,38.119127962915826 0 0,0 -0.3166131032318639,0.5747447488583701 l -14.922852016067168 -8.38886344609606" fill="#ffd614" stroke="none" /><path d="M 118.30583269289576 110.29060199501025 l 7.704689555431014 4.331182035812156 a29.83862992623346,29.83862992623346 0 0,0 -0.25554371570385515,0.44556200817357045 l -7.628993843574779 -4.463163889844042" fill="#ff6909" stroke="none" /><path d="M 118.12598468904814 110.60418214915192 l 15.797507644649476 9.241961274947991 a39.30232487938068,39.30232487938068 0 0,0 -0.3466448665325079,0.580996735283953 l -15.636081902418741 -9.512520104118048" fill="#ffe515" stroke="none" /><path d="M 117.94076556474637 110.91462005526583 l 31.20933484668685 18.986816967192812 a57.53110729389821,57.53110729389821 0 0,0 -0.5219862027878087,0.8416079629192191 l -30.877884004231078 -19.521221261477304" fill="#4bff2c" stroke="none" /><path d="M 117.55443506779139 111.5257021239791 l 11.265326105809761 7.396466620750372 a34.47647174679312,34.47647174679312 0 0,0 -0.32998398845240146,0.4932812899208465 l -11.136339011946637 -7.5892848248770255" fill="#ffa70f" stroke="none" /><path d="M 117.35343817320211 111.8261652097733 l 14.844835431999721 10.116581773508612 a38.964252441536246,38.964252441536246 0 0,0 -0.38247884054303816,0.5509892964221402 l -14.668495684294546 -10.370612332117773" fill="#ffe115" stroke="none" /><path d="M 117.14729908036423 112.12312394758627 l 14.964806930000245 10.58010409766745 a39.32713968871474,39.32713968871474 0 0,0 -0.3955565052535237,0.5493933894475221 l -14.780470632371118 -10.836131092566102" fill="#ffe515" stroke="none" /><path d="M 116.71984013943494 112.70617746262583 l 12.433879608604471 9.449078432468333 a36.61686413285997,36.61686413285997 0 0,0 -0.38568574862099286,0.4985508210547531 l -12.269387042765409 -9.66170724763634" fill="#ffc312" stroke="none" /><path d="M 116.498646956653 112.99209946851258 l 4.556056935620351 3.587733287905587 a26.799093458960645,26.799093458960645 0 0,0 -0.2885140478209014,0.3599656357194272 l -4.493624975744595 -3.6656267572032646" fill="#ff3e05" stroke="none" /><path d="M 116.27256486870786 113.27417163493432 l 24.299121642380356 19.821749912293736 a52.35839731518041,52.35839731518041 0 0,0 -0.5757030180589674,0.6934713718467627 l -23.954322624427846 -20.237082541254267" fill="#81ff25" stroke="none" /><path d="M 115.80600337817218 113.82643327865902 l 5.852356263486792 5.119397450704563 a28.775493816668718,28.775493816668718 0 0,0 -0.32933025170644226,0.3700060289982159 l -5.763367162132011 -5.219377649443645" fill="#ff5a08" stroke="none" /><path d="M 115.56566222782051 114.09645910891815 l 13.59668415696781 12.313327851417009 a39.34360550275821,39.34360550275821 0 0,0 -0.45892178525237626,0.4980689597380747 l -13.382715963719711 -12.54554806595642" fill="#ffe615" stroke="none" /><path d="M 115.32070863581623 114.36230785411682 l 6.318483623288167 5.923225167059997 a29.660706188149653,29.660706188149653 0 0,0 -0.35238818454365456,0.3694776026646258 l -6.2155888873655485 -6.03110988630713" fill="#ff6609" stroke="none" /><path d="M 115.07121518719521 114.62390073753431 l 11.115820209804529 10.785902088543637 a36.48861332722684,36.48861332722684 0 0,0 -0.44126787777013243,0.44700203047109105 l -10.928511706978862 -10.975644612995392" fill="#ffc112" stroke="none" /><path d="M 114.81725581225074 114.88116024355365 l 26.154577913302145 26.26737838382756 a58.06800659574458,58.06800659574458 0 0,0 -0.7143748699739669,0.6991661662488299 l -25.69855309095238 -26.71369465299896" fill="#45ff2d" stroke="none" /><path d="M 114.29624159901734 115.38237550388516 l 11.438719031092424 12.307757266203126 a37.80253498719916,37.80253498719916 0 0,0 -0.48045302949419494,0.4388824510115681 l -11.225166452131365 -12.502832483801278" fill="#ffd213" stroke="none" /><path d="M 114.0293411484842 115.62618273729858 l 10.967409277993616 12.21573698428373 a37.41670784110559,37.41670784110559 0 0,0 -0.48295641854246246,0.42615288698380005 l -10.755510506544566 -12.40271301303982" fill="#ffcd13" stroke="none" /><path d="M 113.75828350139079 115.86535959552629 l 9.892513634411138 11.407548485079106 a36.099469806799206,36.099469806799206 0 0,0 -0.4729624010054748,0.40306881883702683 l -9.694685756828616 -11.576141694139078" fill="#ffbc11" stroke="none" /><path d="M 113.20401910651253 116.32954008644616 l 11.16829901802027 13.811945063168578 a38.76234020009468,38.76234020009468 0 0,0 -0.5224471408751339,0.41506360594271674 l -10.928894384427785 -14.00214258311642" fill="#ffde14" stroke="none" /><path d="M 112.92097659922987 116.55440617244103 l 11.876631435167646 15.216387029898724 a40.302663248642205,40.302663248642205 0 0,0 -0.5505560119636442,0.422142873061007 l -11.612946694710507 -15.418569244787104" fill="#fff216" stroke="none" /><path d="M 112.63410532772338 116.77436683061366 l 18.731874584576776 24.870406535019793 a52.1355142348648,52.1355142348648 0 0,0 -0.7214935243623141,0.5337436608491469 l -18.3009960897959 -25.18916014460871" fill="#83ff25" stroke="none" /><path d="M 112.04921762599082 117.19931262002967 l 10.59330392374509 15.121110060330283 a39.46255825928397,39.46255825928397 0 0,0 -0.5596976806045765,0.3849651683157571 l -10.33144935851763 -15.301216018011134" fill="#ffe715" stroke="none" /><path d="M 111.7513745106137 117.40417183066458 l 7.508937041925214 11.120982522110396 a34.41865819509095,34.41865819509095 0 0,0 -0.4938672642667611,0.3273082929971987 l -7.316395078918489 -11.248588836198913" fill="#ffa60f" stroke="none" /><path d="M 111.45004920935366 117.60387380957326 l 9.041995972801027 13.901613275323552 a37.583502127982555,37.583502127982555 0 0,0 -0.5453512876763904,0.3480689941982039 l -8.801362883077706 -14.055196698345563" fill="#ffcf13" stroke="none" /><path d="M 111.1453310114006 117.79835938074945 l 17.57312578678188 28.063124179651812 a54.11123206165268,54.11123206165268 0 0,0 -0.7936849996323222,0.48754615143765356 l -17.08746158721725 -28.36145879791784" fill="#6eff28" stroke="none" /><line stroke="#e1ed5e" stroke-width="0.3" x1="143.8653032363475" x2="146.44561519142675" y1="172.8068346515853" y2="177.08958963109032" /><path d="M 144.38136562736335 173.6633856474863 a86.0,86.0 0 0,1 -40.68145358897372,12.25698825130547" fill="none" id="id138" stroke="none" /><text fill="#e1ed5e" style="font-size:6.75px; font-family:Arial;" text-anchor="middle"><textPath startOffset="21.466115282336833" xlink:href="#id138">June</textPath></text><path d="M 110.5260780823613 118.17145234162733 l 6.940821352352606 11.982127002019295 a34.84725129900493,34.84725129900493 0 0,0 -0.5216322102499547,0.29619638274435245 l -6.733540375181453 -12.099826550558275" fill="#ffac0f" stroke="none" /><path d="M 110.21172684928248 118.3499491758327 l 6.188469902356959 11.120362878918908 a33.72633609061208,33.72633609061208 0 0,0 -0.5097128435433987,0.27793608297010747 l -5.996134246944911 -11.225239613648785" fill="#ff9d0e" stroke="none" /><path d="M 109.89434966115114 118.52300852407294 l 8.799172370778612 16.4727496410064 a39.67557000859546,39.67557000859546 0 0,0 -0.6051640962476215,0.31659325333523375 l -8.514317372004495 -16.62177231328635" fill="#ffea16" stroke="none" /><path d="M 108.2653958097858 119.30500536409082 l 3.600732794983016 8.410022643985911 a30.14842923857544,30.14842923857544 0 0,0 -0.4788267429707684,0.20014961739577988 l -3.455434592514787 -8.470757304401664" fill="#ff6d0a" stroke="none" /><path d="M 107.93186726928326 119.44442032107085 l 4.506387508412 11.0470952007123 a32.93087761858165,32.93087761858165 0 0,0 -0.5267041780726759,0.20958646239052361 l -4.315562254297458 -11.123028507508893" fill="#ff930d" stroke="none" /><path d="M 107.2578585660854 119.70592522655815 l 5.319118140010196 14.44202079495807 a36.39041852677785,36.39041852677785 0 0,0 -0.5896641716742764,0.2114325927160551 l -5.069734407706185 -14.531440928714087" fill="#ffc011" stroke="none" /><path d="M 106.57524785965236 119.94407469862006 l 4.8968782370903225 14.85323556391984 a36.63962989287732,36.63962989287732 0 0,0 -0.6006782140897894,0.19231819535875178 l -4.640478677909592 -14.935326605938299" fill="#ffc312" stroke="none" /><path d="M 106.2309692047433 120.05430185196036 l 4.4965155723866514 14.471983026659347 a36.154436479679205,36.154436479679205 0 0,0 -0.5959026309822606,0.17954057445113505 l -4.246737966964145 -14.547238970216206" fill="#ffbd11" stroke="none" /><path d="M 105.18746579009965 120.34920634021253 l 3.73605049762861 14.655646041809902 a36.1243523571639,36.1243523571639 0 0,0 -0.6038731064648203,0.14841731740936703 l -3.4832241064205784 -14.7177846175333" fill="#ffbd11" stroke="none" /><path d="M 104.83641907484287 120.43548508189849 l 2.4602567909124815 10.395406223139371 a31.682571507896203,31.682571507896203 0 0,0 -0.5317841939025342,0.12103235119152485 l -2.2809524476170853 -10.436215307908581" fill="#ff820c" stroke="none" /><path d="M 104.48393922423573 120.51570834832081 l 1.7062070803020417 7.806539092260555 a28.990819432315128,28.990819432315128 0 0,0 -0.48843806930058115,0.10235694641633035 l -1.5715775495720825 -7.834752019403426" fill="#ff5d08" stroke="none" /><path d="M 104.13013068566511 120.58985236759428 l 1.812402774660353 9.035332874670392 a30.21531572837828,30.21531572837828 0 0,0 -0.5108293152150114,0.09790165404497402 l -1.6566058448736374 -9.065191727063835" fill="#ff6e0a" stroke="none" /><path d="M 103.41894727170886 120.7198165907248 l 2.168599131747199 13.14234256854993 a34.32005969894033,34.32005969894033 0 0,0 -0.5837092611083884,0.09116338199787005 l -1.9420540070302932 -13.177724257894907" fill="#ffa50f" stroke="none" /><path d="M 103.06178313531738 120.77559828337769 l 2.277954190832816 15.456960563529128 a36.62391452735285,36.62391452735285 0 0,0 -0.6244750795743972,0.08654655579912715 l -2.011550520071588 -15.493881684820858" fill="#ffc312" stroke="none" /><path d="M 102.70371172650421 120.8252237178851 l 1.5643062236609449 12.049001656378497 a33.15012324533361,33.15012324533361 0 0,0 -0.5665081026293911,0.06859624182454409 l -1.3566706979801735 -12.074143426928392" fill="#ff960d" stroke="none" /><path d="M 102.34483914955558 120.86867818915974 l 1.9948637982827784 17.753955807782482 a38.865677384258134,38.865677384258134 0 0,0 -0.6654681284867643,0.06897849245266897 l -1.6889630731904115 -17.785663668690912" fill="#ffe015" stroke="none" /><path d="M 101.98527174616119 120.90594882070398 l 0.7397005568799694 7.789433368344168 a28.8244762836705,28.8244762836705 0 0,0 -0.49434756769943333,0.04265438824719019 l -0.6055086714389943 -7.801012008870022" fill="#ff5b08" stroke="none" /><path d="M 101.62511606390274 120.93702456842531 l 1.1923444117027688 15.361453127165491 a36.40765807558765,36.40765807558765 0 0,0 -0.625236061661172,0.04311993945832878 l -0.9277455892626666 -15.379701411140106" fill="#ffc011" stroke="none" /><path d="M 101.26447882468166 120.96189622390904 l 0.6718115314621231 11.136954869987427 a32.157199223368835,32.157199223368835 0 0,0 -0.5528158383829017,0.028574264356877793 l -0.48000762466574176 -11.146868941106506" fill="#ff880c" stroke="none" /><line stroke="#e1ed5e" stroke-width="0.3" x1="102.19456741930631" x2="102.32365962044197" y1="184.97166512339345" y2="189.96999836594603" /><path d="M 102.22038585953345 185.97133177190398 a86.0,86.0 0 0,1 -42.740103519485714,-10.115201625700543" fill="none" id="id139" stroke="none" /><text fill="#e1ed5e" style="font-size:6.75px; font-family:Arial;" text-anchor="middle"><textPath startOffset="22.20632615414155" xlink:href="#id139">July</textPath></text><path d="M 100.54218724476979 120.99299961872073 l 0.4012833990198855 15.537330182306656 a36.54251130159944,36.54251130159944 0 0,0 -0.6289493627119422,0.010827933659560354 l -0.1337743464152753 -15.541935593245375" fill="#ffc212" stroke="none" /><path d="M 100.18074693466247 120.99922214144158 l 0.10837054429553342 12.590515781087019 a33.59098216219339,33.59098216219339 0 0,0 -0.578234957915969,0.0 l 0.10837054429552474 -12.590515781087019" fill="#ff9b0e" stroke="none" /><path d="M 99.45781275523022 120.99299961872073 l -0.4040028920826713 15.642626493463224 a36.64784272514294,36.64784272514294 0 0,0 -0.6304818919820301,-0.021715071156084096 l 0.6732051357393445 -15.633354623881047" fill="#ffc312" stroke="none" /><path d="M 99.09653310690486 120.98055641714683 l -0.06432022718032543 1.493661987433131 a22.49504622815725,22.49504622815725 0 0,0 -0.3867133376169004,-0.019988662357648367 l 0.0900216332107148 -1.4923335183132809" fill="#ff0000" stroke="none" /><path d="M 98.73552117531835 120.96189622390904 l -1.0063869896798 16.683379133748133 a37.71370557636395,37.71370557636395 0 0,0 -0.6476650790407698,-0.04466677581474187 l 1.2934148294994996 -16.663584013417108" fill="#ffd113" stroke="none" /><path d="M 98.01472825383883 120.90594882070398 l -0.8427440469182131 8.874535160182928 a29.914459705329264,29.914459705329264 0 0,0 -0.5122030761996119,-0.05309194312011044 l 0.9953797197234184 -8.858713848607056" fill="#ff6a09" stroke="none" /><path d="M 97.65516085044442 120.86867818915974 l -1.1856193954785563 10.55181530202509 a31.61821545830493,31.61821545830493 0 0,0 -0.5403290695256328,-0.06542632549469765 l 1.3670758880555782 -10.529843447805044" fill="#ff810b" stroke="none" /><path d="M 96.93821686468263 120.77559828337769 l -1.302845156925119 8.840399992246619 a29.935887058699727,29.935887058699727 0 0,0 -0.5091440594492121,-0.07951783100953058 l 1.4548250799828482 -8.816663853889983" fill="#ff6a09" stroke="none" /><path d="M 96.58105272829116 120.7198165907248 l -2.023835047559065 12.2650300407662 a33.43088372564983,33.43088372564983 0 0,0 -0.5669735058804044,-0.09857561150434277 l 2.2346575249115195 -12.228375850740852" fill="#ff990e" stroke="none" /><path d="M 95.86986931433489 120.58985236759428 l -1.8688721979985303 9.316848685744313 a30.502439303963346,30.502439303963346 0 0,0 -0.5139058796654336,-0.1076939736971698 l 2.0289695390933504 -9.283298731320603" fill="#ff720a" stroke="none" /><path d="M 94.81253420990036 120.34920634021253 l -3.0429302092036927 11.936698421053617 a33.318449312038766,33.318449312038766 0 0,0 -0.5545293554885005,-0.14645624282339556 l 3.2479500075036825 -11.88255082892664" fill="#ff980e" stroke="none" /><path d="M 94.46302465271185 120.25689768951611 l -2.6129414188129574 9.559386428461663 a30.910062146465343,30.910062146465343 0 0,0 -0.5120308196526042,-0.14470502417144296 l 2.7771034065701756 -9.512992610951699" fill="#ff770b" stroke="none" /><path d="M 93.76903079525671 120.05430185196036 l -3.5284967267254896 11.356425640418864 a32.89195915216982,32.89195915216982 0 0,0 -0.5392380692491789,-0.17264700119661383 l 3.723456141065609 -11.294005792562544" fill="#ff920d" stroke="none" /><path d="M 92.7421414339146 119.70592522655815 l -4.644782834962963 12.611122468972061 a34.439286346803485,34.439286346803485 0 0,0 -0.5545213471246697,-0.20967252497702668 l 4.861174402847915 -12.529301693888401" fill="#ffa70f" stroke="none" /><path d="M 92.40401165467489 119.57807347666478 l -3.378182448471633 8.707004432736024 a30.339381288224963,30.339381288224963 0 0,0 -0.48525517812594215,-0.19309304990184778 l 3.5275587026394333 -8.64756453842811" fill="#ff700a" stroke="none" /><path d="M 92.06813273071674 119.44442032107085 l -5.175860668866907 12.688262038686542 a34.70334000256497,34.70334000256497 0 0,0 -0.5511692543628014,-0.23038879302480186 l 5.3935013827271705 -12.597288202641767" fill="#ffaa0f" stroke="none" /><path d="M 90.7491055286396 118.85261126421891 l -5.229563806416271 10.657448728771048 a32.87137527886987,32.87137527886987 0 0,0 -0.5058217366885861,-0.2536295194626608 l 5.4122394507876175 -10.565851368399086" fill="#ff920d" stroke="none" /><line stroke="#e1ed5e" stroke-width="0.3" x1="58.666819895761336" x2="56.23545636021788" y1="174.27360380694188" y2="178.64263932499728" /><path d="M 58.180547188652646 175.14741091055294 a86.0,86.0 0 0,1 -31.652253787137756,-30.449443065178592" fill="none" id="id140" stroke="none" /><text fill="#e1ed5e" style="font-size:6.75px; font-family:Arial;" text-anchor="middle"><textPath startOffset="22.20632615414155" xlink:href="#id140">August</textPath></text><path d="M 89.7882731507175 118.34994917583269 l -5.762953879993738 10.35573242031863 a32.85127973613707,32.85127973613707 0 0,0 -0.4917542996795736,-0.27923092535692323 l 5.940356946594519 -10.254998329167073" fill="#ff920d" stroke="none" /><path d="M 89.4739219176387 118.17145234162733 l -5.9412173562032535 10.256483677468411 a32.85299629207007,32.85299629207007 0 0,0 -0.4869003799560779,-0.2876693267911427 l 6.116885607187714 -10.15269577838352" fill="#ff920d" stroke="none" /><path d="M 88.8546689885994 117.79835938074946 l -6.398556722408119 10.218073554481057 a33.05614180800223,33.05614180800223 0 0,0 -0.4796575220483711,-0.306140124781459 l 6.573496046503414 -10.106419000875794" fill="#ff940d" stroke="none" /><path d="M 88.24862548938628 117.40417183066458 l -6.629381224540998 9.818331452093894 a32.8468699631368,32.8468699631368 0 0,0 -0.4658673371527368,-0.32042780249882735 l 6.797405446316625 -9.702762860229965" fill="#ff920d" stroke="none" /><path d="M 87.65650970185807 116.9893568818739 l -7.095616124455003 9.766277748303606 a33.071783184046836,33.071783184046836 0 0,0 -0.4576741546829809,-0.33857639819074054 l 7.2626752495565485 -9.6426914013731" fill="#ff950d" stroke="none" /><path d="M 87.07902340077011 116.55440617244103 l -6.5399438797060485 8.379001888764087 a31.6291363055338,31.6291363055338 0 0,0 -0.4263042877667964,-0.33868190878207655 l 6.683205660190203 -8.26518606597688" fill="#ff810b" stroke="none" /><path d="M 86.51685102203217 116.09983520530335 l -10.807986508157757 12.905501672259051 a37.83343535269023,37.83343535269023 0 0,0 -0.49568020024834125,-0.42242942020393265 l 11.028532184983156 -12.717547861832168" fill="#ffd313" stroke="none" /><path d="M 85.97065885151581 115.62618273729859 l -7.63513850395204 8.504181930184926 a32.42875541238917,32.42875541238917 0 0,0 -0.41215473475218317,-0.37649357810167644 l 7.780392788171078 -8.371495585496673" fill="#ff8c0c" stroke="none" /><path d="M 85.44109423537348 115.13401014063109 l -8.22372812387712 8.548580973917867 a32.86203780651023,32.86203780651023 0 0,0 -0.4042813824923985,-0.39567442272051123 l 8.369659458745312 -8.405756448274786" fill="#ff920d" stroke="none" /><path d="M 85.18274418774928 114.88116024355367 l -1.0481873359548834 1.0527079986505867 a22.485560776837865,22.485560776837865 0 0,0 -0.2719247123886458,-0.27545829800081195 l 1.0661526733990625 -1.0345092066691102" fill="#ff0000" stroke="none" /><path d="M 84.67929136418377 114.36230785411682 l -8.445699686337843 7.917371305856674 a32.576468010002436,32.576468010002436 0 0,0 -0.37998680256487255,-0.41240062587920484 l 8.580732896898445 -7.770819425176126" fill="#ff8e0d" stroke="none" /><path d="M 84.43433777217949 114.09645910891817 l -8.295397656065374 7.512416249270908 a32.19151554413273,32.19151554413273 0 0,0 -0.3684259941638218,-0.41393051010020554 l 8.423482499877533 -7.368511569429838" fill="#ff890c" stroke="none" /><path d="M 84.19399662182784 113.82643327865904 l -13.13722495238678 11.491897092832058 a38.454236684594825,38.454236684594825 0 0,0 -0.43152518635537684,-0.5019612814052491 l 13.333092648312936 -11.264058712265278" fill="#ffda14" stroke="none" /><path d="M 83.95833913139862 113.55231037782056 l -6.820483436651445 5.762078454183376 a29.92863608967243,29.92863608967243 0 0,0 -0.32907818051600163,-0.3963958675372004 l 6.918657617060983 -5.643821329532415" fill="#ff6a09" stroke="none" /><path d="M 83.50135304334701 112.99209946851258 l -9.309444831765813 7.33085771025361 a32.84935600966044,32.84935600966044 0 0,0 -0.34600255276731257,-0.44725494106523767 l 9.434254201751193 -7.169524775075119" fill="#ff920d" stroke="none" /><path d="M 83.28015986056508 112.70617746262583 l -9.185669345376331 6.98061368063405 a32.537135202503336,32.537135202503336 0 0,0 -0.33503756674095614,-0.4488375717061676 l 9.304468178812371 -6.821463229418575" fill="#ff8d0d" stroke="none" /><path d="M 83.06392112726016 112.41649034213515 l -9.21650114380034 6.756971215130001 a32.428059911278396,32.428059911278396 0 0,0 -0.3261648355864982,-0.4530144294469632 l 9.331445771762446 -6.5973231802319" fill="#ff8c0c" stroke="none" /><path d="M 82.6465618267979 111.8261652097733 l -9.804250188600635 6.681481867229736 a32.86446466144998,32.86446466144998 0 0,0 -0.31455501615667797,-0.4702170697691911 l 9.917808310168045 -6.511727883254724" fill="#ff920d" stroke="none" /><path d="M 82.24976979558568 111.22182372390057 l -10.17129289195808 6.4303648213717635 a33.03348622926592,33.03348622926592 0 0,0 -0.29971653341508564,-0.4832384836869293 l 10.280474065041123 -6.25433000631957" fill="#ff940d" stroke="none" /><line stroke="#e1ed5e" stroke-width="0.3" x1="26.63291911575756" x2="22.317208475507996" y1="142.92168965132927" y2="145.44649492493687" /><path d="M 25.769776987707644 143.4266507060508 a86.0,86.0 0 0,1 -11.730757126820373,-40.83630448921669" fill="none" id="id141" stroke="none" /><text fill="#e1ed5e" style="font-size:6.75px; font-family:Arial;" text-anchor="middle"><textPath startOffset="21.46611528233685" xlink:href="#id141">September</textPath></text><path d="M 81.87401531095188 110.60418214915194 l -10.592210861215447 6.196724495879104 a33.27168796076068,33.27168796076068 0 0,0 -0.284945079256371,-0.4968257637756975 l 10.697307936624195 -6.0134788862451" fill="#ff970e" stroke="none" /><path d="M 81.69416730710424 110.29060199501025 l -9.936951658664219 5.5860455122948345 a32.399425982568545,32.399425982568545 0 0,0 -0.269105914837592,-0.4885054025270856 l 10.031633982953327 -5.414169591369926" fill="#ff8c0c" stroke="none" /><path d="M 81.51974371655577 109.97397251340807 l -16.446524429444807 8.876347821395289 a39.68897312467204,39.68897312467204 0 0,0 -0.319302498121107,-0.6039999941569265 l 16.5968794357908 -8.591932812152235" fill="#ffea16" stroke="none" /><path d="M 81.35079622478065 109.6543875284942 l -8.822373392302852 4.567198293127443 a30.934463876926603,30.934463876926603 0 0,0 -0.2407310112483822,-0.47498512335001974 l 8.899683073337501 -4.414658958074738" fill="#ff780b" stroke="none" /><path d="M 81.18737489456691 109.33194174019688 l -1.6272001021876432 0.8071673393880627 a22.816397337130365,22.816397337130365 0 0,0 -0.1714997150214584,-0.3533402094818601 l 1.6408530738238205 -0.7790381739409178" fill="#ff0500" stroke="none" /><path d="M 81.02952815118164 109.00673069616217 l -9.236764816893821 4.385397151559528 a31.224946574897785,31.224946574897785 0 0,0 -0.22634425983427411,-0.4875253991523668 l 9.310883693567922 -4.225751685128334" fill="#ff7c0b" stroke="none" /><path d="M 80.58989483394504 108.01547362559985 l -8.78870635096635 3.6293282986694155 a30.508595228688563,30.508595228688563 0 0,0 -0.1962681646702551,-0.48712148887653556 l 8.849877129893994 -3.477507441950075" fill="#ff720a" stroke="none" /><path d="M 80.45479744820244 107.68017299344265 l -16.76855068705999 6.5891038880069335 a39.01667511477765,39.01667511477765 0 0,0 -0.24024187064677763,-0.6271957152036253 l 16.879486837300277 -6.29948460597015" fill="#ffe215" stroke="none" /><path d="M 80.20201598880116 107.00284435728193 l -12.150771208743219 4.297910309839607 a33.88849386075226,33.88849386075226 0 0,0 -0.18979036207374178,-0.5516196310855193 l 12.22295240176019 -4.088117975664791" fill="#ff9f0e" stroke="none" /><path d="M 80.0844068197444 106.66101706037122 l -14.753266677304378 4.934412956936566 a36.55658410067079,36.55658410067079 0 0,0 -0.19445970097243354,-0.5984854203268838 l 14.836018629293061 -4.679728636631879" fill="#ffc212" stroke="none" /><path d="M 79.86692584326677 105.97154293290107 l -2.372308669969661 0.703635369468877 a23.47445977109769,23.47445977109769 0 0,0 -0.11156780620364234,-0.38838216971599926 l 2.3840691130594074 -0.6626957242482816" fill="#ff0f01" stroke="none" /><path d="M 79.58551787078972 104.9243191809786 l -17.84895427696903 4.3054703690339835 a39.36088897303071,39.36088897303071 0 0,0 -0.15320651376789438,-0.6600096515250954 l 17.920421356667482 -3.9975920601603137" fill="#ffe615" stroke="none" /><path d="M 79.4281124754447 104.21870165774334 l -17.985273568828248 3.68826163030577 a39.359557162393045,39.359557162393045 0 0,0 -0.13039271570646532,-0.6648696481925281 l 18.04609621751038 -3.378128255045287" fill="#ffe615" stroke="none" /><path d="M 79.23777060512086 103.15116336523772 l -10.992804676062557 1.668420222009781 a32.118695098044284,32.118695098044284 0 0,0 -0.07825635784761645,-0.5473247845198124 l 11.019895084926773 -1.4789499655095681" fill="#ff880c" stroke="none" /><path d="M 79.18660465613746 102.79330883721812 l -8.829731819395427 1.1850141466061315 a29.908895696443007,29.908895696443007 0 0,0 -0.06408834125873213,-0.5108471369135161 l 8.848821669901007 -1.032849255405207" fill="#ff6a09" stroke="none" /><path d="M 79.10278846688536 102.07522291339032 l -2.9518372382981015 0.29313577382359934 a23.966356631172072,23.966356631172072 0 0,0 -0.03723390765998007,-0.4108730683764016 l 2.956445742235157 -0.24228131689863158" fill="#ff1602" stroke="none" /><path d="M 79.0235259727143 100.99374915477108 l -15.877411985853007 0.7521838379686574 a36.89521915214163,36.89521915214163 0 0,0 -0.024593065529405145,-0.6346377444837386 l 15.888007184233613 -0.47876884647092205" fill="#ffc712" stroke="none" /><path d="M 79.0095281055655 100.63252640178507 l -20.137010839003835 0.6068082257874036 a41.14615153703161,41.14615153703161 0 0,0 -0.01523962797181981,-0.7081256288821842 l 20.144472529660664 -0.2600927811150905" fill="#fffc17" stroke="none" /><line stroke="#e1ed5e" stroke-width="0.3" x1="15.007084014347285" x2="10.007500721073583" y1="101.09737516637583" y2="101.16192664675087" /><path d="M 14.007167355692545 101.11028546245083 a86.0,86.0 0 0,1 10.666146001902534,-42.60595125391555" fill="none" id="id142" stroke="none" /><text fill="#e1ed5e" style="font-size:6.75px; font-family:Arial;" text-anchor="middle"><textPath startOffset="22.20632615414155" xlink:href="#id142">October</textPath></text><path d="M 79.00175016825051 100.2711162175752 l -11.864422847416916 0.1531859784447813 a32.86541172679232,32.86541172679232 0 0,0 -0.002434705243093822,-0.5657397540080572 l 11.865301849949514 0.05106325376695126" fill="#ff920d" stroke="none" /><path d="M 79.00019446554 99.90962569577889 l -1.8030033427285774 -0.007759365787462245 a22.803020039169795,22.803020039169795 0 0,0 0.005067692010352147,-0.3924983309943027 l 1.8026026436005096 0.038793954842236925" fill="#ff0500" stroke="none" /><path d="M 79.00486145842228 99.54816195383935 l -12.587120528653028 -0.27088842186929374 a33.590035096851054,33.590035096851054 0 0,0 0.017416122160958107,-0.5779563061683074 l 12.580592712036426 0.4875148754625955" fill="#ff9b0e" stroke="none" /><path d="M 79.03285615573316 98.82574320788736 l -12.742684377204776 -0.7136491164852599 a33.76265255338869,33.76265255338869 0 0,0 0.03749167160325546,-0.5799795654957084 l 12.728512114597107 0.9328877462339802" fill="#ff9e0e" stroke="none" /><path d="M 79.05617556472873 98.46500227214037 l -16.240990181245824 -1.190321428803557 a37.28455179521967,37.28455179521967 0 0,0 0.052421220824407505,-0.6396716721411138 l 16.21809447660192 1.4697070181524494" fill="#ffcc13" stroke="none" /><path d="M 79.16333360222342 97.38593545837743 l -18.21902152296433 -2.285667833666586 a39.361836038373056,39.361836038373056 0 0,0 0.0901273600549771,-0.6715535178670161 l 18.17697816385152 2.5989396935982616" fill="#ffe615" stroke="none" /><path d="M 79.26566170972629 96.67025291283419 l -13.331075117741873 -2.1408500199358733 a34.50188144677385,34.50188144677385 0 0,0 0.09921449498193463,-0.5855695655939364 l 13.292248761239716 2.3700053738456375" fill="#ffa80f" stroke="none" /><path d="M 79.3925641242962 95.95851677861259 l -19.485875824091625 -3.8215254276226296 a40.857074639177966,40.857074639177966 0 0,0 0.1412890251024154,-0.6889754641753232 l 19.417207503074216 4.156376547961355" fill="#fff817" stroke="none" /><path d="M 79.46518482838121 95.60439243477599 l -10.165967375210833 -2.1760898614786286 a31.396261816589707,31.396261816589707 0 0,0 0.11766962057710542,-0.5274898363532334 l 10.12700336763169 2.3507578673818212" fill="#ff7e0b" stroke="none" /><path d="M 79.62865764111835 94.90015583598534 l -17.808006112232416 -4.458128209926737 a39.35755944643655,39.35755944643655 0 0,0 0.17018146506518447,-0.6557786062848204 l 17.728628315296923 4.76400324176042" fill="#ffe615" stroke="none" /><path d="M 79.81627453868168 94.20196356495316 l -12.950222164625712 -3.720118968936214 a34.473957817070755,34.473957817070755 0 0,0 0.1687485508006974,-0.5689362239017214 l 12.884267716713307 3.9424845795844745" fill="#ffa70f" stroke="none" /><path d="M 79.91906864156998 93.8553929516997 l -11.44855368241999 -3.5031673777576313 a32.97253369574868,32.97253369574868 0 0,0 0.1707420107467042,-0.5412988335289904 l 11.38655618790508 3.699716377713036" fill="#ff930d" stroke="none" /><path d="M 80.02781315780177 93.51064311812611 l -2.8824353385999073 -0.9365600146288757 a24.03077187234724,24.03077187234724 0 0,0 0.13121111122078605,-0.392304521684683 l 2.865886933607349 0.9860376392358808" fill="#ff1702" stroke="none" /><path d="M 80.38941819471856 92.48833698450439 l -16.62454535886205 -6.367887692549835 a38.80240158107297,38.80240158107297 0 0,0 0.24428227471898636,-0.6216717440183906 l 16.512469534261374 6.653108441463989" fill="#ffdf14" stroke="none" /><path d="M 80.65960295795068 91.81776055985345 l -24.860382062582058 -10.51755029471808 a47.9936559305974,47.9936559305974 0 0,0 0.32843496313527465,-0.7580731774569328 l 24.6756563896041 10.943922616761611" fill="#b1ff20" stroke="none" /><path d="M 80.803312248108 91.48605970444005 l -8.129721479205962 -3.6056201042635054 a29.893417097254122,29.893417097254122 0 0,0 0.21266701201799504,-0.46858357090096203 l 8.066452150224615 3.7450256840065386" fill="#ff6a09" stroke="none" /><path d="M 80.95270993114464 91.15688171328213 l -16.774887010364488 -7.788105790520724 a39.49463235684445,39.49463235684445 0 0,0 0.29158662543624597,-0.6141557970293523 l 16.63834219108649 8.075704003190609" fill="#ffe715" stroke="none" /><path d="M 81.26839172434947 90.50648371742162 l -28.72244583558803 -14.557052614114674 a53.200724768060596,53.200724768060596 0 0,0 0.4210218383569882,-0.813280183146078 l 28.467614564070928 15.049305519521088" fill="#78ff26" stroke="none" /><path d="M 81.6062741919709 89.86733742301443 l -10.404960498632656 -5.7318432904706365 a32.87927735532003,32.87927735532003 0 0,0 0.2773482258724649,-0.49337154648043646 l 10.30475463146776 5.9100983468858574" fill="#ff920d" stroke="none" /><line stroke="#e1ed5e" stroke-width="0.3" x1="26.266209847984243" x2="21.928928074336255" y1="57.711370442889674" y2="55.22380399835377" /><path d="M 25.398753493254645 57.213857153982495 a86.0,86.0 0 0,1 29.58750427330803,-30.492523968695096" fill="none" id="id143" stroke="none" /><text fill="#e1ed5e" style="font-size:6.75px; font-family:Arial;" text-anchor="middle"><textPath startOffset="21.46611528233685" xlink:href="#id143">November</textPath></text><path d="M 81.78341655067845 89.55222093294921 l -6.432525833278658 -3.6892542960186745 a28.415388449467063,28.415388449467063 0 0,0 0.24699782179132787,-0.4221993429616737 l 6.368068337017005 3.79943305133424" fill="#ff5507" stroke="none" /><path d="M 82.15384107792192 88.93136811851018 l -19.511889344264585 -12.101759342557735 a43.960104637566644,43.960104637566644 0 0,0 0.40437519438655967,-0.6396244466065577 l 19.300686553632065 12.435831436878507" fill="#e0ff1b" stroke="none" /><path d="M 82.34701348167596 88.62581576622439 l -8.094991153018203 -5.21577018424835 a30.629804794612248,30.629804794612248 0 0,0 0.28938363474196077,-0.4407511291820032 l 8.004010882918323 5.35433937740802" fill="#ff740a" stroke="none" /><path d="M 82.54541684631803 88.32363383020206 l -10.089797659119897 -6.749641112007996 a33.13926158968864,33.13926158968864 0 0,0 0.32125442311734537,-0.47140122521097966 l 9.972118770333811 6.922320360489392" fill="#ff950d" stroke="none" /><path d="M 82.7489923806493 88.02491185347247 l -13.868035137271162 -9.626738730419369 a37.88183927042145,37.88183927042145 0 0,0 0.3764505616359437,-0.5324626224437655 l 13.70027195583134 9.864027853194921" fill="#ffd313" stroke="none" /><path d="M 83.17141714833178 87.43820079747576 l -9.661322918448885 -7.211753930918166 a33.05614180800223,33.05614180800223 0 0,0 0.3442939779416102,-0.4530505172847014 l 9.535753000283167 7.376989224083895" fill="#ff940d" stroke="none" /><path d="M 83.84228863543731 86.58626213691792 l -13.680558092736133 -11.35726563844305 a38.78047109923939,38.78047109923939 0 0,0 0.4308129672105651,-0.509946667772461 l 13.483034512038444 11.591071255844627" fill="#ffdf14" stroke="none" /><path d="M 84.07557802195018 86.31012108654704 l -9.10989126510315 -7.831575206050773 a33.01347947390896,33.01347947390896 0 0,0 0.37416555839981835,-0.427735914307813 l 8.973733843125487 7.987226676561529" fill="#ff940d" stroke="none" /><path d="M 84.80347519578584 85.50635884689758 l -9.937789241227568 -9.478137467164329 a34.732980188201054,34.732980188201054 0 0,0 0.4163586829267521,-0.4290942217175028 l 9.773166294597697 9.647795884431956" fill="#ffab0f" stroke="none" /><path d="M 85.05521093208273 85.24692304244772 l -13.387433649138377 -13.21569933120429 a39.811647682297156,39.811647682297156 0 0,0 0.4856342320264996,-0.4835487643001271 l 13.157963616944564 13.444183946154526" fill="#ffeb16" stroke="none" /><path d="M 85.57189188830299 84.74124197986013 l -7.18127246721112 -7.59471013147121 a31.452286650747574,31.452286650747574 0 0,0 0.39658654960677364,-0.3685839762959316 l 7.04947803380949 7.717198693841789" fill="#ff7f0b" stroke="none" /><path d="M 85.83668400450813 84.49514656593479 l -6.718569664861871 -7.354946961106919 a30.96164761183099,30.96164761183099 0 0,0 0.39658776254799855,-0.35606040897111796 l 6.590970914717901 7.469506378847316" fill="#ff780b" stroke="none" /><path d="M 86.37877921826538 84.01681056812374 l -3.869431943897126 -4.540405353093842 a26.96554979351063,26.96554979351063 0 0,0 0.35587137557263276,-0.2980320427292066 l 3.7907030313653824 4.606338553216861" fill="#ff4106" stroke="none" /><path d="M 87.22198572758235 83.33499621200491 l -8.315438891059408 -10.844941761997847 a34.66599011312639,34.66599011312639 0 0,0 0.47666371328280344,-0.35901322656947915 l 8.127529024018216 10.986471578073179" fill="#ffaa0f" stroke="none" /><path d="M 88.09926311788651 82.69761687909137 l -7.561977517068173 -10.99429669339724 a34.34383991777067,34.34383991777067 0 0,0 0.4899644388293996,-0.3308261762517423 l 7.371608383832235 11.122834781947647" fill="#ffa50f" stroke="none" /><path d="M 89.00827224532344 82.1063720568725 l -32.97518326402967 -53.68088382938249 a84.0,84.0 0 0,0 1.2385517351294033,-0.746213562165523 l 32.046269462682616 54.240544001006626" fill="#4dd2ff" stroke="none" /><line stroke="#e1ed5e" stroke-width="0.3" x1="56.762969772571076" x2="54.21961505331055" y1="26.818313649435495" y2="22.513508569990535" /><path d="M 56.25429882871897 25.957352633546506 a86.0,86.0 0 0,1 42.265352541879196,-11.944610805530505" fill="none" id="id144" stroke="none" /><text fill="#e1ed5e" style="font-size:6.75px; font-family:Arial;" text-anchor="middle"><textPath startOffset="22.20632615414155" xlink:href="#id144">December</textPath></text></svg>