<?xml version="1.0" encoding="utf-8" ?>
<svg baseProfile="full" height="200mm" version="1.1" viewBox="0,0,200,200" width="200mm" xmlns="http://www.w3.org/2000/svg" xmlns:ev="http://www.w3.org/2001/xml-events" xmlns:xlink="http://www.w3.org/1999/xlink"><defs /><rect fill="#1a1a1a" height="200" width="200" x="0" y="0" /><rect fill="#1a1a1a" height="200" width="180" x="10" y="0" /><text alignment-baseline="middle" fill="#e1ed5e" style="dominant-baseline: central; font-size:9.0px; font-family:Arial;" text-anchor="middle" x="100.0" y="100.0">2020</text><line stroke="#e1ed5e" stroke-width="0.3" x1="100.0" x2="100.0" y1="15.0" y2="10.0" /><path d="M 100.0 14.0 a86.0,86.0 0 0,1 42.35913384403234,11.155469271406648" fill="none" id="id73" stroke="none" /><text fill="#e1ed5e" style="font-size:6.75px; font-family:Arial;" text-anchor="middle"><textPath startOffset="22.145653131862478" xlink:href="#id73">January</textPath></text><path d="M 100.0 79.0 l 0.0 -23.966013486533257 a44.96601348653326,44.96601348653326 0 0,0 0.7719014152644488,0.006625845283031636 l -0.41140849041559396 23.96248203944466" fill="#d4ff1c" stroke="none" /><path d="M 100.36049292484886 79.00309439819443 l 0.2591953486920962 -15.096829629033179 a36.09905450936706,36.09905450936706 0 0,0 0.6195056485624025,0.01595626796914638 l -0.5183143113252401 15.090155643713986" fill="#ffbd11" stroke="none" /><path d="M 100.72087961077811 79.0123766808444 l 0.5260722031413605 -15.31601819933787 a36.32505025914652,36.32505025914652 0 0,0 0.6230165403916426,0.026755010919600072 l -0.7889145041338393 15.304730619992439" fill="#ffbf11" stroke="none" /><path d="M 101.08105385017728 79.02784411241856 l 0.49706870138997006 -9.643000013994342 a30.655802740518077,30.655802740518077 0 0,0 0.5253173217185032,0.03160178559660052 l -0.6625303752409356 9.63304625057305" fill="#ff740a" stroke="none" /><path d="M 101.44090949804482 79.04949213459386 l 2.230083041622359 -32.42491798923859 a53.50151653356163,53.50151653356163 0 0,0 0.9157192318432152,0.07088245995784481 l -2.7863712682408077 32.38185776228569" fill="#75ff27" stroke="none" /><path d="M 101.80034050326958 79.07731436759882 l 0.5105724777281054 -5.93362612498071 a26.955552304032516,26.955552304032516 0 0,0 0.46068378529120907,0.04362723343820314 l -0.6123558264043274 5.923987136037322" fill="#ff4106" stroke="none" /><path d="M 102.15924093988457 79.11130261209362 l 1.2827572809532164 -12.409513069624264 a33.47563548950569,33.47563548950569 0 0,0 0.5711008746184824,0.06399304420343153 l -1.4955940571724955 12.385664264913862" fill="#ff9a0e" stroke="none" /><path d="M 102.87502721639298 79.19773525538626 l 2.036650336367845 -14.736187277727495 a35.87626162975379,35.87626162975379 0 0,0 0.6093410394277907,0.08955214898477054 l -2.2893164814033176 14.699054055443844" fill="#ffba11" stroke="none" /><path d="M 103.23170211078529 79.25015418208739 l 2.157509421292049 -13.852758177524398 a35.01976305177563,35.01976305177563 0 0,0 0.5932055978698785,0.09761175538828437 l -2.3949925222149977 13.813680423640445" fill="#ffaf10" stroke="none" /><path d="M 103.58742460773223 79.30868818359171 l 2.6240845999523 -15.135022649178637 a36.360818030914146,36.360818030914146 0 0,0 0.6140913912017056,0.11190790793749028 l -2.8835107247050598 15.08774656730978" fill="#ffc011" stroke="none" /><path d="M 103.94208987418118 79.37332000966035 l 2.788105526132653 -14.588546253979379 a35.852582746086526,35.852582746086526 0 0,0 0.6035244763587506,0.12072179796050211 l -3.03812648802236 14.538535059356017" fill="#ffb911" stroke="none" /><path d="M 104.64783097203109 79.52079915486377 l 3.288806226922213 -14.491087061292612 a35.85960465881258,35.85960465881258 0 0,0 0.5991420121131789,0.14139588347958992 l -3.5370803927752767 14.432495034166795" fill="#ffb911" stroke="none" /><path d="M 104.9986988182912 79.60360301121754 l 3.686242116324248 -15.041125767809568 a36.48624697282165,36.48624697282165 0 0,0 0.6070524553511838,0.15431036029011053 l -3.943899864900826 14.97563017568419" fill="#ffc212" stroke="none" /><path d="M 105.69591212413111 79.78721728523813 l 5.037676646936353 -17.876937219653424 a39.57318148176337,39.57318148176337 0 0,0 0.6522790737199092,0.18986893194278884 l -5.343815733037866 17.787824593408118" fill="#ffe915" stroke="none" /><path d="M 106.04205211174951 79.88797359093562 l 4.316768314015231 -14.369117764551657 a36.00353405063087,36.00353405063087 0 0,0 0.5903882952409505,0.1829038030257564 l -4.562797242127812 14.292897373719253" fill="#ffbb11" stroke="none" /><path d="M 106.72888874123014 80.10723608172694 l 4.008988456431604 -11.851862020874552 a33.511539545781346,33.511539545781346 0 0,0 0.5433564659630313,0.18900758432580994 l -4.211850694439653 11.781296003980152" fill="#ff9b0e" stroke="none" /><path d="M 107.06938296918511 80.22567764915836 l 3.980815184124011 -11.135048562670669 a32.82523555888788,32.82523555888788 0 0,0 0.5289721815541163,0.19424591209484332 l -4.171376517332252 11.065071801567104" fill="#ff920d" stroke="none" /><path d="M 107.74402155503746 80.48000691201159 l 6.068849704682803 -15.297465721849436 a37.45732038483747,37.45732038483747 0 0,0 0.5956526208703274,0.24224673536443458 l -6.3305567867435695 15.191031729905708" fill="#ffce13" stroke="none" /><path d="M 108.07796709384702 80.6158196554323 l 12.045605219817803 -28.905067478953523 a52.31452587976638,52.31452587976638 0 0,0 0.825983897181873,0.3525634096683924 l -12.540024192170106 28.69402941962573" fill="#81ff25" stroke="none" /><path d="M 108.4095320186766 80.7573450057729 l 7.155946086731237 -16.374205056648137 a38.8695874500047,38.8695874500047 0 0,0 0.6091171555394045,0.2724503560153409 l -7.435976645126273 16.248950949722943" fill="#ffe015" stroke="none" /><path d="M 108.73861861582097 80.90454125486305 l 7.732786843078242 -16.897534797960297 a39.58285969943171,39.58285969943171 0 0,0 0.615440496624058,0.2880572278324767 l -8.021716053573805 16.762301338557286" fill="#ffe915" stroke="none" /><path d="M 109.06512990194946 81.05736502329252 l 8.41231748465461 -17.57850810121516 a40.487714912916616,40.487714912916616 0 0,0 0.6243586431117812,0.30540509935656834 l -8.712836377028458 17.43150925176137" fill="#fff417" stroke="none" /><path d="M 109.3889696526874 81.21577127319529 l 7.312591755329562 -14.630082021677433 a37.35583376478017,37.35583376478017 0 0,0 0.5711400634316033,0.2916281859222464 l -7.5626590404747445 14.502395884082352" fill="#ffcd13" stroke="none" /><path d="M 109.71004243097381 81.37971332152246 l 8.55500216552027 -16.40534467170272 a39.5019835652673,39.5019835652673 0 0,0 0.5985701413849319,0.3187048856901829 l -8.83536112269176 16.256069318289967" fill="#ffe815" stroke="none" /><path d="M 110.02825361518725 81.54914285379988 l 8.61205203299428 -15.845205745073557 a39.0343556946932,39.0343556946932 0 0,0 0.5859908330635264,0.3250392370607892 l -8.882787054213907 15.695033592579621" fill="#ffe215" stroke="none" /><path d="M 110.34350942703115 81.72400993836675 l 8.992974185598314 -15.889723695808863 a39.25806407678501,39.25806407678501 0 0,0 0.5836506334281636,0.3369708503224459 l -9.264417286886875 15.733005948210245" fill="#ffe515" stroke="none" /><line stroke="#e1ed5e" stroke-width="0.3" x1="143.13028292997686" x2="145.6673583964461" y1="26.7553504044142" y2="22.446841604673864" /><path d="M 143.63769802327073 25.89364864446614 a86.0,86.0 0 0,1 29.32050498858742,28.57503671076993" fill="none" id="id74" stroke="none" /><text fill="#e1ed5e" style="font-size:6.75px; font-family:Arial;" text-anchor="middle"><textPath startOffset="20.669276256404974" xlink:href="#id74">February</textPath></text><path d="M 110.96478420261332 82.08984904055464 l 9.529533517563305 -15.565776828692599 a39.25117577974159,39.25117577974159 0 0,0 0.5716389305059715,0.3567449708682292 l -9.79533657685899 15.399896060982824" fill="#ffe515" stroke="none" /><path d="M 111.27062007382361 82.28071324371311 l 9.638473124089245 -15.153280658901808 a38.958899712711755,38.958899712711755 0 0,0 0.5612203292644597,0.36377623695756617 l -9.897179085610713 14.985590580240348" fill="#ffe115" stroke="none" /><path d="M 111.5731344415666 82.4767994020092 l 9.94779587041265 -15.062230843791077 a39.05074626354961,39.05074626354961 0 0,0 0.5562011028576123,0.374236924469148 l -10.204893261367264 14.88924424526481" fill="#ffe215" stroke="none" /><path d="M 111.8722381534696 82.67804972795209 l 10.192341042810055 -14.870930183262246 a39.02854349215184,39.02854349215184 0 0,0 0.5493823352675457,0.383511537199077 l -10.44611846925136 14.693773830258044" fill="#ffe215" stroke="none" /><path d="M 112.45986205192187 83.09580414077388 l 10.693759940455008 -14.508139155289834 a39.02339045277925,39.02339045277925 0 0,0 0.5358227618870016,0.40209138979183473 l -10.941235691252777 14.322428738233985" fill="#ffe215" stroke="none" /><path d="M 112.7482090630111 83.31218511350987 l 10.897458694426245 -14.265123244127578 a38.95127703443059,38.95127703443059 0 0,0 0.527864099417012,0.41047031646413 l -11.140732738478484 14.075951876042657" fill="#ffe115" stroke="none" /><path d="M 113.31354834802062 83.75963576809568 l 11.334498559509594 -13.826245278915305 a38.87836446961111,38.87836446961111 0 0,0 0.5125013871903195,0.42754688493763476 l -11.570174280861806 13.629636210065799" fill="#ffe015" stroke="none" /><path d="M 113.59037401385872 83.9905735841838 l 11.31599691332042 -13.330215910221945 a38.485606719682664,38.485606719682664 0 0,0 0.49998396413837076,0.43187423995944857 l -11.543160357221652 13.133997537797777" fill="#ffdb14" stroke="none" /><path d="M 113.86319453409587 84.22622945171908 l 11.871211790903843 -13.507259849757029 a38.98253981042035,38.98253981042035 0 0,0 0.49885579953857173,0.44607993204489693 l -12.10133261726579 13.301484387828745" fill="#ffe115" stroke="none" /><path d="M 114.13192950727249 84.46653392183569 l 12.048383439160299 -13.243283965760048 a38.90385750878255,38.90385750878255 0 0,0 0.4901334513270249,0.4536602052807429 l -12.273946661801288 13.034506014346931" fill="#ffe015" stroke="none" /><path d="M 114.39649973595853 84.71141617570332 l 12.339878004716168 -13.104522815742403 a39.00003076107347,39.00003076107347 0 0,0 0.4834657647241246,0.46314926616766455 l -12.563016255305605 12.89076141926916" fill="#ffe215" stroke="none" /><path d="M 114.65682725009322 84.96080404539774 l 12.522762562289953 -12.849457584078296 a38.94235609936772,38.94235609936772 0 0,0 0.47474084812449396,0.47068325841968656 l -12.741495330544408 12.63259431542995" fill="#ffe115" stroke="none" /><path d="M 114.91283532996326 85.21462403516908 l 12.8464656660265 -12.736667473948557 a39.09017353289727,39.09017353289727 0 0,0 0.4683620764848645,0.48058075092039143 l -13.063214543662177 12.514264030960424" fill="#ffe315" stroke="none" /><path d="M 115.41159269507618 85.73525988315684 l 13.175480578759396 -12.195028125195858 a38.95304986501135,38.95304986501135 0 0,0 0.45000473602251173,0.4946340341155635 l -13.382883015623786 11.967056515522623" fill="#ffe115" stroke="none" /><path d="M 115.6541949942343 86.00192230759917 l 13.4089422753443 -11.990358866254075 a38.98800819115539,38.98800819115539 0 0,0 0.4418435517993734,0.5027368538455919 l -13.612796891102263 11.758409734597185" fill="#ffe115" stroke="none" /><path d="M 115.8921839302757 86.27271002978787 l 13.617628227708131 -11.762582928087989 a38.99439234006584,38.99439234006584 0 0,0 0.4332192250320944,0.5103311577735637 l -13.817542016247339 11.527084987864873" fill="#ffe115" stroke="none" /><path d="M 116.1254893667686 86.54754324733833 l 14.016458852504412 -11.693028487392962 a39.25343896286211,39.25343896286211 0 0,0 0.42721420622783446,0.521131867539683 l -14.215119877970874 11.450694338154783" fill="#ffe515" stroke="none" /><path d="M 116.35404254752997 86.82634096563983 l 14.485657587695519 -11.668620366749312 a39.600832696717575,39.600832696717575 0 0,0 0.4219064594668127,0.5330650289396938 l -14.683830477803891 11.41823539389494" fill="#ffe915" stroke="none" /><path d="M 116.57777611688842 87.10902102172516 l 14.172684783060845 -11.020765410025653 a38.95333573971206,38.95333573971206 0 0,0 0.40594573819475227,0.5313960023301917 l -14.359782498609905 10.77584849445458" fill="#ffe115" stroke="none" /><path d="M 116.7966241395341 87.39550010848427 l 11.92809924906003 -8.951068050447923 a35.913120764587674,35.913120764587674 0 0,0 0.365797333427975,0.49627433620706185 l -12.079998602071832 8.744987404971985" fill="#ffba11" stroke="none" /><path d="M 117.01052211995028 87.68569379921539 l 7.758582247215652 -5.616615222182512 a30.578202599698034,30.578202599698034 0 0,0 0.30415832557946787,0.4278367757181872 l -7.853855671325081 5.482601219754821" fill="#ff730a" stroke="none" /><path d="M 117.21940702142032 87.97951657250589 l 12.218468031231515 -8.529439619847635 a35.90108389543704,35.90108389543704 0 0,0 0.3484290170163867,0.5083683487542402 l -12.363086785063226 8.318436536023347" fill="#ffba11" stroke="none" /><path d="M 117.42321728460499 88.27688183743584 l 14.249858887255707 -9.587941010341993 a38.17518824131189,38.17518824131189 0 0,0 0.3611655687214098,0.5468507033895609 l -14.41234889489784 9.341910428613375" fill="#ffd714" stroke="none" /><path d="M 117.62189284568427 88.57770195909679 l 12.552346247908527 -8.136279184749352 a35.95862411117977,35.95862411117977 0 0,0 0.3313027428089521,0.5208629396186039 l -12.690166682343369 7.919602570452076" fill="#ffbb11" stroke="none" /><path d="M 117.81537515405839 88.88188828441811 l 15.284133050309014 -9.538429432985724 a39.016280391567975,39.016280391567975 0 0,0 0.34971970845160055,0.5712408612992608 l -15.445620723216017 9.274651455561909" fill="#ffe215" stroke="none" /><line stroke="#e1ed5e" stroke-width="0.3" x1="172.87174338648825" x2="177.1583165268699" y1="56.24261187166439" y2="53.66864786411523" /><path d="M 173.72905801456457 55.72781907015455 a86.0,86.0 0 0,1 12.242430191666344,42.057860355516425" fill="none" id="id75" stroke="none" /><text fill="#e1ed5e" style="font-size:6.75px; font-family:Arial;" text-anchor="middle"><textPath startOffset="22.145653131862474" xlink:href="#id75">March</textPath></text><path d="M 118.00360718960297 89.18935116829356 l 27.75653486124297 -16.66700167415354 a53.37613584586081,53.37613584586081 0 0,0 0.46494754751870626,0.7895825829295754 l -28.038556118891442 16.188067922930408" fill="#76ff27" stroke="none" /><path d="M 118.18653347947321 89.5 l 12.812320085839518 -7.397196450503097 a35.79439290100619,35.79439290100619 0 0,0 0.30266142373973415,0.5347737352906135 l -12.937414874600629 7.1761659451133655" fill="#ffb911" stroke="none" /><path d="M 118.36410011445183 89.81374322990088 l 12.844338750247069 -7.124538187917415 a35.68795705066542,35.68795705066542 0 0,0 0.29256417947619145,0.5382851380459154 l -12.9647482793386 6.902998216396896" fill="#ffb711" stroke="none" /><path d="M 118.53625476483649 90.13048839642627 l 13.154015470986227 -7.003772335432292 a35.9023806801971,35.9023806801971 0 0,0 0.28498272209422365,0.5464919459960706 l -13.272306262055395 6.776934146331723" fill="#ffba11" stroke="none" /><path d="M 118.70294669586156 90.45014215332178 l 13.208002071633985 -6.744099968517054 a35.83017879560592,35.83017879560592 0 0,0 0.2750053013292735,0.5501948214066661 l -13.321827286174996 6.516373290946638" fill="#ffb911" stroke="none" /><path d="M 118.8641267826498 90.77261029715802 l 13.344559193810438 -6.527492606081552 a35.85548450234997,35.85548450234997 0 0,0 0.2657074811648847,0.555226442502983 l -13.454645932935236 6.297453661513465" fill="#ffb911" stroke="none" /><path d="M 119.0197475246899 91.09779779509293 l 18.83399419330807 -8.815260266584836 a41.79490684858173,41.79490684858173 0 0,0 0.2985659674868221,0.6524205215369544 l -18.982544625649943 8.490650762833196" fill="#faff18" stroke="none" /><path d="M 119.16976305983485 91.42560881287824 l 30.177790066025686 -13.49814165054007 a54.05902057362201,54.05902057362201 0 0,0 0.3716329020085021,0.8503688079159557 l -30.40505685005116 12.978110772848266" fill="#6fff28" stroke="none" /><path d="M 119.4528033332814 92.08871423366111 l 14.03363303064103 -5.707356381657592 a36.14981098581585,36.14981098581585 0 0,0 0.22884779867516716,0.5768459471080367 l -14.12953950428232 5.4656094173359895" fill="#ffbd11" stroke="none" /><path d="M 119.58574465831526 92.42381321644754 l 14.060762063459931 -5.439004825718182 a36.07606723583507,36.07606723583507 0 0,0 0.21846518100216233,0.5795048478331163 l -14.152057928276534 5.196831697690907" fill="#ffbc11" stroke="none" /><path d="M 119.71291397450082 92.76114493625339 l 13.960759982711492 -5.12658444232678 a35.87227915751939,35.87227915751939 0 0,0 0.20730731898536914,0.5798754670915832 l -14.046707471740804 4.88617401885428" fill="#ffba11" stroke="none" /><path d="M 119.83427380445688 93.10060997987247 l 14.145513210762141 -4.9205437838608495 a35.97689203822802,35.97689203822802 0 0,0 0.19789788175868803,0.5850499232704159 l -14.227896514093194 4.676992186116272" fill="#ffbb11" stroke="none" /><path d="M 119.94978838288452 93.4421083053983 l 33.61916998901941 -11.051288936956386 a56.38897537254615,56.38897537254615 0 0,0 0.29439149247611157,0.9221771572069573 l -33.80392619727278 10.472542746058041" fill="#56ff2a" stroke="none" /><path d="M 120.05942366710727 93.78553927170692 l 14.172013925865043 -4.390526140964224 a35.83653256355416,35.83653256355416 0 0,0 0.17700462075246096,0.5891908148519897 l -14.24529486662113 4.146597722521511" fill="#ffb911" stroke="none" /><path d="M 120.16314734710363 94.1308016681162 l 8.650944590871523 -2.5181638901853205 a30.009993989574163,30.009993989574163 0 0,0 0.1397344031015853,0.4958681008619255 l -8.692897486047691 2.369287865420382" fill="#ff6b09" stroke="none" /><path d="M 120.26092885502905 94.47779374421319 l 14.41714459044691 -3.929456868320599 a35.94304819713316,35.94304819713316 0 0,0 0.15714047221139993,0.596687968275655 l -14.48247454346304 3.6813883956721454" fill="#ffbb11" stroke="none" /><path d="M 120.35273937422433 94.82641323984039 l 32.9816119952473 -8.383796795601425 a55.03049777060244,55.03049777060244 0 0,0 0.22487157765405322,0.9175527744425552 l -33.12067109941765 7.816388196550775" fill="#64ff29" stroke="none" /><path d="M 120.43855184770803 95.1765574152323 l 14.746593810241299 -3.4801559863237643 a36.15168355970359,36.15168355970359 0 0,0 0.13735769926041072,0.6052233671377498 l -14.804162371059377 3.226498285246988" fill="#ffbd11" stroke="none" /><path d="M 120.51834098615036 95.52812308129327 l 14.727332062783283 -3.209753477152177 a36.07304969379372,36.07304969379372 0 0,0 0.126671869617463,0.6061707518525659 l -14.780261643225112 2.9564662740142067" fill="#ffbc11" stroke="none" /><path d="M 120.592083275326 95.88100663000786 l 32.107991018107306 -6.422497440354651 a53.74403091542368,53.74403091542368 0 0,0 0.1731932304642431,0.906220166281989 l -32.213510540853704 5.870374709039348" fill="#72ff27" stroke="none" /><path d="M 120.65975698304385 96.23510406497455 l 14.835246944275633 -2.7034761813240418 a36.07956681608016,36.07956681608016 0 0,0 0.10580793843663919,0.6102720715370792 l -14.879469700204506 2.44841107686637" fill="#ffbc11" stroke="none" /><path d="M 120.7213421655516 96.59031103205396 l 15.065533849908627 -2.47902786189447 a36.26813313155186,36.26813313155186 0 0,0 0.09581437662234499,0.6151970305115534 l -15.105869718669236 2.2200426494514756" fill="#ffbf11" stroke="none" /><path d="M 120.77682067341334 96.94652285012252 l 14.726634343708804 -2.164308109019662 a35.88482410658829,35.88482410658829 0 0,0 0.08433870676722992,0.6102328688879093 l -14.761617567031246 1.9111869319316668" fill="#ffba11" stroke="none" /><path d="M 120.82617615685814 97.30363454192243 l 14.71676605274798 -1.9053800054490992 a35.839598243095416,35.839598243095416 0 0,0 0.07375774596944798,0.6108199441775424 l -14.747305884977091 1.652466384348144" fill="#ffb911" stroke="none" /><path d="M 120.86939407059847 97.66154086499901 l 14.681755004245314 -1.6451212714360954 a35.77363712842622,35.77363712842622 0 0,0 0.06314491145618104,0.6108697378926221 l -14.70783230818316 1.3928470112605418" fill="#ffb811" stroke="none" /><path d="M 120.9064616781168 98.02013634271609 l 12.03107068377215 -1.139354902410251 a33.08489931242987,33.08489931242987 0 0,0 0.04869211338843874,0.5658761658438209 l -12.048856419858328 0.932657689190768" fill="#ff950d" stroke="none" /><path d="M 120.93736805541906 98.37931529534042 l 20.508242340428605 -1.5874676603386155 a41.56959060035881,41.56959060035881 0 0,0 0.0489650955925133,0.7119417435538679 l -20.532471397186182 1.2351824926304136" fill="#fdff18" stroke="none" /><path d="M 120.96210409425399 98.7389718711861 l 32.9734179363928 -1.9835989428335221 a54.03302824710506,54.03302824710506 0 0,0 0.04775081529116101,0.9263530599156995 l -33.00261034114053 1.417274089541092" fill="#6fff28" stroke="none" /><path d="M 120.99303781780057 99.45929381324524 l 14.899207351604815 -0.38375073025037715 a35.9041485610243,35.9041485610243 0 0,0 0.010580727583883598,0.6162743370631436 l -14.903599510787366 0.12792947721816708" fill="#ffba11" stroke="none" /><line stroke="#e1ed5e" stroke-width="0.3" x1="184.99686870605535" x2="189.99668451229388" y1="99.2704041080226" y2="99.22748670261217" /><path d="M 185.99683186730306 99.26182062694052 a86.0,86.0 0 0,1 -10.086455211305974,41.156179273409016" fill="none" id="id76" stroke="none" /><text fill="#e1ed5e" style="font-size:6.75px; font-family:Arial;" text-anchor="middle"><textPath startOffset="21.40746469413373" xlink:href="#id76">April</textPath></text><path d="M 120.99922638620191 99.81974689727618 l 14.719961689033779 -0.12635316737990182 a35.720503974033264,35.720503974033264 0 0,0 0.0,0.6132125402074556 l -14.719961689033779 -0.12635316737990004" fill="#ffb811" stroke="none" /><path d="M 120.99922638620191 100.18025310272382 l 15.07105067401978 0.1293668440607452 a36.07160589317589,36.07160589317589 0 0,0 -0.010630076210276023,0.6191486471496896 l -15.066609166210835 -0.3880624071795059" fill="#ffbc11" stroke="none" /><path d="M 120.99303781780057 100.54070618675476 l 14.805686396488102 0.3813419621882317 a35.81059659039022,35.81059659039022 0 0,0 -0.02110320674456026,0.6143968387494958 l -14.796958502746696 -0.6354450655018382" fill="#ffb911" stroke="none" /><path d="M 120.98066250479742 100.90099992219065 l 16.008711985343176 0.6874829738988691 a37.02346692414195,37.02346692414195 0 0,0 -0.032718890424725186,0.6347377333178456 l -15.994551505461878 -0.9621925005934454" fill="#ffc812" stroke="none" /><path d="M 120.96210409425399 101.26102812881392 l 32.97062146799833 1.9834307142391574 a54.030226723173115,54.030226723173115 0 0,0 -0.06364256126117593,0.9253488731152824 l -32.93171494557208 -2.5491230115087835" fill="#6fff27" stroke="none" /><path d="M 120.93736805541906 101.62068470465957 l 17.904852402966743 1.3859488141903684 a38.95841289445088,38.95841289445088 0 0,0 -0.05733635276252852,0.6663353304445502 l -17.878422427506475 -1.6931051920105757" fill="#ffe115" stroke="none" /><path d="M 120.9064616781168 101.97986365728391 l 14.805352096394557 1.4020822365951007 a35.87159323328843,35.87159323328843 0 0,0 -0.06331781614423138,0.6125424339030204 l -14.77910188776866 -1.6560291927810524" fill="#ffba11" stroke="none" /><path d="M 120.86939407059847 102.33845913500097 l 14.720241308744615 1.6494337421299894 a35.812364289921724,35.812364289921724 0 0,0 -0.07370169860568279,0.6103557916040624 l -14.689757523879269 -1.9018832106574604" fill="#ffb911" stroke="none" /><path d="M 120.82617615685814 102.69636545807757 l 9.060641218869819 1.1730814061394226 a30.136265061966668,30.136265061966668 0 0,0 -0.07082809196922348,0.5124767905147422 l -9.039168610345385 -1.32844650485425" fill="#ff6d0a" stroke="none" /><path d="M 120.77682067341334 103.0534771498775 l 14.835815701082995 2.180354008687138 a35.995178262351494,35.995178262351494 0 0,0 -0.09509327524820615,0.6105670424063693 l -14.79620093369652 -2.434709233024958" fill="#ffbb11" stroke="none" /><path d="M 120.7213421655516 103.40968896794604 l 6.175536446044852 1.0161821721294504 a27.258584233145864,27.258584233145864 0 0,0 -0.07993928023340914,0.4610685253492582 l -6.157182348319208 -1.1220437303992967" fill="#ff4506" stroke="none" /><path d="M 120.65975698304385 103.76489593502545 l 14.526992751543789 2.64730199892087 a35.76623602265981,35.76623602265981 0 0,0 -0.11525875251260892,0.6030824968589003 l -14.479407706749022 -2.896287060813085" fill="#ffb811" stroke="none" /><path d="M 120.592083275326 104.11899336999214 l 14.673038830608554 2.9350187085408894 a35.963702862060295,35.963702862060295 0 0,0 -0.12628789410860386,0.6043332900419489 l -14.620493225675586 -3.1864684498682476" fill="#ffbb11" stroke="none" /><path d="M 120.51834098615036 104.47187691870673 l 14.700932829449892 3.203999887118025 a36.04603075008987,36.04603075008987 0 0,0 -0.13695627322931517,0.6034546099766677 l -14.643765694662912 -3.4558888310337097" fill="#ffbc11" stroke="none" /><path d="M 120.43855184770803 104.8234425847677 l 14.437844948493105 3.407292095630757 a35.834453349607315,35.834453349607315 0 0,0 -0.14643062275553384,0.5974869104151322 l -14.377226799221274 -3.654634830653989" fill="#ffb911" stroke="none" /><path d="M 120.35273937422433 105.17358676015961 l 14.589497388621249 3.7085931844017797 a36.05347459757971,36.05347459757971 0 0,0 -0.15762324864748864,0.5985211490388661 l -14.52368465916903 -3.958494837813449" fill="#ffbc11" stroke="none" /><path d="M 120.26092885502905 105.52220625578681 l 14.485117023945921 3.9479830573307346 a36.01350010551765,36.01350010551765 0 0,0 -0.1676883021899904,0.5950666271015616 l -14.415210229681351 -4.1960576083353045" fill="#ffbb11" stroke="none" /><path d="M 120.16314734710363 105.8691983318838 l 17.38052956380089 5.0592188494704695 a39.10189225702645,39.10189225702645 0 0,0 -0.19313295998668392,0.6428768107046803 l -17.291120283810578 -5.356833263765873" fill="#ffe315" stroke="none" /><path d="M 120.05942366710727 106.21446072829308 l 31.39845906657871 9.727322880075025 a53.87071709240384,53.87071709240384 0 0,0 -0.2812443514147043,0.8809939250848738 l -31.22684999938675 -10.264885838851283" fill="#71ff27" stroke="none" /><path d="M 119.94978838288452 106.5578916946017 l 14.109453582227962 4.638057641836612 a35.85221394533638,35.85221394533638 0 0,0 -0.19721206569490043,0.5830224299393584 l -14.027756094960697 -4.879581746250131" fill="#ffb911" stroke="none" /><path d="M 119.83427380445688 106.89939002012753 l 13.946141567219659 4.85119197691724 a35.76580266053418,35.76580266053418 0 0,0 -0.20669198710115763,0.5781542742966471 l -13.860809410074557 -5.089881207594808" fill="#ffb811" stroke="none" /><path d="M 119.71291397450082 107.23885506374661 l 13.939597362711496 5.118813235129949 a35.84973479799066,35.84973479799066 0 0,0 -0.21709458379495836,0.5758691759042618 l -13.849672095102097 -5.35735069122837" fill="#ffb911" stroke="none" /><path d="M 119.58574465831526 107.57618678355244 l 14.097125563276936 5.4530710086243435 a36.11505648589827,36.11505648589827 0 0,0 -0.22862778394802752,0.5762913662713897 l -14.001439104362785 -5.694263392109297" fill="#ffbd11" stroke="none" /><path d="M 119.4528033332814 107.91128576633889 l 13.704252367577388 5.573400133462534 a35.79423272771963,35.79423272771963 0 0,0 -0.23636833304671476,0.5671979524418165 l -13.606558189994187 -5.807830595345628" fill="#ffb911" stroke="none" /><path d="M 119.31412917781788 108.2440532568976 l 13.632782760762664 5.8190243051973205 a35.82274636046319,35.82274636046319 0 0,0 -0.24626622988337823,0.563505327983824 l -13.530882648862319 -6.052191702956989" fill="#ffb911" stroke="none" /><path d="M 119.16976305983485 108.57439118712176 l 13.765394447143242 6.1570858474583945 a36.079648219319125,36.079648219319125 0 0,0 -0.2577384635934515,0.5632050573386186 l -13.657671518694734 -6.392479887011702" fill="#ffbc11" stroke="none" /><path d="M 119.0197475246899 108.90220220490707 l 13.438513374978923 6.289902809809304 a35.837672293400146,35.837672293400146 0 0,0 -0.26557548358516353,0.5549506183286456 l -13.328558633433847 -6.519665930203053" fill="#ffb911" stroke="none" /><path d="M 118.8641267826498 109.22738970284198 l 13.522188751217472 6.614380123739962 a36.05322600125563,36.05322600125563 0 0,0 -0.27671724266092435,0.5536198508539943 l -13.406651595344815 -6.845531830757703" fill="#ffbc11" stroke="none" /><path d="M 118.5362547648365 109.86951160357373 l 1.5991369330380134 0.8514503450967854 a22.81168612645007,22.81168612645007 0 0,0 -0.18700656427541118,0.3440710152784528 l -1.5842850191472633 -0.8787761938498415" fill="#ff0500" stroke="none" /><line stroke="#e1ed5e" stroke-width="0.3" x1="174.33088141563837" x2="178.70328620479359" y1="141.23008692659167" y2="143.65538615756765" /><path d="M 175.20536237346943 141.71514677278685 a86.0,86.0 0 0,1 -30.301960400862466,31.631185727798858" fill="none" id="id77" stroke="none" /><text fill="#e1ed5e" style="font-size:6.75px; font-family:Arial;" text-anchor="middle"><textPath startOffset="22.145653131862474" xlink:href="#id77">May</textPath></text><path d="M 118.36410011445183 110.18625677009912 l 14.435801119719514 8.007295537004136 a37.50785073184942,37.50785073184942 0 0,0 -0.31714965903499687,0.5603730588214486 l -14.29621809566314 -8.253925365924708" fill="#ffcf13" stroke="none" /><path d="M 118.18653347947321 110.5 l 28.05530670561908 16.197738878686682 a53.39547775737338,53.39547775737338 0 0,0 -0.4651160305716642,0.7898687039874193 l -27.77311696491765 -16.67695875096765" fill="#76ff27" stroke="none" /><path d="M 118.00360718960297 110.81064883170644 l 13.032932562736299 7.8259015373552545 a36.20204150952139,36.20204150952139 0 0,0 -0.3244944744860546,0.5300373373664734 l -12.89667012379484 -8.048475990846285" fill="#ffbe11" stroke="none" /><path d="M 117.81537515405839 111.11811171558189 l 12.638104642431353 7.887112007055151 a35.897255611852756,35.897255611852756 0 0,0 -0.3307373276227023,0.519974013032853 l -12.500849623182761 -8.102899694766675" fill="#ffba11" stroke="none" /><path d="M 117.62189284568427 111.42229804090321 l 13.112915835115537 8.49963361856732 a36.62665457955424,36.62665457955424 0 0,0 -0.34651529281188925,0.5246683184121282 l -12.96507610338292 -8.723481815318507" fill="#ffc312" stroke="none" /><path d="M 117.423217284605 111.72311816256416 l 14.785055386632077 9.948045100183286 a38.820254322008395,38.820254322008395 0 0,0 -0.37676029763165375,0.5497045338624902 l -14.612105352185104 -10.20038436911582" fill="#ffdf14" stroke="none" /><path d="M 117.21940702142032 112.02048342749411 l 12.202274077504304 8.518134982460216 a35.8813344912997,35.8813344912997 0 0,0 -0.35690804856326963,0.5020358671236955 l -12.054250930411074 -8.726348076293414" fill="#ffba11" stroke="none" /><path d="M 117.01052211995028 112.31430620078461 l 9.59899868840048 6.948934796731497 a32.85025192260232,32.85025192260232 0 0,0 -0.334600121067005,0.4539493260412917 l -9.478296547749647 -7.112690432041666" fill="#ff920d" stroke="none" /><path d="M 116.79662413953412 112.60449989151573 l 11.836934985993668 8.8826566878798 a35.79914253250426,35.79914253250426 0 0,0 -0.37307483598333224,0.48836693616530896 l -11.682708172656032 -9.084544537285987" fill="#ffb911" stroke="none" /><path d="M 116.57777611688842 112.89097897827486 l 11.66538371693787 9.07107293573351 a35.777196671520485,35.777196671520485 0 0,0 -0.38116951966467233,0.48159523627051576 l -11.507947766631636 -9.269988115918709" fill="#ffb811" stroke="none" /><path d="M 116.1254893667686 113.45245675266167 l 14.013216201897675 11.690323352927955 a39.249216104182125,39.249216104182125 0 0,0 -0.4360502616757048,0.5136661118211928 l -13.810471376714856 -11.929156247198705" fill="#ffe515" stroke="none" /><path d="M 115.89218393027572 113.72728997021213 l 11.291009024083099 9.752904673761943 a35.919987746557084,35.919987746557084 0 0,0 -0.40707426982970313,0.46317579347316445 l -11.12192369029481 -9.9452927450464" fill="#ffba11" stroke="none" /><path d="M 115.6541949942343 113.99807769240083 l 11.116299969324041 9.940263979076754 a35.912443561728054,35.912443561728054 0 0,0 -0.41487816078387885,0.45602377465803257 l -10.944024107698281 -10.129625329292457" fill="#ffba11" stroke="none" /><path d="M 115.41159269507618 114.26474011684316 l 10.768888108381976 9.967522062953938 a35.67380138772241,35.67380138772241 0 0,0 -0.41983675721080516,0.4458520871643617 l -10.59619551743491 -10.150915610062796" fill="#ffb711" stroke="none" /><path d="M 114.91283532996324 114.78537596483092 l 23.91809791527838 23.713670956353344 a54.681056962498076,54.681056962498076 0 0,0 -0.6666091618206261,0.660911681852725 l -23.50749683332779 -24.12076264843473" fill="#68ff28" stroke="none" /><path d="M 114.65682725009322 115.03919595460226 l 10.268157433069327 10.53603410162682 a35.71200433866644,35.71200433866644 0 0,0 -0.44270558639296304,0.4241019373589477 l -10.08577936081105 -10.710748169291348" fill="#ffb811" stroke="none" /><path d="M 114.39649973595853 115.28858382429668 l 10.117145718205634 10.744058153876846 a35.757758064736464,35.757758064736464 0 0,0 -0.4504970584993885,0.4169733518164641 l -9.931218888392278 -10.91614925182569" fill="#ffb811" stroke="none" /><path d="M 113.86319453409587 115.77377054828091 l 9.844409962195567 11.201131423567007 a35.912335587418745,35.912335587418745 0 0,0 -0.4665534322804999,0.40299774276530276 l -9.650677050152211 -11.368473298797028" fill="#ffba11" stroke="none" /><path d="M 113.59037401385872 116.0094264158162 l 9.731583501211091 11.46378089470801 a36.03735315282967,36.03735315282967 0 0,0 -0.4750506800750002,0.3963041730814839 l -9.533358486974196 -11.629147251701363" fill="#ffbc11" stroke="none" /><path d="M 113.31354834802062 116.24036423190432 l 9.9015775771107 12.078314670081328 a36.618160064010205,36.618160064010205 0 0,0 -0.4895485823323296,0.3943456846010551 l -9.692778224423119 -12.246508648475787" fill="#ffc312" stroke="none" /><path d="M 113.03279911837588 116.46651593811092 l 19.99236700007329 25.259702605490215 a53.21408564562137,53.21408564562137 0 0,0 -0.7211523609558553,0.5607724377303359 l -19.5558046944822 -25.599176094841344" fill="#78ff26" stroke="none" /><path d="M 112.45986205192187 116.90419585922612 l 10.685354047631828 14.49673494727673 a39.00922306083292,39.00922306083292 0 0,0 -0.5424492335390925,0.39269141259026924 l -10.434923803718767 -14.678027131240077" fill="#ffe215" stroke="none" /><path d="M 112.16784306229584 117.11559508785304 l 6.982147723585376 9.821265171537648 a33.05021312689642,33.05021312689642 0 0,0 -0.4652288208601938,0.3247658484514612 l -6.812523811551424 -9.939675835794231" fill="#ff950d" stroke="none" /><path d="M 111.8722381534696 117.32195027204791 l 8.363936764300048 12.203233698392282 a35.79440268800288,35.79440268800288 0 0,0 -0.509820890920584,0.3430302479948209 l -8.15321958528246 -12.345013620444224" fill="#ffb911" stroke="none" /><path d="M 111.27062007382361 117.71928675628689 l 8.006736486576365 12.587919640479937 a35.91856394029445,35.91856394029445 0 0,0 -0.5231040616810612,0.32645562309810566 l -7.789468296105589 -12.723511060419591" fill="#ffba11" stroke="none" /><path d="M 110.96478420261333 117.91015095944535 l 17.09571699596115 27.92456891989209 a53.742099642017436,53.742099642017436 0 0,0 -0.790948694913043,0.47494196549341905 l -16.613835544490673 -28.213924885921433" fill="#72ff27" stroke="none" /><line stroke="#e1ed5e" stroke-width="0.3" x1="143.1302829299769" x2="145.66735839644613" y1="173.24464959558577" y2="177.55315839532614" /><path d="M 143.63769802327073 174.10635135553383 a86.0,86.0 0 0,1 -40.68552437913181,11.842963189579606" fill="none" id="id78" stroke="none" /><text fill="#e1ed5e" style="font-size:6.75px; font-family:Arial;" text-anchor="middle"><textPath startOffset="21.407464694133747" xlink:href="#id78">June</textPath></text><path d="M 110.34350942703117 118.27599006163325 l 7.279914829571988 12.862911955887503 a35.78011041605359,35.78011041605359 0 0,0 -0.5371375122417883,0.29794112352073804 l -7.058033129174105 -12.985985994841384" fill="#ffb811" stroke="none" /><path d="M 110.02825361518725 118.45085714620011 l 7.18372062582133 13.217236832194498 a36.043310523557295,36.043310523557295 0 0,0 -0.5461611678416256,0.2908000592255494 l -6.95577064219315 -13.338607359142616" fill="#ffbc11" stroke="none" /><path d="M 109.71004243097381 118.62028667847754 l 6.840514189441322 13.11758791385805 a35.79404431025346,35.79404431025346 0 0,0 -0.5472615834666771,0.27943566391124824 l -6.614325384261063 -13.233081529442133" fill="#ffb911" stroke="none" /><path d="M 109.06512990194946 118.94263497670748 l 7.6519665314054786 15.989667045722669 a38.72630937422731,38.72630937422731 0 0,0 -0.602122718132805,0.2818238350445138 l -7.3763550994011675 -16.118667112337715" fill="#ffde14" stroke="none" /><path d="M 108.73861861582097 119.09545874513695 l 13.353512047596892 29.179833749229257 a53.090169548289616,53.090169548289616 0 0,0 -0.8319649161173546,0.37212732481277716 l -12.850633728623912 -29.404764824951883" fill="#79ff26" stroke="none" /><path d="M 108.4095320186766 119.2426549942271 l 2.823945359178863 6.461739624576528 a28.05186119882193,28.05186119882193 0 0,0 -0.4429053928436615,0.1890499754223356 l -2.71260489116477 -6.509264249658267" fill="#ff5007" stroke="none" /><path d="M 108.07796709384702 119.3841803445677 l 5.621395327413491 13.48930238867804 a35.61373889051879,35.61373889051879 0 0,0 -0.5663356772770118,0.23032378962810207 l -5.389005188946038 -13.583813434885434" fill="#ffb610" stroke="none" /><path d="M 107.74402155503746 119.51999308798841 l 5.461355068814706 13.766182394594036 a35.80993507443226,35.80993507443226 0 0,0 -0.5733473071585697,0.22178305531191259 l -5.2242354991626065 -13.85790533804399" fill="#ffb911" stroke="none" /><path d="M 107.407793817531 119.65005319985036 l 5.155367522748323 13.675224848597301 a35.61470454556989,35.61470454556989 0 0,0 -0.5739239228025679,0.21075281412777067 l -4.919854448291629 -13.761708511733794" fill="#ffb610" stroke="none" /><path d="M 107.06938296918513 119.77432235084164 l 4.03847673251994 11.296338175950893 a32.99652243379516,32.99652243379516 0 0,0 -0.5350059729187714,0.18610284937354127 l -3.8439649875561464 -11.363999457893025" fill="#ff940d" stroke="none" /><path d="M 106.72888874123015 119.89276391827305 l 5.610011448679159 16.585002014312032 a38.50812726333246,38.50812726333246 0 0,0 -0.6280075239742262,0.20643854694475008 l -5.324481187057199 -16.678861482658803" fill="#ffdb14" stroke="none" /><path d="M 106.38641147887787 120.00534299687104 l 9.352172245166953 29.295546356379703 a51.75210825328994,51.75210825328994 0 0,0 -0.8486344402696243,0.26290911888861396 l -8.847897172025704 -29.451772063074962" fill="#87ff25" stroke="none" /><path d="M 105.69591212413111 120.21278271476187 l 3.243225628237801 11.50906360384165 a32.95730143104752,32.95730143104752 0 0,0 -0.5458648767961864,0.1487778995240888 l -3.0451793505069196 -11.563041997509881" fill="#ff930d" stroke="none" /><path d="M 105.3480935250658 120.30758222061773 l 2.9456431101966403 11.185086680431297 a32.566459154875815,32.566459154875815 0 0,0 -0.5418356403383291,0.13773250094221162 l -2.753202176632914 -11.23400441320878" fill="#ff8e0d" stroke="none" /><path d="M 104.9986988182912 120.39639698878246 l 3.481071443993187 14.20395941003522 a35.624305840624125,35.624305840624125 0 0,0 -0.5952106411815062,0.1404680906442849 l -3.236728649071802 -14.261623644325729" fill="#ffb610" stroke="none" /><path d="M 104.64783097203109 120.47920084513623 l 3.221540768114252 14.194703038474659 a35.55568340103287,35.55568340103287 0 0,0 -0.5963832379349964,0.12997895094078252 l -2.9773951135601195 -14.247913447549161" fill="#ffb610" stroke="none" /><path d="M 104.29559338865022 120.5559693870025 l 2.992372470323836 14.319585521527724 a35.62890366738049,35.62890366738049 0 0,0 -0.5997591744332342,0.11996863212196485 l -2.7461168103596427 -14.36884355031255" fill="#ffb610" stroke="none" /><path d="M 103.94208987418118 120.62667999033965 l 6.003120424592044 31.41086273870201 a52.979364484331654,52.979364484331654 0 0,0 -0.8947590676729117,0.16305490812277212 l -5.4630266233680755 -31.509285820756148" fill="#7aff26" stroke="none" /><path d="M 103.58742460773223 120.69131181640829 l 3.59791923550483 20.751842040561826 a42.061433258485636,42.061433258485636 0 0,0 -0.7124856220892887,0.11723923798221166 l -3.241156110362469 -20.81054727703971" fill="#f7ff19" stroke="none" /><path d="M 103.2317021107853 120.74984581791261 l 2.268184627064644 14.563372391620064 a35.73894422675701,35.73894422675701 0 0,0 -0.6070087694176846,0.08920938560941453 l -2.017850752039274 -14.60016285052836" fill="#ffb811" stroke="none" /><path d="M 102.875027216393 120.80226474461374 l 2.02478161465637 14.65031111982032 a35.78956917880238,35.78956917880238 0 0,0 -0.6093126060188667,0.07888771571249109 l -1.7729911867467283 -14.682910431733205" fill="#ffb911" stroke="none" /><path d="M 102.51750503828377 120.84855314841334 l 1.8174833631067366 15.05136947726607 a36.16070476318124,36.16070476318124 0 0,0 -0.6169086804505148,0.06912590439285084 l -1.5588387810554225 -15.08035114216589" fill="#ffbd11" stroke="none" /><path d="M 102.15924093988457 120.88869738790638 l 1.768959185308873 17.11307544745325 a38.20426016629358,38.20426016629358 0 0,0 -0.6529297930588207,0.06183313025121702 l -1.474929828865037 -17.140920333209653" fill="#ffd714" stroke="none" /><path d="M 101.80034050326958 120.92268563240118 l 2.761395870927288 32.09160578740313 a53.210192007655905,53.210192007655905 0 0,0 -0.9107329905483084,0.07049649334642555 l -2.2100938856037438 -32.13428004774461" fill="#78ff26" stroke="none" /><path d="M 100.72087961077811 120.9876233191556 l 0.8468704744876151 24.65570984796722 a45.67024964826474,45.67024964826474 0 0,0 -0.7837595198238051,0.020186865044247458 l -0.4234976405930661 -24.666614430361513" fill="#ccff1d" stroke="none" /><line stroke="#e1ed5e" stroke-width="0.3" x1="101.45913802915013" x2="101.54496967792366" y1="184.9874750549273" y2="189.98673829345242" /><path d="M 101.47630435890484 185.9873277026323 a86.0,86.0 0 0,1 -42.54439059252881,-10.42667462771756" fill="none" id="id79" stroke="none" /><text fill="#e1ed5e" style="font-size:6.75px; font-family:Arial;" text-anchor="middle"><textPath startOffset="22.145653131862474" xlink:href="#id79">July</textPath></text><path d="M 100.36049292484886 120.99690560180557 l 0.41969498508627795 24.44512881106484 a45.448731387744004,45.448731387744004 0 0,0 -0.7801879099351272,0.006696974873599633 l -2.9941060637214122e-15 -24.448731387744004" fill="#ceff1d" stroke="none" /><path d="M 100.0 121.0 l 1.816234550886031e-15 14.830680586031534 a35.830680586031534,35.830680586031534 0 0,0 -0.6150812782754044,-0.005279733014799524 l 0.2545883534265504 -14.82849525121117" fill="#ffb911" stroke="none" /><path d="M 99.63950707515114 120.99690560180557 l -0.254626849088713 14.830737430540616 a35.83292309579994,35.83292309579994 0 0,0 -0.614938495316821,-0.01583863430234421 l 0.509178658476278 -14.824181078888225" fill="#ffb911" stroke="none" /><path d="M 99.27912038922189 120.98762331915562 l -0.5078388816894636 14.785174939564826 a35.79389395403696,35.79389395403696 0 0,0 -0.6139065966680713,-0.02636379073843878 l 0.7615712389583736 -14.774278580400559" fill="#ffb911" stroke="none" /><path d="M 98.91894614982273 120.97215588758144 l -0.9050490166080378 17.557709136407638 a38.58101998864558,38.58101998864558 0 0,0 -0.6611237115907187,-0.03977156077429574 l 1.2063170803312029 -17.53958559780865" fill="#ffdc14" stroke="none" /><path d="M 98.19965949673042 120.92268563240118 l -1.1530807328673909 13.400545973802718 a34.45006422187308,34.45006422187308 0 0,0 -0.5887687186021197,-0.05575700979214979 l 1.3829490148545258 -13.378777208505385" fill="#ffa70f" stroke="none" /><path d="M 97.84075906011543 120.88869738790638 l -1.5162918720295695 14.668748392785176 a35.74690884395847,35.74690884395847 0 0,0 -0.6098492413113903,-0.06833487951273097 l 1.767877014941759 -14.640557752765474" fill="#ffb811" stroke="none" /><path d="M 97.48249496171623 120.84855314841334 l -1.4370959756822645 11.901216233039932 a32.98766835831286,32.98766835831286 0 0,0 -0.5616106210575309,-0.07271173873223676 l 1.6411844186305893 -11.874792898107298" fill="#ff940d" stroke="none" /><path d="M 97.12497278360702 120.80226474461374 l -2.013858742008771 14.571278654565287 a35.70978547300249,35.70978547300249 0 0,0 -0.6065135220169233,-0.08913660129628338 l 2.263697369633379 -14.534560979970122" fill="#ffb811" stroke="none" /><path d="M 96.76829788921471 120.74984581791261 l -0.25814306601682946 1.6574636631687747 a22.67744556908933,22.67744556908933 0 0,0 -0.3841370267721284,-0.06320960157407017 l 0.2865575958420214 -1.6527880630990361" fill="#ff0300" stroke="none" /><path d="M 96.41257539226777 120.69131181640829 l -5.435247619259903 31.34906390704333 a52.816752262456916,52.816752262456916 0 0,0 -0.8920127387681945,-0.16255443551129758 l 5.972595091579155 -31.251141297600668" fill="#7cff26" stroke="none" /><path d="M 95.70440661134978 120.55596938700252 l -3.01076405565059 14.407595915145093 a35.71881517829826,35.71881517829826 0 0,0 -0.5991194828395946,-0.13057530278234056 l 3.257645955109321 -14.353789154229034" fill="#ffb811" stroke="none" /><path d="M 95.00130118170881 120.39639698878247 l -2.858845338326496 11.665064563735953 a33.010275931243186,33.010275931243186 0 0,0 -0.5492197942640977,-0.13960952399463625 l 3.058670425815972 -11.614269807906053" fill="#ff940d" stroke="none" /><path d="M 94.6519064749342 120.30758222061772 l -2.960364423421268 11.24098590457601 a32.624264347748415,32.624264347748415 0 0,0 -0.5403488533795251,-0.14727448281320749 l 3.1528946777354885 -11.188510927618658" fill="#ff8f0d" stroke="none" /><path d="M 94.30408787586889 120.21278271476187 l -9.065839581319246 32.17146641145679 a54.424432656033325,54.424432656033325 0 0,0 -0.8970701164617834,-0.261124036862068 l 9.616769710162636 -32.01109868029221" fill="#6bff28" stroke="none" /><path d="M 93.95794788825049 120.11202640906438 l -5.943605152787655 19.784328500818518 a41.65783377899396,41.65783377899396 0 0,0 -0.6831078702891925,-0.2116285643869768 l 6.282353655948482 -19.679383348624892" fill="#fcff18" stroke="none" /><path d="M 93.61358852112213 120.00534299687104 l -4.501066708554011 14.099527356518186 a35.80054975979129,35.80054975979129 0 0,0 -0.5838511558304311,-0.19192347167897056 l 4.742440602032186 -14.020182963437195" fill="#ffb911" stroke="none" /><path d="M 92.93061703081489 119.77432235084164 l -6.652488205826858 18.608193500140246 a40.76159064112318,40.76159064112318 0 0,0 -0.6568649747042868,-0.24120991723935714 l 6.970942332185263 -18.491252733892168" fill="#fff717" stroke="none" /><path d="M 92.59220618246901 119.65005319985036 l -4.191259492391509 11.117813755151328 a32.88160085286465,32.88160085286465 0 0,0 -0.5264622028737883,-0.20364688976780365 l 4.381493957758826 -11.044226977245483" fill="#ff920d" stroke="none" /><path d="M 92.25597844496254 119.51999308798841 l -2.84381667847298 7.1682757483014505 a28.711774796014716,28.711774796014716 0 0,0 -0.4565794811635169,-0.18568690016782466 l 2.9664506208269374 -7.118401591554334" fill="#ff5908" stroke="none" /><path d="M 91.92203290615298 119.3841803445677 l -12.300621455377307 29.517013608895496 a52.97748239896647,52.97748239896647 0 0,0 -0.836451189013006,-0.35703127412745206 l 12.805507719560744 -29.30150768510864" fill="#7aff26" stroke="none" /><path d="M 91.59046798132341 119.24265499422711 l -7.692857988434201 17.602764560770282 a40.2103457598276,40.2103457598276 0 0,0 -0.6301278979095241,-0.28184819383164006 l 7.99389928919936 -17.468112616028787" fill="#fff116" stroke="none" /><path d="M 91.26138138417905 119.09545874513695 l -3.4154951277577412 7.46347325288175 a29.20786451911934,29.20786451911934 0 0,0 -0.4541284480573778,-0.21255504398044417 l 3.543112289686609 -7.403741977330779" fill="#ff6008" stroke="none" /><path d="M 90.93487009805054 118.94263497670748 l -2.7270004751574057 5.6983821678171225 a27.31728509108184,27.31728509108184 0 0,0 -0.4212582283206157,-0.2060585089906364 l 2.824418952740091 -5.650729908729264" fill="#ff4606" stroke="none" /><path d="M 90.6110303473126 118.78422872680471 l -6.589823416877057 13.184061181456858 a35.73924156468096,35.73924156468096 0 0,0 -0.5464236944295968,-0.2790078317987193 l 6.815174333020236 -13.068995397985303" fill="#ffb811" stroke="none" /><path d="M 90.28995756902619 118.62028667847754 l -5.572385282202065 10.68578352516277 a33.051450007361865,33.051450007361865 0 0,0 -0.5008257641339937,-0.26666151027800367 l 5.754999862122621 -10.588551547162195" fill="#ff950d" stroke="none" /><path d="M 89.97174638481275 118.45085714620012 l -7.06832367476343 13.004919439677446 a35.80165967733759,35.80165967733759 0 0,0 -0.5374610136637137,-0.2981205643062207 l 7.290528876583246 -12.881665959938076" fill="#ffb911" stroke="none" /><line stroke="#e1ed5e" stroke-width="0.3" x1="58.13341422392154" x2="55.67067388415222" y1="173.97424548756322" y2="178.32567169271397" /><path d="M 57.64086615596768 174.84453072859336 a86.0,86.0 0 0,1 -31.369924170532247,-30.572349798747897" fill="none" id="id80" stroke="none" /><text fill="#e1ed5e" style="font-size:6.75px; font-family:Arial;" text-anchor="middle"><textPath startOffset="22.145653131862474" xlink:href="#id80">August</textPath></text><path d="M 89.65649057296885 118.27599006163327 l -14.696932899846777 25.968072201118105 a50.83857587930566,50.83857587930566 0 0,0 -0.7558183958461824,-0.4363719543002678 l 15.140543763553358 -25.711953349541666" fill="#91ff24" stroke="none" /><path d="M 89.34428304082925 118.09573695890944 l -11.956192724538093 20.30422911966173 a44.56294261356202,44.56294261356202 0 0,0 -0.6558545634887225,-0.39382182114278125 l 12.302980044584244 -20.095993297983032" fill="#d9ff1c" stroke="none" /><path d="M 88.72937992617639 117.7192867562869 l -7.878484133456491 12.38628563922586 a35.679597548217,35.679597548217 0 0,0 -0.5139805187439626,-0.33315596251338137 l 8.089950284457464 -12.249215835008584" fill="#ffb711" stroke="none" /><path d="M 88.4268655584334 117.5232005979908 l -8.084330314314268 12.240706483918684 a35.66939984649643,35.66939984649643 0 0,0 -0.5080404712113895,-0.34183230215687044 l 8.293267073622664 -12.100124507704692" fill="#ffb711" stroke="none" /><path d="M 88.1277618465304 117.32195027204791 l -8.213447911454614 11.983665964676945 a35.52821312299399,35.52821312299399 0 0,0 -0.5001102000467461,-0.349115760148098 l 8.417953202675124 -11.840905388723717" fill="#ffb510" stroke="none" /><path d="M 87.83215693770417 117.11559508785305 l -8.627236557738385 12.13528863689279 a35.88940700376872,35.88940700376872 0 0,0 -0.4990661129294516,-0.3612853788797529 l 8.834283681041791 -11.985402486639972" fill="#ffba11" stroke="none" /><path d="M 87.54013794807813 116.9041958592261 l -17.709220528925215 24.025958801767377 a50.84733133944021,50.84733133944021 0 0,0 -0.6981750482662621,-0.5239235722027149 l 18.119048566102244 -23.71841620230065" fill="#91ff24" stroke="none" /><path d="M 87.2517909369889 116.68781488649013 l -5.9106151811520204 7.737185005424262 a30.736498530160972,30.736498530160972 0 0,0 -0.4165381818294159,-0.3239026095992219 l 6.042563307616665 -7.634581344204247" fill="#ff750a" stroke="none" /><path d="M 86.96720088162412 116.46651593811092 l -5.514256273118609 6.967082664545134 a29.88522723965084,29.88522723965084 0 0,0 -0.39953592977571034,-0.3218378633627943 l 5.633042973249581 -6.871396507388929" fill="#ff6a09" stroke="none" /><path d="M 86.68645165197938 116.24036423190432 l -9.444015291680586 11.520163080443519 a35.896428505836916,35.896428505836916 0 0,0 -0.4731929867780152,-0.39475441926198407 l 9.640382612620494 -11.356346477269664" fill="#ffba11" stroke="none" /><path d="M 86.40962598614128 116.0094264158162 l -5.032818485768696 5.928647521393448 a28.776768181167533,28.776768181167533 0 0,0 -0.37385204123474425,-0.3229244890759338 l 5.133850006766303 -5.841378899852792" fill="#ff5a08" stroke="none" /><path d="M 86.13680546590413 115.77377054828092 l -7.988311342654285 9.089231913853144 a33.100712991017744,33.100712991017744 0 0,0 -0.4235866294175453,-0.3787737759899411 l 8.143162998895201 -8.95076260797982" fill="#ff950d" stroke="none" /><path d="M 85.86807049272751 115.53346607816431 l -5.320194588513582 5.847825813692373 a28.905791371326217,28.905791371326217 0 0,0 -0.36417199206964423,-0.33707215908750693 l 5.419796351897193 -5.755635908472489" fill="#ff5c08" stroke="none" /><path d="M 85.60350026404147 115.28858382429668 l -12.022271603726331 12.767235824201125 a38.53674214626334,38.53674214626334 0 0,0 -0.47772258503743353,-0.45764742994379476 l 12.239666674629078 -12.558976263951747" fill="#ffdc14" stroke="none" /><path d="M 85.34317274990678 115.03919595460226 l -12.353277254445187 12.675550727388885 a38.69952104345769,38.69952104345769 0 0,0 -0.47178047972503395,-0.46774819216220054 l 12.569049654300184 -12.461622524998026" fill="#ffde14" stroke="none" /><path d="M 85.08716467003676 114.78537596483092 l -6.4989296479278 6.443383574452411 a30.15168172830754,30.15168172830754 0 0,0 -0.36126481382581666,-0.37068952467832544 l 6.608581262904426 -6.330871357706348" fill="#ff6d0a" stroke="none" /><path d="M 84.83555147118756 114.52719865689866 l -7.937669799573533 7.604108110636322 a31.992227345051905,31.992227345051905 0 0,0 -0.3765091597196715,-0.3998396801002992 l 8.067034793029459 -7.466726970591533" fill="#ff860c" stroke="none" /><path d="M 84.58840730492382 114.26474011684316 l -7.320301033126219 6.775561350512822 a30.97471998755614,30.97471998755614 0 0,0 -0.3578351564171475,-0.3933235203954234 l 7.435533890385246 -6.648900254559725" fill="#ff790b" stroke="none" /><path d="M 84.3458050057657 113.99807769240083 l -10.216717662923468 9.135851933593585 a34.70565979281691,34.70565979281691 0 0,0 -0.393312526128931,-0.44751745535013504 l 10.372041253010993 -8.95912220043215" fill="#ffaa0f" stroke="none" /><path d="M 84.1078160697243 113.72728997021213 l -11.314320729155925 9.773040769382206 a35.95079193361389,35.95079193361389 0 0,0 -0.39940548592079905,-0.47049865812389113 l 11.480420778583838 -9.577375328808762" fill="#ffbb11" stroke="none" /><path d="M 83.8745106332314 113.45245675266167 l -23.94348195413023 19.974504225580468 a52.18126275739153,52.18126275739153 0 0,0 -0.5679139799688884,-0.6927627140405737 l 24.28284275333775 -19.5605392298414" fill="#83ff25" stroke="none" /><path d="M 83.64595745247003 113.17365903436017 l -10.187240509909396 8.206119837864629 a34.08129473714794,34.08129473714794 0 0,0 -0.36310141523328904,-0.4587667765598706 l 10.326608355784247 -8.030033117390078" fill="#ffa20f" stroke="none" /><path d="M 83.4222238831116 112.89097897827486 l -4.635544177457864 3.6046271902295333 a26.87210413750519,26.87210413750519 0 0,0 -0.2800431835629751,-0.3665855167908913 l 4.696739338375134 -3.5245207601977717" fill="#ff4006" stroke="none" /><path d="M 83.20337586046588 112.60449989151573 l -7.873351486244378 5.908309737112748 a30.843667384446096,30.843667384446096 0 0,0 -0.31416181724576664,-0.42622084161788065 l 7.973615323073974 -5.7722825862259874" fill="#ff770a" stroke="none" /><path d="M 82.98947788004972 112.3143062007846 l -9.608250444571137 6.95563235472396 a32.86167349321689,32.86167349321689 0 0,0 -0.3268717823700578,-0.4597860971782747 l 9.726237325471155 -6.789669030836181" fill="#ff920d" stroke="none" /><path d="M 82.78059297857968 112.02048342749411 l -8.543580369727193 5.964082625959022 a31.41935924629025,31.41935924629025 0 0,0 -0.30493275605144127,-0.4449060041048734 l 8.64470286259396 -5.816541886784097" fill="#ff7f0b" stroke="none" /><path d="M 82.37810715431573 111.42229804090323 l -26.793899452395056 17.367481910333108 a52.930275222284,52.930275222284 0 0,0 -0.4876700872802129,-0.7666983770530053 l 27.08808723130116 -16.90496985860143" fill="#7bff26" stroke="none" /><path d="M 81.99639281039703 110.81064883170644 l -8.43576320550078 5.065433425739521 a30.839751859161897,30.839751859161897 0 0,0 -0.26863816133881013,-0.4562063278650091 l 8.52147507696936 -4.919875929580953" fill="#ff770a" stroke="none" /><line stroke="#e1ed5e" stroke-width="0.3" x1="26.387840678322732" x2="22.057713659400548" y1="142.50000000000003" y2="145.00000000000006" /><path d="M 25.521815274538298 143.00000000000003 a86.0,86.0 0 0,1 -11.493303480769221,-40.785679425670985" fill="none" id="id81" stroke="none" /><text fill="#e1ed5e" style="font-size:6.75px; font-family:Arial;" text-anchor="middle"><textPath startOffset="21.40746469413373" xlink:href="#id81">September</textPath></text><path d="M 81.81346652052679 110.50000000000001 l -12.764332671075394 7.3694909036713225 a35.73898180734263,35.73898180734263 0 0,0 -0.3021928922424767,-0.5339458850287815 l 12.88895892833925 -7.14928824854342" fill="#ffb811" stroke="none" /><path d="M 81.63589988554817 110.18625677009913 l -12.96390328365102 7.190858619098874 a35.824683336507604,35.824683336507604 0 0,0 -0.29368503975895205,-0.5403473947210614 l 13.085433673025301 -6.967256390903226" fill="#ffb911" stroke="none" /><path d="M 81.29705330413844 109.54985784667822 l -8.75139462050535 4.468524449385473 a30.826220970371352,30.826220970371352 0 0,0 -0.23659871292183943,-0.4733559170381738 l 8.826813246638926 -4.317636676183547" fill="#ff770a" stroke="none" /><path d="M 81.1358732173502 109.22738970284198 l -28.457485431037956 13.919982147100995 a52.67955776259113,52.67955776259113 0 0,0 -0.3903824699694339,-0.8157492181492286 l 28.6922471589673 -13.429420426886661" fill="#7dff26" stroke="none" /><path d="M 80.9802524753101 108.90220220490708 l -10.462372909499297 4.896918797823173 a32.551669169860205,32.551669169860205 0 0,0 -0.2325360033513215,-0.5081331333896479 l 10.544893377705675 -4.716596682218836" fill="#ff8e0d" stroke="none" /><path d="M 80.83023694016515 108.57439118712176 l -12.000863318540775 5.367833517564375 a34.146648130325275,34.146648130325275 0 0,0 -0.23474376346226752,-0.5371396698792388 l 12.09124096402001 -5.161031777909288" fill="#ffa30f" stroke="none" /><path d="M 80.68587082218212 108.24405325689762 l -9.336792972666995 3.98532172000263 a31.151772861247856,31.151772861247856 0 0,0 -0.20571170441546555,-0.4936332038806021 l 9.403830521618946 -3.8244560066807463" fill="#ff7b0b" stroke="none" /><path d="M 80.41425534168474 107.57618678355246 l -8.769333686507494 3.3921666566848 a30.402553266641952,30.402553266641952 0 0,0 -0.1841081861530497,-0.488368837139307 l 8.82627255647498 -3.241129539351348" fill="#ff710a" stroke="none" /><path d="M 80.28708602549918 107.23885506374661 l -8.903078322167735 3.269333680384435 a30.48437379716495,30.48437379716495 0 0,0 -0.17617040096861003,-0.49277996575023303 l 8.957888893180288 -3.1160187582532806" fill="#ff720a" stroke="none" /><path d="M 80.16572619554312 106.89939002012753 l -30.274816639965465 10.531152783624094 a53.054168239646515,53.054168239646515 0 0,0 -0.2918347560967365,-0.8627576007621619 l 30.45113681763457 -10.009893508387771" fill="#79ff26" stroke="none" /><path d="M 80.05021161711548 106.5578916946017 l -12.391724141038305 4.0734058560755795 a34.04405851167122,34.04405851167122 0 0,0 -0.17773476338204,-0.556751614844288 l 12.459823620197598 -3.8600852075398997" fill="#ffa20e" stroke="none" /><path d="M 79.94057633289273 106.21446072829308 l -8.568432498796577 2.654522290892933 a29.970202008833514,29.970202008833514 0 0,0 -0.14802950679003918,-0.49274208411618914 l 8.612738325590247 -2.5070426031860205" fill="#ff6b09" stroke="none" /><path d="M 79.83685265289637 105.86919833188381 l -11.886249104501998 3.4599138822699564 a33.3795768040349,33.3795768040349 0 0,0 -0.15542406446719376,-0.5515451740224513 l 11.943891661043766 -3.2553607843445094" fill="#ff990e" stroke="none" /><path d="M 79.73907114497094 105.5222062557868 l -14.333062072048994 3.906539804032888 a35.855898545752886,35.855898545752886 0 0,0 -0.15675946008087646,-0.5952412031562062 l 14.398011012934605 -3.659918096503879" fill="#ffb911" stroke="none" /><path d="M 79.56144815229197 104.8234425847677 l -14.383516133878722 3.394470643311452 a35.77863211944369,35.77863211944369 0 0,0 -0.13594029673598174,-0.5989780300867985 l 14.43966729217237 -3.1470582792856274" fill="#ffb811" stroke="none" /><path d="M 79.48165901384964 104.47187691870673 l -31.85101704091438 6.941780918776078 a53.59870563174099,53.59870563174099 0 0,0 -0.18821386905407064,-0.900671497611309 l 31.96548862079282 -6.39399296987936" fill="#73ff27" stroke="none" /><path d="M 79.407916724674 104.11899336999214 l -12.441907913429057 2.488730038639361 a33.68837458981545,33.68837458981545 0 0,0 -0.1085627245466849,-0.5680460490690722 l 12.482796930257898 -2.2747814245369744" fill="#ff9d0e" stroke="none" /><path d="M 79.34024301695615 103.76489593502545 l -12.038902752219226 2.193889118405257 a33.23716997272035,33.23716997272035 0 0,0 -0.09747224661007677,-0.5621940162053688 l 12.074789816321536 -1.9869020692792958" fill="#ff970d" stroke="none" /><path d="M 79.2786578344484 103.40968896794605 l -14.60463918838184 2.4031878207312274 a35.801040420339696,35.801040420339696 0 0,0 -0.09458039535323895,-0.607273985565469 l 14.643741075873347 -2.1521256532343087" fill="#ffb911" stroke="none" /><path d="M 79.22317932658666 103.0534771498775 l -12.233619281498155 1.7979207465633122 a33.36502971025813,33.36502971025813 0 0,0 -0.07841653197616603,-0.5673829622278422 l 12.262680330029534 -1.5876494761353843" fill="#ff990e" stroke="none" /><path d="M 79.17382384314188 102.69636545807758 l -12.215938343880136 1.581597790221181 a33.31789759624237,33.31789759624237 0 0,0 -0.06856809639637333,-0.5678422010149438 l 12.24128852653617 -1.371661912282838" fill="#ff980e" stroke="none" /><path d="M 79.13060592940153 102.33845913500099 l -10.57505402132823 1.1849568605416967 a31.64123537543246,31.64123537543246 0 0,0 -0.055850709251988276,-0.5403049483338768 l 10.593837123061883 -1.0032473899248886" fill="#ff820b" stroke="none" /><path d="M 79.0935383218832 101.97986365728391 l -32.39192138108898 3.067548632542807 a53.536847194706255,53.536847194706255 0 0,0 -0.07879190471299946,-0.9156813667716105 l 32.43980690849971 -2.511046218395535" fill="#74ff27" stroke="none" /><path d="M 79.06263194458094 101.62068470465958 l -8.885790179865074 0.6878163575862756 a29.912371090924673,29.912371090924673 0 0,0 -0.03523397966428892,-0.5122943315231704 l 8.896288120694429 -0.5351786019087619" fill="#ff6a09" stroke="none" /><path d="M 79.03789590574601 101.26102812881392 l -10.490099906487872 0.6310583611582926 a31.509064216346033,31.509064216346033 0 0,0 -0.02784562616981738,-0.5401977086756423 l 10.499387122114262 -0.4508888591059196" fill="#ff800b" stroke="none" /><path d="M 79.01933749520258 100.90099992219065 l -11.522568161127548 0.49482865539820153 a32.53318830272156,32.53318830272156 0 0,0 -0.019171828011269446,-0.5581668542488777 l 11.529364676135666 -0.29695553658520396" fill="#ff8e0d" stroke="none" /><path d="M 79.00696218219943 100.54070618675478 l -14.862106871234628 0.38279515348051024 a35.86703577656043,35.86703577656043 0 0,0 -0.010569790678873188,-0.6156373171766448 l 14.866488093512167 -0.12761092033481308" fill="#ffba11" stroke="none" /><line stroke="#e1ed5e" stroke-width="0.3" x1="15.003131293944662" x2="10.003315487706104" y1="100.72959589197737" y2="100.7725132973878" /><path d="M 14.003168132696942 100.73817937305945 a86.0,86.0 0 0,1 10.791469493833604,-42.45332614584628" fill="none" id="id82" stroke="none" /><text fill="#e1ed5e" style="font-size:6.75px; font-family:Arial;" text-anchor="middle"><textPath startOffset="22.145653131862435" xlink:href="#id82">October</textPath></text><path d="M 79.00077361379809 100.18025310272382 l -15.839130835249815 0.1359598884737163 a36.83971435056312,36.83971435056312 0 0,0 0.0,-0.6324259823950619 l 15.839130835249815 0.13595988847371046" fill="#ffc612" stroke="none" /><path d="M 79.00077361379809 99.81974689727619 l -12.951382525547421 -0.11117204233422938 a33.95185965589698,33.95185965589698 0 0,0 0.01000540027776237,-0.5827644057882845 l 12.947565693670994 0.33348336409156626" fill="#ffa10e" stroke="none" /><path d="M 79.00696218219943 99.45929381324524 l -37.190594002246655 -0.9578977773787535 a58.202927981435174,58.202927981435174 0 0,0 0.03429902149857289,-0.9985785874159858 l 37.168670293751234 1.596182629358878" fill="#44ff2d" stroke="none" /><path d="M 79.01933749520258 99.09900007780938 l -14.696027416244657 -0.6311106503676892 a35.709572477540675,35.709572477540675 0 0,0 0.031557757446121736,-0.6122120637320616 l 14.683028069341965 0.8832945074764628" fill="#ffb811" stroke="none" /><path d="M 79.03789590574601 98.7389718711861 l -17.15819475027413 -1.032194388620265 a38.18921383729442,38.18921383729442 0 0,0 0.04498332745499997,-0.6540477087123611 l 17.137947461654065 1.3265855214869509" fill="#ffd714" stroke="none" /><path d="M 79.06263194458094 98.37931529534042 l -13.298281284170328 -1.0293710756036245 a34.33806170041975,34.33806170041975 0 0,0 0.050536432892445186,-0.5873099541288581 l 13.27865122858014 1.2575020771081633" fill="#ffa60f" stroke="none" /><path d="M 79.0935383218832 98.0201363427161 l -16.68958935685445 -1.5805214641947403 a37.764260824719045,37.764260824719045 0 0,0 0.06665860945098892,-0.6448615786225147 l 16.6599983549218 1.8667875651001677" fill="#ffd213" stroke="none" /><path d="M 79.13060592940154 97.66154086499901 l -14.55839971768296 -1.6312990542822843 a35.64950985338191,35.64950985338191 0 0,0 0.07336654484421731,-0.6075802376716974 l 14.528251086579075 1.880972968877418" fill="#ffb710" stroke="none" /><path d="M 79.17382384314186 97.30363454192245 l -26.582164343586847 -3.441593367747709 a47.80403003464936,47.80403003464936 0 0,0 0.11235195299854676,-0.8129227638346878 l 26.51916787403309 3.8974044397824636" fill="#b3ff20" stroke="none" /><path d="M 79.22317932658666 96.9465228501225 l -16.085997450671794 -2.364087673503726 a37.25878914652108,37.25878914652108 0 0,0 0.09843152507542392,-0.632001000995954 l 16.043044433458103 2.63987685643113" fill="#ffcb13" stroke="none" /><path d="M 79.2786578344484 96.59031103205396 l -7.951334557273335 -1.3083890755616638 a29.058263039559968,29.058263039559968 0 0,0 0.08521706822142679,-0.49150940394655884 l 7.927702671559674 1.4446915124288153" fill="#ff5e08" stroke="none" /><path d="M 79.34024301695615 96.23510406497455 l -14.59452036479997 -2.659607779519296 a35.834875739939335,35.834875739939335 0 0,0 0.11547994794903796,-0.6042398848505915 l 14.546714124568773 2.909750229403202" fill="#ffb911" stroke="none" /><path d="M 79.407916724674 95.88100663000787 l -5.9791973948719175 -1.19600693616376 a27.09764168168276,27.09764168168276 0 0,0 0.09515438708896863,-0.4553481884966013 l 5.9577852969585825 1.2984715759457703" fill="#ff4306" stroke="none" /><path d="M 79.56144815229197 95.17655741523228 l -14.251804268156349 -3.3633870016337966 a35.643302121468324,35.643302121468324 0 0,0 0.1456495199128606,-0.5942997442650122 l 14.191967221727191 3.6075425705069266" fill="#ffb710" stroke="none" /><path d="M 79.64726062577567 94.8264132398404 l -14.472662086874685 -3.6788941075786874 a35.93292368344649,35.93292368344649 0 0,0 0.15709620855149492,-0.5965198919492543 l 14.407376397518464 3.926794503900726" fill="#ffba11" stroke="none" /><path d="M 79.73907114497095 94.47779374421319 l -29.792467198654528 -8.120069416210262 a51.8792264978736,51.8792264978736 0 0,0 0.24156328556982765,-0.8572228813715702 l 29.648685421010118 8.630300221484847" fill="#86ff25" stroke="none" /><path d="M 79.83685265289637 94.1308016681162 l -12.139053776231608 -3.5335016377956783 a33.642873898230086,33.642873898230086 0 0,0 0.16616965173229797,-0.5531247268665723 l 12.07660780449568 3.741363968252974" fill="#ff9c0e" stroke="none" /><path d="M 79.94057633289273 93.78553927170692 l -8.143936648704996 -2.5230123914313998 a29.52580176085726,29.52580176085726 0 0,0 0.15414617466456887,-0.48286069665560083 l 8.09942575826317 2.6624421217783922" fill="#ff6509" stroke="none" /><path d="M 80.05021161711548 93.44210830539832 l -14.316726600217452 -4.7061923998150155 a36.07039838389983,36.07039838389983 0 0,0 0.19841223157300172,-0.5865705071024618 l 14.233828947072086 4.951264581391639" fill="#ffbc11" stroke="none" /><path d="M 80.16572619554312 93.10060997987247 l -11.91020544382876 -4.142987708395746 a33.61020780424044,33.61020780424044 0 0,0 0.19423471923382626,-0.543309078967275 l 11.83733055455099 4.346831743743943" fill="#ff9c0e" stroke="none" /><path d="M 80.28708602549916 92.7611449362534 l -11.371275512208562 -4.175689876660817 a33.11372332194366,33.11372332194366 0 0,0 0.20052616910521615,-0.5319194874936432 l 11.29791865928891 4.370277644348605" fill="#ff950d" stroke="none" /><path d="M 80.41425534168474 92.42381321644754 l -14.046167658336138 -5.43335939629277 a36.06041899202579,36.06041899202579 0 0,0 0.22828189914649466,-0.5754195106228496 l 13.950827084223512 5.673679924129202" fill="#ffbc11" stroke="none" /><path d="M 80.5471966667186 92.08871423366112 l -28.502313964754723 -11.591642958282502 a51.76927181162649,51.76927181162649 0 0,0 0.34186000225899005,-0.8203395556575268 l 28.299128117959253 12.079215023381293" fill="#87ff25" stroke="none" /><path d="M 80.68587082218212 91.75594674310238 l -4.223074786644139 -1.802579506869035 a25.59169397196434,25.59169397196434 0 0,0 0.17593207196866734,-0.40256701036324405 l 4.191508832658494 1.874808587008146" fill="#ff2d04" stroke="none" /><path d="M 80.83023694016515 91.42560881287825 l -9.758467257894814 -4.364838281763833 a31.690158859874636,31.690158859874636 0 0,0 0.22638172096155595,-0.49468491569686923 l 9.682101072078211 4.531712179675374" fill="#ff820c" stroke="none" /><path d="M 80.9802524753101 91.09779779509293 l -11.391499673073028 -5.331797037536242 a33.57753252633851,33.57753252633851 0 0,0 0.24882669179162975,-0.5199520851937225 l 11.298293723321493 5.526561624795051" fill="#ff9c0e" stroke="none" /><path d="M 81.1358732173502 90.77261029715801 l -9.308326019690382 -4.553168702395782 a31.36225257949841,31.36225257949841 0 0,0 0.24071288536375046,-0.4815870178968505 l 9.228793221114886 4.7122875764564025" fill="#ff7e0b" stroke="none" /><path d="M 81.29705330413844 90.45014215332179 l -13.118017817647305 -6.6981533672682545 a35.72914288054669,35.72914288054669 0 0,0 0.28360761050612404,-0.543854988210635 l 13.00110213816624 6.922354598583376" fill="#ffb811" stroke="none" /><path d="M 81.46374523516351 90.13048839642627 l -11.709499777124243 -6.234649091120814 a34.26586726602849,34.26586726602849 0 0,0 0.28090611425285417,-0.5168356111102274 l 11.600748313256037 6.434739535705661" fill="#ffa50f" stroke="none" /><path d="M 81.63589988554816 89.8137432299009 l -12.872625946342321 -7.140228618754558 a35.72030446296975,35.72030446296975 0 0,0 0.30203496494770066,-0.5336668426312131 l 12.748157616373252 7.360152231484877" fill="#ffb811" stroke="none" /><line stroke="#e1ed5e" stroke-width="0.3" x1="26.387840678322718" x2="22.05771365940052" y1="57.49999999999999" y2="54.99999999999999" /><path d="M 25.521815274538284 56.99999999999999 a86.0,86.0 0 0,1 29.574782752854787,-30.34633250058573" fill="none" id="id83" stroke="none" /><text fill="#e1ed5e" style="font-size:6.75px; font-family:Arial;" text-anchor="middle"><textPath startOffset="21.40746469413373" xlink:href="#id83">November</textPath></text><path d="M 81.81346652052679 89.5 l -53.319169128702875 -30.783836649423797 a82.56767329884758,82.56767329884758 0 0,0 0.7192284828464128,-1.2214072022383318 l 52.78286693572668 31.694595019955702" fill="#4bdfff" stroke="none" /><path d="M 81.99639281039701 89.18935116829357 l -7.6821935882847265 -4.612936522415 a29.96076345451174,29.96076345451174 0 0,0 0.2685512138815817,-0.4386582254683132 l 7.601874409947752 4.744131864007856" fill="#ff6b09" stroke="none" /><path d="M 82.18462484594161 88.88188828441811 l -7.589742324581832 -4.736560545454368 a29.946462672716173,29.946462672716173 0 0,0 0.2759100345502975,-0.4337764017517071 l 7.507314598405644 4.866150621884747" fill="#ff6b09" stroke="none" /><path d="M 82.37810715431573 88.57770195909679 l -7.639347614881161 -4.951732827986527 a30.10380634574077,30.10380634574077 0 0,0 0.284804315064846,-0.43123003273252786 l 7.553218860895586 5.082142739058116" fill="#ff6d0a" stroke="none" /><path d="M 82.576782715395 88.27688183743585 l -9.683971070057886 -6.515807917832275 a32.67197706079839,32.67197706079839 0 0,0 0.3170897258821602,-0.4626433864033363 l 9.570691607360413 6.681086039305646" fill="#ff8f0d" stroke="none" /><path d="M 82.78059297857968 87.97951657250589 l -8.375545022236548 -5.846780903127813 a31.214431034017093,31.214431034017093 0 0,0 0.31048682623731594,-0.4367386044333008 l 8.273943097469258 5.989696734270634" fill="#ff7c0b" stroke="none" /><path d="M 82.98947788004972 87.6856937992154 l -11.98811639590795 -8.678471773463013 a35.79968942392479,35.79968942392479 0 0,0 0.36464196510971597,-0.4947068571884369 l 11.837372411214416 8.882984939920313" fill="#ffb911" stroke="none" /><path d="M 83.2033758604659 87.39550010848427 l -12.4122165103171 -9.31435866862835 a36.518388966218126,36.518388966218126 0 0,0 0.3805703435934828,-0.498178796236016 l 12.250494189369311 9.526058378105251" fill="#ffc212" stroke="none" /><path d="M 83.42222388311158 87.10902102172516 l -11.574196413055978 -9.000165136693472 a35.661684592697746,35.661684592697746 0 0,0 0.37993885634567115,-0.48004033336955654 l 11.417991126068744 9.197525413977711" fill="#ffb711" stroke="none" /><path d="M 83.64595745247003 86.82634096563983 l -9.227645560514658 -7.433138072794574 a32.8490921255476,32.8490921255476 0 0,0 0.35751259478177044,-0.43610723489898456 l 9.098686146494257 7.590447589392052" fill="#ff920d" stroke="none" /><path d="M 83.8745106332314 86.54754324733833 l -7.271137481267642 -6.065841493839355 a30.469100976327077,30.469100976327077 0 0,0 0.3385050906108472,-0.3987581455806345 l 7.165937827149681 6.189766421869546" fill="#ff720a" stroke="none" /><path d="M 84.10781606972428 86.27271002978789 l -10.522471615535675 -9.089060364737332 a34.904439118986176,34.904439118986176 0 0,0 0.39556525376426677,-0.4500806458716388 l 10.364895297812815 9.26835328842027" fill="#ffad10" stroke="none" /><path d="M 84.34580500576568 86.00192230759919 l -11.101651157238697 -9.927164920980967 a35.892792276311866,35.892792276311866 0 0,0 0.4146511394970751,-0.45577423849555704 l 10.929602316899755 10.116276735034184" fill="#ffba11" stroke="none" /><path d="M 84.58840730492382 85.73525988315684 l -24.091603015554256 -22.29882808444788 a53.82747431342875,53.82747431342875 0 0,0 0.6334831552987906,-0.672737158246516 l 23.705264026519195 22.70910670263891" fill="#71ff27" stroke="none" /><path d="M 84.83555147118756 85.47280134310135 l -11.012934406749363 -10.550142039010968 a36.250908867692786,36.250908867692786 0 0,0 0.4343431972090916,-0.4456743838837603 l 10.830204408389468 10.737639114962459" fill="#ffbf11" stroke="none" /><path d="M 85.08716467003674 85.21462403516908 l -6.433422399366018 -6.378436213539654 a30.059435539748517,30.059435539748517 0 0,0 0.3664503987860839,-0.3633183629157533 l 6.322980080449958 6.487934586684081" fill="#ff6c0a" stroke="none" /><path d="M 85.34317274990677 84.96080404539775 l -8.40626374363572 -8.625567152386386 a33.04432143492905,33.04432143492905 0 0,0 0.4096355264487166,-0.39242156800738076 l 8.256955731321703 8.768600850699336" fill="#ff940d" stroke="none" /><path d="M 85.60350026404147 84.71141617570332 l -6.3467230817714375 -6.739999973945103 a30.257888178492454,30.257888178492454 0 0,0 0.3812064949971704,-0.3528390406868611 l 6.230086815460314 6.84795676076433" fill="#ff6f0a" stroke="none" /><path d="M 85.86807049272753 84.46653392183569 l -9.93542379171679 -10.920771177169987 a35.76400653701829,35.76400653701829 0 0,0 0.4576685398768403,-0.40925003048213165 l 9.746490225016558 11.08971673753552" fill="#ffb811" stroke="none" /><path d="M 86.13680546590413 84.22622945171909 l -10.241596240383082 -11.653056497664952 a36.51399430478174,36.51399430478174 0 0,0 0.4743698534365209,-0.4097493811939026 l 10.040046907183713 11.827150011323566" fill="#ffc212" stroke="none" /><path d="M 86.40962598614128 83.9905735841838 l -21.085366501638696 -24.83850872053047 a53.581347362690444,53.581347362690444 0 0,0 0.7063186742942297,-0.5892361591904086 l 20.655873493182558 25.19680706363276" fill="#74ff27" stroke="none" /><path d="M 86.68645165197937 83.75963576809568 l -6.370343278970935 -7.770782997016186 a31.04820092746189,31.04820092746189 0 0,0 0.415083737725737,-0.33436207687575625 l 6.236008770889953 7.878993367685341" fill="#ff7a0b" stroke="none" /><path d="M 86.96720088162412 83.53348406188908 l -5.616739833466085 -7.0965672951703915 a30.05036097245445,30.05036097245445 0 0,0 0.4072397091848426,-0.3166720610294942 l 5.4940901796459976 7.191940407820691" fill="#ff6c09" stroke="none" /><path d="M 87.25179093698888 83.31218511350988 l -0.8881559133396638 -1.1626246007494532 a22.463050542075713,22.463050542075713 0 0,0 0.30843588017877316,-0.23145603461486927 l 0.8680670442501384 1.1776996626283234" fill="#ff0000" stroke="none" /><path d="M 87.54013794807813 83.09580414077388 l -7.2459922564292665 -9.830580128952787 a33.212481707335094,33.212481707335094 0 0,0 0.46184168338805087,-0.33433776255792147 l 7.076169562667247 9.95351866288379" fill="#ff970d" stroke="none" /><path d="M 87.83215693770416 82.88440491214696 l -5.315575442030784 -7.477022546966369 a30.1739418162404,30.1739418162404 0 0,0 0.42474120569132623,-0.29650234863693703 l 5.186439145165693 7.567169711408432" fill="#ff6e0a" stroke="none" /><path d="M 88.12776184653039 82.6780497279521 l -6.332400918226564 -9.239162185786746 a32.20095617723899,32.20095617723899 0 0,0 0.4586393104494459,-0.30859299649248 l 6.172865319680129 9.346504856336335" fill="#ff890c" stroke="none" /><path d="M 88.4268655584334 82.4767994020092 l -8.099093616703096 -12.26306000539158 a35.69618855717207,35.69618855717207 0 0,0 0.5142195196288997,-0.33331087999946907 l 7.88738846481717 12.400284727094954" fill="#ffb711" stroke="none" /><path d="M 88.72937992617638 82.28071324371311 l -33.811860221470866 -53.157860268860674 a84.0,84.0 0 0,0 1.2233434848412057,-0.7634568126338559 l 32.89435260783996 53.73045287833607" fill="#4dd2ff" stroke="none" /><path d="M 89.03521579738668 82.08984904055464 l -3.6473590521662103 -5.957686902039258 a27.98550365243258,27.98550365243258 0 0,0 0.4118763081051997,-0.24731988884963177 l 3.544549987503576 6.019420791424813" fill="#ff4f07" stroke="none" /><line stroke="#e1ed5e" stroke-width="0.3" x1="56.869717070023135" x2="54.33264160355391" y1="26.7553504044142" y2="22.446841604673864" /><path d="M 56.362301976729285 25.89364864446614 a86.0,86.0 0 0,1 42.16139366436587,-11.88097634709845" fill="none" id="id84" stroke="none" /><text fill="#e1ed5e" style="font-size:6.75px; font-family:Arial;" text-anchor="middle"><textPath startOffset="22.145653131862474" xlink:href="#id84">December</textPath></text><path d="M 89.34428304082924 81.90426304109057 l -6.086653711499814 -10.336468671728111 a32.99541320694419,32.99541320694419 0 0,0 0.49054364425078195,-0.28321550505744747 l 5.908317599388632 10.439431074061734" fill="#ff940d" stroke="none" /><path d="M 89.65649057296885 81.72400993836675 l -4.728065717142996 -8.354039087684784 a30.599196555138775,30.599196555138775 0 0,0 0.4593606929410125,-0.25479963293739233 l 4.583960836045881 8.433971636055322" fill="#ff730a" stroke="none" /><path d="M 89.97174638481275 81.54914285379989 l -5.6660052400420025 -10.424811466207034 a32.86508784148457,32.86508784148457 0 0,0 0.49800183434845113,-0.26515792672567634 l 5.486214589906989 10.520539860655285" fill="#ff920d" stroke="none" /><path d="M 90.28995756902619 81.37971332152246 l -4.5632276461811125 -8.750590695670635 a30.8689353060008,30.8689353060008 0 0,0 0.47196070578292215,-0.2409864992259308 l 4.412339718684608 8.8276351465694" fill="#ff770b" stroke="none" /><path d="M 90.61103034731259 81.2157712731953 l -14.220216328593034 -28.449958402461988 a52.80589073636834,52.80589073636834 0 0,0 0.8143164996933706,-0.398323005920208 l 13.72973957963761 28.68987515847941" fill="#7cff26" stroke="none" /><path d="M 90.93487009805054 81.0573650232925 l -4.744562671376331 -9.914311188046682 a31.991107372601057,31.991107372601057 0 0,0 0.4974027434715328,-0.23280959928153724 l 4.573671214033276 9.994297018898763" fill="#ff860c" stroke="none" /><path d="M 91.26138138417902 80.90454125486306 l -4.082358704229977 -8.920690517187717 a30.810421596111205,30.810421596111205 0 0,0 0.4828236571260948,-0.215960880563517 l 3.9286216442482633 8.98945514866108" fill="#ff760a" stroke="none" /><path d="M 91.5904679813234 80.7573450057729 l -4.8230837015836645 -11.03615938101387 a33.044042107017994,33.044042107017994 0 0,0 0.5217259684418347,-0.22269379218405386 l 4.632922657971399 11.117327822857328" fill="#ff940d" stroke="none" /><path d="M 91.92203290615298 80.6158196554323 l -5.718275655153626 -13.721779907209404 a35.86559518789,35.86559518789 0 0,0 0.5703407385593074,-0.23195261318494806 l 5.481880455403878 13.817919776973644" fill="#ffba11" stroke="none" /><path d="M 92.25597844496254 80.48000691201159 l -5.501736521588787 -13.867970034702065 a35.91944025881595,35.91944025881595 0 0,0 0.5751005776533582,-0.22246125800383676 l 5.2628636814419 13.960371180843941" fill="#ffba11" stroke="none" /><path d="M 92.592206182469 80.34994680014964 l -6.747690665904697 -17.899051165189398 a40.1287051819198,40.1287051819198 0 0,0 0.6466661506492813,-0.2374647677779274 l 6.439435363601289 18.01224678197605" fill="#fff016" stroke="none" /><path d="M 93.61358852112211 79.99465700312896 l -4.474662048709815 -14.016815135633866 a35.71372512305088,35.71372512305088 0 0,0 0.5856359895795649,-0.1814315265839391 l 4.233385426258634 14.091563250024446" fill="#ffb811" stroke="none" /><path d="M 93.95794788825049 79.88797359093562 l -3.441294558847077 -11.454950366004288 a32.96070215866829,32.96070215866829 0 0,0 0.5432865255759244,-0.15814278965249293 l 3.2441480208895284 11.512336849959302" fill="#ff930d" stroke="none" /><path d="M 94.30408787586887 79.78721728523814 l -3.4395163185041246 -12.205630015825891 a33.680996671732316,33.680996671732316 0 0,0 0.5578512894040819,-0.1520448495815761 l 3.2294836281653647 12.262875359551607" fill="#ff9d0e" stroke="none" /><path d="M 94.6519064749342 79.69241777938228 l -3.5957165314689457 -13.653521345990576 a35.119058839742095,35.119058839742095 0 0,0 0.5843053935958278,-0.14852814614359292 l 3.36080584464774 13.713234723969432" fill="#ffb010" stroke="none" /><path d="M 95.00130118170881 79.60360301121753 l -2.032507659892042 -8.293324847299179 a29.5387542657199,29.5387542657199 0 0,0 0.493533290019967,-0.11647251262323419 l 1.889842216132169 8.326993503568644" fill="#ff6509" stroke="none" /><path d="M 95.35216902796891 79.52079915486377 l -6.880353811324132 -30.316108403169974 a52.08706639877355,52.08706639877355 0 0,0 0.8736677330335008,-0.1904118160726791 l 6.358923661671513 30.429751677376366" fill="#84ff25" stroke="none" /><path d="M 95.70440661134978 79.44403061299748 l -3.1348762765503606 -15.001517821280226 a36.32556642383786,36.32556642383786 0 0,0 0.6114864474240301,-0.12231441516155749 l 2.876893343595354 15.053121633104649" fill="#ffbf11" stroke="none" /><path d="M 96.05791012581881 79.37332000966035 l -1.6789240098286702 -8.784839865181151 a29.94383571448264,29.94383571448264 0 0,0 0.5057161177229007,-0.09215832293934922 l 1.527873158554731 8.812366362051861" fill="#ff6a09" stroke="none" /><path d="M 96.41257539226777 79.30868818359171 l -1.9186210566588053 -11.066096401103048 a32.23118855320132,32.23118855320132 0 0,0 0.5459694700815233,-0.08983906853616584 l 1.7283740835242092 11.097401468134882" fill="#ff8a0c" stroke="none" /><path d="M 97.12497278360702 79.19773525538626 l -1.1834975410094553 -8.563198648103805 a29.64459585616715,29.64459585616715 0 0,0 0.504695260936382,-0.06534290587935102 l 1.0363244581822793 8.58225315018355" fill="#ff6609" stroke="none" /><path d="M 97.48249496171623 79.15144685158666 l -1.6044910129800285 -13.287487274730527 a34.38400946976874,34.38400946976874 0 0,0 0.5865979120017275,-0.06572951956595136 l 1.3761571993775017 13.31307255480345" fill="#ffa60f" stroke="none" /><path d="M 97.84075906011542 79.11130261209362 l -1.403014322740079 -13.572890860518115 a34.645212182349894,34.645212182349894 0 0,0 0.5921038942316265,-0.05607285439183316 l 1.1698108651234371 13.594975470415132" fill="#ffaa0f" stroke="none" /><path d="M 98.5590905019552 79.04949213459386 l -0.632324930882571 -9.193865718786261 a30.21558471684184,30.21558471684184 0 0,0 0.5177737530464258,-0.03114798323762033 l 0.4744068257036615 9.203365679848575" fill="#ff6e0a" stroke="none" /><path d="M 98.9189461498227 79.02784411241856 l -0.4592690588123158 -8.909697046243409 a29.921526188058905,29.921526188058905 0 0,0 0.5131887112593695,-0.022038531376599 l 0.30625458695212615 8.916268146045836" fill="#ff6a09" stroke="none" /><path d="M 99.27912038922189 79.0123766808444 l -0.29712679063773406 -8.65052231565169 a29.655623643811147,29.655623643811147 0 0,0 0.5089281868646852,-0.013108184801073355 l 0.14858528970230497 8.654348217802807" fill="#ff6709" stroke="none" /><path d="M 99.63950707515114 79.00309439819443 l -0.2723330223050287 -15.862033253469614 a36.86437090493076,36.86437090493076 0 0,0 0.632825947153877,-0.005432049655580791 l 3.885650209841971e-15 15.864370904930759" fill="#ffc612" stroke="none" /></svg>