<?xml version="1.0" encoding="utf-8" ?>
<svg baseProfile="full" height="200mm" version="1.1" viewBox="0,0,200,200" width="200mm" xmlns="http://www.w3.org/2000/svg" xmlns:ev="http://www.w3.org/2001/xml-events" xmlns:xlink="http://www.w3.org/1999/xlink"><defs /><rect fill="#1a1a1a" height="200" width="200" x="0" y="0" /><rect fill="#1a1a1a" height="200" width="180" x="10" y="0" /><text alignment-baseline="middle" fill="#e1ed5e" style="dominant-baseline: central; font-size:9.0px; font-family:Arial;" text-anchor="middle" x="100.0" y="100.0">2021</text><line stroke="#e1ed5e" stroke-width="0.3" x1="100.0" x2="100.0" y1="15.0" y2="10.0" /><path d="M 100.0 14.0 a86.0,86.0 0 0,1 42.46469731375804,11.215312516191453" fill="none" id="id85" stroke="none" /><text fill="#e1ed5e" style="font-size:6.75px; font-family:Arial;" text-anchor="middle"><textPath startOffset="22.20632615414155" xlink:href="#id85">January</textPath></text><path d="M 100.0 79.0 l 0.0 -14.32196080274619 a35.32196080274619,35.32196080274619 0 0,0 0.6080094914201025,0.0052333296480998924 l -0.2465290121475742 14.319838849706649" fill="#ffb110" stroke="none" /><path d="M 100.36148047927253 79.00311137660856 l 0.2521033340309853 -14.64362788520993 a35.6457978181978,35.6457978181978 0 0,0 0.6134019951774086,0.015842363823269676 l -0.5041319644032616 14.637118729244301" fill="#ffb610" stroke="none" /><path d="M 100.72285384407766 79.0124445844662 l 0.9694882675162395 -28.148413273182943 a49.16510389291602,49.16510389291602 0 0,0 0.8455441903551232,0.036410911486143165 l -1.4538732902606941 28.127554635172604" fill="#a5ff21" stroke="none" /><path d="M 101.08401301168833 79.027996857942 l 0.41541807260665875 -8.036941466602437 a29.04767048981517,29.04767048981517 0 0,0 0.4991191383584273,0.030108229461023685 l -0.553699259804698 8.02859996776111" fill="#ff5d08" stroke="none" /><path d="M 101.44485096284872 79.0497635885617 l 0.5814772959309952 -8.431379520016101 a29.45140677379986,29.45140677379986 0 0,0 0.5054559970646605,0.03923311346085386 l -0.7265234823579968 8.420121144366783" fill="#ff6209" stroke="none" /><path d="M 101.80526077348638 79.07773832637324 l 1.134627726955759 -13.149888677675786 a34.19874813435133,34.19874813435133 0 0,0 0.5860604827867825,0.05565350455971531 l -1.3608133368327855 13.128409628600894" fill="#ffa30f" stroke="none" /><path d="M 102.16513564639614 79.11191278185805 l 1.4034295975700048 -13.539548844137714 a34.612090123787986,34.612090123787986 0 0,0 0.5920864396946114,0.06652781029696839 l -1.6362827407743417 13.513385080370146" fill="#ffa80f" stroke="none" /><path d="M 102.52436894288641 79.15227682838746 l 0.9542847157488952 -7.881044344526768 a28.938609404619257,28.938609404619257 0 0,0 0.4940031070962063,0.06413578128519352 l -1.0898025513529475 7.863450240077438" fill="#ff5b08" stroke="none" /><path d="M 103.59715602781102 79.31037775812273 l 1.396290819589 -8.03099153157313 a29.15146937877263,29.15146937877263 0 0,0 0.4936383208624255,0.09020924788086784 l -1.5343242615543262 8.005766802341524" fill="#ff5e08" stroke="none" /><path d="M 103.95276090670814 79.375362276772 l 1.9814681686296856 -10.338865441808256 a31.52702972006395,31.52702972006395 0 0,0 0.532106587738996,0.1067355757015631 l -2.159141165835807 10.303225910029484" fill="#ff7f0b" stroke="none" /><path d="M 104.307194497241 79.44645832069477 l 0.8250624270188135 -3.937123107076408 a25.022644201113636,25.022644201113636 0 0,0 0.42080613621622914,0.09197192258455293 l -0.8927112873885705 3.9223376863959842" fill="#ff2403" stroke="none" /><path d="M 104.66035177308747 79.52364482259891 l 2.4474817672036875 -10.753588655020039 a32.02859174882134,32.02859174882134 0 0,0 0.5365190436753767,0.12697672340288674 l -2.632224497841588 10.709866019476284" fill="#ff860c" stroke="none" /><path d="M 105.01212808612495 79.60689891045804 l 3.197603702963956 -13.01025321746177 a34.39743849486472,34.39743849486472 0 0,0 0.5737674741311745,0.14626610462176512 l -3.4210800657801554 12.953284116671137" fill="#ffa50f" stroke="none" /><path d="M 105.36241919743992 79.69619591428918 l 3.7971901041262277 -14.37735490488806 a35.870339160489344,35.870339160489344 0 0,0 0.5956220466440009,0.16280600510096677 l -4.04411003999394 14.3098623589608" fill="#ffb811" stroke="none" /><path d="M 105.71112130821622 79.79150937346287 l 4.041177416449597 -14.299485430822056 a35.85955579744948,35.85955579744948 0 0,0 0.59255317380036,0.17298252031022032 l -4.286720807973384 14.227804581593132" fill="#ffb811" stroke="none" /><path d="M 106.40334571778207 80.00007090966166 l 3.2220509465165654 -10.063612570040844 a31.56683066306224,31.56683066306224 0 0,0 0.516068343523526,0.1701396190329219 l -3.394802112282509 10.006659226748686" fill="#ff7f0b" stroke="none" /><path d="M 106.74666289553966 80.11325718540242 l 2.7895696275673196 -8.222650902495799 a29.682953792999307,29.682953792999307 0 0,0 0.48244410962423684,0.1683152768094831 l -2.93069574125483 8.173414772514109" fill="#ff6609" stroke="none" /><path d="M 107.08798089147638 80.2323363322302 l 4.33719923954255 -12.096011140561316 a33.85008882288648,33.85008882288648 0 0,0 0.5467880191852978,0.2013866419998614 l -4.544769584500425 12.01956123075513" fill="#ff9e0e" stroke="none" /><path d="M 108.43124777332544 80.76684994638697 l 3.4494755650055247 -7.868856773243125 a29.591727916512742,29.591727916512742 0 0,0 0.4647562386824606,0.20852257697763288 l -3.5844139221547655 7.808313865748961" fill="#ff6409" stroke="none" /><path d="M 108.76106565485865 80.91482961587045 l 3.2363302692163756 -7.050045855215878 a28.757382301530118,28.757382301530118 0 0,0 0.44809724166895093,0.2103876632916025 l -3.3572057221849243 6.993293209284272" fill="#ff5908" stroke="none" /><line stroke="#e1ed5e" stroke-width="0.3" x1="143.23703022742887" x2="145.7803849466894" y1="26.81831364943548" y2="22.513508569990506" /><path d="M 143.74570117128098 25.957352633546492 a86.0,86.0 0 0,1 28.547481713284135,27.462654790039103" fill="none" id="id86" stroke="none" /><text fill="#e1ed5e" style="font-size:6.75px; font-family:Arial;" text-anchor="middle"><textPath startOffset="19.985693538727396" xlink:href="#id86">February</textPath></text><path d="M 110.99172775467656 82.1063720568725 l 0.9307973212977771 -1.5152614156292148 a22.778314036111105,22.778314036111105 0 0,0 0.33232567437688065,0.20810230680718672 l -0.9567421480469211 1.4990147674990837" fill="#ff0300" stroke="none" /><path d="M 112.19680574252982 82.90503203632743 l 9.072550811722396 -12.716031455217445 a36.62077572341925,36.62077572341925 0 0,0 0.5099960656700682,0.37053383082471714 l -9.290092193746252 12.557978389576054" fill="#ffc212" stroke="none" /><path d="M 112.48926042617603 83.11751280151076 l 5.412987055901292 -7.317061343785412 a30.101638071032802,30.101638071032802 0 0,0 0.41390303672303863,0.3117431861499448 l -5.538136246382713 7.22280156812962" fill="#ff6b09" stroke="none" /><path d="M 112.77801427241765 83.33499621200491 l 7.049269890780313 -9.193612319406713 a32.58510740013267,32.58510740013267 0 0,0 0.44217594265101645,0.34512533691770236 l -7.20647838859076 9.070908593265786" fill="#ff8d0d" stroke="none" /><path d="M 113.34407831869373 83.78471172551755 l 6.854422461227848 -8.329270370677603 a31.78702239660383,31.78702239660383 0 0,0 0.4195016037966898,0.351320528959452 l -6.996781601983655 8.210048684324333" fill="#ff820c" stroke="none" /><path d="M 113.6212207817346 84.01681056812373 l 8.876430738616683 -10.415635738353606 a34.684900090666645,34.684900090666645 0 0,0 0.4510791099084987,0.3911713591052895 l -9.054403647171945 10.261299385828645" fill="#ffa90f" stroke="none" /><path d="M 113.89432698308785 84.25364557470407 l 10.392859557339385 -11.77816315114682 a36.70785335409054,36.70785335409054 0 0,0 0.4701909152946685,0.4221420462363874 l -10.594061460230042 11.597522096141136" fill="#ffc312" stroke="none" /><path d="M 114.16331599549186 84.49514656593476 l 8.174131050107746 -8.94837790268204 a33.11981375737861,33.11981375737861 0 0,0 0.41761264633984896,0.3881254417025193 l -8.326951580242442 8.80634787490488" fill="#ff940d" stroke="none" /><path d="M 114.42810811169701 84.74124197986012 l 9.94968084851297 -10.522500335438828 a35.48168368307277,35.48168368307277 0 0,0 0.4401701497278239,0.42344333529181405 l -10.129334241853213 10.349673913384711" fill="#ffb310" stroke="none" /><path d="M 114.68862486808459 84.99185889309783 l 7.807940077570513 -7.9777833180987034 a32.16283812143963,32.16283812143963 0 0,0 0.3923317948441199,0.3906469974344254 l -7.944107672581955 7.842200470014159" fill="#ff870c" stroke="none" /><path d="M 114.94478906791727 85.2469230424477 l 7.591565676835308 -7.494180891391616 a31.667455960002982,31.667455960002982 0 0,0 0.37961096870193894,0.39122247199355714 l -7.7194409092403555 7.362394223847944" fill="#ff810b" stroke="none" /><path d="M 115.19652480421416 85.50635884689758 l 10.559311035695513 -10.070912063587363 a35.591857981116405,35.591857981116405 0 0,0 0.419022398319922,0.4469838790358709 l -10.731100755985898 9.887658767673438" fill="#ffb510" stroke="none" /><path d="M 115.4437574822437 85.77008943001954 l 6.7633819079173625 -6.2317942904077315 a30.196662161366064,30.196662161366064 0 0,0 0.3489243859821239,0.38529102190005293 l -6.869649934515522 6.114450481238129" fill="#ff6d0a" stroke="none" /><path d="M 115.68641384162765 86.03803664274999 l 11.194795447644319 -9.964120888939972 a35.986899285843215,35.986899285843215 0 0,0 0.4078654683159623,0.46626073696043746 l -11.36465277953813 9.769944595776586" fill="#ffba11" stroke="none" /><path d="M 115.9244219780498 86.31012108654704 l 15.351968614784619 -13.197753218875063 a41.24508904341147,41.24508904341147 0 0,0 0.458192453314604,0.5423553433851748 l -15.576871681586342 12.931538925860782" fill="#fffc17" stroke="none" /><path d="M 116.15771136456269 86.58626213691792 l 10.581541745680221 -8.784537856958796 a34.7527135895399,34.7527135895399 0 0,0 0.37814511712602594,0.46356120121456224 l -10.731185354882657 8.601092486136134" fill="#ffaa0f" stroke="none" /><path d="M 116.38621287248628 86.86637796730983 l 6.186019911082063 -4.958122296535269 a28.92778777766559,28.92778777766559 0 0,0 0.30807531875803384,0.39122436928425525 l -6.270449310434061 4.850905533297975" fill="#ff5b08" stroke="none" /><path d="M 116.82858285166822 87.43820079747576 l 10.631805717180443 -7.936176786640759 a34.267184885901244,34.267184885901244 0 0,0 0.34877040828690853,0.47572244494727495 l -10.766838737980978 7.75199189802199" fill="#ffa30f" stroke="none" /><line stroke="#e1ed5e" stroke-width="0.3" x1="172.23445277983987" x2="176.4835382374775" y1="55.19839476539836" y2="52.563006222186495" /><path d="M 173.08426987136738 54.67131705675599 a86.0,86.0 0 0,1 12.851231095245387,41.99856678651699" fill="none" id="id87" stroke="none" /><text fill="#e1ed5e" style="font-size:6.75px; font-family:Arial;" text-anchor="middle"><textPath startOffset="22.20632615414155" xlink:href="#id87">March</textPath></text><path d="M 117.84615892207809 88.93136811851018 l 9.54052562052174 -5.917271414569515 a32.226563593081956,32.226563593081956 0 0,0 0.2883267702221163,0.4739333998254809 l -9.64096818903008 5.752170241536953" fill="#ff880c" stroke="none" /><path d="M 118.03404312379186 89.2402003453031 l 13.987131543734098 -8.34525747340157 a37.28751580564348,37.28751580564348 0 0,0 0.3241178701597608,0.5540225044542998 l -14.128709088364186 8.103255556593377" fill="#ffcb12" stroke="none" /><path d="M 118.56541770881063 90.18545643968196 l 6.28854192161867 -3.3244158353260413 a28.113191980125517,28.113191980125517 0 0,0 0.2224832052788348,0.42976673761676193 l -6.344834560057621 3.215676375448935" fill="#ff5007" stroke="none" /><path d="M 118.73160827565052 90.50648371742162 l 7.292907570362771 -3.6961768443865104 a29.176076326382578,29.176076326382578 0 0,0 0.22318307253049874,0.4499234554057991 l -7.355450655846678 3.5700938004817617" fill="#ff5f08" stroke="none" /><path d="M 119.04729006885535 91.15688171328212 l 9.708759561241108 -4.507502584724263 a31.704092290768354,31.704092290768354 0 0,0 0.22554847290576216,0.4969661624648081 l -9.784910351110216 4.339714413417393" fill="#ff810b" stroke="none" /><path d="M 119.196687751892 91.48605970444005 l 7.393330396021537 -3.2790226309156894 a29.087850379352552,29.087850379352552 0 0,0 0.19905687286757454,0.45945070728419773 l -7.448677978731792 3.151272779044889" fill="#ff5d08" stroke="none" /><path d="M 119.34039704204932 91.81776055985345 l 12.377289167439676 -5.236394235740698 a34.439386582970144,34.439386582970144 0 0,0 0.22628040311392128,0.5479559445409357 l -12.465591257439794 5.022563720746459" fill="#ffa60f" stroke="none" /><path d="M 119.47837535516314 92.15188598940014 l 12.255000353022114 -4.937713655105476 a34.2123445986088,34.2123445986088 0 0,0 0.2153853633145738,0.5481322564309651 l -12.338179266218386 4.726032393778726" fill="#ffa30f" stroke="none" /><path d="M 119.61058180528143 92.48833698450437 l 7.535217634124353 -2.8862996609676634 a29.069091059501105,29.069091059501105 0 0,0 0.1749618917309223,0.4688108842590709 l -7.5837841143569005 2.7561656396792595" fill="#ff5d08" stroke="none" /><path d="M 119.7369772167798 92.82701384747503 l 12.489534034131724 -4.539056497575103 a34.28877324202326,34.28877324202326 0 0,0 0.19682885605414013,0.5564616813238625 l -12.565815970995674 4.323397189824626" fill="#ffa40f" stroke="none" /><path d="M 119.85752413597 93.16781622104841 l 8.436887665382558 -2.9027972801427846 a29.922292616132285,29.922292616132285 0 0,0 0.16337957371041475,0.48848413004948504 l -8.485604532864743 2.7571400471709855" fill="#ff6909" stroke="none" /><path d="M 119.97218684219823 93.5106431181261 l 7.8062449709516635 -2.5364027446812676 a29.207971700105624,29.207971700105624 0 0,0 0.1512479406019005,0.4794973039349178 l -7.84874839532177 2.4016552743199306" fill="#ff5f08" stroke="none" /><path d="M 120.08093135843002 93.85539295169968 l 4.02563089470464 -1.231811390016701 a25.209876886676778,25.209876886676778 0 0,0 0.12340127040430339,0.4160477377457168 l -4.046238062220645 1.1623342655244542" fill="#ff2603" stroke="none" /><path d="M 120.18372546131832 94.20196356495316 l 11.769090133597931 -3.3808235022185125 a33.24505819201792,33.24505819201792 0 0,0 0.15326483077516387,0.5513751421647152 l -11.825541734939458 3.1777370566348453" fill="#ff960d" stroke="none" /><path d="M 120.37134235888165 94.90015583598534 l 9.261282663562836 -2.3185069256110555 a30.547084944553283,30.547084944553283 0 0,0 0.12330432623546017,0.5111760371081254 l -9.299819790059116 2.158745656843524" fill="#ff710a" stroke="none" /><path d="M 120.45610955862082 95.25157060432595 l 13.770884134028208 -3.196603481177759 a35.13702669052823,35.13702669052823 0 0,0 0.13168958212399004,0.5903385749297116 l -13.823868103154235 2.9590867366980835" fill="#ffaf10" stroke="none" /><path d="M 120.6074358757038 95.95851677861258 l 13.052919421837972 -2.559908721864632 a34.30157276780733,34.30157276780733 0 0,0 0.10864496578114233,0.5803857515197668 l -13.095050111528973 2.3348448928823027" fill="#ffa40f" stroke="none" /><path d="M 120.67395015179393 96.31383870115 l 3.9814902579339737 -0.7098989401051146 a25.044282529594774,25.044282529594774 0 0,0 0.07201798102494421,0.4250542007133788 l -3.993120100479141 0.6412589510758979" fill="#ff2403" stroke="none" /><path d="M 120.78858239683441 97.02765380044208 l 20.60026899930926 -2.9454211980943708 a41.80977147587368,41.80977147587368 0 0,0 0.09573243290655065,0.7133178210606442 l -20.647917431273648 2.5903850349690623" fill="#fbff18" stroke="none" /><path d="M 120.83666639777658 97.38593545837742 l 11.914656592541194 -1.4947535622826442 a33.008052711832256,33.008052711832256 0 0,0 0.06587408748532474,0.5643689529469856 l -11.938621033030108 1.2894408710108058" fill="#ff930d" stroke="none" /><path d="M 120.87857604477298 97.74499172005257 l 20.776928907343226 -2.2440297948225085 a41.89776171126577,41.89776171126577 0 0,0 0.07127183218130852,0.7176976236312916 l -20.812477865206763 1.886056640486782" fill="#faff18" stroke="none" /><path d="M 120.94382443527127 98.46500227214037 l 30.91035951356422 -2.2654569019753596 a51.99326733715724,51.99326733715724 0 0,0 0.05773582219294923,0.8931476148451525 l -30.944775926761587 1.7330502228771718" fill="#85ff25" stroke="none" /><path d="M 120.96714384426684 98.82574320788733 l 6.907610461500317 -0.3868580557243226 a27.918434898378926,27.918434898378926 0 0,0 0.02274208023234733,0.48004936963207 l -6.91324614996616 0.26789757946925274" fill="#ff4d07" stroke="none" /><line stroke="#e1ed5e" stroke-width="0.3" x1="184.98032266829074" x2="189.97916517819016" y1="98.17113171792111" y2="98.06355123074" /><path d="M 185.9800911702706 98.14961562048488 a86.0,86.0 0 0,1 -9.607161424134198,41.387399972396054" fill="none" id="id88" stroke="none" /><text fill="#e1ed5e" style="font-size:6.75px; font-family:Arial;" text-anchor="middle"><textPath startOffset="21.466115282336823" xlink:href="#id88">April</textPath></text><path d="M 120.99513854157772 99.54816195383933 l 8.160890726967361 -0.17563117831784242 a29.162780394467266,29.162780394467266 0 0,0 0.006481070882314438,0.5019660822259577 l -8.16270480496739 0.03512883803142194" fill="#ff5e08" stroke="none" /><path d="M 120.99980553446 99.90962569577887 l 13.514504292715078 -0.058160725362117395 a34.514629441749,34.514629441749 0 0,0 -0.002556881074968001,0.5941291145954435 l -13.513503114350607 -0.17447786743701077" fill="#ffa70f" stroke="none" /><path d="M 120.99824983174949 100.27111621757518 l 12.583433376713419 0.16246939095112403 a33.584482184388094,33.584482184388094 0 0,0 -0.012438952246983546,0.5779892329930146 l -12.578772361781429 -0.3790484397342535" fill="#ff9a0e" stroke="none" /><path d="M 120.9904718944345 100.63252640178507 l 14.545689812264804 0.43831948536960136 a35.55229246840094,35.55229246840094 0 0,0 -0.02369791746704027,0.6115379504951906 l -14.53598976194656 -0.6886346828787981" fill="#ffb410" stroke="none" /><path d="M 120.9764740272857 100.99374915477107 l 27.691528825536018 1.3118712577194644 a48.72258600658176,48.72258600658176 0 0,0 -0.046898155113772315,0.837398063955013 l -27.664844319534716 -1.7883410380099007" fill="#aaff21" stroke="none" /><path d="M 120.95626037817324 101.35467743843564 l 8.404332285271597 0.5432820134183755 a29.421873693386907,29.421873693386907 0 0,0 -0.0370203406439274,0.505113135288808 l -8.393735385963332 -0.6878682852039537" fill="#ff6209" stroke="none" /><path d="M 120.92983693683757 101.71520430193887 l 10.840195904559192 0.888356211540051 a31.876535478165998,31.876535478165998 0 0,0 -0.04952308758396652,0.5464831447967405 l -10.823298220698149 -1.074820744885362" fill="#ff840c" stroke="none" /><path d="M 120.8583938346157 102.4346265915055 l 13.398773621275945 1.563927252048743 a34.48973695087865,34.48973695087865 0 0,0 -0.0739041004410835,0.5890883954084843 l -13.369868011588014 -1.7943334017446222" fill="#ffa60f" stroke="none" /><path d="M 120.81339534386255 102.79330883721812 l 30.341311514887646 4.072024395208311 a51.61333969234042,51.61333969234042 0 0,0 -0.12575454788386262,0.8795270150055851 l -30.266722915987184 -4.593696882194306" fill="#89ff24" stroke="none" /><path d="M 120.76222939487914 103.15116336523771 l 7.120418305658936 1.0806932571265413 a28.201961869071624,28.201961869071624 0 0,0 -0.07697557037642976,0.4793269502129479 l -7.100760980921218 -1.2030994370326942" fill="#ff5107" stroke="none" /><path d="M 120.70491114924044 103.5080841355445 l 7.075955477294919 1.1988965794054203 a28.176802834463963,28.176802834463963 0 0,0 -0.08513897063590334,0.4775045615748967 l -7.054270064319827 -1.3205198917135352" fill="#ff5107" stroke="none" /><path d="M 120.64145759157962 103.86396538481128 l 11.797022046207044 2.2083365299258024 a33.00193648492191,33.00193648492191 0 0,0 -0.10933080634232824,0.5574754261048384 l -11.757261306889053 -2.411075683098586" fill="#ff930d" stroke="none" /><path d="M 120.5718875245553 104.21870165774334 l 13.1033973912267 2.687129425068776 a34.3760864134274,34.3760864134274 0 0,0 -0.12386188682683791,0.5786414995096275 l -13.055201465675419 -2.9122847439945723" fill="#ffa50f" stroke="none" /><path d="M 120.41448212921028 104.9243191809786 l 10.6139967773789 2.5602759642335275 a31.918422074789085,31.918422074789085 0 0,0 -0.1334322058914881,0.5329953348567686 l -10.56835325719235 -2.742599138487692" fill="#ff840c" stroke="none" /><path d="M 120.32669344350535 105.2749913415812 l 7.813380851055394 2.0276547414042154 a29.072193262922916,29.072193262922916 0 0,0 -0.1298723035694487,0.48330315526472056 l -7.777320471144168 -2.1618488298444842" fill="#ff5d08" stroke="none" /><path d="M 120.23288151984713 105.62410040840565 l 26.63747029582019 7.404373293179243 a48.647415206949255,48.647415206949255 0 0,0 -0.2312081063863178,0.8048657499847256 l -26.50606955254777 -7.861796518668551" fill="#aaff21" stroke="none" /><path d="M 120.02730092923936 106.31721596034902 l 7.644491400835081 2.411303612839873 a29.01577406684695,29.01577406684695 0 0,0 -0.15434699076326808,0.4750311924846545 l -7.601852159055565 -2.5425337053023225" fill="#ff5c08" stroke="none" /><path d="M 119.9155931802556 106.66101706037122 l 12.556246252526607 4.199592236359818 a34.23993560806782,34.23993560806782 0 0,0 -0.19175858930581618,0.5573402207286778 l -12.482096832277561 -4.415105160177797" fill="#ffa30f" stroke="none" /><path d="M 119.79798401119884 107.00284435728193 l 7.521919023187792 2.66061575550654 a28.978605265949934,28.978605265949934 0 0,0 -0.17038831905957125,0.46883547518077234 l -7.475006443122994 -2.7896990276934432" fill="#ff5c08" stroke="none" /><path d="M 119.41010516605496 108.01547362559984 l 12.292202431185423 5.076109765752824 a34.29906504094224,34.29906504094224 0 0,0 -0.23004712652561393,0.5437634522839431 l -12.2030043234675 -5.286947743702931" fill="#ffa40f" stroke="none" /><path d="M 119.26925614724726 108.34839909993367 l 12.232034132312414 5.2995248991561645 a34.330702275980514,34.330702275980514 0 0,0 -0.23959383266577738,0.5402208417367635 l -12.138999214915364 -5.509294077385616" fill="#ffa40f" stroke="none" /><path d="M 118.97047184881838 109.00673069616215 l 7.401655019957878 3.514130486681052 a29.193510243594552,29.193510243594552 0 0,0 -0.2194333580922085,0.4520977116837053 l -7.340068405250955 -3.641017154330033" fill="#ff5f08" stroke="none" /><path d="M 118.64920377521936 109.65438752849418 l 12.079348286715156 6.253280883045565 a34.60199164953543,34.60199164953543 0 0,0 -0.27837712855296215,0.5265846180622136 l -11.9699186499373 -6.4602805161939125" fill="#ffa80f" stroke="none" /><line stroke="#e1ed5e" stroke-width="0.3" x1="174.80103733775053" x2="179.2010983576182" y1="140.37084112569926" y2="142.7455964860345" /><path d="M 175.68104954172406 140.8457921977663 a86.0,86.0 0 0,1 -30.038265399797805,32.042727171017184" fill="none" id="id89" stroke="none" /><text fill="#e1ed5e" style="font-size:6.75px; font-family:Arial;" text-anchor="middle"><textPath startOffset="22.206326154141568" xlink:href="#id89">May</textPath></text><path d="M 118.48025628344425 109.97397251340804 l 12.746802077276902 6.879571993084799 a35.48480148311697,35.48480148311697 0 0,0 -0.2947326897421743,0.5350254427788631 l -12.626492978083219 -7.097967954261467" fill="#ffb310" stroke="none" /><path d="M 118.30583269289576 110.29060199501025 l 26.251981157459852 14.757519868340578 a51.11562563447909,51.11562563447909 0 0,0 -0.4377639636087296,0.7632783697861244 l -25.994065197698742 -15.207218083985017" fill="#8fff24" stroke="none" /><path d="M 117.94076556474637 110.91462005526583 l 5.042780669444458 3.0678754945206492 a26.902668627832924,26.902668627832924 0 0,0 -0.244090936233216,0.39355230945403036 l -4.989225093543278 -3.154224135339953" fill="#ff3f05" stroke="none" /><path d="M 117.75023020441432 111.22182372390056 l 11.414509872981753 7.216335575043327 a34.504315412935,34.504315412935 0 0,0 -0.32170367382652176,0.49929124588039236 l -11.28860133577818 -7.411748420845171" fill="#ffa70f" stroke="none" /><path d="M 117.55443506779139 111.5257021239791 l 11.514188947734798 7.559862308203603 a34.77418110971159,34.77418110971159 0 0,0 -0.3328334483303427,0.4975408458185754 l -11.382352393993735 -7.756940068227985" fill="#ffaa0f" stroke="none" /><path d="M 117.35343817320211 111.8261652097733 l 6.767082106996877 4.6116873317374845 a29.18908177322374,29.18908177322374 0 0,0 -0.28652432559536034,0.41275966101411404 l -6.686696874239381 -4.727488254938618" fill="#ff5f08" stroke="none" /><path d="M 116.93607887273984 112.41649034213515 l 11.221373138580402 8.226819929667585 a34.91401384469735,34.91401384469735 0 0,0 -0.3595124823032083,0.481625720735347 l -11.078099389582102 -8.418758529912248" fill="#ffac0f" stroke="none" /><path d="M 116.71984013943494 112.70617746262583 l 7.761533792442573 5.898347408019867 a30.74843110233245,30.74843110233245 0 0,0 -0.3238734924321834,0.4186501475547306 l -7.6588534827923205 -6.03107554968785" fill="#ff740a" stroke="none" /><path d="M 116.27256486870786 113.27417163493432 l 12.501506361622171 10.19797078569417 a37.13338989349577,37.13338989349577 0 0,0 -0.40829753637718297,0.4918206849562444 l -12.324112825351444 -10.411652727764185" fill="#ffc912" stroke="none" /><path d="M 115.80600337817218 113.82643327865902 l 6.214812254452662 5.436458851720118 a29.257056146384194,29.257056146384194 0 0,0 -0.33484164429167296,0.37619813699359417 l -6.120311760512651 -5.5426311584545775" fill="#ff6008" stroke="none" /><path d="M 115.56566222782051 114.09645910891815 l 13.43942089305013 12.170908265490983 a39.13143794483904,39.13143794483904 0 0,0 -0.45644696594670603,0.49538303216451873 l -13.227927519107702 -12.400442552456836" fill="#ffe215" stroke="none" /><path d="M 115.32070863581623 114.36230785411682 l 9.884518009350156 9.266183047693312 a34.54864733287152,34.54864733287152 0 0,0 -0.4104600556319074,0.4303657273323779 l -9.723551402339284 -9.434955891608197" fill="#ffa70f" stroke="none" /><path d="M 114.81725581225074 114.88116024355365 l 9.544307981920905 9.585471040822826 a34.52682778511696,34.52682778511696 0 0,0 -0.4247622667903675,0.41571927866080494 l -9.377895762754743 -9.748340422406203" fill="#ffa70f" stroke="none" /><path d="M 114.55890576462653 115.13401014063108 l 3.1320295723600453 3.2557506776381877 a25.517689865083632,25.517689865083632 0 0,0 -0.31917060555649224,0.3017957291784007 l -3.075523132412745 -3.3091810435625097" fill="#ff2b04" stroke="none" /><path d="M 114.0293411484842 115.62618273729858 l 8.958099463121918 9.977724378365663 a34.40904656423482,34.40904656423482 0 0,0 -0.44413500954424534,0.3918975072307002 l -8.785022100671085 -10.130445027368651" fill="#ffa50f" stroke="none" /><path d="M 113.75828350139079 115.86535959552629 l 9.18511264632928 10.591809293993622 a35.01972604746925,35.01972604746925 0 0,0 -0.4588159826891817,0.3910129342478907 l -9.001431187063051 -10.748346618464458" fill="#ffad10" stroke="none" /><path d="M 113.48314897796784 116.09983520530334 l 33.06735637915386 39.484766448056604 a72.5023964429185,72.5023964429185 0 0,0 -0.963694504729223,0.7930549694043012 l -32.38279174587994 -40.04811653631808" fill="#3fffba" stroke="none" /><path d="M 113.20401910651253 116.32954008644616 l 5.230767015109637 6.46894093132325 a29.319141803053263,29.319141803053263 0 0,0 -0.39516968606246283,0.31394669818958476 l -5.118639836329823 -6.5580215435179605" fill="#ff6108" stroke="none" /><path d="M 112.92097659922987 116.55440617244103 l 3.579641949814992 4.586251382320291 a26.817863717096685,26.817863717096685 0 0,0 -0.36634641255293937,0.2808988073331639 l -3.5001668087685593 -4.6471895314808265" fill="#ff3d05" stroke="none" /><path d="M 112.63410532772338 116.77436683061366 l 8.053663236109749 10.692890232305492 a34.386537754057244,34.386537754057244 0 0,0 -0.47586879459992865,0.3520363578288873 l -7.8684094710912555 -10.829936538874149" fill="#ffa50f" stroke="none" /><path d="M 112.34349029814194 116.9893568818739 l 3.661952593153928 5.040245342839596 a27.230085867026474,27.230085867026474 0 0,0 -0.38157476814258107,0.2722434656312779 l -3.5746504971624624 -5.1025330703150935" fill="#ff4306" stroke="none" /><path d="M 112.04921762599082 117.19931262002967 l 1.2551096792626586 1.791570574632103 a23.187470098279384,23.187470098279384 0 0,0 -0.3288680157992986,0.22619842004542845 l -1.2240847788404767 -1.8129097840426256" fill="#ff0901" stroke="none" /><path d="M 111.7513745106137 117.40417183066458 l 10.60160334808485 15.701322954516378 a39.945330191689635,39.945330191689635 0 0,0 -0.5731685073305945,0.37986483273529165 l -10.329760142014292 -15.881485808342989" fill="#ffec16" stroke="none" /><path d="M 111.45004920935366 117.60387380957326 l 9.011793528964459 13.855178539514265 a37.52810923761403,37.52810923761403 0 0,0 -0.5445475152129376,0.3475559885828505 l -8.77196421170459 -14.008248956920925" fill="#ffce13" stroke="none" /><line stroke="#e1ed5e" stroke-width="0.3" x1="143.8653032363475" x2="146.44561519142675" y1="172.8068346515853" y2="177.08958963109032" /><path d="M 144.38136562736335 173.6633856474863 a86.0,86.0 0 0,1 -40.68145358897372,12.25698825130547" fill="none" id="id90" stroke="none" /><text fill="#e1ed5e" style="font-size:6.75px; font-family:Arial;" text-anchor="middle"><textPath startOffset="21.466115282336833" xlink:href="#id90">June</textPath></text><path d="M 110.8373102113329 117.98757091392108 l 4.770027675882805 7.91720541427181 a30.243122069975207,30.243122069975207 0 0,0 -0.44822053659937655,0.2648165935486407 l -4.633039268255046 -7.9981405801142" fill="#ff6d0a" stroke="none" /><path d="M 110.5260780823613 118.17145234162733 l 4.393047530868459 7.583836374484896 a29.76432774167133,29.76432774167133 0 0,0 -0.44554538701694973,0.2529922987685452 l -4.2618533769303095 -7.658331839048071" fill="#ff6709" stroke="none" /><path d="M 110.21172684928248 118.3499491758327 l 3.04394648437512 5.469815644957515 a27.25975186325797,27.25975186325797 0 0,0 -0.41198206645329427,0.22464547098313364 l -2.9493416060531774 -5.521401767700419" fill="#ff4406" stroke="none" /><path d="M 109.89434966115114 118.52300852407294 l 6.324073200209675 11.839167384015457 a34.42236142369686,34.42236142369686 0 0,0 -0.5250378819300532,0.27467500500304043 l -6.119344415753126 -11.946271807963216" fill="#ffa60f" stroke="none" /><path d="M 109.57404056367764 118.69057910512821 l 12.757906983978707 24.906168729279532 a48.983592181548,48.983592181548 0 0,0 -0.7537550667204057,0.3779484381521167 l -12.327298009575541 -25.12208500834095" fill="#a7ff21" stroke="none" /><path d="M 109.2508944713604 118.85261126421891 l 18.16542577168894 37.01974026218828 a62.236438528886374,62.236438528886374 0 0,0 -0.9658127097783953,0.4636487930353469 l -17.525500393910313 -37.326943331723186" fill="#32ff46" stroke="none" /><path d="M 108.92500713936063 119.00905698771935 l 3.372404225748841 7.18276446302963 a28.93506241898638,28.93506241898638 0 0,0 -0.4526711451954484,0.20779912064160766 l -3.248265084785973 -7.239750654005313" fill="#ff5b08" stroke="none" /><path d="M 108.59647513512805 119.15986991738527 l 0.6440776616753373 1.4355237490266213 a22.573392661826226,22.573392661826226 0 0,0 -0.3558849339601447,0.15600949655399196 l -0.6192720530574388 -1.4463977988750678" fill="#ff0000" stroke="none" /><path d="M 108.2653958097858 119.30500536409082 l 0.7181835550120081 1.6774196543006126 a22.824698417636096,22.824698417636096 0 0,0 -0.36250896907832264,0.15152877847508678 l -0.6892031264362244 -1.6895334757956726" fill="#ff0400" stroke="none" /><path d="M 107.93186726928326 119.44442032107085 l 4.330575230749882 10.616103643691964 a32.46540615952153,32.46540615952153 0 0,0 -0.5192593184154218,0.2066239990885095 l -4.147194836292594 -10.689074487186543" fill="#ff8b0c" stroke="none" /><path d="M 107.59598834532513 119.57807347666477 l 0.6944413671223403 1.7898690062003748 a22.919864545150897,22.919864545150897 0 0,0 -0.369042320897918,0.13954022806745384 l -0.6635288254641475 -1.8015574843744595" fill="#ff0500" stroke="none" /><path d="M 107.2578585660854 119.70592522655815 l 4.682555411095862 12.713679380781764 a34.548578101605294,34.548578101605294 0 0,0 -0.5598193017158177,0.2007312841785642 l -4.463016548750309 -12.792398206000287" fill="#ffa70f" stroke="none" /><path d="M 106.91757812671514 119.82793768551818 l 2.6753192003519883 7.6682997172941025 a29.121585644320007,29.121585644320007 0 0,0 -0.47472381861483265,0.16105209397722975 l -2.5429256487999288 -7.713214798169456" fill="#ff5e08" stroke="none" /><path d="M 106.57524785965236 119.94407469862006 l 2.542083829312651 7.710661387089693 a29.11889704464891,29.11889704464891 0 0,0 -0.47738165271271993,0.15284252998289202 l -2.4089808315089902 -7.753276763732291" fill="#ff5e08" stroke="none" /><path d="M 106.2309692047433 120.05430185196036 l 3.065332858618455 9.86573812251725 a31.330975473604425,31.330975473604425 0 0,0 -0.5164016517434935,0.15558758156297153 l -2.895056232434716 -9.917041073185947" fill="#ff7c0b" stroke="none" /><path d="M 105.53697534728816 120.25689768951611 l 3.542165124135525 12.95893010506685 a34.434314393918655,34.434314393918655 0 0,0 -0.5731010464718186,0.15136119520756228 l -3.3185736348522092 -13.017982649577995" fill="#ffa60f" stroke="none" /><path d="M 104.83641907484287 120.43548508189849 l 1.8279941128942179 7.7238853469416835 a28.937251875143964,28.937251875143964 0 0,0 -0.4857046770443746,0.11054480317663455 l -1.6947692864569812 -7.7542068836960025" fill="#ff5b08" stroke="none" /><path d="M 104.48393922423573 120.51570834832081 l 2.8183333673322704 12.894935123119337 a34.19933160424706,34.19933160424706 0 0,0 -0.5761912159519398,0.12074647150498585 l -2.595950689950952 -12.941537575350864" fill="#ffa30f" stroke="none" /><path d="M 103.7750983002368 120.6578951692458 l 2.3322702036586076 12.762526838178697 a33.97388051425268,33.97388051425268 0 0,0 -0.5761824994398462,0.1001767130761912 l -2.1122387327467114 -12.800782129775895" fill="#ffa00e" stroke="none" /><path d="M 103.06178313531738 120.77559828337769 l 1.2113005915752921 8.219228266268907 a29.308005922974804,29.308005922974804 0 0,0 -0.499731379540205,0.06925821564157152 l -1.0696406208482567 -8.23886104740308" fill="#ff6008" stroke="none" /><path d="M 102.34483914955558 120.86867818915974 l 1.4585862970682013 12.98117529742005 a34.06286285958571,34.06286285958571 0 0,0 -0.5832331024095566,0.06045449576103098 l -1.234920598053042 -13.00435916163684" fill="#ffa10e" stroke="none" /><path d="M 101.62511606390274 120.93702456842531 l 1.0177230469414846 13.111735777501908 a34.15117391335463,34.15117391335463 0 0,0 -0.5864850036319442,0.04044743961606599 l -0.79187528253061 -13.12731156163426" fill="#ffa20f" stroke="none" /><path d="M 100.90346689309514 120.98055641714683 l 0.661685121906864 15.365833697562723 a36.38007387569081,36.38007387569081 0 0,0 -0.6258752521837975,0.02155640916708668 l -0.39708951804841425 -15.374946905155904" fill="#ffbf11" stroke="none" /><line stroke="#e1ed5e" stroke-width="0.3" x1="102.19456741930631" x2="102.32365962044197" y1="184.97166512339345" y2="189.96999836594603" /><path d="M 102.22038585953345 185.97133177190398 a86.0,86.0 0 0,1 -42.740103519485714,-10.115201625700543" fill="none" id="id91" stroke="none" /><text fill="#e1ed5e" style="font-size:6.75px; font-family:Arial;" text-anchor="middle"><textPath startOffset="22.20632615414155" xlink:href="#id91">July</textPath></text><path d="M 100.54218724476979 120.99299961872073 l 0.20459870954580855 7.921876939966693 a28.924518590042165,28.924518590042165 0 0,0 -0.497832712804292,0.008570641624566961 l -0.06820630684884867 -7.92422505887042" fill="#ff5b08" stroke="none" /><path d="M 99.81925306533755 120.99922214144158 l -0.13526858025517577 15.715536038498586 a36.71611817740475,36.71611817740475 0 0,0 -0.6319373876180298,-0.010879375218093337 l 0.4057656577658734 -15.710879186001332" fill="#ffc312" stroke="none" /><path d="M 99.45781275523022 120.99299961872073 l -0.7620730588162725 29.50677941521918 a50.51661882406886,50.51661882406886 0 0,0 -0.8690774420640811,-0.029932784326670188 l 1.2698708525549967 -29.48928983246642" fill="#95ff23" stroke="none" /><path d="M 98.01472825383883 120.90594882070398 l -0.5481209693938426 5.772000208968881 a26.797967144562485,26.797967144562485 0 0,0 -0.4588416886866169,-0.047560817122838946 l 0.6473952546860529 -5.761710023390281" fill="#ff3d05" stroke="none" /><path d="M 97.2962882734958 120.8252237178851 l -1.9979437230359822 15.389075913712814 a36.51822917083115,36.51822917083115 0 0,0 -0.6226730365029368,-0.08629680904967267 l 2.26254535072575 -15.352404539170536" fill="#ffc111" stroke="none" /><path d="M 96.93821686468263 120.77559828337769 l -1.343376811183105 9.115425795645786 a30.213883475101532,30.213883475101532 0 0,0 -0.513872171353216,-0.0802562648504035 l 1.5000848461448382 -9.090951223448277" fill="#ff6d0a" stroke="none" /><path d="M 95.86986931433489 120.58985236759428 l -1.5691557414738566 7.822678631174298 a28.97850554349819,28.97850554349819 0 0,0 -0.4882306045859766,-0.10231347016824585 l 1.70357780748922 -7.794509180279511" fill="#ff5c08" stroke="none" /><path d="M 95.51606077576429 120.51570834832081 l -1.523676764333403 6.971394247544777 a28.135960246306723,28.135960246306723 0 0,0 -0.4722551935384071,-0.10748374451843232 l 1.6434521072646728 -6.944133769448658" fill="#ff5007" stroke="none" /><path d="M 94.81253420990036 120.34920634021253 l -7.075609824687812 27.755950618546958 a49.64362143882013,49.64362143882013 0 0,0 -0.8262342926817181,-0.21821598622387015 l 7.55233456018102 -27.630043283019507" fill="#9fff22" stroke="none" /><path d="M 94.46302465271185 120.25689768951611 l -8.254868802090607 30.20024874162143 a52.30811209567794,52.30811209567794 0 0,0 -0.8664934215893525,-0.24487969610999927 l 8.773493391784573 -30.053680252172907" fill="#82ff25" stroke="none" /><path d="M 93.42475214034765 119.94407469862007 l -0.8777988728628529 2.662543932095492 a23.80351048714604,23.80351048714604 0 0,0 -0.38803152867124996,-0.13164136234839738 l 0.9235001344713286 -2.6470395828489712" fill="#ff1202" stroke="none" /><path d="M 93.08242187328487 119.8279376855182 l -5.963486510013149 17.093213367886907 a39.10362158782647,39.10362158782647 0 0,0 -0.6336284540416427,-0.22719662019874748 l 6.256834524684518 -16.988029206648203" fill="#ffe215" stroke="none" /><path d="M 92.40401165467489 119.57807347666478 l -6.2654927138064425 16.14882371349401 a38.32168889791836,38.32168889791836 0 0,0 -0.6129260776805472,-0.24389593566170445 l 6.5425398675288475 -16.03858093342624" fill="#ffd814" stroke="none" /><path d="M 91.40352486487194 119.15986991738527 l -4.477832381767358 9.980216844452034 a31.938725296006314,31.938725296006314 0 0,0 -0.49966159210146543,-0.2293701300802819 l 4.648961969636243 -9.901659644037677" fill="#ff840c" stroke="none" /><path d="M 90.7491055286396 118.85261126421891 l -4.2081154277862405 8.575815512826816 a30.55263561346363,30.55263561346363 0 0,0 -0.47014118135634747,-0.23573854830289814 l 4.3551105168253486 -8.502109123614616" fill="#ff720a" stroke="none" /><path d="M 90.10565033884886 118.52300852407294 l -6.8634866093446245 12.848992134260188 a35.56722510648247,35.56722510648247 0 0,0 -0.5375345663776427,-0.2931067045543595 l 7.083643987590907 -12.728944777946062" fill="#ffb510" stroke="none" /><line stroke="#e1ed5e" stroke-width="0.3" x1="58.666819895761336" x2="56.23545636021788" y1="174.27360380694188" y2="178.64263932499728" /><path d="M 58.180547188652646 175.14741091055294 a86.0,86.0 0 0,1 -31.652253787137756,-30.449443065178592" fill="none" id="id92" stroke="none" /><text fill="#e1ed5e" style="font-size:6.75px; font-family:Arial;" text-anchor="middle"><textPath startOffset="22.20632615414155" xlink:href="#id92">August</textPath></text><path d="M 89.7882731507175 118.34994917583269 l -6.762034955946417 12.15102985011191 a34.90584924280973,34.90584924280973 0 0,0 -0.5225093691018897,-0.2966944564329209 l 6.970193091969514 -12.032832227884356" fill="#ffac0f" stroke="none" /><path d="M 88.8546689885994 117.79835938074946 l -5.961965120715951 9.520865528843627 a32.233517192712014,32.233517192712014 0 0,0 -0.4677209177453674,-0.29852161915439634 l 6.124967840508242 -9.416829480865427" fill="#ff880c" stroke="none" /><path d="M 88.54995079064634 117.60387380957326 l -7.086384036238186 10.894958445960526 a33.99680569402567,33.99680569402567 0 0,0 -0.4878141770300603,-0.3232966368414695 l 7.272872912008208 -10.771363788027738" fill="#ffa00e" stroke="none" /><path d="M 87.95078237400918 117.19931262002967 l -22.53392325399874 32.16540713525462 a60.27328752974206,60.27328752974206 0 0,0 -0.8446086371766457,-0.6026058368753623 l 23.084259219024272 -31.772757036535033" fill="#30ff2f" stroke="none" /><path d="M 87.65650970185807 116.9893568818739 l -16.497811339037895 22.707289254396088 a49.067753103184074,49.067753103184074 0 0,0 -0.6790393580750678,-0.5023370835656198 l 16.886235667531526 -22.4199422220907" fill="#a6ff21" stroke="none" /><path d="M 87.36589467227662 116.77436683061367 l -2.764854390062552 3.6709114392430955 a25.59565126973468,25.59565126973468 0 0,0 -0.34965033451362326,-0.26809696664990645 l 2.8276334530696623 -3.6227751307658225" fill="#ff2c04" stroke="none" /><path d="M 86.24171649860922 115.8653595955263 l -7.271322395489964 8.384922765095688 a32.098606180767646,32.098606180767646 0 0,0 -0.4143129841112828,-0.3655830371335522 l 7.414577732507834 -8.258516586189845" fill="#ff870c" stroke="none" /><path d="M 85.70375840098266 115.38237550388516 l -11.560922554531235 12.439245005299735 a37.98204188587884,37.98204188587884 0 0,0 -0.475072444766067,-0.44921064905321767 l 11.773330833688119 -12.238399719500588" fill="#ffd413" stroke="none" /><path d="M 84.43433777217949 114.09645910891817 l -5.714522208776336 5.175143046535165 a28.709595944451255,28.709595944451255 0 0,0 -0.3285760626390865,-0.3691586895859414 l 5.802757121063761 -5.07601018720836" fill="#ff5808" stroke="none" /><path d="M 84.19399662182784 113.82643327865904 l -5.296875359017263 4.633485896755169 a28.037476829403655,28.037476829403655 0 0,0 -0.3146305441707002,-0.36598640384131 l 5.375848412758742 -4.541622393752329" fill="#ff4f07" stroke="none" /><path d="M 83.95833913139862 113.55231037782056 l -40.05822748585814 33.84197786753386 a73.43988038978934,73.43988038978934 0 0,0 -0.8075029594925044,-0.9726893337777024 l 40.63482644524418 -33.1474272766424" fill="#40ffc4" stroke="none" /><path d="M 83.28015986056508 112.70617746262583 l -9.441647786891856 7.175143501336785 a32.85864229987967,32.85864229987967 0 0,0 -0.3383481518592989,-0.45327264148027574 l 9.563757205446239 -7.011557980347201" fill="#ff910d" stroke="none" /><path d="M 82.85270091963577 112.12312394758628 l -7.028423365931196 4.969088555693727 a29.607588285059524,29.607588285059524 0 0,0 -0.290632447152343,-0.41867771651513663 l 7.112916720245672 -4.847369576991578" fill="#ff6509" stroke="none" /><path d="M 82.6465618267979 111.8261652097733 l -7.148372072608835 4.871531985064981 a29.650494041958822,29.650494041958822 0 0,0 -0.2837932012129221,-0.4242323302461367 l 7.2311683792324875 -4.747762740613023" fill="#ff6509" stroke="none" /><path d="M 82.44556493220864 111.52570212397912 l -23.267816881135598 15.276932889700955 a48.834798022088926,48.834798022088926 0 0,0 -0.45531504527091815,-0.7066590614815049 l 23.527336789783565 -14.874152228298001" fill="#a8ff21" stroke="none" /><path d="M 82.05923443525364 110.91462005526583 l -5.848257853260489 3.557903492089092 a27.845494662713772,27.845494662713772 0 0,0 -0.24559610177035252,-0.411633193228492 l 5.908634830729074 -3.456708204974489" fill="#ff4c07" stroke="none" /><line stroke="#e1ed5e" stroke-width="0.3" x1="26.63291911575756" x2="22.317208475507996" y1="142.92168965132927" y2="145.44649492493687" /><path d="M 25.769776987707644 143.4266507060508 a86.0,86.0 0 0,1 -11.730757126820373,-40.83630448921669" fill="none" id="id93" stroke="none" /><text fill="#e1ed5e" style="font-size:6.75px; font-family:Arial;" text-anchor="middle"><textPath startOffset="21.46611528233685" xlink:href="#id93">September</textPath></text><path d="M 81.51974371655577 109.97397251340807 l -11.106693269156718 5.994389454472295 a33.621067320437675,33.621067320437675 0 0,0 -0.2704854759328665,-0.5116565853519243 l 11.208231253314471 -5.8023178540342455" fill="#ff9b0e" stroke="none" /><path d="M 81.35079622478065 109.6543875284942 l -41.13692290160575 21.295911622222516 a67.32237340243015,67.32237340243015 0 0,0 -0.5239005625986091,-1.033705512466323 l 41.497402133990626 -20.584651898053508" fill="#38ff82" stroke="none" /><path d="M 81.18737489456691 109.33194174019688 l -6.265480323403208 3.1079712174492213 a27.99397803624272,27.99397803624272 0 0,0 -0.21041706035333324,-0.43352146780244677 l 6.31805064037126 -2.99966079368149" fill="#ff4e07" stroke="none" /><path d="M 81.02952815118164 109.00673069616217 l -9.170965576022716 4.354157230525362 a31.152107898595737,31.152107898595737 0 0,0 -0.22581626481479988,-0.48638814485306137 l 9.244556457677342 -4.195649018393474" fill="#ff7a0b" stroke="none" /><path d="M 80.73074385275274 108.34839909993369 l -9.40231926313758 4.073551831676719 a31.24682546212849,31.24682546212849 0 0,0 -0.2095754622474309,-0.49537448516218446 l 9.471045706577318 -3.911102820848376" fill="#ff7b0b" stroke="none" /><path d="M 80.32549172779594 107.34259656027581 l -26.553831547422064 9.909984508111032 a49.342790314291,49.342790314291 0 0,0 -0.2901255951486351,-0.7983010338640759 l 26.720481403575924 -9.45143567724084" fill="#a3ff22" stroke="none" /><path d="M 80.20201598880116 107.00284435728193 l -15.969379074049217 5.648609276315398 a37.93894491304454,37.93894491304454 0 0,0 -0.21247465648160943,-0.617550808917623 l 16.064244561474055 -5.372885764308478" fill="#ffd313" stroke="none" /><path d="M 79.50377843672027 104.57218783832718 l -16.076590315642633 3.586280061230353 a37.47173824629911,37.47173824629911 0 0,0 -0.13501595690820767,-0.6307496015486442 l 16.13594031127528 -3.309016640265545" fill="#ffcd13" stroke="none" /><path d="M 79.4281124754447 104.21870165774334 l -32.15211644820893 6.593473097600368 a53.82121995886148,53.82121995886148 0 0,0 -0.1783021847556853,-0.9091589987077295 l 32.26084856594028 -6.039050371824684" fill="#72ff27" stroke="none" /><path d="M 79.35854240842038 103.8639653848113 l -11.025288243710012 2.0638722794770556 a32.21679765543107,32.21679765543107 0 0,0 -0.09734621084169455,-0.5459692474757182 l 11.059180896890895 -1.8737842812681236" fill="#ff880c" stroke="none" /><path d="M 79.23777060512086 103.15116336523772 l -8.134647709757536 1.2346267524828156 a29.22780630422288,29.22780630422288 0 0,0 -0.07121278315517113,-0.4980620395259977 l 8.154694543929306 -1.0944192409764173" fill="#ff5f08" stroke="none" /><path d="M 79.1416061653843 102.43462659150553 l -28.437781257860372 3.3193053598836757 a49.63084335017163,49.63084335017163 0 0,0 -0.09174071968645174,-0.8494051260958042 l 28.490704279047876 -2.8293039119030894" fill="#9fff22" stroke="none" /><path d="M 79.0235259727143 100.99374915477108 l -8.590432392213609 0.4069671059957925 a29.600066913144072,29.600066913144072 0 0,0 -0.01973037163075027,-0.5091532218540861 l 8.596164896695559 -0.25903663712770963" fill="#ff6409" stroke="none" /><path d="M 79.0095281055655 100.63252640178507 l -9.916364474858664 0.2988195011344542 a30.920865763253587,30.920865763253587 0 0,0 -0.011452407411042167,-0.5321483710202942 l 9.920038944954714 -0.12808131432403122" fill="#ff770a" stroke="none" /><line stroke="#e1ed5e" stroke-width="0.3" x1="15.007084014347285" x2="10.007500721073583" y1="101.09737516637583" y2="101.16192664675087" /><path d="M 14.007167355692545 101.11028546245083 a86.0,86.0 0 0,1 10.666146001902534,-42.60595125391555" fill="none" id="id94" stroke="none" /><text fill="#e1ed5e" style="font-size:6.75px; font-family:Arial;" text-anchor="middle"><textPath startOffset="22.20632615414155" xlink:href="#id94">October</textPath></text><path d="M 79.00175016825051 100.2711162175752 l -4.29021211501303 0.055392525116972624 a25.290569696863507,25.290569696863507 0 0,0 -0.001873552753686834,-0.43534767791645257 l 4.290529965056219 0.018464631003155346" fill="#ff2803" stroke="none" /><path d="M 79.00019446554 99.90962569577889 l -7.526844577177705 -0.032392363849594055 a28.526914278389597,28.526914278389597 0 0,0 0.0063397574233706126,-0.49102119909785025 l 7.525171812636619 0.16194982100791624" fill="#ff5607" stroke="none" /><path d="M 79.00486145842228 99.54816195383935 l -4.791897609063087 -0.10312680951321995 a25.793007180735795,25.793007180735795 0 0,0 0.013373435385313917,-0.44379921343244405 l 4.789412479222127 0.18559617037065843" fill="#ff2f04" stroke="none" /><path d="M 79.01574976396665 99.18683210126434 l -7.667471370532038 -0.29712482041816857 a28.67322620394036,28.67322620394036 0 0,0 0.02335692574543389,-0.4930277866442363 l 7.661220836553105 0.42906371368541396" fill="#ff5808" stroke="none" /><path d="M 79.03285615573316 98.82574320788736 l -6.457756599620311 -0.361664163952778 a27.46787610173752,27.46787610173752 0 0,0 0.030501649383643914,-0.47184701561538706 l 6.450574359232254 0.4727702438211768" fill="#ff4706" stroke="none" /><path d="M 79.05617556472873 98.46500227214037 l -5.844813979156668 -0.42837334726022797 a26.860490950047456,26.860490950047456 0 0,0 0.037765231436279925,-0.46083147934611984 l 5.836574263900891 0.5289187438141262" fill="#ff3e05" stroke="none" /><path d="M 79.08570108090925 98.10471618934814 l -5.97523662518087 -0.5414845261765852 a26.999721511786323,26.999721511786323 0 0,0 0.045928936103827124,-0.46249811866454815 l 5.965030563394815 0.6442581755455636" fill="#ff4006" stroke="none" /><path d="M 79.12142395522702 97.74499172005258 l -14.500729898274939 -1.5661636078901804 a35.58506208520911,35.58506208520911 0 0,0 0.07101701858745171,-0.6084304458948991 l 14.471622526683898 1.8155377921099414" fill="#ffb510" stroke="none" /><path d="M 79.16333360222342 97.38593545837743 l -9.60862988270287 -1.2054509195688212 a30.68394961481419,30.68394961481419 0 0,0 0.07025747915181446,-0.5234998257142897 l 9.586456404493221 1.3706690873477703" fill="#ff730a" stroke="none" /><path d="M 79.21141760316559 97.0276538004421 l -13.057644732463215 -1.8669787075825042 a34.190439547406704,34.190439547406704 0 0,0 0.08831570696031547,-0.5818901639022702 l 13.023573132063596 2.0914679838768664" fill="#ffa20f" stroke="none" /><path d="M 79.54389044137918 95.25157060432595 l -12.9533210217728 -3.006824447000834 a34.29772607434004,34.29772607434004 0 0,0 0.13844391413064017,-0.5739394030011272 l 12.899644307381344 3.229349081661358" fill="#ffa40f" stroke="none" /><path d="M 79.62865764111835 94.90015583598534 l -9.729999126801593 -2.4358472990393008 a31.03026595219672,31.03026595219672 0 0,0 0.1341743795952082,-0.5170286177544297 l 9.686628415336077 2.602972342342594" fill="#ff780b" stroke="none" /><path d="M 79.71946130924805 94.55025226153421 l -60.84161607225587 -16.349243215397365 a84.0,84.0 0 0,0 0.38725291773455695,-1.3931547863242297 l 60.551176383954946 17.394109305140535" fill="#4dd2ff" stroke="none" /><path d="M 80.02781315780177 93.51064311812611 l -12.45886609515981 -4.048130987045778 a34.10002705590347,34.10002705590347 0 0,0 0.18619054212788916,-0.5566860221828689 l 12.387338259260147 4.261990112150969" fill="#ffa10e" stroke="none" /><path d="M 80.38941819471856 92.48833698450439 l -34.76322538161995 -13.315751515751908 a58.22621492124272,58.22621492124272 0 0,0 0.36656577040777183,-0.9328699024478696 l 34.52886606133048 13.91217042309554" fill="#44ff2d" stroke="none" /><path d="M 80.52162464483688 92.15188598940014 l -14.766946831093001 -5.949812559093357 a36.920520977677604,36.920520977677604 0 0,0 0.2425824382753634,-0.5874326157501935 l 14.662342705931438 6.203119745296862" fill="#ffc612" stroke="none" /><path d="M 80.95270993114464 91.15688171328213 l -12.171494937428859 -5.650880995080019 a34.4193049384986,34.4193049384986 0 0,0 0.25411577163696875,-0.5352326226689526 l 12.072420971950137 5.859556033389504" fill="#ffa50f" stroke="none" /><path d="M 81.10775173730289 90.83032412892265 l -9.533483241676732 -4.627239174129038 a31.59710550546353,31.59710550546353 0 0,0 0.24170279138606246,-0.48725807853004943 l 9.452420437337258 4.790656841158048" fill="#ff800b" stroke="none" /><path d="M 81.43458229118936 90.18545643968196 l -24.852658134193447 -13.138271364181458 a49.11171981174333,49.11171981174333 0 0,0 0.40152783452990704,-0.7439700958744241 l 24.622822200445068 13.564122443388355" fill="#a5ff21" stroke="none" /><path d="M 81.6062741919709 89.86733742301443 l -25.454613726702906 -14.022336453857482 a50.06137091743665,50.06137091743665 0 0,0 0.42228520592615437,-0.7511982614931185 l 25.20947087948432 14.458418225285385" fill="#9bff22" stroke="none" /><line stroke="#e1ed5e" stroke-width="0.3" x1="26.266209847984243" x2="21.928928074336255" y1="57.711370442889674" y2="55.22380399835377" /><path d="M 25.398753493254645 57.213857153982495 a86.0,86.0 0 0,1 29.58750427330803,-30.492523968695096" fill="none" id="id95" stroke="none" /><text fill="#e1ed5e" style="font-size:6.75px; font-family:Arial;" text-anchor="middle"><textPath startOffset="21.46611528233685" xlink:href="#id95">November</textPath></text><path d="M 82.34701348167596 88.62581576622439 l -9.035781872175884 -5.8219410978225605 a31.748969819850537,31.748969819850537 0 0,0 0.29995725886562813,-0.45685548413700267 l 8.934227977952336 5.97661464593723" fill="#ff820c" stroke="none" /><path d="M 82.7489923806493 88.02491185347247 l -27.41118403651868 -19.027952006107455 a54.36818796144953,54.36818796144953 0 0,0 0.5402835576992966,-0.7641927767238242 l 27.079587859015508 19.496971283163067" fill="#6cff28" stroke="none" /><path d="M 82.95767976084542 87.72973835380427 l -10.731232558658567 -7.726355885414763 a34.22331000529357,34.22331000529357 0 0,0 0.3483238510317847,-0.47511334135314137 l 10.59664609511315 7.909931670439405" fill="#ffa30f" stroke="none" /><path d="M 84.07557802195018 86.31012108654704 l -12.180229447801846 -10.47107810307485 a37.06242404003184,37.06242404003184 0 0,0 0.4200551655740814,-0.48019566812870157 l 11.99818241864992 10.679189327406496" fill="#ffc812" stroke="none" /><path d="M 84.31358615837235 86.03803664274999 l -10.866460022276591 -9.67188027714979 a35.54734413943846,35.54734413943846 0 0,0 0.41075186260212887,-0.4535624658158294 l 10.698364519058417 9.857495530235173" fill="#ffb410" stroke="none" /><path d="M 84.5562425177563 85.77008943001954 l -9.961250472909354 -9.178317100462671 a34.54503657361922,34.54503657361922 0 0,0 0.4066981859392583,-0.4338372685490325 l 9.80178496499964 9.348423785889754" fill="#ffa70f" stroke="none" /><path d="M 85.05521093208273 85.24692304244772 l -9.74421087200182 -9.619211902687276 a34.692292837462944,34.692292837462944 0 0,0 0.423186830241426,-0.4213695315040376 l 9.577188241593081 9.785517284841424" fill="#ffa90f" stroke="none" /><path d="M 85.31137513191541 84.99185889309783 l -7.070395063858197 -7.224194759748519 a31.108386433343767,31.108386433343767 0 0,0 0.38591694905075624,-0.37125179922522555 l 6.944994871195014 7.344829645736058" fill="#ff790b" stroke="none" /><path d="M 85.57189188830299 84.74124197986013 l -7.004324609273336 -7.4075750943927305 a31.194740409208052,31.194740409208052 0 0,0 0.39333911082972933,-0.3655658358713322 l 6.875777614648751 7.52704551633871" fill="#ff7a0b" stroke="none" /><path d="M 86.10567301691215 84.25364557470407 l -24.61991482737862 -27.901596476344523 a58.21074162168954,58.21074162168954 0 0,0 0.7570340248692279,-0.6564924464294342 l 24.135987003862617 28.321253916193637" fill="#44ff2d" stroke="none" /><path d="M 86.37877921826538 84.01681056812374 l -8.779260388080878 -10.301615699719594 a34.53509139187598,34.53509139187598 0 0,0 0.4557685852231778,-0.38169308292158705 l 8.60063426589859 10.451209940034994" fill="#ffa70f" stroke="none" /><path d="M 87.22198572758235 83.33499621200491 l -4.021388220689839 -5.2446685769834565 a27.60894179910072,27.60894179910072 0 0,0 0.37962800643576616,-0.2859279439334666 l 3.9305140604956823 5.313113110422777" fill="#ff4906" stroke="none" /><path d="M 88.09926311788651 82.69761687909137 l -19.651761765195992 -28.5715342193045 a55.677432259625384,55.677432259625384 0 0,0 0.7943189205943648,-0.5363276809485816 l 19.15703815019509 28.905573812551747" fill="#5eff29" stroke="none" /><path d="M 88.39885842347998 82.49532879139004 l -8.099197755527351 -12.220676114405777 a35.660897959413916,35.660897959413916 0 0,0 0.5145918081830593,-0.33470482634464405 l 7.887638921560005 12.358279864909955" fill="#ffb610" stroke="none" /><line stroke="#e1ed5e" stroke-width="0.3" x1="56.762969772571076" x2="54.21961505331055" y1="26.818313649435495" y2="22.513508569990535" /><path d="M 56.25429882871897 25.957352633546506 a86.0,86.0 0 0,1 42.265352541879196,-11.944610805530505" fill="none" id="id96" stroke="none" /><text fill="#e1ed5e" style="font-size:6.75px; font-family:Arial;" text-anchor="middle"><textPath startOffset="22.20632615414155" xlink:href="#id96">December</textPath></text><path d="M 89.63071344664047 81.73862282372117 l -3.0154905145756694 -5.310588088658459 a27.10700654092469,27.10700654092469 0 0,0 0.407735732554505,-0.2269044937204725 l 2.9236306929491187 5.3617079799391165" fill="#ff4206" stroke="none" /><path d="M 89.94658935756843 81.56283822128135 l -5.04895210190668 -9.259379729597933 a31.546470039981955,31.546470039981955 0 0,0 0.47898801127593604,-0.2558588072182921 l 4.88881904410244 9.344917263317974" fill="#ff7f0b" stroke="none" /><path d="M 90.26544431104013 81.39251694778311 l -6.22363305336799 -11.896397767296095 a34.42601535157405,34.42601535157405 0 0,0 0.5274385425465319,-0.2701745073164689 l 6.017934023232695 12.00176479992507" fill="#ffa60f" stroke="none" /><path d="M 90.58718382345135 81.22770947309562 l -14.113791906172938 -28.14760185788496 a52.487880403748385,52.487880403748385 0 0,0 0.8111345392731788,-0.39802019570272024 l 13.627186099889334 28.38637721372251" fill="#80ff25" stroke="none" /><path d="M 90.91171255644093 81.06846463323043 l -4.213351662162328 -8.776704797271087 a30.735649918083915,30.735649918083915 0 0,0 0.4789225877649744,-0.22486057660645103 l 4.0616508630977455 8.847930356517544" fill="#ff740a" stroke="none" /><path d="M 92.57280143429618 80.3572730644239 l -5.163541703729215 -13.656029094894826 a35.599633336723386,35.599633336723386 0 0,0 0.5750488011348862,-0.21179532649444419 l 4.9277105768217595 13.742887689195593" fill="#ffb510" stroke="none" /><path d="M 92.91201910852362 80.23233633223022 l -11.2537431653484 -31.38555440571074 a54.34216190629298,54.34216190629298 0 0,0 0.8832360855583047,-0.30814372745614327 l 10.71182507572681 31.574618986339093" fill="#6cff28" stroke="none" /><path d="M 94.63758080256005 79.69619591428918 l -4.187738059087338 -15.856092182158493 a37.39978077111509,37.39978077111509 0 0,0 0.6238481318691093,-0.159032779371521 l 3.9141810385332296 15.925827957698877" fill="#ffcc13" stroke="none" /><path d="M 94.98787191387505 79.60689891045804 l -7.959018664782055 -32.383265035419015 a54.34699135545126,54.34699135545126 0 0,0 0.9103802020809372,-0.21545758062790785 l 7.400414775738583 32.515468528187796" fill="#6cff28" stroke="none" /><path d="M 95.33964822691252 79.52364482259891 l -2.2555424756252234 -9.910258087238521 a31.16369456521722,31.16369456521722 0 0,0 0.5240802608554208,-0.11454364618561526 l 2.0846194906162814 9.947615231520004" fill="#ff7a0b" stroke="none" /><path d="M 95.692805502759 79.44645832069477 l -6.288607428614394 -30.008664566136527 a51.66050443867684,51.66050443867684 0 0,0 0.8719151465209127,-0.17489797584026773 l 5.771125872626344 30.112466498054008" fill="#89ff24" stroke="none" /><path d="M 96.04723909329186 79.375362276772 l -2.7338655981217928 -14.26470987647352 a35.5243233566509,35.5243233566509 0 0,0 0.6015534621496906,-0.10993005017489325 l 2.487917014869209 14.309655407999148" fill="#ffb410" stroke="none" /><path d="M 96.40284397218896 79.31037775812273 l -2.5436816579767627 -14.630394734130206 a35.84987429083466,35.84987429083466 0 0,0 0.6088858630063406,-0.10047138453143854 l 2.291466588831536 14.672012381601272" fill="#ffb811" stroke="none" /><path d="M 96.75951476605007 79.25152402106235 l -2.5147327779800848 -16.101561608959116 a37.29675327148796,37.29675327148796 0 0,0 0.6351655190087317,-0.09360688668070674 l 2.237198278542704 16.14246297980079" fill="#ffcb12" stroke="none" /><path d="M 97.11714578562143 79.19881850522333 l -1.8324994751035328 -13.22236621629803 a34.348746109060365,34.348746109060365 0 0,0 0.5863580749676747,-0.0761261067202383 l 1.6046266716280004 13.251950646182404" fill="#ffa50f" stroke="none" /><path d="M 97.47563105711357 79.15227682838746 l -1.192463686733347 -9.848066346748665 a30.91999901280949,30.91999901280949 0 0,0 0.5289282463260866,-0.05943125137343291 l 1.0227687368975424 9.867133551592696" fill="#ff770a" stroke="none" /><path d="M 97.83486435360386 79.11191278185805 l -3.4238078637524074 -33.0310931766607 a54.208064935089695,54.208064935089695 0 0,0 0.9289581180571248,-0.08821576676392501 l 2.8547246186050463 33.085134487939804" fill="#6eff28" stroke="none" /><path d="M 98.91598698831166 79.02799685794201 l -0.6983902355331622 -13.511500375048193 a34.52953773438012,34.52953773438012 0 0,0 0.5938409098157214,-0.02557203875420459 l 0.4657084933281167 13.52152014032659" fill="#ffa70f" stroke="none" /></svg>