<?xml version="1.0" encoding="utf-8" ?>
<svg baseProfile="full" height="200mm" version="1.1" viewBox="0,0,200,200" width="200mm" xmlns="http://www.w3.org/2000/svg" xmlns:ev="http://www.w3.org/2001/xml-events" xmlns:xlink="http://www.w3.org/1999/xlink"><defs /><rect fill="#1a1a1a" height="200" width="200" x="0" y="0" /><text alignment-baseline="middle" fill="#e1ed5e" style="dominant-baseline: central; font-size:9.0px; font-family:Arial;" text-anchor="middle" x="100.0" y="100.0">2025</text><line stroke="#e1ed5e" stroke-width="0.3" x1="100.0" x2="100.0" y1="15.0" y2="10.0" /><path d="M 100.0 14.0 a86.0,86.0 0 0,1 42.46469731375804,11.215312516191453" fill="none" id="id133" stroke="none" /><text fill="#e1ed5e" style="font-size:6.75px; font-family:Arial;" text-anchor="middle"><textPath startOffset="22.20632615414155" xlink:href="#id133">January</textPath></text><path d="M 100.0 79.0 l 0.0 -16.514944509562376 a37.514944509562376,37.514944509562376 0 0,0 0.6457581010094722,0.005558243848496969 l -0.28427762173694376 16.512497642322437" fill="#ffce13" stroke="none" /><path d="M 100.36148047927253 79.00311137660856 l 0.4569488171677653 -26.542244936630485 a47.54617803936374,47.54617803936374 0 0,0 0.8181867781766075,0.021131350594178908 l -0.9137622305392407 26.530446793893947" fill="#b6ff1f" stroke="none" /><path d="M 101.08401301168833 79.027996857942 l 2.844771557648691 -55.03675454275721 a76.11022659919766,76.11022659919766 0 0,0 1.307783725162255,0.0788890857042262 l -3.791717331650558 54.97963218767268" fill="#43ffe0" stroke="none" /><path d="M 101.80526077348638 79.07773832637324 l 1.6958031206121191 -19.653690567861535 a40.726715417451715,40.726715417451715 0 0,0 0.6979295968993918,0.0662768249084147 l -2.033857844601755 19.62158819843794" fill="#fff717" stroke="none" /><path d="M 102.16513564639614 79.11191278185805 l 2.4422476327032467 -23.56151756363104 a44.687753869895275,44.687753869895275 0 0,0 0.7644442445442148,0.08589421792851386 l -2.847458580757187 23.515987392231924" fill="#d8ff1c" stroke="none" /><path d="M 102.52436894288641 79.15227682838746 l 2.2053913022885054 -18.21341824250995 a39.34645346852639,39.34645346852639 0 0,0 0.6716725739960993,0.08720237723664229 l -2.5185786047924505 18.17275754210917" fill="#ffe615" stroke="none" /><path d="M 102.88285421437855 79.19881850522331 l 3.6823469613957687 -26.569906687856705 a47.82386289380247,47.82386289380247 0 0,0 0.8144427069786073,0.12002768396347406 l -4.139158648803032 26.50258451973226" fill="#b3ff20" stroke="none" /><path d="M 103.2404852339499 79.25152402106235 l 2.8194706531640352 -18.052765217876622 a39.271610404554636,39.271610404554636 0 0,0 0.6670017361522529,0.11006100155653137 l -3.1298015954551635 18.001557953380466" fill="#ffe515" stroke="none" /><path d="M 103.59715602781102 79.31037775812273 l 6.368692813533382 -36.630562440947955 a58.1800800549614,58.1800800549614 0 0,0 0.9851962058175276,0.18003830939748403 l -6.998284140453811 36.51550865019973" fill="#44ff2d" stroke="none" /><path d="M 104.307194497241 79.44645832069477 l 3.69015441595484 -17.609082348146437 a38.99158194149123,38.99158194149123 0 0,0 0.6557219456857876,0.14331541970342537 l -3.992719085794156 17.542953430347143" fill="#ffe115" stroke="none" /><path d="M 104.66035177308747 79.52364482259891 l 6.426371369955112 -28.235778988397097 a49.957856689786034,49.957856689786034 0 0,0 0.8368566968375029,0.19805694238596855 l -6.911451753755139 28.12097613387026" fill="#9bff22" stroke="none" /><path d="M 105.01212808612495 79.60689891045804 l 4.3882446421104655 -17.854674711912104 a39.38603002573434,39.38603002573434 0 0,0 0.6569798203809264,0.16747878448100406 l -4.694933351176417 17.776492931262233" fill="#ffe615" stroke="none" /><path d="M 105.36241919743992 79.69619591428918 l 6.792713539482194 -25.719347898397285 a47.60123706800602,47.60123706800602 0 0,0 0.7904119924369637,0.21604945551901478 l -7.234423421142869 25.598611902051974" fill="#b6ff1f" stroke="none" /><path d="M 106.0581310904928 79.89281104454417 l 14.930031186695784 -49.55339422298984 a72.7536927209523,72.7536927209523 0 0,0 1.1959828055515467,0.3715976794308518 l -15.78079936495805 49.289056408676466" fill="#3fffbd" stroke="none" /><path d="M 107.08798089147638 80.2323363322302 l 4.546686524909924 -12.680250046283565 a34.47074977839288,34.47074977839288 0 0,0 0.55681369374771,0.20507918255134586 l -4.76428254443021 12.600107595925893" fill="#ffa70f" stroke="none" /><path d="M 107.4271985657038 80.35727306442388 l 5.357535900497719 -14.169085935977039 a36.14814137728534,36.14814137728534 0 0,0 0.5801205808627278,0.22507777266076553 l -5.600639646360115 14.074765459425727" fill="#ffbd11" stroke="none" /><path d="M 107.76421540070413 80.48803036053334 l 8.702327269998264 -21.869504737015642 a44.53732647002427,44.53732647002427 0 0,0 0.7098743607107241,0.28957557561760616 l -9.077485500297376 21.716468275214456" fill="#d9ff1c" stroke="none" /><path d="M 108.09893153111575 80.62456947434976 l 4.843117664691596 -11.58640364834075 a33.557887490192435,33.557887490192435 0 0,0 0.5310395746302924,0.22736343203219697 l -5.041840997112204 11.501320688345764" fill="#ff9b0e" stroke="none" /><path d="M 108.43124777332544 80.76684994638697 l 21.481173727387407 -49.0023124375122 a74.5039012496263,74.5039012496263 0 0,0 1.1701294702910452,0.5250029848642235 l -22.321485316145232 48.62528912213145" fill="#41ffd0" stroke="none" /><path d="M 108.76106565485865 80.91482961587045 l 4.954318292481186 -10.792523703640565 a32.87534579020153,32.87534579020153 0 0,0 0.5122633073149512,0.24051449148540563 l -5.139359811095735 10.705644229515157" fill="#ff920d" stroke="none" /><path d="M 109.08828744355905 81.06846463323043 l 5.726310583899378 -11.928303546013776 a34.2315931916426,34.2315931916426 0 0,0 0.5290064555570525,0.2595811702920334 l -5.930788306466862 11.827967215586911" fill="#ffa40f" stroke="none" /><path d="M 109.41281617654863 81.2277094730956 l 6.82151059467751 -13.604364125869541 a36.21879528946177,36.21879528946177 0 0,0 0.554905596978767,0.2842441994228426 l -7.054676679245032 13.484927401134199" fill="#ffbe11" stroke="none" /><path d="M 110.05341064243156 81.56283822128135 l 11.310782479034378 -20.7430825047265 a44.6264528037097,44.6264528037097 0 0,0 0.6712581633740778,0.3735544411618811 l -11.66616473148049 20.545312666004442" fill="#d8ff1c" stroke="none" /><path d="M 110.36928655335952 81.73862282372117 l 9.04813317320634 -15.934690565918316 a39.32438477416481,39.32438477416481 0 0,0 0.5857521929118784,0.3393054778225095 l -9.321082098583547 15.776580930705757" fill="#ffe515" stroke="none" /><line stroke="#e1ed5e" stroke-width="0.3" x1="143.23703022742887" x2="145.7803849466894" y1="26.81831364943548" y2="22.513508569990506" /><path d="M 143.74570117128098 25.957352633546492 a86.0,86.0 0 0,1 28.547481713284135,27.462654790039103" fill="none" id="id134" stroke="none" /><text fill="#e1ed5e" style="font-size:6.75px; font-family:Arial;" text-anchor="middle"><textPath startOffset="19.985693538727396" xlink:href="#id134">February</textPath></text><path d="M 110.68208982089419 81.91981866633111 l 11.04431156282441 -18.69326687094697 a42.71209442235319,42.71209442235319 0 0,0 0.6297754602121243,0.379432668172085 l -11.36444908925417 18.50038759331627" fill="#efff19" stroke="none" /><path d="M 110.99172775467656 82.1063720568725 l 19.533179499378583 -31.79840824928535 a58.31867988746604,58.31867988746604 0 0,0 0.8508441226882137,0.5327985115707696 l -20.07764277443906 31.457465396391637" fill="#43ff2d" stroke="none" /><path d="M 111.2981086023043 82.29822771554956 l 6.42426554234328 -10.065479960265954 a32.94089923703633,32.94089923703633 0 0,0 0.47534184138759306,0.3091755561320211 l -6.596574409515153 9.953405479974405" fill="#ff930d" stroke="none" /><path d="M 111.60114157652 82.49532879139004 l 13.653325867028478 -20.60116055216998 a45.714795635965785,45.714795635965785 0 0,0 0.6521875318428408,0.4403599328026962 l -14.00591809327786 20.363088707068613" fill="#cbff1d" stroke="none" /><path d="M 111.90073688211348 82.69761687909136 l 10.255093519179328 -14.909795819137257 a39.09610329478357,39.09610329478357 0 0,0 0.5511970832955447,0.386148781533569 l -10.510221742058524 14.731062194839751" fill="#ffe215" stroke="none" /><path d="M 112.48926042617603 83.11751280151076 l 10.89021959771753 -14.720967188887059 a39.31130136999553,39.31130136999553 0 0,0 0.5405375938737885,0.4071217091861945 l -11.142003345349702 14.531328890195017" fill="#ffe515" stroke="none" /><path d="M 112.77801427241765 83.33499621200491 l 10.625411342071779 -13.857592931857749 a38.46230935624786,38.46230935624786 0 0,0 0.521928858091309,0.40737375243863366 l -10.862372755322518 13.672640790195892" fill="#ffda14" stroke="none" /><path d="M 113.06298171725822 83.55741782278167 l 11.072451297610797 -13.937069981785564 a38.8000308262416,38.8000308262416 0 0,0 0.5193598476594997,0.4199528777508824 l -11.310714543834788 13.744411006770552" fill="#ffdf14" stroke="none" /><path d="M 113.34407831869373 83.78471172551755 l 11.642008466624821 -14.146988564644959 a39.32139859795532,39.32139859795532 0 0,0 0.5189347265547452,0.4345929097257964 l -11.883800730138685 13.944494497525342" fill="#ffe515" stroke="none" /><path d="M 113.6212207817346 84.01681056812373 l 14.156207045227768 -16.610944236667997 a42.82479476057106,42.82479476057106 0 0,0 0.556938905751977,0.48297193090100354 l -14.440039749626509 16.36480731234732" fill="#eeff19" stroke="none" /><path d="M 113.89432698308785 84.25364557470407 l 11.996167791845773 -13.595182409745153 a39.131106597347056,39.131106597347056 0 0,0 0.5012303675188773,0.45000957291493326 l -12.22840914696064 13.386673828060923" fill="#ffe315" stroke="none" /><path d="M 114.16331599549186 84.49514656593476 l 14.63838168989123 -16.024916953481117 a42.70438162825445,42.70438162825445 0 0,0 0.5384658848846648,0.5004453558681808 l -14.912055458570741 15.770567011538297" fill="#efff19" stroke="none" /><path d="M 114.42810811169701 84.74124197986012 l 8.184278925067932 -8.655461320372218 a32.91215480892398,32.91215480892398 0 0,0 0.40829370554984884,0.39277822124827566 l -8.3320558742302 8.513300012361642" fill="#ff920d" stroke="none" /><path d="M 114.68862486808459 84.99185889309783 l 13.26664889339896 -13.555233413338787 a39.967032602671935,39.967032602671935 0 0,0 0.4875296631595233,0.4854360558494995 l -13.498014356725806 13.324861506839168" fill="#ffed16" stroke="none" /><path d="M 114.94478906791727 85.2469230424477 l 26.33070360175498 -25.992932708372244 a57.99916894938912,57.99916894938912 0 0,0 0.6952601666705831,0.7165267168480761 l -26.774228032128672 25.535841795974054" fill="#46ff2c" stroke="none" /><path d="M 115.4437574822437 85.77008943001954 l 16.61192981380463 -15.306267008985015 a43.58844885974055,43.58844885974055 0 0,0 0.5036673481666074,0.5561620656767279 l -16.872940802587273 15.018052156038738" fill="#e5ff1a" stroke="none" /><path d="M 115.68641384162765 86.03803664274999 l 13.50939061025807 -12.024266258911169 a39.08553603644964,39.08553603644964 0 0,0 0.4429845520522017,0.5064079206184305 l -13.71436702588812 11.789942782089792" fill="#ffe215" stroke="none" /><path d="M 115.9244219780498 86.31012108654704 l 24.10372637089692 -20.72144884350726 a52.78628740726353,52.78628740726353 0 0,0 0.5864038383587247,0.6941171833248388 l -24.456840822742762 20.303472710553315" fill="#7cff26" stroke="none" /><path d="M 116.38621287248628 86.86637796730983 l 32.80715002503044 -26.295075729303313 a63.04450142854177,63.04450142854177 0 0,0 0.6714116897848272,0.8526246631021144 l -33.254915795409225 25.72645867224816" fill="#33ff50" stroke="none" /><path d="M 116.82858285166822 87.43820079747576 l 16.977403063441503 -12.672886965174914 a42.18570930629072,42.18570930629072 0 0,0 0.4293649188755322,0.5856532668162249 l -17.19303059483066 12.378771254687194" fill="#f5ff19" stroke="none" /><path d="M 117.04232023915458 87.72973835380427 l 19.708846098389067 -14.190127575248198 a45.285764042578634,45.285764042578634 0 0,0 0.4500270218202503,0.636531307504599 l -19.9501857400132 13.848769767411806" fill="#d1ff1d" stroke="none" /><path d="M 117.2510076193507 88.02491185347247 l 13.31868501293203 -9.245397749798181 a37.21310426863633,37.21310426863633 0 0,0 0.36074655169584663,0.5293510508272152 l -13.47585603029661 9.014768675700559" fill="#ffcb12" stroke="none" /><path d="M 117.45458315368197 88.32363383020206 l 6.1833637905979275 -4.136404699235746 a28.43934349272415,28.43934349272415 0 0,0 0.2686886398651512,0.4092312321826344 l -6.253649065821003 4.029355403075438" fill="#ff5507" stroke="none" /><path d="M 117.65298651832404 88.62581576622439 l 8.26835514235231 -5.327472187314045 a30.836038667404097,30.836038667404097 0 0,0 0.28365103388738605,0.44866781666671507 l -8.35883377248565 5.184356722933124" fill="#ff760a" stroke="none" /><line stroke="#e1ed5e" stroke-width="0.3" x1="172.23445277983987" x2="176.4835382374775" y1="55.19839476539836" y2="52.563006222186495" /><path d="M 173.08426987136738 54.67131705675599 a86.0,86.0 0 0,1 12.851231095245387,41.99856678651699" fill="none" id="id135" stroke="none" /><text fill="#e1ed5e" style="font-size:6.75px; font-family:Arial;" text-anchor="middle"><textPath startOffset="22.20632615414155" xlink:href="#id135">March</textPath></text><path d="M 117.84615892207809 88.93136811851018 l 17.320683589908267 -10.742719003542968 a41.38166066862072,41.38166066862072 0 0,0 0.3702362038244842,0.6085709720323367 l -17.503035592018975 10.442980258303551" fill="#ffff18" stroke="none" /><path d="M 118.21658344932153 89.55222093294921 l 16.036263697433434 -9.19729765122294 a39.48653665397639,39.48653665397639 0 0,0 0.3330827733370561,0.5925170873920069 l -16.192204112062925 8.919897053896138" fill="#ffe715" stroke="none" /><path d="M 118.3937258080291 89.86733742301442 l 20.873684101096135 -11.498812146186868 a44.83135264154446,44.83135264154446 0 0,0 0.3665323880778127,0.6791288484859002 l -21.068524588392414 11.137802314368509" fill="#d6ff1c" stroke="none" /><path d="M 118.56541770881063 90.18545643968196 l 16.481475068357124 -8.712874524763366 a39.64277884096542,39.64277884096542 0 0,0 0.31372647079467564,0.6060196844452539 l -16.629010972311917 8.427882118057768" fill="#ffe915" stroke="none" /><path d="M 118.73160827565052 90.50648371742162 l 9.13497775174675 -4.629771173462538 a31.241220612970544,31.241220612970544 0 0,0 0.23898044164701465,0.4817699875761653 l -9.213318206347171 4.4718415973874235" fill="#ff7c0b" stroke="none" /><path d="M 119.04729006885535 91.15688171328212 l 28.24354020155298 -13.112677233093358 a52.13904088657877,52.13904088657877 0 0,0 0.3709262811527708,0.8172868923783597 l -28.4650687996691 12.624568331872934" fill="#83ff25" stroke="none" /><path d="M 119.196687751892 91.48605970444005 l 10.257397648567855 -4.549267680780838 a32.220964439487474,32.220964439487474 0 0,0 0.22049771084680814,0.5089391174677451 l -10.334186069257344 4.372029418726491" fill="#ff890c" stroke="none" /><path d="M 119.61058180528143 92.48833698450437 l 19.65825330422671 -7.5299231690737445 a42.05104904524461,42.05104904524461 0 0,0 0.25309807847676336,0.6781770178699569 l -19.7849559712051 7.1904230141744545" fill="#f7ff18" stroke="none" /><path d="M 119.85752413597 93.16781622104841 l 15.862394967456654 -5.457618827498743 a37.77501646407129,37.77501646407129 0 0,0 0.20625645788506455,0.6166805562588601 l -15.953988719113488 5.18376516831757" fill="#ffd213" stroke="none" /><path d="M 119.97218684219823 93.5106431181261 l 35.2593782027935 -11.456466455012825 a58.07390423036753,58.07390423036753 0 0,0 0.30072469624870674,0.9533794675422514 l -35.45135838281041 10.847836821044153" fill="#45ff2d" stroke="none" /><path d="M 120.18372546131832 94.20196356495316 l 16.421602714557284 -4.717317972013696 a38.0857286810905,38.0857286810905 0 0,0 0.17558106614046,0.6316585143179262 l -16.500370551264105 4.433948154276818" fill="#ffd614" stroke="none" /><path d="M 120.28053869075195 94.5502522615342 l 29.29306273390311 -7.871576037554757 a51.33224742163675,51.33224742163675 0 0,0 0.22195982662980068,0.8553017551162622 l -29.42421889240321 7.366177856889644" fill="#8cff24" stroke="none" /><path d="M 120.37134235888165 94.90015583598534 l 12.304255956361338 -3.0802971559816585 a33.68396409679569,33.68396409679569 0 0,0 0.1359664434571651,0.5636686876127781 l -12.355455200079323 2.8680432367094744" fill="#ff9d0e" stroke="none" /><path d="M 120.45610955862082 95.25157060432595 l 17.437515986894216 -4.047730252051273 a38.901147560605224,38.901147560605224 0 0,0 0.14579707928960117,0.6535797185209378 l -17.50460745318585 3.746972363980371" fill="#ffe015" stroke="none" /><path d="M 120.6074358757038 95.95851677861258 l 12.920121711565526 -2.533864738462625 a34.16624530967319,34.16624530967319 0 0,0 0.10821633683290845,0.5780959985389892 l -12.961823772308295 2.311090662461073" fill="#ffa30f" stroke="none" /><path d="M 120.67395015179393 96.31383870115 l 62.02185045538181 -11.058483896549978 a84.0,84.0 0 0,0 0.2415525539191079,1.4256568467366484 l -62.20301487082114 9.98924126149749" fill="#4dd2ff" stroke="none" /><path d="M 120.73433829027371 96.67025291283417 l 11.701931757022884 -1.8792243396760893 a32.85186445099891,32.85186445099891 0 0,0 0.08485809695226956,0.5591088340172388 l -11.732545747414452 1.6775163932667683" fill="#ff920d" stroke="none" /><path d="M 120.78858239683441 97.02765380044208 l 17.64823323060523 -2.5233398781385383 a38.82771382714124,38.82771382714124 0 0,0 0.08890437277363457,0.6624408420869962 l -17.6890536024367 2.219180693986878" fill="#ffdf14" stroke="none" /><path d="M 120.87857604477298 97.74499172005257 l 16.262745360805386 -1.7564715795105141 a37.35732493655443,37.35732493655443 0 0,0 0.06354814397888944,0.6399211374811438 l -16.290570630466505 1.4762749113249354" fill="#ffcc13" stroke="none" /><path d="M 120.94382443527127 98.46500227214037 l 30.33419689052855 -2.22322926012462 a51.415559329665896,51.415559329665896 0 0,0 0.057094307464058046,0.8832236659303456 l -30.36797178899702 1.7007465299412392" fill="#8bff24" stroke="none" /><path d="M 120.98425023603335 99.18683210126433 l 13.16345219018618 -0.5101014635834098 a34.17333204115296,34.17333204115296 0 0,0 0.017718556225369903,0.587992620401255 l -13.170282440867194 0.2834386957571557" fill="#ffa30f" stroke="none" /><line stroke="#e1ed5e" stroke-width="0.3" x1="184.98032266829074" x2="189.97916517819016" y1="98.17113171792111" y2="98.06355123074" /><path d="M 185.9800911702706 98.14961562048488 a86.0,86.0 0 0,1 -9.607161424134198,41.387399972396054" fill="none" id="id136" stroke="none" /><text fill="#e1ed5e" style="font-size:6.75px; font-family:Arial;" text-anchor="middle"><textPath startOffset="21.466115282336823" xlink:href="#id136">April</textPath></text><path d="M 120.99513854157772 99.54816195383933 l 19.807659331994905 -0.4262822116587061 a40.81224582767793,40.81224582767793 0 0,0 0.009070021942276955,0.7024831949442253 l -19.812062361054895 0.08526275865401808" fill="#fff817" stroke="none" /><path d="M 120.99980553446 99.90962569577887 l 15.07760064984763 -0.06488763268869374 a36.07774027370022,36.07774027370022 0 0,0 -0.002672678015828654,0.6210362455605635 l -15.076483674542299 -0.1946580910755544" fill="#ffbc11" stroke="none" /><path d="M 120.99824983174949 100.27111621757518 l 15.255882382073539 0.19697437454743716 a36.25715393380725,36.25715393380725 0 0,0 -0.01342885097700896,0.6239859372449258 l -15.250231468411522 -0.45955012758247776" fill="#ffbe11" stroke="none" /><path d="M 120.9904718944345 100.63252640178507 l 15.188075302674253 0.4576771151004204 a36.19496955381584,36.19496955381584 0 0,0 -0.024126303584240918,0.6225926926892184 l -15.177946866238809 -0.719047054803645" fill="#ffbd11" stroke="none" /><path d="M 120.9764740272857 100.99374915477107 l 32.14690700228247 1.5229423982537602 a53.182961071998896,53.182961071998896 0 0,0 -0.05119151018436068,0.9140588028531693 l -32.11592914121058 -2.076072917442353" fill="#78ff26" stroke="none" /><path d="M 120.89721153311464 102.0752229133903 l 25.899170118572442 2.5719484718181533 a47.02656204289079,47.02656204289079 0 0,0 -0.08692680508681011,0.8048342555870479 l -25.851061011984584 -3.0173790492899926" fill="#bcff1f" stroke="none" /><path d="M 120.8583938346157 102.4346265915055 l 14.630118105263259 1.7076518383130994 a35.72944094576729,35.72944094576729 0 0,0 -0.07656051990539978,0.6102626722135103 l -14.598556076111011 -1.9592322648140046" fill="#ffb711" stroke="none" /><path d="M 120.81339534386255 102.79330883721812 l 17.581458353703457 2.359559417347241 a38.73908674331915,38.73908674331915 0 0,0 -0.0943867683796249,0.6601408382114503 l -17.538237534307232 -2.661845727539101" fill="#ffde14" stroke="none" /><path d="M 120.76222939487914 103.15116336523771 l 14.722710776022668 2.234522408553855 a35.8913163618514,35.8913163618514 0 0,0 -0.09796320416787174,0.6100169658665181 l -14.682065817493507 -2.4876186041135777" fill="#ffba11" stroke="none" /><path d="M 120.64145759157962 103.86396538481128 l 31.0164905381484 5.806113510444227 a52.55524741464107,52.55524741464107 0 0,0 -0.17410819452938736,0.8877739328996094 l -30.911952410643348 -6.339151170411782" fill="#7fff26" stroke="none" /><path d="M 120.49622156327973 104.57218783832717 l 19.647663248064525 4.382895973143137 a41.13058489514748,41.13058489514748 0 0,0 -0.16009479677498606,0.6896841944365294 l -19.569307885358988 -4.720448824928231" fill="#fffc17" stroke="none" /><path d="M 120.41448212921028 104.9243191809786 l 15.959314837194121 3.8496573006680297 a37.41705184877209,37.41705184877209 0 0,0 -0.1564187526074888,0.6248151626280272 l -15.890684770291571 -4.123800302693453" fill="#ffcd13" stroke="none" /><path d="M 120.32669344350535 105.2749913415812 l 11.052014803678304 2.8681144111541554 a32.4181045491883,32.4181045491883 0 0,0 -0.1448192737672732,0.5389263917802211 l -11.001007453569255 -3.0579317361099245" fill="#ff8c0c" stroke="none" /><path d="M 120.13307415673323 105.97154293290107 l 15.947142284687896 4.729980333293905 a37.63382280179237,37.63382280179237 0 0,0 -0.18955480479418452,0.6194760696349996 l -15.863360707387578 -5.003783375480961" fill="#ffd013" stroke="none" /><path d="M 120.02730092923936 106.31721596034902 l 30.011771887758552 9.466619842462368 a52.46940328453269,52.46940328453269 0 0,0 -0.2791066157826611,0.859001836511001 l -29.844373020959644 -9.981820578951165" fill="#80ff26" stroke="none" /><path d="M 119.9155931802556 106.66101706037122 l 10.870279258909873 3.6356996720731787 a32.462167477061186,32.462167477061186 0 0,0 -0.18180231155994497,0.528402617168869 l -10.806086116406698 -3.822274992331348" fill="#ff8c0c" stroke="none" /><path d="M 119.67450827220406 107.3425965602758 l 19.429876981481865 7.25129929129498 a41.73888764923167,41.73888764923167 0 0,0 -0.2570036636404564,0.6709554674752273 l -19.302179038247903 -7.584678325603351" fill="#fbff18" stroke="none" /><path d="M 119.54520255179757 107.68017299344265 l 16.619895742894975 6.5306907974036355 a38.85695541787544,38.85695541787544 0 0,0 -0.24997490927962013,0.6204172245389166 l -16.50501821935796 -6.815807389785365" fill="#ffdf14" stroke="none" /><path d="M 119.41010516605496 108.01547362559984 l 13.825373990826114 5.709238545565481 a35.95781971934352,35.95781971934352 0 0,0 -0.24117255361587525,0.5700606755272867 l -13.72505045601793 -5.9463737467589315" fill="#ffba11" stroke="none" /><path d="M 119.12269723197855 108.67885076344098 l 28.503681801254864 12.936417784621504 a52.301929354681306,52.301929354681306 0 0,0 -0.37912767790630636,0.8166072894285838 l -28.276779506508724 -13.425145141328919" fill="#82ff25" stroke="none" /><path d="M 118.81262510543309 109.33194174019688 l 16.361382613338726 8.116010842774521 a39.26374750756526,39.26374750756526 0 0,0 -0.3055492308029704,0.6028776198372977 l -16.21925471274949 -8.396442674314514" fill="#ffe515" stroke="none" /><path d="M 118.64920377521936 109.65438752849418 l 15.629908065905836 8.091347562167813 a38.60011169056797,38.60011169056797 0 0,0 -0.3105424786838305,0.5874293386811283 l -15.488313078997113 -8.359191915935076" fill="#ffdc14" stroke="none" /><line stroke="#e1ed5e" stroke-width="0.3" x1="174.80103733775053" x2="179.2010983576182" y1="140.37084112569926" y2="142.7455964860345" /><path d="M 175.68104954172406 140.8457921977663 a86.0,86.0 0 0,1 -30.038265399797805,32.042727171017184" fill="none" id="id137" stroke="none" /><text fill="#e1ed5e" style="font-size:6.75px; font-family:Arial;" text-anchor="middle"><textPath startOffset="22.206326154141568" xlink:href="#id137">May</textPath></text><path d="M 118.48025628344425 109.97397251340804 l 15.066807447014908 8.13170126195516 a38.12113466038706,38.12113466038706 0 0,0 -0.31662977063081993,0.5747750050288486 l -14.924601266932578 -8.389846785381813" fill="#ffd614" stroke="none" /><path d="M 118.30583269289576 110.29060199501025 l 7.705592696121414 4.3316897352731045 a29.83966598696976,29.83966598696976 0 0,0 -0.25555258872553555,0.44557747903477946 l -7.629888111243498 -4.463687060166199" fill="#ff6909" stroke="none" /><path d="M 118.12598468904814 110.60418214915192 l 15.799359422304912 9.243044614026934 a39.30447027073079,39.30447027073079 0 0,0 -0.3466637887947533,0.5810284500838827 l -15.63791475781193 -9.513635157996921" fill="#ffe515" stroke="none" /><path d="M 117.94076556474637 110.91462005526583 l 31.212993192687374 18.98904259443722 a57.53538945597952,57.53538945597952 0 0,0 -0.5220250553256737,0.8416706055811747 l -30.88150349769374 -19.523509531383667" fill="#4bff2c" stroke="none" /><path d="M 117.55443506779139 111.5257021239791 l 11.266646622921266 7.397333631669155 a34.47805145353017,34.47805145353017 0 0,0 -0.3299991082689971,0.4933038919951733 l -11.137644409241549 -7.590174437870135" fill="#ffa70f" stroke="none" /><path d="M 117.35343817320211 111.8261652097733 l 14.846575537791718 10.117767635259654 a38.966358204167676,38.966358204167676 0 0,0 -0.3824995110191608,0.5510190737846719 l -14.670215119610422 -10.371827971231344" fill="#ffe115" stroke="none" /><path d="M 117.14729908036423 112.12312394758627 l 14.966561098804227 10.581344293323687 a39.32928798884708,39.32928798884708 0 0,0 -0.3955781130820948,0.5494234008315333 l -14.782203193346529 -10.837401299606352" fill="#ffe515" stroke="none" /><path d="M 116.71984013943494 112.70617746262583 l 12.435337103099647 9.450186049739315 a36.618694735553746,36.618694735553746 0 0,0 -0.38570503037509973,0.4985757453211429 l -12.270825255506479 -9.662839789173711" fill="#ffc312" stroke="none" /><path d="M 116.498646956653 112.99209946851258 l 4.556590994828933 3.5881538405956475 a26.799773226423376,26.799773226423376 0 0,0 -0.2885213660707724,0.35997476636137365 l -4.494151716703306 -3.666056440535271" fill="#ff3e05" stroke="none" /><path d="M 116.27256486870786 113.27417163493432 l 24.30196997589702 19.824073410050776 a52.36207313422508,52.36207313422508 0 0,0 -0.5757434352647331,0.6935200569747703 l -23.957130540738746 -20.239454724139318" fill="#81ff25" stroke="none" /><path d="M 115.80600337817218 113.82643327865902 l 5.8530422743945945 5.119997544467561 a28.77640525700687,28.77640525700687 0 0,0 -0.3293406829740303,0.37001774863793213 l -5.764042741772226 -5.21998946284636" fill="#ff5a08" stroke="none" /><path d="M 115.56566222782051 114.09645910891815 l 13.59827795495647 12.314771214882452 a39.34575573300682,39.34575573300682 0 0,0 -0.4589468665201398,0.49809618050062143 l -13.38428468044061 -12.547018650184407" fill="#ffe615" stroke="none" /><path d="M 115.32070863581623 114.36230785411682 l 6.319224273462423 5.923919485192906 a29.6617213927351,29.6617213927351 0 0,0 -0.35240024582427737,0.36949024886913845 l -6.2163174762591815 -6.031816850644551" fill="#ff6609" stroke="none" /><path d="M 115.07121518719521 114.62390073753431 l 11.117123201893493 10.787166407759713 a36.49042889641143,36.49042889641143 0 0,0 -0.44128983399943184,0.44702427201545164 l -10.929792742838526 -10.97693117375583" fill="#ffc112" stroke="none" /><path d="M 114.81725581225074 114.88116024355365 l 26.157643742675774 26.270457435628142 a58.07235169295165,58.07235169295165 0 0,0 -0.7144283250249374,0.6992184832670012 l -25.701565465275042 -26.716826021817713" fill="#45ff2d" stroke="none" /><path d="M 114.29624159901734 115.38237550388516 l 11.440059873254683 12.30919997668675 a37.80450457376584,37.80450457376584 0 0,0 -0.48047806204381455,0.43890531765212953 l -11.226482261744005 -12.504298060925462" fill="#ffd213" stroke="none" /><path d="M 114.0293411484842 115.62618273729858 l 10.968694873411316 12.217168908185972 a37.41863220116541,37.41863220116541 0 0,0 -0.4829812572334136,0.4261748042406194 l -10.756771263271315 -12.40416685419888" fill="#ffcd13" stroke="none" /><path d="M 113.75828350139079 115.86535959552629 l 9.893673230982724 11.408885673442182 a36.10123976073284,36.10123976073284 0 0,0 -0.4729855903117611,0.4030885812669252 l -9.695822164093917 -11.577498644932053" fill="#ffbc11" stroke="none" /><path d="M 113.20401910651253 116.32954008644616 l 11.16960816165457 13.813564093956309 a38.76442229465229,38.76442229465229 0 0,0 -0.5224752037924666,0.4150859008214711 l -10.930175465144753 -14.003783908782905" fill="#ffde14" stroke="none" /><path d="M 112.92097659922987 116.55440617244103 l 11.878023609250302 15.218170688823424 a40.30492589926395,40.30492589926395 0 0,0 -0.5505869209855888,0.4221665727810058 l -11.614307959771219 -15.420376603431801" fill="#fff116" stroke="none" /><path d="M 112.63410532772338 116.77436683061366 l 18.734070327575 24.8733218343277 a52.13916392764214,52.13916392764214 0 0,0 -0.7215440317706212,0.5337810250223509 l -18.303141325385816 -25.19211280808982" fill="#83ff25" stroke="none" /><path d="M 112.04921762599082 117.19931262002967 l 10.594545666679767 15.12288255092595 a39.46472243312809,39.46472243312809 0 0,0 -0.5597283750940979,0.3849862802655372 l -10.332660406962786 -15.303009620556582" fill="#ffe715" stroke="none" /><path d="M 111.7513745106137 117.40417183066458 l 7.509817236582692 11.122286119323586 a34.42023112494612,34.42023112494612 0 0,0 -0.4938898339602121,0.32732325095933024 l -7.317252703882517 -11.249907391374235" fill="#ffa60f" stroke="none" /><path d="M 111.45004920935366 117.60387380957326 l 9.043055872025613 13.903242816983967 a37.58544603960331,37.58544603960331 0 0,0 -0.5453794945928693,0.3480869971868648 l -8.802394575385813 -14.056844242994641" fill="#ffcf13" stroke="none" /><path d="M 111.1453310114006 117.79835938074945 l 17.575185701700107 28.066413728070867 a54.11511334729943,54.11511334729943 0 0,0 -0.7937419289994747,0.48758112210469634 l -17.089464572768325 -28.36478331700394" fill="#6eff28" stroke="none" /><line stroke="#e1ed5e" stroke-width="0.3" x1="143.8653032363475" x2="146.44561519142675" y1="172.8068346515853" y2="177.08958963109032" /><path d="M 144.38136562736335 173.6633856474863 a86.0,86.0 0 0,1 -40.68145358897372,12.25698825130547" fill="none" id="id138" stroke="none" /><text fill="#e1ed5e" style="font-size:6.75px; font-family:Arial;" text-anchor="middle"><textPath startOffset="21.466115282336833" xlink:href="#id138">June</textPath></text><path d="M 110.5260780823613 118.17145234162733 l 6.941634952711585 11.983531542250958 a34.84887446837579,34.84887446837579 0 0,0 -0.5216565076448701,0.2962101794393085 l -6.7343296781455155 -12.101244887484896" fill="#ffac0f" stroke="none" /><path d="M 110.21172684928248 118.3499491758327 l 6.189195312373799 11.121666403497766 a33.72782786674147,33.72782786674147 0 0,0 -0.5097353890535543,0.2779483765798538 l -5.996837111451596 -11.22655543183739" fill="#ff9d0e" stroke="none" /><path d="M 109.89434966115114 118.52300852407294 l 8.800203806315727 16.474680570264034 a39.67775915159335,39.67775915159335 0 0,0 -0.6051974868389498,0.31661072171447996 l -8.51531541695028 -16.62372071092323" fill="#ffea16" stroke="none" /><path d="M 108.2653958097858 119.30500536409082 l 3.6011548714702015 8.41100846354455 a30.14950161386573,30.14950161386573 0 0,0 -0.47884377476912277,0.20015673668887332 l -3.455839637203618 -8.471750243253396" fill="#ff6d0a" stroke="none" /><path d="M 107.93186726928326 119.44442032107085 l 4.50691574538979 11.048390136882634 a32.93227615138067,32.93227615138067 0 0,0 -0.5267265465341833,0.20959536326298986 l -4.31606812281374 -11.124332344551693" fill="#ff930d" stroke="none" /><path d="M 107.2578585660854 119.70592522655815 l 5.3197416449541315 14.44371368297617 a36.39222258560642,36.39222258560642 0 0,0 -0.5896934043376496,0.21144307450909233 l -5.070328679986747 -14.533144298525222" fill="#ffc011" stroke="none" /><path d="M 106.57524785965236 119.94407469862006 l 4.897452247238302 14.854976654372008 a36.64146316416456,36.64146316416456 0 0,0 -0.6007082691456396,0.19232781803852764 l -4.641022633001723 -14.937077319070243" fill="#ffc312" stroke="none" /><path d="M 106.2309692047433 120.05430185196036 l 4.497042652179966 14.473679426838494 a36.15621287678468,36.15621287678468 0 0,0 -0.5959319098152862,0.17954939592334773 l -4.247235767924433 -14.548944191867568" fill="#ffbd11" stroke="none" /><path d="M 105.18746579009965 120.34920634021253 l 3.7364884360038704 14.657363970895714 a36.126125227820324,36.126125227820324 0 0,0 -0.6039027426753208,0.14842460126886264 l -3.4836324085853385 -14.719509830478607" fill="#ffbd11" stroke="none" /><path d="M 104.83641907484287 120.43548508189849 l 2.4605451812493957 10.396624768583134 a31.68382371474211,31.68382371474211 0 0,0 -0.5318052118873902,0.12103713481644938 l -2.2812198199691434 -10.437438636977268" fill="#ff820c" stroke="none" /><path d="M 104.48393922423573 120.51570834832081 l 1.7064070812273724 7.807454171713752 a28.99175611303757,28.99175611303757 0 0,0 -0.48845385052141516,0.10236025352459405 l -1.5717617692765793 -7.835670405964887" fill="#ff5d08" stroke="none" /><path d="M 104.13013068566511 120.58985236759428 l 1.8126152238033602 9.036391992849223 a30.21639594407669,30.21639594407669 0 0,0 -0.5108475776700678,0.09790515408795059 l -1.656800031561588 -9.066254345285643" fill="#ff6e0a" stroke="none" /><path d="M 103.41894727170886 120.7198165907248 l 2.1688533340875997 13.143883108795643 a34.32162107111842,34.32162107111842 0 0,0 -0.5837358166391301,0.09116752942562982 l -1.9422816538399523 -13.17926894556838" fill="#ffa50f" stroke="none" /><path d="M 103.06178313531738 120.77559828337769 l 2.2782212117303895 15.45877242238917 a36.62574595649111,36.62574595649111 0 0,0 -0.6245063073082866,0.08655088367849646 l -2.0117863132352722 -15.495697871560271" fill="#ffc312" stroke="none" /><path d="M 102.70371172650421 120.8252237178851 l 1.564489591023468 12.05041403563094 a33.15154747801908,33.15154747801908 0 0,0 -0.5665324415843439,0.06859918893303549 l -1.3568297263877438 -12.075558753289327" fill="#ff960d" stroke="none" /><path d="M 102.34483914955558 120.86867818915974 l 1.995097635435473 17.756036919524913 a38.86777159195998,38.86777159195998 0 0,0 -0.6655039860498844,0.06898220923569909 l -1.689161052779986 -17.78774849721637" fill="#ffe014" stroke="none" /><path d="M 101.98527174616119 120.90594882070398 l 0.7397872642893756 7.790346442671109 a28.825393465714242,28.825393465714242 0 0,0 -0.4943632976196581,0.042655745490895236 l -0.6055796489281758 -7.801926440440668" fill="#ff5b08" stroke="none" /><path d="M 101.62511606390274 120.93702456842531 l 1.1924841778474573 15.363253790681268 a36.40946415522937,36.40946415522937 0 0,0 -0.6252670778314484,0.04312207851502521 l -0.9278543392370785 -15.38150421371258" fill="#ffc011" stroke="none" /><path d="M 101.26447882468166 120.96189622390904 l 0.6718902809465742 11.13826033947298 a32.15850706588956,32.15850706588956 0 0,0 -0.5528383215616931,0.028575426480409283 l -0.48006389097140156 -11.148175572715592" fill="#ff880c" stroke="none" /><line stroke="#e1ed5e" stroke-width="0.3" x1="102.19456741930631" x2="102.32365962044197" y1="184.97166512339345" y2="189.96999836594603" /><path d="M 102.22038585953345 185.97133177190398 a86.0,86.0 0 0,1 -42.740103519485714,-10.115201625700543" fill="none" id="id139" stroke="none" /><text fill="#e1ed5e" style="font-size:6.75px; font-family:Arial;" text-anchor="middle"><textPath startOffset="22.20632615414155" xlink:href="#id139">July</textPath></text><path d="M 100.54218724476979 120.99299961872073 l 0.40133043730266527 15.539151462061916 a36.544333188683474,36.544333188683474 0 0,0 -0.6289807200182582,0.01082847350402584 l -0.13379002739173912 -15.543757412845101" fill="#ffc212" stroke="none" /><path d="M 100.18074693466247 120.99922214144158 l 0.10838324744826788 12.591991636412953 a33.592458072188336,33.592458072188336 0 0,0 -0.578260364221438,0.0 l 0.10838324744825921 -12.591991636412953" fill="#ff9b0e" stroke="none" /><path d="M 99.45781275523022 120.99299961872073 l -0.40405024914336224 15.644460116010817 a36.649676959135164,36.649676959135164 0 0,0 -0.6305134477635376,-0.021716158001003096 l 0.6732840485815429 -15.63518715958372" fill="#ffc312" stroke="none" /><path d="M 99.09653310690486 120.98055641714683 l -0.0643277667721499 1.493837073905966 a22.49522147689024,22.49522147689024 0 0,0 -0.3867163503256435,-0.019988818080277998 l 0.09003218551128234 -1.4925084490634861" fill="#ff0000" stroke="none" /><path d="M 98.73552117531835 120.96189622390904 l -1.006504957968351 16.685334752912368 a37.715664750381904,37.715664750381904 0 0,0 -0.647698724331674,-0.044669096190989833 l 1.2935664430789549 -16.665537312205092" fill="#ffd113" stroke="none" /><path d="M 98.01472825383883 120.90594882070398 l -0.8428428330451411 8.875575429716681 a29.915504654802554,29.915504654802554 0 0,0 -0.5122209680933638,-0.05309379768805336 l 0.9954963977440983 -8.859752263572867" fill="#ff6a09" stroke="none" /><path d="M 97.65516085044442 120.86867818915974 l -1.1857583733194779 10.553052181679787 a31.619460121359925,31.619460121359925 0 0,0 -0.5403503397845841,-0.06542890102683907 l 1.3672361361554513 -10.531077751927599" fill="#ff810b" stroke="none" /><path d="M 96.93821686468263 120.77559828337769 l -1.30299787592386 8.84143626046937 a29.93693451987899,29.93693451987899 0 0,0 -0.5091618744762357,-0.07952061335036711 l 1.4549956140086129 -8.817697339771897" fill="#ff6a09" stroke="none" /><path d="M 96.58105272829116 120.7198165907248 l -2.024072280710247 12.266467742781204 a33.43234086896878,33.43234086896878 0 0,0 -0.5669982184085833,-0.09857990809413364 l 2.23491947059088 -12.229809256166066" fill="#ff990e" stroke="none" /><path d="M 95.86986931433489 120.58985236759428 l -1.869091266465213 9.317940803096205 a30.503553176174776,30.503553176174776 0 0,0 -0.5139246462130184,-0.10769790640967992 l 2.029207374107618 -9.284386915959983" fill="#ff720a" stroke="none" /><path d="M 94.81253420990036 120.34920634021253 l -3.043286900290364 11.938097636164827 a33.31989327583982,33.31989327583982 0 0,0 -0.5545533878289148,-0.14646258998292555 l 3.248330730930768 -11.883943696878319" fill="#ff980e" stroke="none" /><path d="M 94.46302465271185 120.25689768951611 l -2.6132477067821207 9.560506975992709 a30.911223800066633,30.911223800066633 0 0,0 -0.512050062656478,-0.14471046243655084 l 2.777428937543213 -9.514107720217638" fill="#ff770b" stroke="none" /><path d="M 93.76903079525671 120.05430185196036 l -3.5289103357290617 11.35775683618212 a32.89335312296146,32.89335312296146 0 0,0 -0.539260922315328,-0.17265431802671868 l 3.72389260313533 -11.295329671495693" fill="#ff920d" stroke="none" /><path d="M 92.7421414339146 119.70592522655815 l -4.645327294586699 12.61260073980588 a34.440861694682525,34.440861694682525 0 0,0 -0.5545467124594585,-0.20968211597621841 l 4.86174422780644 -12.530770373723028" fill="#ffa70f" stroke="none" /><path d="M 92.40401165467489 119.57807347666478 l -3.3785784376944115 8.708025064383557 a30.340476046839683,30.340476046839683 0 0,0 -0.48527268795191864,-0.19310001742296545 l 3.5279722016881885 -8.648578202554525" fill="#ff700a" stroke="none" /><path d="M 92.06813273071674 119.44442032107085 l -5.176467381226214 12.689749351790486 a34.704946302710056,34.704946302710056 0 0,0 -0.5511947661219918,-0.23039945694221253 l 5.394133606845668 -12.5987648518283" fill="#ffaa0f" stroke="none" /><path d="M 90.7491055286396 118.85261126421891 l -5.230176813836318 10.658697990734634 a32.87276683682795,32.87276683682795 0 0,0 -0.5058431498560331,-0.2536402564693488 l 5.412873871375111 -10.567089893355984" fill="#ff920d" stroke="none" /><line stroke="#e1ed5e" stroke-width="0.3" x1="58.666819895761336" x2="56.23545636021788" y1="174.27360380694188" y2="178.64263932499728" /><path d="M 58.180547188652646 175.14741091055294 a86.0,86.0 0 0,1 -31.652253787137756,-30.449443065178592" fill="none" id="id140" stroke="none" /><text fill="#e1ed5e" style="font-size:6.75px; font-family:Arial;" text-anchor="middle"><textPath startOffset="22.20632615414155" xlink:href="#id140">August</textPath></text><path d="M 89.7882731507175 118.34994917583269 l -5.763629411189185 10.35694631521477 a32.852668938503506,32.852668938503506 0 0,0 -0.4917750947975205,-0.2792427333676127 l 5.941053272907912 -10.256200416052526" fill="#ff920d" stroke="none" /><path d="M 89.4739219176387 118.17145234162733 l -5.941913783373526 10.25768593846581 a32.854385695650514,32.854385695650514 0 0,0 -0.486920971719618,-0.2876814927680014 l 6.117602626121525 -10.153885873404061" fill="#ff920d" stroke="none" /><path d="M 88.8546689885994 117.79835938074946 l -6.3993067587196775 10.219271313058893 a33.05755502422045,33.05755502422045 0 0,0 -0.479678028367387,-0.3061532128844779 l 6.574266589133988 -10.107603671350612" fill="#ff940d" stroke="none" /><path d="M 88.24862548938628 117.40417183066458 l -6.630158318010241 9.819482353059136 a32.84825864859137,32.84825864859137 0 0,0 -0.4658870328861686,-0.32044134940387703 l 6.7982022355193 -9.703900214290158" fill="#ff910d" stroke="none" /><path d="M 87.65650970185807 116.9893568818739 l -7.096447869796508 9.767422547554089 a33.073198233741024,33.073198233741024 0 0,0 -0.4576937372881588,-0.33859088493389716 l 7.263526577503231 -9.643821713880426" fill="#ff940d" stroke="none" /><line stroke="#e1ed5e" stroke-width="0.3" x1="26.63291911575756" x2="22.317208475507996" y1="142.92168965132927" y2="145.44649492493687" /><path d="M 25.769776987707644 143.4266507060508 a86.0,86.0 0 0,1 -11.730757126820373,-40.83630448921669" fill="none" id="id141" stroke="none" /><text fill="#e1ed5e" style="font-size:6.75px; font-family:Arial;" text-anchor="middle"><textPath startOffset="21.46611528233685" xlink:href="#id141">September</textPath></text><line stroke="#e1ed5e" stroke-width="0.3" x1="15.007084014347285" x2="10.007500721073583" y1="101.09737516637583" y2="101.16192664675087" /><path d="M 14.007167355692545 101.11028546245083 a86.0,86.0 0 0,1 10.666146001902534,-42.60595125391555" fill="none" id="id142" stroke="none" /><text fill="#e1ed5e" style="font-size:6.75px; font-family:Arial;" text-anchor="middle"><textPath startOffset="22.20632615414155" xlink:href="#id142">October</textPath></text><line stroke="#e1ed5e" stroke-width="0.3" x1="26.266209847984243" x2="21.928928074336255" y1="57.711370442889674" y2="55.22380399835377" /><path d="M 25.398753493254645 57.213857153982495 a86.0,86.0 0 0,1 29.58750427330803,-30.492523968695096" fill="none" id="id143" stroke="none" /><text fill="#e1ed5e" style="font-size:6.75px; font-family:Arial;" text-anchor="middle"><textPath startOffset="21.46611528233685" xlink:href="#id143">November</textPath></text><line stroke="#e1ed5e" stroke-width="0.3" x1="56.762969772571076" x2="54.21961505331055" y1="26.818313649435495" y2="22.513508569990535" /><path d="M 56.25429882871897 25.957352633546506 a86.0,86.0 0 0,1 42.265352541879196,-11.944610805530505" fill="none" id="id144" stroke="none" /><text fill="#e1ed5e" style="font-size:6.75px; font-family:Arial;" text-anchor="middle"><textPath startOffset="22.20632615414155" xlink:href="#id144">December</textPath></text></svg>