<?xml version="1.0" encoding="utf-8" ?>
<svg baseProfile="full" height="200mm" version="1.1" viewBox="0,0,200,200" width="200mm" xmlns="http://www.w3.org/2000/svg" xmlns:ev="http://www.w3.org/2001/xml-events" xmlns:xlink="http://www.w3.org/1999/xlink"><defs /><rect fill="#1a1a1a" height="200" width="200" x="0" y="0" /><rect fill="#1a1a1a" height="200" width="180" x="10" y="0" /><text alignment-baseline="middle" fill="#e1ed5e" style="dominant-baseline: central; font-size:9.0px; font-family:Arial;" text-anchor="middle" x="100.0" y="100.0">2022</text><line stroke="#e1ed5e" stroke-width="0.3" x1="100.0" x2="100.0" y1="15.0" y2="10.0" /><path d="M 100.0 14.0 a86.0,86.0 0 0,1 42.46469731375804,11.215312516191453" fill="none" id="id97" stroke="none" /><text fill="#e1ed5e" style="font-size:6.75px; font-family:Arial;" text-anchor="middle"><textPath startOffset="22.20632615414155" xlink:href="#id97">January</textPath></text><path d="M 100.0 79.0 l 0.0 -27.089988623401027 a48.08998862340103,48.08998862340103 0 0,0 0.82779010170464,0.007125050748033908 l -0.46630962243211166 27.08597494926155" fill="#b0ff20" stroke="none" /><path d="M 100.36148047927253 79.00311137660856 l 0.19578728987800434 -11.372464504078497 a32.37414970709473,32.37414970709473 0 0,0 0.5571026386837099,0.014388317544318182 l -0.39151656375658206 11.367409394391819" fill="#ff8c0c" stroke="none" /><path d="M 100.72285384407766 79.0124445844662 l 0.4215391980820677 -12.23909556828279 a33.24635274786249,33.24635274786249 0 0,0 0.5717726230718417,0.024621731905135533 l -0.6321526535432409 12.23002610985346" fill="#ff980e" stroke="none" /><path d="M 101.08401301168833 79.027996857942 l 0.3471379182853336 -6.715950301803807 a27.7249158500765,27.7249158500765 0 0,0 0.4763905634017035,0.02873717975058823 l -0.462690530526649 6.708979852672915" fill="#ff4c07" stroke="none" /><path d="M 101.44485096284872 79.0497635885617 l 0.8502049001811491 -12.32791070840943 a33.357193484234514,33.357193484234514 0 0,0 0.5724885612884146,0.04443613056429144 l -1.062283650831905 12.311449315656674" fill="#ff990e" stroke="none" /><path d="M 101.80526077348638 79.07773832637324 l 1.178560117403579 -13.659047787759429 a34.70979906558189,34.70979906558189 0 0,0 0.5948183108309258,0.05648516585970653 l -1.413503555324749 13.636737077384545" fill="#ffab0f" stroke="none" /><path d="M 102.16513564639614 79.11191278185805 l 1.2685244974166816 -12.238055562243252 a33.30362378915656,33.30362378915656 0 0,0 0.5697033599452689,0.06401281048681527 l -1.4789945608716757 12.214406798285836" fill="#ff980e" stroke="none" /><path d="M 102.52436894288641 79.15227682838746 l 1.0252343399028876 -8.466988062326243 a29.528832997502718,29.528832997502718 0 0,0 0.504078653045535,0.06544387631952134 l -1.1708277214562686 8.448085862842584" fill="#ff6509" stroke="none" /><path d="M 102.88285421437855 79.19881850522331 l 3.862055843338884 -27.86659281609644 a49.13294279870461,49.13294279870461 0 0,0 0.8367364013162507,0.12331319499501582 l -4.34116122508379 27.795985136940455" fill="#a4ff21" stroke="none" /><path d="M 103.59715602781102 79.31037775812273 l 4.379181776029065 -25.18756928364028 a46.565423513911995,46.565423513911995 0 0,0 0.7885186566408003,0.14409674441669393 l -4.812095553772766 25.108457057872847" fill="#c1ff1e" stroke="none" /><path d="M 103.95276090670814 79.375362276772 l 2.329845872691752 -12.156623739542962 a33.37787067856658,33.37787067856658 0 0,0 0.5633446928069672,0.11300164570536333 l -2.5387569749658447 12.11471813776039" fill="#ff990e" stroke="none" /><path d="M 104.307194497241 79.44645832069477 l 2.5187315850140797 -12.019158792278875 a33.280235619537684,33.280235619537684 0 0,0 0.5596741595678407,0.12232309381034868 l -2.7252484687354483 11.974022200372655" fill="#ff980e" stroke="none" /><path d="M 104.66035177308747 79.52364482259891 l 2.7656530985267924 -12.151549475287108 a33.46230282539071,33.46230282539071 0 0,0 0.5605355006504512,0.13266064282828274 l -2.974412286139767 12.102142920317956" fill="#ff9a0e" stroke="none" /><path d="M 105.36241919743992 79.69619591428918 l 2.4874405564835316 -9.418231561942138 a30.741172736195686,30.741172736195686 0 0,0 0.5104529438499975,0.13952607202586872 l -2.6491913895572403 9.374018949089976" fill="#ff760a" stroke="none" /><path d="M 105.71112130821622 79.79150937346287 l 7.6487744309211685 -27.06477030515833 a49.12482074549265,49.12482074549265 0 0,0 0.8117520643461463,0.23697268728988322 l -8.113516712990743 26.929099288949743" fill="#a4ff21" stroke="none" /><path d="M 106.40334571778207 80.00007090966166 l 2.31257507416399 -7.222995530434023 a28.584172196509943,28.584172196509943 0 0,0 0.46730653938297867,0.15406361885979278 l -2.4365644357893856 7.182118187314994" fill="#ff5808" stroke="none" /><path d="M 106.74666289553966 80.11325718540242 l 2.417684928051713 -7.126468168830519 a28.52540689748289,28.52540689748289 0 0,0 0.4636302245489776,0.1617514817270424 l -2.5399971566639645 7.083795833931269" fill="#ff5708" stroke="none" /><path d="M 107.08798089147638 80.2323363322302 l 2.6335600648325594 -7.344733346147103 a28.802611520579894,28.802611520579894 0 0,0 0.4652549948422432,0.171357341048817 l -2.759597385447379 7.298312737291962" fill="#ff5b08" stroke="none" /><path d="M 107.4271985657038 80.35727306442388 l 9.920935040469926 -26.237916789433942 a49.05090425505894,49.05090425505894 0 0,0 0.7871895479021109,0.3054173148626276 l -10.371107753371705 26.06325677068077" fill="#a5ff21" stroke="none" /><path d="M 107.76421540070413 80.48803036053334 l 3.1589407486851577 -7.938620040813011 a29.544038553640867,29.544038553640867 0 0,0 0.47089839340029355,0.19209127822249006 l -3.2951230116738386 7.883067876406941" fill="#ff6509" stroke="none" /><path d="M 108.09893153111575 80.62456947434976 l 2.926329532740434 -7.000786997511472 a28.587781172300275,28.587781172300275 0 0,0 0.45238971487102875,0.19368966665196782 l -3.046403005401778 6.949377802896713" fill="#ff5808" stroke="none" /><path d="M 108.43124777332544 80.76684994638697 l 4.719325824319863 -10.76560719970807 a32.75458781133982,32.75458781133982 0 0,0 0.5144308934490438,0.23081014658996762 l -4.903938836235686 10.682776722601572" fill="#ff910d" stroke="none" /><path d="M 108.76106565485865 80.91482961587045 l 5.293098726058635 -11.530525512136228 a33.687391879729574,33.687391879729574 0 0,0 0.5249166013112624,0.24645538267882275 l -5.490793538669496 11.4377051468174" fill="#ff9d0e" stroke="none" /><path d="M 109.08828744355905 81.06846463323043 l 5.646972500151542 -11.763036794963956 a34.0482693510344,34.0482693510344 0 0,0 0.5261734149037496,0.25819100954721813 l -5.848617182065723 11.664090625281906" fill="#ffa20f" stroke="none" /><path d="M 109.41281617654863 81.2277094730956 l 3.7923157225405593 -7.563140634855358 a29.46065924157383,29.46065924157383 0 0,0 0.4513646733189422,0.23120651677298695 l -3.921940883448257 7.496741592769871" fill="#ff6409" stroke="none" /><path d="M 109.73455568895987 81.39251694778311 l 5.9381360161916925 -11.350673704436106 a33.81012306308453,33.81012306308453 0 0,0 0.5133583436262806,0.27421824843985576 l -6.132639406346284 11.246776729494497" fill="#ff9f0e" stroke="none" /><path d="M 110.05341064243156 81.56283822128135 l 13.961033688572828 -25.6034340851417 a50.162412427740975,50.162412427740975 0 0,0 0.7545284628550928,0.4198942726682256 l -14.399686240499957 25.359324414913296" fill="#99ff23" stroke="none" /><path d="M 110.36928655335952 81.73862282372117 l 6.469387260108161 -11.393254516432698 a34.10187849117308,34.10187849117308 0 0,0 0.5079609057671085,0.2942437432281073 l -6.664544898340598 11.28020661581454" fill="#ffa30f" stroke="none" /><line stroke="#e1ed5e" stroke-width="0.3" x1="143.23703022742887" x2="145.7803849466894" y1="26.81831364943548" y2="22.513508569990506" /><path d="M 143.74570117128098 25.957352633546492 a86.0,86.0 0 0,1 28.547481713284135,27.462654790039103" fill="none" id="id98" stroke="none" /><text fill="#e1ed5e" style="font-size:6.75px; font-family:Arial;" text-anchor="middle"><textPath startOffset="19.985693538727396" xlink:href="#id98">February</textPath></text><path d="M 110.68208982089419 81.91981866633111 l 5.615799559822309 -9.505132055388934 a32.04014221314575,32.04014221314575 0 0,0 0.4724211158557857,0.28462843634716706 l -5.7785827418957325 9.407057009583152" fill="#ff870c" stroke="none" /><path d="M 110.99172775467656 82.1063720568725 l 4.304899144447193 -7.00802142690011 a29.22462892559617,29.22462892559617 0 0,0 0.4263745991347728,0.2669957348625138 l -4.424892895954229 6.932881350714652" fill="#ff6108" stroke="none" /><path d="M 111.2981086023043 82.29822771554956 l 7.233182297888108 -11.332883267117735 a34.4444475267896,34.4444475267896 0 0,0 0.4970382561552547,0.3232875078219483 l -7.427187579827643 11.20669683513626" fill="#ffa70f" stroke="none" /><path d="M 111.60114157652 82.49532879139004 l 7.3218769462737425 -11.047796264621507 a34.25381772626136,34.25381772626136 0 0,0 0.4886801423543755,0.32995901353882506 l -7.51096178303466 10.920125338784013" fill="#ffa50f" stroke="none" /><path d="M 111.90073688211348 82.69761687909136 l 7.055960626218314 -10.258602912594975 a33.450924225817346,33.450924225817346 0 0,0 0.47160842930530406,0.33039184323759907 l -7.231500195107269 10.135626226593441" fill="#ff9a0e" stroke="none" /><path d="M 112.19680574252982 82.90503203632743 l 16.027944852082523 -22.464668992344706 a48.59631078816537,48.59631078816537 0 0,0 0.6767723189488508,0.49170387149314554 l -16.412262487385163 22.185445886034884" fill="#aaff21" stroke="none" /><path d="M 112.77801427241765 83.33499621200491 l 8.02650406091285 -10.468114820329001 a34.191140789614906,34.191140789614906 0 0,0 0.46396962033336847,0.3621356480343654 l -8.205506236405649 10.32840078307141" fill="#ffa40f" stroke="none" /><path d="M 113.06298171725822 83.55741782278167 l 8.223766268231007 -10.351384974609426 a34.220495547711664,34.220495547711664 0 0,0 0.45806023799527196,0.37038618983785043 l -8.400729904790769 10.208292687507447" fill="#ffa40f" stroke="none" /><path d="M 113.34407831869373 83.78471172551755 l 7.876933858909455 -9.57179283505222 a33.39618106897407,33.39618106897407 0 0,0 0.4407380894102272,0.36910547493215823 l -8.0405294852788 9.434786202726242" fill="#ff990e" stroke="none" /><path d="M 113.6212207817346 84.01681056812373 l 5.624615195369924 -6.599943690036784 a29.671536934571783,29.671536934571783 0 0,0 0.38588003526253023,0.334631364054656 l -5.7373890292792185 6.502147332562457" fill="#ff6709" stroke="none" /><path d="M 113.89432698308785 84.25364557470407 l 6.847792146247103 -7.760560284554456 a31.349809331983245,31.349809331983245 0 0,0 0.40155972625067565,0.36052428707464207 l -6.980362860093769 7.6415369887105165" fill="#ff7e0b" stroke="none" /><path d="M 114.16331599549186 84.49514656593476 l 16.32075746575928 -17.866645954949323 a45.198846293483584,45.198846293483584 0 0,0 0.5699189600039506,0.5296775613115973 l -16.625884309558074 17.583063807563086" fill="#d1ff1c" stroke="none" /><path d="M 114.42810811169701 84.74124197986012 l 8.011980614726678 -8.473243512990752 a32.66137594802586,32.66137594802586 0 0,0 0.4051826533873845,0.38978539153286834 l -8.156646511726482 8.334075034695582" fill="#ff900d" stroke="none" /><path d="M 114.68862486808459 84.99185889309783 l 6.190277542467325 -6.32493236654849 a29.850102004733504,29.850102004733504 0 0,0 0.36412035690315997,0.3625567083735494 l -6.298233699537808 6.217439807524822" fill="#ff6a09" stroke="none" /><path d="M 114.94478906791727 85.2469230424477 l 9.595359791108798 -9.472270287007754 a34.483131457897954,34.483131457897954 0 0,0 0.4133636422560202,0.42600756903480547 l -9.756987697067927 9.305698522422835" fill="#ffa80f" stroke="none" /><path d="M 115.19652480421416 85.50635884689758 l 8.01461255200378 -7.643913316133994 a32.075352145340894,32.075352145340894 0 0,0 0.377622629030147,0.4028214916729757 l -8.14500250300439 7.504822407582963" fill="#ff880c" stroke="none" /><path d="M 115.4437574822437 85.77008943001954 l 6.221263550086992 -5.732285297266634 a29.4595044115421,29.4595044115421 0 0,0 0.3404064804647925,0.3758853378806252 l -6.319013671167821 5.624347172116459" fill="#ff6409" stroke="none" /><path d="M 115.9244219780498 86.31012108654704 l 34.123192005553626 -29.334965334405442 a65.99924914727632,65.99924914727632 0 0,0 0.7331868735180473,0.8678619992009131 l -34.62308949255879 28.743244385575423" fill="#36ff73" stroke="none" /><path d="M 116.15771136456269 86.58626213691792 l 8.793457825649762 -7.300114200704806 a32.42876055724386,32.42876055724386 0 0,0 0.352858127972538,0.43256234247963954 l -8.91781444569871 7.147667688617067" fill="#ff8d0d" stroke="none" /><path d="M 116.38621287248628 86.86637796730983 l 8.941919263856784 -7.166987806896894 a32.45965245308695,32.45965245308695 0 0,0 0.3456889912605249,0.43898991363417195 l -9.063962335711272 7.012005499309684" fill="#ff8d0d" stroke="none" /><path d="M 116.60985879189232 87.15038557335679 l 9.883963973324432 -7.646370005628566 a33.4963882017546,33.4963882017546 0 0,0 0.34887933406270816,0.459084308450662 l -10.014119247611255 7.47510092129687" fill="#ff9b0e" stroke="none" /><path d="M 116.82858285166822 87.43820079747576 l 9.95154977139166 -7.428395550832491 a33.418309196992695,33.418309196992695 0 0,0 0.3401305762846224,0.4639377238057952 l -10.077942960189908 7.255995383355202" fill="#ff9a0e" stroke="none" /><path d="M 117.04232023915458 87.72973835380427 l 6.665289175286005 -4.798926494786522 a29.213146491604107,29.213146491604107 0 0,0 0.2903054766008691,0.4106165088688944 l -6.746907271690757 4.683483485585834" fill="#ff6108" stroke="none" /><path d="M 117.2510076193507 88.02491185347247 l 10.198253718102078 -7.079295882863978 a33.41454022893791,33.41454022893791 0 0,0 0.32392299435903044,0.4753170242237551 l -10.31860117812984 6.902700835369816" fill="#ff9a0e" stroke="none" /><path d="M 117.45458315368197 88.32363383020206 l 46.38617695441643 -31.030359337029253 a76.8082486110395,76.8082486110395 0 0,0 0.7256673788902489,1.10524120322705 l -46.9134409686646 30.22730006982453" fill="#44ffe7" stroke="none" /><path d="M 117.65298651832404 88.62581576622439 l 6.979576356511477 -4.49708536684493 a29.302906895362902,29.302906895362902 0 0,0 0.2695482362837244,0.42636057765189245 l -7.055952189041157 4.376277141478831" fill="#ff6209" stroke="none" /><line stroke="#e1ed5e" stroke-width="0.3" x1="172.23445277983987" x2="176.4835382374775" y1="55.19839476539836" y2="52.563006222186495" /><path d="M 173.08426987136738 54.67131705675599 a86.0,86.0 0 0,1 12.851231095245387,41.99856678651699" fill="none" id="id99" stroke="none" /><text fill="#e1ed5e" style="font-size:6.75px; font-family:Arial;" text-anchor="middle"><textPath startOffset="22.20632615414155" xlink:href="#id99">March</textPath></text><path d="M 117.84615892207809 88.93136811851018 l 7.237642201968523 -4.488965809018835 a29.516705858385382,29.516705858385382 0 0,0 0.2640820341630036,0.4340814284684163 l -7.31384003441775 4.3637166073433376" fill="#ff6509" stroke="none" /><path d="M 118.03404312379186 89.2402003453031 l 5.171986171989766 -3.085804699782246 a27.022593428785605,27.022593428785605 0 0,0 0.23489109529269137,0.40150502292245005 l -5.224336941752784 2.9963202645059006" fill="#ff4206" stroke="none" /><path d="M 118.21658344932153 89.55222093294921 l 10.77867548179198 -6.181906743516941 a33.425611297933145,33.425611297933145 0 0,0 0.281956744121818,0.5015695862137424 l -10.883489867206231 5.995453647368405" fill="#ff9a0e" stroke="none" /><path d="M 118.3937258080291 89.86733742301442 l 10.930733314647005 -6.021478929950466 a33.479548841996305,33.479548841996305 0 0,0 0.27372225609479,0.5071657693375612 l -11.03276366996026 5.832432177280446" fill="#ff9b0e" stroke="none" /><path d="M 118.56541770881063 90.18545643968196 l 9.961399680216823 -5.266059326897285 a32.26769117536622,32.26769117536622 0 0,0 0.25536123271659156,0.49327662176055764 l -10.050570346093531 5.093809982876382" fill="#ff8a0c" stroke="none" /><path d="M 118.73160827565052 90.50648371742162 l 24.880773346124283 -12.610023838242489 a48.89382697842396,48.89382697842396 0 0,0 0.3740144634510633,0.7539903356454267 l -25.094147822528754 12.179873914098112" fill="#a7ff21" stroke="none" /><path d="M 118.89224826269711 90.83032412892265 l 10.363317361790791 -5.030013359731458 a32.51952174095224,32.51952174095224 0 0,0 0.24008978029140537,0.5056903078214425 l -10.448365335923953 4.850880636269475" fill="#ff8e0d" stroke="none" /><path d="M 119.04729006885535 91.15688171328212 l 10.632903794258581 -4.936556625326315 a32.72297890525321,32.72297890525321 0 0,0 0.23279701097629055,0.512937355273086 l -10.71630312219822 4.752797261211166" fill="#ff910d" stroke="none" /><path d="M 119.196687751892 91.48605970444005 l 8.397785158148539 -3.724509268239219 a30.186662334690425,30.186662334690425 0 0,0 0.20657637220652603,0.47680674849962823 l -8.460652240197746 3.5794033751529883" fill="#ff6e0a" stroke="none" /><path d="M 119.34039704204932 91.81776055985345 l 10.191973728631798 -4.31186439627054 a32.066548832266825,32.066548832266825 0 0,0 0.2106899197741692,0.5102023525076802 l -10.264685335292164 4.1357874733095565" fill="#ff880c" stroke="none" /><path d="M 119.47837535516314 92.15188598940014 l 10.336232195343557 -4.1646147191421985 a32.14368483738447,32.14368483738447 0 0,0 0.20236202219390534,0.5149892738025853 l -10.406387767419163 3.9860764404438287" fill="#ff890c" stroke="none" /><path d="M 119.61058180528143 92.48833698450437 l 12.460860651787755 -4.773024432863615 a34.3437180133569,34.3437180133569 0 0,0 0.20670897003249478,0.553877270452995 l -12.541174210321875 4.5578240253812865" fill="#ffa60f" stroke="none" /><path d="M 119.7369772167798 92.82701384747503 l 25.852208158865842 -9.395437259667306 a48.50656118073785,48.50656118073785 0 0,0 0.27844364337373495,0.7871976754418141 l -26.010104883049387 8.949041957798876" fill="#abff21" stroke="none" /><path d="M 119.85752413597 93.16781622104841 l 6.422659558054059 -2.2097815492909034 a27.7921786117747,27.7921786117747 0 0,0 0.1517488767430675,0.45370982650016906 l -6.459745728568897 2.0988986198684203" fill="#ff4d07" stroke="none" /><path d="M 119.97218684219823 93.5106431181261 l 12.657264442947636 -4.112594517942113 a34.30863542395365,34.30863542395365 0 0,0 0.1776607600833726,0.5632331596449849 l -12.726180686799214 3.8941111918707083" fill="#ffa60f" stroke="none" /><path d="M 120.08093135843002 93.85539295169968 l 5.84513276477779 -1.7885646508934 a27.112654132887307,27.112654132887307 0 0,0 0.1327152837386118,0.44744996046495167 l -5.875053945628104 1.6876853036819186" fill="#ff4306" stroke="none" /><path d="M 120.18372546131832 94.20196356495316 l 6.7053472277876764 -1.926197797867489 a27.976526313410524,27.976526313410524 0 0,0 0.1289760886064949,0.463995613550626 l -6.737510086960534 1.810490880897911" fill="#ff5007" stroke="none" /><path d="M 120.28053869075195 94.5502522615342 l 7.776906818993753 -2.0897955914946666 a29.05279611597997,29.05279611597997 0 0,0 0.12562383127405735,0.4840798670848508 l -7.811726982138113 1.9556192988609653" fill="#ff5f08" stroke="none" /><path d="M 120.37134235888165 94.90015583598534 l 12.066305732614769 -3.0207277354436526 a33.43867075231958,33.43867075231958 0 0,0 0.13497630869878902,0.5595639398116085 l -12.116514841574379 2.812578563972638" fill="#ff9a0e" stroke="none" /><path d="M 120.45610955862082 95.25157060432595 l 4.625783181832184 -1.0737723502937435 a25.748774274018174,25.748774274018174 0 0,0 0.09650347919917929,0.43260617481923297 l -4.643581048033401 0.9939880059245467" fill="#ff3004" stroke="none" /><path d="M 120.53481517161879 95.60439243477599 l 7.265753431510326 -1.5552806530608514 a28.43034796206002,28.43034796206002 0 0,0 0.09831580411363959,0.4794227770052565 l -7.291448531538963 1.4299822198921832" fill="#ff5608" stroke="none" /><path d="M 120.6074358757038 95.95851677861258 l 11.473306626051935 -2.250118670886729 a32.691868925389144,32.691868925389144 0 0,0 0.1035464759812393,0.5531494151386273 l -11.510338825943034 2.0522911782855386" fill="#ff900d" stroke="none" /><path d="M 120.67395015179393 96.31383870115 l 9.103841443320201 -1.6232131621117234 a30.247418558428464,30.247418558428464 0 0,0 0.08698025240772163,0.5133623733801512 l -9.130433557248145 1.4662650004157343" fill="#ff6f0a" stroke="none" /><path d="M 120.73433829027371 96.67025291283417 l 13.536390664360614 -2.1738218386519095 a34.709827628544026,34.709827628544026 0 0,0 0.08965731374220358,0.5907296763409269 l -13.571803871542116 1.9404930499189001" fill="#ffab0f" stroke="none" /><path d="M 120.78858239683441 97.02765380044208 l 8.007785967262313 -1.1449511915872514 a29.08922427236384,29.08922427236384 0 0,0 0.06660601368186463,0.4962921666835869 l -8.026307980002015 1.0069406828390002" fill="#ff5f08" stroke="none" /><path d="M 120.83666639777658 97.38593545837742 l 27.482224789670763 -3.447783247863737 a48.697651321262676,48.697651321262676 0 0,0 0.09718577982992527,0.8326284112272558 l -27.537500922504275 2.974211098311628" fill="#a9ff21" stroke="none" /><path d="M 120.87857604477298 97.74499172005257 l 9.355897414358932 -1.0104916202367158 a30.410308695392345,30.410308695392345 0 0,0 0.05173064930905377,0.5209205788840151 l -9.371905189350214 0.8492955106482657" fill="#ff710a" stroke="none" /><path d="M 120.91429891909075 98.10471618934814 l 13.435312191268578 -1.2175272900934508 a34.490366428639824,34.490366428639824 0 0,0 0.04849266057430287,0.5917332864115867 l -13.454279335662376 0.9860800864740955" fill="#ffa80f" stroke="none" /><path d="M 120.94382443527127 98.46500227214037 l 13.416271130353833 -0.9832944200372444 a34.45225627765254,34.45225627765254 0 0,0 0.038257440712346324,0.5918256746759342 l -13.431209162070594 0.752209681108275" fill="#ffa70f" stroke="none" /><path d="M 120.96714384426684 98.82574320788733 l 9.403237506827619 -0.5266246844231073 a30.41797266762085,30.41797266762085 0 0,0 0.02477817891405327,0.5230281947296692 l -9.410909293975168 0.3646853830704383" fill="#ff710a" stroke="none" /><path d="M 120.98425023603335 99.18683210126433 l 13.296328636031118 -0.51525060444114 a34.30630821763565,34.30630821763565 0 0,0 0.017787503141544363,0.5902806328890873 l -13.30322783362831 0.28629982412705357" fill="#ffa60f" stroke="none" /><line stroke="#e1ed5e" stroke-width="0.3" x1="184.98032266829074" x2="189.97916517819016" y1="98.17113171792111" y2="98.06355123074" /><path d="M 185.9800911702706 98.14961562048488 a86.0,86.0 0 0,1 -9.607161424134198,41.387399972396054" fill="none" id="id100" stroke="none" /><text fill="#e1ed5e" style="font-size:6.75px; font-family:Arial;" text-anchor="middle"><textPath startOffset="21.466115282336823" xlink:href="#id100">April</textPath></text><path d="M 120.99513854157772 99.54816195383933 l 8.056786220579278 -0.1733907369571074 a29.058651782511678,29.058651782511678 0 0,0 0.006457929573226872,0.5001737623345084 l -8.05857715727022 0.0346807165621363" fill="#ff5f08" stroke="none" /><path d="M 120.99980553446 99.90962569577887 l 7.8698407660476075 -0.033868474753041417 a28.869913643524107,28.869913643524107 0 0,0 -0.002138714424144971,0.49696191177200433 l -7.869257754333959 -0.10160291522264765" fill="#ff5c08" stroke="none" /><path d="M 120.99824983174949 100.27111621757518 l 9.849881286672513 0.12717548269044276 a30.850702257450425,30.850702257450425 0 0,0 -0.011426420394378495,0.5309408564699751 l -9.846232803593127 -0.29670615495053276" fill="#ff770b" stroke="none" /><path d="M 120.9904718944345 100.63252640178507 l 8.821181125366358 0.2658172710353294 a29.82518528236662,29.82518528236662 0 0,0 -0.019880427679562745,0.5130255017149435 l -8.815298564835592 -0.41762001976427915" fill="#ff6909" stroke="none" /><path d="M 120.9764740272857 100.99374915477107 l 11.377851778661796 0.5390195975476183 a32.390612504327315,32.390612504327315 0 0,0 -0.031177736938118008,0.5566994370491064 l -11.36688769083615 -0.734790750932148" fill="#ff8c0c" stroke="none" /><path d="M 120.95626037817324 101.35467743843564 l 2.7888490997228232 0.18027982504602694 a23.794669947658118,23.794669947658118 0 0,0 -0.029939860260161502,0.40850560592017815 l -2.7853326807983243 -0.22825856746297535" fill="#ff1402" stroke="none" /><path d="M 120.92983693683757 101.71520430193887 l 7.848319802617609 0.6431713696129604 a28.87462971414209,28.87462971414209 0 0,0 -0.04485935484637345,0.49501924265998193 l -7.836085851494159 -0.7781720008215128" fill="#ff5c08" stroke="none" /><path d="M 120.89721153311464 102.0752229133903 l 3.223586213112547 0.32012213505804316 a24.23944227525718,24.23944227525718 0 0,0 -0.04480568390588524,0.41484498615184334 l -3.2175982277056097 -0.37556344309467793" fill="#ff1a02" stroke="none" /><path d="M 119.54520255179757 107.68017299344265 l 10.38194261814529 4.079523612203113 a32.154696115492534,32.154696115492534 0 0,0 -0.20685787545481044,0.5134042825879465 l -10.310182128433087 -4.257627262633873" fill="#ff890c" stroke="none" /><path d="M 119.41010516605496 108.01547362559984 l 5.195895249241074 2.145663868143587 a26.621494541146763,26.621494541146763 0 0,0 -0.1785529231102298,0.42204636655175837 l -5.158191344938535 -2.2347847603615087" fill="#ff3d05" stroke="none" /><path d="M 119.26925614724726 108.34839909993367 l 6.044314105224626 2.6186971645494594 a27.587207894262693,27.587207894262693 0 0,0 -0.1925310125845717,0.4341066066752936 l -5.998342007908781 -2.7223521077174406" fill="#ff4a06" stroke="none" /><path d="M 119.12269723197855 108.67885076344098 l 10.326948987614262 4.686893695900394 a32.34076046433651,32.34076046433651 0 0,0 -0.23443260254165996,0.5049469697713386 l -10.244741768232771 -4.863960732950563" fill="#ff8b0c" stroke="none" /><path d="M 118.97047184881838 109.00673069616215 l 5.635840674632046 2.675763660883818 a27.238782836318585,27.238782836318585 0 0,0 -0.20474062688056688,0.4218263335444906 l -5.588946791136765 -2.772378950393584" fill="#ff4506" stroke="none" /><path d="M 118.81262510543309 109.33194174019688 l 7.064326686862676 3.5042363681866866 a28.885707581621475,28.885707581621475 0 0,0 -0.2247876551025445,0.44352736912768553 l -7.002960361973862 -3.625317949017066" fill="#ff5c08" stroke="none" /><path d="M 118.64920377521936 109.65438752849418 l 8.076013499792584 4.1808199938247 a30.094022755062603,30.094022755062603 0 0,0 -0.24210998389956284,0.4579808480082958 l -8.002851007668127 -4.319215856919131" fill="#ff6d0a" stroke="none" /><line stroke="#e1ed5e" stroke-width="0.3" x1="174.80103733775053" x2="179.2010983576182" y1="140.37084112569926" y2="142.7455964860345" /><path d="M 175.68104954172406 140.8457921977663 a86.0,86.0 0 0,1 -30.038265399797805,32.042727171017184" fill="none" id="id101" stroke="none" /><text fill="#e1ed5e" style="font-size:6.75px; font-family:Arial;" text-anchor="middle"><textPath startOffset="22.206326154141568" xlink:href="#id101">May</textPath></text><path d="M 118.48025628344425 109.97397251340804 l 6.156309886387659 3.3226198083552116 a27.995709671513595,27.995709671513595 0 0,0 -0.2325291524218334,0.42210795430366216 l -6.098204324514315 -3.4280982810566787" fill="#ff5007" stroke="none" /><path d="M 118.30583269289576 110.29060199501025 l 17.5134149019913 9.845145279832918 a41.09095784452069,41.09095784452069 0 0,0 -0.3519107973582746,0.6135861378435368 l -17.34135210848065 -10.145151263534771" fill="#fffc17" stroke="none" /><path d="M 118.12598468904814 110.60418214915192 l 9.995060054523291 5.847375424184101 a32.5798542669966,32.5798542669966 0 0,0 -0.2873529560577374,0.48162008286391905 l -9.892926222767326 -6.018557600934124" fill="#ff8f0d" stroke="none" /><path d="M 117.94076556474637 110.91462005526583 l 6.040015561281022 3.674563091600573 a28.06995062887076,28.06995062887076 0 0,0 -0.25468181702735154,0.41062818150403546 l -5.9758691045857075 -3.7779876044698817" fill="#ff5107" stroke="none" /><path d="M 117.75023020441432 111.22182372390056 l 9.67487467193172 6.116525637636382 a32.44618214923426,32.44618214923426 0 0,0 -0.302514507942973,0.46950923429363906 l -9.568155300611696 -6.282156471851474" fill="#ff8d0d" stroke="none" /><path d="M 117.35343817320211 111.8261652097733 l 9.38426203274857 6.395264849732612 a32.356222364744,32.356222364744 0 0,0 -0.3176134440918347,0.4575458549443099 l -9.272787681494599 -6.5558519668639414" fill="#ff8c0c" stroke="none" /><path d="M 117.14729908036423 112.12312394758627 l 9.37388099424918 6.627324841691169 a32.48002959280345,32.48002959280345 0 0,0 -0.32668755210659567,0.45374043697530053 l -9.258413649766982 -6.7876988841176" fill="#ff8d0d" stroke="none" /><path d="M 116.93607887273984 112.41649034213515 l 9.008688195655658 6.604615555771188 a32.17038090872824,32.17038090872824 0 0,0 -0.33126106750665657,0.4437783338351424 l -8.89366586145391 -6.758706769115646" fill="#ff890c" stroke="none" /><path d="M 116.71984013943494 112.70617746262583 l 8.900309367981539 6.763755476053643 a32.17872510555768,32.17872510555768 0 0,0 -0.3389387916172929,0.43812407757425176 l -8.782563759146178 -6.915957547741148" fill="#ff890c" stroke="none" /><path d="M 116.498646956653 112.99209946851258 l 2.642934640250626 2.0812173158882756 a24.36401085441024,24.36401085441024 0 0,0 -0.2622984021277747,0.3272575868774534 l -2.6067183260679974 -2.1264027363439797" fill="#ff1c02" stroke="none" /><path d="M 116.0416608686014 113.55231037782055 l 6.0294896096762995 5.093831323296236 a28.89315288736943,28.89315288736943 0 0,0 -0.3242327571440613,0.3771559468502467 l -5.9409143429614595 -5.1968643693080105" fill="#ff5c08" stroke="none" /><path d="M 115.80600337817218 113.82643327865902 l 8.068708248392658 7.058169834091729 a31.72015924343301,31.72015924343301 0 0,0 -0.3630314077097421,0.4078696350314251 l -7.946017991034578 -7.196013638864021" fill="#ff830c" stroke="none" /><path d="M 115.56566222782051 114.09645910891815 l 24.004633179262424 21.738897136754357 a53.385213644398476,53.385213644398476 0 0,0 -0.6227095162910096,0.6758281933107617 l -23.626877254975692 -22.148876584866453" fill="#76ff27" stroke="none" /><path d="M 115.32070863581623 114.36230785411682 l 1.980303089428666 1.8564234390792496 a23.714389123018943,23.714389123018943 0 0,0 -0.28174212972586526,0.2954054966273788 l -1.9480544083238363 -1.8902360522891357" fill="#ff1302" stroke="none" /><path d="M 115.07121518719521 114.62390073753431 l 7.695452135173175 7.4670507160453194 a31.722724931692238,31.722724931692238 0 0,0 -0.3836325426279875,0.3886177402625904 l -7.565778967489652 -7.598408950288574" fill="#ff830c" stroke="none" /><path d="M 114.81725581225074 114.88116024355365 l 6.7285875676796 6.757606879179164 a30.53620162273544,30.53620162273544 0 0,0 -0.37566805445219287,0.3676702589259165 l -6.611269560851613 -6.872427241027653" fill="#ff730a" stroke="none" /><path d="M 114.55890576462653 115.13401014063108 l 8.192654266388972 8.51627964015438 a32.81721637433662,32.81721637433662 0 0,0 -0.4104717503134025,0.38812666027618137 l -8.044846681684762 -8.656040937176483" fill="#ff920d" stroke="none" /><path d="M 114.29624159901734 115.38237550388516 l 6.771666372312072 7.286132806617921 a30.94701948995658,30.94701948995658 0 0,0 -0.3933225449774835,0.3592908192494005 l -6.645244277867724 -7.401616392453905" fill="#ff790b" stroke="none" /><path d="M 114.0293411484842 115.62618273729858 l 7.5179590083837535 8.373664880849896 a32.25335377514265,32.25335377514265 0 0,0 -0.41631038976959966,0.36734551539264315 l -7.372706265707566 -8.501833538014829" fill="#ff8a0c" stroke="none" /><path d="M 113.75828350139079 115.86535959552629 l 5.991340513282827 6.908912125038579 a30.144901743463908,30.144901743463908 0 0,0 -0.39494777022950855,0.3365830579984787 l -5.871527266476271 -7.011019573260006" fill="#ff6e0a" stroke="none" /><path d="M 113.48314897796784 116.09983520530334 l 6.828377772350583 8.15356687329061 a31.63519608465935,31.63519608465935 0 0,0 -0.4204918198368788,0.3460361407884063 l -6.687015823969014 -8.269898132936195" fill="#ff820c" stroke="none" /><path d="M 113.20401910651253 116.32954008644616 l 8.647892066972954 10.694933037566079 a34.75382237343627,34.75382237343627 0 0,0 -0.4684194772492011,0.3721407624036046 l -8.462515097006401 -10.84220771397481" fill="#ffab0f" stroke="none" /><path d="M 112.92097659922987 116.55440617244103 l 8.213863177226532 10.52363389380099 a34.349697323346135,34.349697323346135 0 0,0 -0.46923530223866383,0.35978962053684727 l -8.031499146494374 -10.663462856165209" fill="#ffa60f" stroke="none" /><path d="M 112.63410532772338 116.77436683061366 l 2.1225216100444455 2.818082893029512 a24.52798656135355,24.52798656135355 0 0,0 -0.3394381685762295,0.2511082422921741 l -2.073698471049652 -2.8542010840614553" fill="#ff1f03" stroke="none" /><path d="M 112.34349029814194 116.9893568818739 l 5.601585606789444 7.709921155156536 a30.529986648937182,30.529986648937182 0 0,0 -0.4278162262819344,0.3052355182268446 l -5.468042052658625 -7.8052009352275995" fill="#ff730a" stroke="none" /><path d="M 112.04921762599082 117.19931262002967 l 7.235155057661864 10.32761607879768 a33.609802638402016,33.609802638402016 0 0,0 -0.4766880154776997,0.327870363718953 l -7.056310157561281 -10.450627231881727" fill="#ff9c0e" stroke="none" /><path d="M 111.7513745106137 117.40417183066458 l 5.069044843894923 7.507421995683142 a30.058509847137373,30.058509847137373 0 0,0 -0.43130426357697255,0.2858449475961631 l -4.939065881577986 -7.593564964370623" fill="#ff6c0a" stroke="none" /><path d="M 111.45004920935366 117.60387380957326 l 6.309816135919369 9.701024422462181 a32.57253881023158,32.57253881023158 0 0,0 -0.47264025376238983,0.3016613721507877 l -6.141894080110048 -9.808200223436778" fill="#ff8f0d" stroke="none" /><path d="M 111.1453310114006 117.79835938074945 l 10.03285452835084 16.021807726276553 a39.903875073773236,39.903875073773236 0 0,0 -0.585296358382135,0.35953682772369044 l -9.755578970036398 -16.192133020828624" fill="#ffed16" stroke="none" /><line stroke="#e1ed5e" stroke-width="0.3" x1="143.8653032363475" x2="146.44561519142675" y1="172.8068346515853" y2="177.08958963109032" /><path d="M 144.38136562736335 173.6633856474863 a86.0,86.0 0 0,1 -40.68145358897372,12.25698825130547" fill="none" id="id102" stroke="none" /><text fill="#e1ed5e" style="font-size:6.75px; font-family:Arial;" text-anchor="middle"><textPath startOffset="21.466115282336833" xlink:href="#id102">June</textPath></text><path d="M 110.8373102113329 117.98757091392108 l 3.933851131981176 6.529334753869437 a28.622820807068525,28.622820807068525 0 0,0 -0.42420673604557424,0.2506288169039968 l -3.8208765249072196 -6.596082143067183" fill="#ff5908" stroke="none" /><path d="M 110.5260780823613 118.17145234162733 l 6.514884024165211 11.246819910516031 a33.99748713974755,33.99748713974755 0 0,0 -0.5089120001885866,0.2889735154944176 l -6.320323257055425 -11.357296591805076" fill="#ffa10e" stroke="none" /><path d="M 110.21172684928248 118.3499491758327 l 11.924078163986616 21.426956626164056 a45.52138067728606,45.52138067728606 0 0,0 -0.6879737047244704,0.3751381176669763 l -11.553481647393497 -21.629035395590805" fill="#cdff1d" stroke="none" /><path d="M 109.89434966115114 118.52300852407294 l 2.6195978691175505 4.904095298938765 a26.559896014941152,26.559896014941152 0 0,0 -0.40511315816837745,0.21193605752340905 l -2.5347938084226773 -4.9484607754068906" fill="#ff3c05" stroke="none" /><path d="M 109.57404056367764 118.69057910512821 l 3.093165069190275 6.038521147513577 a27.784645001341453,27.784645001341453 0 0,0 -0.4275475932669149,0.2143812390064725 l -2.9887635682405995 -6.090870227429352" fill="#ff4d07" stroke="none" /><path d="M 109.2508944713604 118.85261126421891 l 9.015018581287968 18.37191434610963 a41.46454975712283,41.46454975712283 0 0,0 -0.6434653091866837,0.3089024517320511 l -8.697440604101052 -18.52437107434124" fill="#feff18" stroke="none" /><path d="M 108.92500713936063 119.00905698771935 l 5.660769029170181 12.05667170788632 a34.31944588462143,34.31944588462143 0 0,0 -0.5369064924107746,0.24646743706528346 l -5.452394540991987 -12.152326215285678" fill="#ffa60f" stroke="none" /><path d="M 108.59647513512805 119.15986991738527 l 5.523997737647463 12.311915804276845 a34.49436259247306,34.49436259247306 0 0,0 -0.5438271569155617,0.23839784398483974 l -5.311249906074147 -12.405178201556138" fill="#ffa80f" stroke="none" /><path d="M 108.2653958097858 119.30500536409082 l 5.277379428955064 12.326068893603328 a34.408307425138105,34.408307425138105 0 0,0 -0.5464834550794754,0.22843012854434125 l -5.0644245143781275 -12.415084065167642" fill="#ffa70f" stroke="none" /><path d="M 107.93186726928326 119.44442032107085 l 3.2266203857649796 7.909835208704809 a29.54263262365299,29.54263262365299 0 0,0 -0.47251179316776304,0.18802219403349704 l -3.08998751655535 -7.964204247144375" fill="#ff6509" stroke="none" /><path d="M 107.59598834532513 119.57807347666477 l 3.283434904206167 8.462799952814121 a30.077440598071135,30.077440598071135 0 0,0 -0.484289445215321,0.18311682917986938 l -3.137275238230571 -8.51806503210062" fill="#ff6d0a" stroke="none" /><path d="M 107.2578585660854 119.70592522655815 l 4.041461547911552 10.973035413131505 a32.69362722259803,32.69362722259803 0 0,0 -0.5297619921863487,0.18995380236914688 l -3.8519799950954683 -11.040976756540612" fill="#ff900d" stroke="none" /><path d="M 106.91757812671514 119.82793768551818 l 3.7677218820768292 10.799466710129868 a32.437841116394466,32.437841116394466 0 0,0 -0.5287835624911961,0.17939209422530036 l -3.5812685866484064 -10.862721791253291" fill="#ff8d0d" stroke="none" /><path d="M 106.57524785965236 119.94407469862006 l 4.168980098049248 12.645371287486427 a34.31487176266887,34.31487176266887 0 0,0 -0.5625656139918339,0.1801157443636289 l -3.950693138966474 -12.715259878509762" fill="#ffa60f" stroke="none" /><path d="M 106.2309692047433 120.05430185196036 l 3.054825301403986 9.83191967193892 a31.29556225067662,31.29556225067662 0 0,0 -0.515817965901063,0.1554117218066952 l -2.885132361062677 -9.88304676285134" fill="#ff7d0b" stroke="none" /><path d="M 105.88484417918355 120.15858648285463 l 3.7781919950249963 12.942230543665325 a34.48243546977528,34.48243546977528 0 0,0 -0.5712078356085256,0.16142903998382188 l -3.554852991311865 -13.005348376987666" fill="#ffa80f" stroke="none" /><path d="M 105.53697534728816 120.25689768951611 l 3.50567645335406 12.825437137429095 a34.2959243816196,34.2959243816196 0 0,0 -0.5707977782852492,0.15075288114541055 l -3.2843882322573132 -12.88388136787809" fill="#ffa50f" stroke="none" /><path d="M 105.18746579009965 120.34920634021253 l 3.3151351109963407 13.004494130466727 a34.42039449470485,34.42039449470485 0 0,0 -0.5753888773909046,0.14141658692084882 l -3.090792948862225 -13.059631975701606" fill="#ffa70f" stroke="none" /><path d="M 104.83641907484287 120.43548508189849 l 3.176029166696143 13.419783449556066 a34.790494882370375,34.790494882370375 0 0,0 -0.5839499256517289,0.13290510190060026 l -2.944559091651552 -13.47246528503435" fill="#ffac0f" stroke="none" /><path d="M 104.48393922423573 120.51570834832081 l 2.9336497908402253 13.422551130863933 a34.73940245993084,34.73940245993084 0 0,0 -0.5852903435792761,0.12265328216845497 l -2.702167985831571 -13.471060393758929" fill="#ffab0f" stroke="none" /><path d="M 104.13013068566511 120.58985236759428 l 2.742527524114017 13.672263938659837 a34.94461395768636,34.94461395768636 0 0,0 -0.5907842691080144,0.11322521125296214 l -2.5067756404342982 -13.717446348261268" fill="#ffae10" stroke="none" /><path d="M 103.7750983002368 120.6578951692458 l 1.1684266563474888 6.393803143686271 a27.49968764568543,27.49968764568543 0 0,0 -0.46638295424801085,0.0810866547261508 l -1.058194730627428 -6.412968376933428" fill="#ff4906" stroke="none" /><path d="M 103.41894727170886 120.7198165907248 l 2.2602568680965964 13.69781515568091 a34.88304365580471,34.88304365580471 0 0,0 -0.593284388668185,0.09265882000026622 l -2.024136615819894 -13.734692283028282" fill="#ffad10" stroke="none" /><path d="M 103.06178313531738 120.77559828337769 l 1.3155192778429097 8.926399696714764 a30.022815664518795,30.022815664518795 0 0,0 -0.5119196143586828,0.07094739392796395 l -1.1616710722973964 -8.94772165613533" fill="#ff6c09" stroke="none" /><path d="M 102.70371172650421 120.8252237178851 l 1.3102521404793155 10.092160967027223 a31.176859714863838,31.176859714863838 0 0,0 -0.5327866660494663,0.0645130454720626 l -1.1363380513784689 -10.113219541224636" fill="#ff7c0b" stroke="none" /><path d="M 101.98527174616119 120.90594882070398 l 1.2695662257457694 13.369195724090249 a34.42934073998375,34.42934073998375 0 0,0 -0.5904725097103706,0.050948452716555764 l -1.039249398293857 -13.389068429085468" fill="#ffa70f" stroke="none" /><path d="M 101.62511606390274 120.93702456842531 l 1.0907358525321347 14.052389148923261 a35.09465662911925,35.09465662911925 0 0,0 -0.6026876227684275,0.04156486709517729 l -0.8486854689847769 -14.069082360534724" fill="#ffb010" stroke="none" /><path d="M 101.26447882468166 120.96189622390904 l 0.8773296613013977 14.543931424859592 a35.57036885688271,35.57036885688271 0 0,0 -0.6114917889651541,0.03160714078138986 l -0.6268498039227639 -14.556878372403183" fill="#ffb610" stroke="none" /><path d="M 100.90346689309514 120.98055641714683 l 0.39720388486156627 9.223977745214835 a30.232526001607994,30.232526001607994 0 0,0 -0.520114112468946,0.017913781672684245 l -0.23836942071796796 -9.229448325313614" fill="#ff6f0a" stroke="none" /><line stroke="#e1ed5e" stroke-width="0.3" x1="102.19456741930631" x2="102.32365962044197" y1="184.97166512339345" y2="189.96999836594603" /><path d="M 102.22038585953345 185.97133177190398 a86.0,86.0 0 0,1 -42.740103519485714,-10.115201625700543" fill="none" id="id103" stroke="none" /><text fill="#e1ed5e" style="font-size:6.75px; font-family:Arial;" text-anchor="middle"><textPath startOffset="22.20632615414155" xlink:href="#id103">July</textPath></text><path d="M 100.54218724476979 120.99299961872073 l 0.3626152547999782 14.040134619895712 a35.044816480389045,35.044816480389045 0 0,0 -0.6031718731583979,0.01038415079985242 l -0.12088369174891225 -14.044296247974723" fill="#ffaf10" stroke="none" /><path d="M 100.18074693466247 120.99922214144158 l 0.04806901489437526 5.584669658560377 a26.584876527322496,26.584876527322496 0 0,0 -0.4576318991136576,0.0 l 0.04806901489437142 -5.584669658560377" fill="#ff3c05" stroke="none" /><path d="M 99.81925306533755 120.99922214144158 l -0.10323269548980529 11.993599276793692 a32.994043546766214,32.994043546766214 0 0,0 -0.5678751110113333,-0.009776485029626112 l 0.3096674963938065 -11.990045314484906" fill="#ff940d" stroke="none" /><path d="M 99.45781275523022 120.99299961872073 l -0.21149721278728326 8.188980744630392 a29.19171146384833,29.19171146384833 0 0,0 -0.5022081548416388,-0.01729706428723684 l 0.3524257193035651 -8.184126881917061" fill="#ff6108" stroke="none" /><path d="M 99.09653310690486 120.98055641714683 l -0.43677587909225773 10.142929467564947 a31.152329355992848,31.152329355992848 0 0,0 -0.535541075915531,-0.027681356456683674 l 0.6113050234212777 -10.133908304346061" fill="#ff7b0b" stroke="none" /><path d="M 98.73552117531835 120.96189622390904 l -3.793436474044945 62.885688671727095 a84.0,84.0 0 0,0 -1.4425489568842798,-0.09948662193485935 l 4.875348191708155 -62.81107370527595" fill="#4dd2ff" stroke="none" /><path d="M 98.37488393609728 120.93702456842531 l -1.4183211246356953 18.272802104423594 a39.3277639541766,39.3277639541766 0 0,0 -0.6744817932674323,-0.0581971271944889 l 1.7326472356446692 -18.245680724950443" fill="#ffe615" stroke="none" /><path d="M 98.01472825383883 120.90594882070398 l -0.9008077729614443 9.485976534567257 a30.52865181744975,30.52865181744975 0 0,0 -0.5227194315777305,-0.05418200635383524 l 1.0639598011447682 -9.469065159757662" fill="#ff730a" stroke="none" /><path d="M 97.65516085044442 120.86867818915974 l -1.1494424825535141 10.22984679776626 a31.29422088001163,31.29422088001163 0 0,0 -0.5347922709908949,-0.0647558962996696 l 1.3253621765957981 -10.208545372741243" fill="#ff7d0b" stroke="none" /><path d="M 97.2962882734958 120.8252237178851 l -0.65345939551916 5.033242992896919 a26.075484627810255,26.075484627810255 0 0,0 -0.44461359600791184,-0.061619393078380255 l 0.7400015827139028 -5.021249034325933" fill="#ff3505" stroke="none" /><path d="M 96.93821686468263 120.77559828337769 l -1.992390815417793 13.519282514540622 a34.665307199961696,34.665307199961696 0 0,0 -0.5895811670866559,-0.09208045294982975 l 2.224807846112966 -13.482983754243685" fill="#ffaa0f" stroke="none" /><path d="M 96.58105272829116 120.7198165907248 l -1.0861054897895417 6.58211570936887 a27.671122270388352,27.671122270388352 0 0,0 -0.4692904122438798,-0.0815921535667376 l 1.1992448735054715 -6.562444977281126" fill="#ff4b07" stroke="none" /><path d="M 96.22490169976321 120.6578951692458 l -1.2106669374892638 6.624948197496292 a27.734660574449094,27.734660574449094 0 0,0 -0.4688906048948107,-0.08986400039713337 l 1.3245251569557694 -6.603126998750691" fill="#ff4c07" stroke="none" /><path d="M 95.86986931433489 120.58985236759428 l -0.5298305936424877 2.64135315155939 a23.6939686206807,23.6939686206807 0 0,0 -0.3991965909819527,-0.08365552695602277 l 0.5752186460538272 -2.6318416438768257" fill="#ff1202" stroke="none" /><path d="M 95.51606077576429 120.51570834832081 l -1.5812240122422418 7.234694550092363 a28.405475988079875,28.405475988079875 0 0,0 -0.47677894917633434,-0.10851333657354065 l 1.705523110811439 -7.206404479941136" fill="#ff5607" stroke="none" /><path d="M 95.16358092515715 120.4354850818985 l -3.3434321354342806 14.127116874839336 a35.51736786196537,35.51736786196537 0 0,0 -0.5937264439290477,-0.14592351462514688 l 3.5861118641065386 -14.067472101900158" fill="#ffb510" stroke="none" /><path d="M 94.81253420990036 120.34920634021253 l -2.393157050993652 9.387791381322813 a30.68802496332248,30.68802496332248 0 0,0 -0.5107503817105145,-0.13489381794772864 l 2.554397875515656 -9.345206214071505" fill="#ff750a" stroke="none" /><path d="M 94.46302465271185 120.25689768951611 l -3.7057191804242713 13.557288879875053 a35.05462331108693,35.05462331108693 0 0,0 -0.5806862316076468,-0.16410772937031207 l 3.9385365801365317 -13.49149235716622" fill="#ffaf10" stroke="none" /><path d="M 94.11515582081647 120.15858648285463 l -1.180286244930151 4.043081111155134 a25.21183813688878,25.21183813688878 0 0,0 -0.41554514854947683,-0.1252003444891256 l 1.2497063679198737 -4.022165397560283" fill="#ff2803" stroke="none" /><path d="M 93.76903079525671 120.05430185196036 l -3.536724171372884 11.382905575242413 a32.919687797893786,32.919687797893786 0 0,0 -0.5396926588135741,-0.17279254641966785 l 3.7321381752773983 -11.320340182163038" fill="#ff930d" stroke="none" /><path d="M 93.42475214034765 119.94407469862007 l -4.439442332310597 13.465738689354897 a35.17867295172227,35.17867295172227 0 0,0 -0.5734630717370036,-0.19454980959527685 l 4.6705751369848265 -13.387325892861497" fill="#ffb110" stroke="none" /><path d="M 93.08242187328487 119.8279376855182 l -4.431954731179813 12.70336534335606 a34.45428235863983,34.45428235863983 0 0,0 -0.55829134948502,-0.20018341487053565 l 4.64996564129456 -12.625194387445566" fill="#ffa70f" stroke="none" /><path d="M 92.7421414339146 119.70592522655815 l -2.9295602321444627 7.954094772678137 a29.47643479338501,29.47643479338501 0 0,0 -0.4746123994981518,-0.17945779852152358 l 3.0660428524028975 -7.902488724049981" fill="#ff6409" stroke="none" /><path d="M 92.40401165467489 119.57807347666478 l -8.874051930965363 22.8721836898425 a45.53335656642538,45.53335656642538 0 0,0 -0.7282711813206358,-0.28979413285173816 l 9.266444188327856 -22.7160427125847" fill="#cdff1d" stroke="none" /><path d="M 92.06813273071674 119.44442032107085 l -5.470630845859008 13.410870602970897 a35.48375822020283,35.48375822020283 0 0,0 -0.5635640995585321,-0.23556983932186906 l 5.700666404915002 -13.314715720629055" fill="#ffb510" stroke="none" /><path d="M 91.7346041902142 119.30500536409082 l -5.459316918848956 12.751009731182153 a34.870558402066315,34.870558402066315 0 0,0 -0.5497581404792322,-0.24099781288360891 l 5.677995733985932 -12.655147365004092" fill="#ffad10" stroke="none" /><path d="M 91.40352486487194 119.15986991738527 l -5.7087345104851694 12.72365811503678 a34.94564898237245,34.94564898237245 0 0,0 -0.5467030523517648,-0.2509645572432696 l 5.9269055586043535 -12.623506487459437" fill="#ffae10" stroke="none" /><path d="M 91.07499286063937 119.00905698771935 l -3.4083311826618004 7.259284017657424 a29.01959636763106,29.01959636763106 0 0,0 -0.45033899218843587,-0.2161900833059387 l 3.5327828428504784 -7.199539657851923" fill="#ff5e08" stroke="none" /><path d="M 90.7491055286396 118.85261126421891 l -6.187052655629429 12.608737344150256 a35.04492356608965,35.04492356608965 0 0,0 -0.5392681002827718,-0.2704002205039041 l 6.403174663594961 -12.500369282737049" fill="#ffaf10" stroke="none" /><path d="M 90.42595943632237 118.69057910512821 l -3.4593230923587837 6.753340084355388 a28.58778746093273,28.58778746093273 0 0,0 -0.43604420954170137,-0.22811772171016367 l 3.5750582044269805 -6.692792943700508" fill="#ff5808" stroke="none" /><path d="M 90.10565033884886 118.52300852407294 l -6.493535361305775 12.15641401082668 a34.782031892690995,34.782031892690995 0 0,0 -0.5256677847427398,-0.2866359890390544 l 6.701825957917155 -12.04283737002786" fill="#ffac0f" stroke="none" /><line stroke="#e1ed5e" stroke-width="0.3" x1="58.666819895761336" x2="56.23545636021788" y1="174.27360380694188" y2="178.64263932499728" /><path d="M 58.180547188652646 175.14741091055294 a86.0,86.0 0 0,1 -31.652253787137756,-30.449443065178592" fill="none" id="id104" stroke="none" /><text fill="#e1ed5e" style="font-size:6.75px; font-family:Arial;" text-anchor="middle"><textPath startOffset="22.20632615414155" xlink:href="#id104">August</textPath></text><path d="M 89.7882731507175 118.34994917583269 l -1.3338467727231977 2.396854209779309 a23.743001515865583,23.743001515865583 0 0,0 -0.355411514452571,-0.20181193357691588 l 1.374907054096976 -2.37353911040776" fill="#ff1302" stroke="none" /><path d="M 89.4739219176387 118.17145234162733 l -7.097873978998955 12.253251185015227 a35.16057836477125,35.16057836477125 0 0,0 -0.5211000790638649,-0.307875111842459 l 7.307741929091202 -12.129257500879017" fill="#ffb110" stroke="none" /><path d="M 89.1626897886671 117.98757091392108 l -3.3596384186950576 5.576266907836201 a27.510140008617398,27.510140008617398 0 0,0 -0.40350930168707305,-0.24786836994268918 l 3.4551269203144397 -5.517610071065134" fill="#ff4906" stroke="none" /><path d="M 88.8546689885994 117.79835938074946 l -0.7591841207718077 1.2123670265004445 a22.43045249350602,22.43045249350602 0 0,0 -0.32547462205205935,-0.20773330309238305 l 0.7799405448707906 -1.1991192945842573" fill="#ff0000" stroke="none" /><path d="M 88.54995079064634 117.60387380957326 l -4.270464156653223 6.56562349623933 a28.832258678544132,28.832258678544132 0 0,0 -0.4137090015390315,-0.2741837673577272 l 4.382847856932217 -6.491141707790284" fill="#ff5c08" stroke="none" /><path d="M 88.24862548938628 117.40417183066458 l -3.9560562373335566 5.859049293692354 a28.06957138579579,28.06957138579579 0 0,0 -0.3981108851831235,-0.27382429699781285 l 4.056324007139571 -5.79008420732944" fill="#ff5107" stroke="none" /><path d="M 87.95078237400918 117.19931262002967 l -13.577442378595578 19.380733529634618 a44.663469181225025,44.663469181225025 0 0,0 -0.6258684963570464,-0.44654055431152684 l 13.909038202801511 -19.14414871347887" fill="#d7ff1c" stroke="none" /><path d="M 87.36589467227662 116.77436683061367 l -6.73574280132922 8.943080471098284 a32.19593316334989,32.19593316334989 0 0,0 -0.4398137278051858,-0.33723041186155006 l 6.888685257627893 -8.825810717409366" fill="#ff890c" stroke="none" /><path d="M 87.07902340077011 116.55440617244103 l -6.334173654867746 8.115368265252162 a31.29470533675843,31.29470533675843 0 0,0 -0.42179675538988476,-0.3351008524495056 l 6.472927902974988 -8.005133498797525" fill="#ff7d0b" stroke="none" /><path d="M 86.79598089348748 116.32954008644616 l -6.868845141111167 8.494768234926543 a31.92438194762905,31.92438194762905 0 0,0 -0.4243356490158074,-0.34919935051609985 l 7.014050918671662 -8.375273765553262" fill="#ff860c" stroke="none" /><path d="M 86.51685102203217 116.09983520530335 l -1.4235454956081257 1.69981418465325 a23.2171716307978,23.2171716307978 0 0,0 -0.30418311675563026,-0.2592314512109384 l 1.4525940889408124 -1.6750583432193602" fill="#ff0c01" stroke="none" /><path d="M 86.24171649860922 115.8653595955263 l -6.331199873863976 7.300820822586543 a30.66364716483008,30.66364716483008 0 0,0 -0.39579124056197257,-0.349239751937482 l 6.455933467332536 -7.1907579288767725" fill="#ff750a" stroke="none" /><path d="M 85.97065885151581 115.62618273729859 l -7.8674891968169725 8.762979142927712 a32.776552539746845,32.776552539746845 0 0,0 -0.4165750780848449,-0.38053145693073404 l 8.017163824368673 -8.626254919410401" fill="#ff910d" stroke="none" /><path d="M 85.70375840098266 115.38237550388516 l -3.642776536359173 3.9195306102598706 a26.35093833814342,26.35093833814342 0 0,0 -0.32959272531464157,-0.31165049392564614 l 3.7097050960646314 -3.856245479588294" fill="#ff3905" stroke="none" /><path d="M 85.44109423537348 115.13401014063109 l -5.748805346148651 5.9758940549307 a29.292169358115125,29.292169358115125 0 0,0 -0.36036349279454016,-0.3526915241606699 l 5.850818791318986 -5.87605242784746" fill="#ff6209" stroke="none" /><path d="M 85.18274418774928 114.88116024355367 l -9.608317394869037 9.649756516031374 a34.61754618054343,34.61754618054343 0 0,0 -0.4186404947677153,-0.42408061095276817 l 9.772998514692286 -9.482935411097941" fill="#ffaa0f" stroke="none" /><path d="M 84.9287848128048 114.62390073753433 l -10.7022861020503 10.384641694589437 a35.9124012464507,35.9124012464507 0 0,0 -0.42666232548760047,-0.44735374250025023 l 10.879454978916858 -10.198880835506687" fill="#ffba11" stroke="none" /><path d="M 84.67929136418377 114.36230785411682 l -6.72610576049151 6.305348132898619 a30.219431315345062,30.219431315345062 0 0,0 -0.3524932499533393,-0.38256180456197386 l 6.833645418440579 -6.188635073535301" fill="#ff6f0a" stroke="none" /><path d="M 84.43433777217949 114.09645910891817 l -2.8961110912414902 2.6227545590449526 a24.907211400705503,24.907211400705503 0 0,0 -0.2850584685760754,-0.32026621132930083 l 2.940828409465904 -2.5725141779747878" fill="#ff2403" stroke="none" /><path d="M 84.19399662182784 113.82643327865904 l -17.98732972115193 15.734566689654088 a44.898130039997014,44.898130039997014 0 0,0 -0.5038371738185965,-0.5860764594660389 l 18.255509404541307 -15.42261313102652" fill="#d5ff1c" stroke="none" /><path d="M 83.95833913139862 113.55231037782056 l -10.835997711645307 9.154463832919447 a35.18531122235295,35.18531122235295 0 0,0 -0.3868775764872448,-0.46601896340220583 l 10.99197128802609 -8.96658361240348" fill="#ffb110" stroke="none" /><path d="M 83.72743513129214 113.27417163493432 l -2.237074663433593 1.8248698519361597 a23.886979914423033,23.886979914423033 0 0,0 -0.25716277589315995,-0.32085010351113824 l 2.268155351381614 -1.786091914846762" fill="#ff1502" stroke="none" /><path d="M 83.50135304334701 112.99209946851258 l -9.538640286099001 7.511341003717076 a33.14108323757449,33.14108323757449 0 0,0 -0.34907531819809634,-0.4512269045974741 l 9.666522421515166 -7.346036105006349" fill="#ff960d" stroke="none" /><path d="M 83.28015986056508 112.70617746262583 l -5.3160789397492385 4.039933507167163 a27.676957243833254,27.676957243833254 0 0,0 -0.28499191314956157,-0.3817932403766693 l 5.384832119593885 -3.9478273872811855" fill="#ff4b07" stroke="none" /><path d="M 83.06392112726016 112.41649034213515 l -10.785810515414402 7.907492230229404 a34.37393516679224,34.37393516679224 0 0,0 -0.3457366534665365,-0.48019797268277 l 10.920326961256546 -7.7206606520954955" fill="#ffa60f" stroke="none" /><path d="M 82.85270091963577 112.12312394758628 l -4.3585996814260035 3.081525780135582 a26.337901489964672,26.337901489964672 0 0,0 -0.258536720018781,-0.37244142776679573 l 4.410997308606919 -3.0060430901817736" fill="#ff3905" stroke="none" /><path d="M 82.6465618267979 111.8261652097733 l -19.298439853314157 13.151661112816438 a44.35371428270784,44.35371428270784 0 0,0 -0.42452184925352426,-0.6346025647531311 l 19.52196480797841 -12.817521633857487" fill="#dbff1b" stroke="none" /><path d="M 82.44556493220864 111.52570212397912 l -11.048336620471153 7.253997998867078 a34.21689180733547,34.21689180733547 0 0,0 -0.3190238574395284,-0.49513211133685747 l 11.171565341287726 -7.062744287608772" fill="#ffa40f" stroke="none" /><path d="M 82.24976979558568 111.22182372390057 l -6.043638508208095 3.82083191085726 a28.15012747501196,28.15012747501196 0 0,0 -0.255409270564018,-0.4118010682313879 l 6.1085124184400685 -3.7162345112606077" fill="#ff5207" stroke="none" /><path d="M 82.05923443525364 110.91462005526583 l -8.33787800447322 5.072513218990373 a30.75964138553822,30.75964138553822 0 0,0 -0.27129875434599116,-0.4547123173590764 l 8.423957634517443 -4.928238807745186" fill="#ff760a" stroke="none" /><line stroke="#e1ed5e" stroke-width="0.3" x1="26.63291911575756" x2="22.317208475507996" y1="142.92168965132927" y2="145.44649492493687" /><path d="M 25.769776987707644 143.4266507060508 a86.0,86.0 0 0,1 -11.730757126820373,-40.83630448921669" fill="none" id="id105" stroke="none" /><text fill="#e1ed5e" style="font-size:6.75px; font-family:Arial;" text-anchor="middle"><textPath startOffset="21.46611528233685" xlink:href="#id105">September</textPath></text><path d="M 81.87401531095188 110.60418214915194 l -12.090379369896219 7.073192838356144 a35.00740269416799,35.00740269416799 0 0,0 -0.2998100711636193,-0.5227441301398819 l 12.210341437212216 -6.864028862357955" fill="#ffaf10" stroke="none" /><path d="M 81.69416730710424 110.29060199501025 l -11.661663057138826 6.555589966005896 a34.37797238226457,34.37797238226457 0 0,0 -0.2855394942233899,-0.5183371225681146 l 11.772778960813733 -6.353882325039959" fill="#ffa60f" stroke="none" /><path d="M 81.35079622478065 109.6543875284942 l -22.555868874543172 11.676804102816378 a46.39911366054207,46.39911366054207 0 0,0 -0.3610764226259042,-0.7124380371700098 l 22.753523966955342 -11.286811853943684" fill="#c3ff1e" stroke="none" /><path d="M 81.18737489456691 109.33194174019688 l -8.237102153248198 4.085987839090194 a30.194843582369362,30.194843582369362 0 0,0 -0.22695989173833128,-0.4676046002803458 l 8.306215301601249 -3.9435942828445634" fill="#ff6e0a" stroke="none" /><path d="M 81.02952815118164 109.00673069616217 l -10.426450195022733 4.950231590015332 a32.541908701080395,32.541908701080395 0 0,0 -0.2358906914659686,-0.5080875635966091 l 10.510115503328528 -4.7700239591398965" fill="#ff8e0d" stroke="none" /><path d="M 80.87730276802145 108.67885076344099 l -5.678735333431091 2.5772983740760966 a27.236224971581287,27.236224971581287 0 0,0 -0.1900815041833229,-0.4285836118818197 l 5.722257922345694 -2.4791664257015813" fill="#ff4506" stroke="none" /><path d="M 80.73074385275274 108.34839909993369 l -10.410364574754379 4.510287142468479 a32.34541231894273,32.34541231894273 0 0,0 -0.21694378990730295,-0.512791035181318 l 10.486459345853989 -4.330421581621002" fill="#ff8b0c" stroke="none" /><path d="M 80.58989483394504 108.01547362559985 l -11.254384560233923 4.647539095907326 a33.17623880669309,33.17623880669309 0 0,0 -0.21342967293127796,-0.5297149449753451 l 11.33271684742259 -4.453124783089176" fill="#ff970d" stroke="none" /><path d="M 80.45479744820244 107.68017299344265 l -28.002472903894592 11.003407899004943 a51.08676576379115,51.08676576379115 0 0,0 -0.3145624309678414,-0.8212232461224077 l 28.187729614455943 -10.519761086049376" fill="#8eff24" stroke="none" /><path d="M 80.32549172779594 107.34259656027581 l -5.231794219421945 1.9525242363424502 a26.584265542386174,26.584265542386174 0 0,0 -0.15631008730854676,-0.43009822776190826 l 5.264628567735716 -1.8621782115744248" fill="#ff3c05" stroke="none" /><path d="M 80.20201598880116 107.00284435728193 l -23.22190564050408 8.213936872963977 a45.631801812484454,45.631801812484454 0 0,0 -0.2555580139871228,-0.7427712127012611 l 23.35985448543443 -7.812992957173419" fill="#ccff1d" stroke="none" /><path d="M 79.97269907076064 106.31721596034903 l -8.034580360164949 2.5343494595339164 a29.424809122288064,29.424809122288064 0 0,0 -0.14820747758359362,-0.4843506119704493 l 8.077014610254674 -2.3956718750114194" fill="#ff6409" stroke="none" /><path d="M 79.86692584326677 105.97154293290107 l -6.950586111617138 2.061569090305401 a28.249876854754685,28.249876854754685 0 0,0 -0.13426408176977833,-0.4673908824333453 l 6.985042830273021 -1.9416207323674597" fill="#ff5307" stroke="none" /><path d="M 79.76711848015287 105.62410040840567 l -13.277794415691206 3.690806419380432 a34.78121462610246,34.78121462610246 0 0,0 -0.15537584053544126,-0.578211303863806 l 13.339358332568422 -3.461704182341087" fill="#ffac0f" stroke="none" /><path d="M 79.67330655649465 105.27499134158121 l -8.287289753402337 2.1506391000519405 a29.56180004412154,29.56180004412154 0 0,0 -0.1235805510926529,-0.4936428710844942 l 8.323081618790049 -2.0076683895700547" fill="#ff6609" stroke="none" /><path d="M 79.58551787078972 104.9243191809786 l -8.670910188396366 2.091570537376877 a29.919604857170462,29.919604857170462 0 0,0 -0.11645769374316793,-0.5016966966645502 l 8.705628448070089 -1.9420051833637526" fill="#ff6b09" stroke="none" /><path d="M 79.50377843672027 104.57218783832718 l -13.246543533165248 2.9549683123408896 a34.5721314944625,34.5721314944625 0 0,0 -0.12456826489874007,-0.5819414626961763 l 13.295445836788428 -2.7265130302285496" fill="#ffa90f" stroke="none" /><path d="M 79.4281124754447 104.21870165774334 l -11.950346994354206 2.4506719967000246 a33.19904039344408,33.19904039344408 0 0,0 -0.10998378406264102,-0.5608049454328938 l 11.990760711392513 -2.2446033241991756" fill="#ff970d" stroke="none" /><path d="M 79.35854240842038 103.8639653848113 l -13.42051128436521 2.5122446328795403 a34.65362575396023,34.65362575396023 0 0,0 -0.10470932571119478,-0.5872655059496689 l 13.461767052415594 -2.280860376196658" fill="#ffaa0f" stroke="none" /><path d="M 79.29508885075956 103.50808413554451 l -14.903989857046353 2.52521974119839 a36.116403289151776,36.116403289151776 0 0,0 -0.09857756549115657,-0.6138425944130763 l 14.9452491768988 -2.2682979170921" fill="#ffbd11" stroke="none" /><path d="M 79.23777060512086 103.15116336523772 l -10.98573720988012 1.667347565499944 a32.111546694710114,32.111546694710114 0 0,0 -0.07823894095045887,-0.5472029707816579 l 11.012810201847179 -1.4779991227378855" fill="#ff880c" stroke="none" /><path d="M 79.18660465613746 102.79330883721812 l -11.037702718002633 1.481339879217492 a32.13666238730271,32.13666238730271 0 0,0 -0.06886196691772403,-0.5488976302278621 l 11.061566194167206 -1.2911244947022216" fill="#ff890c" stroke="none" /><path d="M 79.1416061653843 102.43462659150553 l -38.953289367644665 4.546693042284515 a60.21774050324951,60.21774050324951 0 0,0 -0.11131019500681122,-1.0305941630788384 l 39.02578186415253 -3.8755025573208943" fill="#30ff2f" stroke="none" /><path d="M 79.10278846688536 102.07522291339032 l -11.3497513838198 1.127100814176223 a32.4055781405344,32.4055781405344 0 0,0 -0.05034500331951034,-0.5555529164493397 l 11.367470983416386 -0.9315665091783173" fill="#ff8c0c" stroke="none" /><path d="M 79.07016306316243 101.71520430193888 l -12.158794239116682 0.9964156074535431 a33.19955414808074,33.19955414808074 0 0,0 -0.04177364149533493,-0.5699681488911196 l 12.174144439276354 -0.786974322065663" fill="#ff970d" stroke="none" /><path d="M 79.04373962182676 101.35467743843564 l -12.187453087374895 0.7878346342105699 a33.21289057380871,33.21289057380871 0 0,0 -0.031969224574751307,-0.5708319804925571 l 12.199208662837178 -0.5779309373825752" fill="#ff970d" stroke="none" /><path d="M 79.0235259727143 100.99374915477108 l -12.391790370547762 0.5870543920209869 a33.40568826977332,33.40568826977332 0 0,0 -0.022267066019737363,-0.5746140324857025 l 12.4000595694187 -0.3736631125212876" fill="#ff9a0e" stroke="none" /><path d="M 79.0095281055655 100.63252640178507 l -14.469775017322405 0.43603187066857957 a35.47634321381496,35.47634321381496 0 0,0 -0.013139655889629233,-0.6105481779046418 l 14.475136735897042 -0.186893876973809" fill="#ffb510" stroke="none" /><line stroke="#e1ed5e" stroke-width="0.3" x1="15.007084014347285" x2="10.007500721073583" y1="101.09737516637583" y2="101.16192664675087" /><path d="M 14.007167355692545 101.11028546245083 a86.0,86.0 0 0,1 10.666146001902534,-42.60595125391555" fill="none" id="id106" stroke="none" /><text fill="#e1ed5e" style="font-size:6.75px; font-family:Arial;" text-anchor="middle"><textPath startOffset="22.20632615414155" xlink:href="#id106">October</textPath></text><path d="M 79.00175016825051 100.2711162175752 l -6.74137374830361 0.08704038510568457 a27.741935630288708,27.741935630288708 0 0,0 -0.0020551525930701466,-0.4775450850777674 l 6.741873198186182 0.02901417817575818" fill="#ff4c07" stroke="none" /><path d="M 79.00019446554 99.90962569577889 l -9.94895863950595 -0.04281612100143547 a30.94905077034074,30.94905077034074 0 0,0 0.006878047602792393,-0.5327123667106569 l 9.946747584785442 0.2140647457725644" fill="#ff790b" stroke="none" /><path d="M 79.00486145842228 99.54816195383935 l -14.585925463425475 -0.31390486182253907 a35.58930285815191,35.58930285815191 0 0,0 0.018452723982387734,-0.6123560740468217 l 14.578361044987442 0.5649310832943552" fill="#ffb610" stroke="none" /><path d="M 79.01574976396665 99.18683210126434 l -13.772146927065583 -0.5336892027016529 a34.78248363488099,34.78248363488099 0 0,0 0.02833346627000908,-0.5980746916486892 l 13.760919852562076 0.7706750009733512" fill="#ffac0f" stroke="none" /><path d="M 79.03285615573316 98.82574320788736 l -34.24248384330631 -1.917737080952235 a55.29614286287531,55.29614286287531 0 0,0 0.06140349387132326,-0.9498848723596562 l 34.204399758430576 2.5068810175649032" fill="#61ff29" stroke="none" /><path d="M 79.08570108090925 98.10471618934814 l -14.824648445580197 -1.3434309371884423 a35.885395803203835,35.885395803203835 0 0,0 0.061044261148634725,-0.6147073790842363 l 14.799327058749334 1.598413846977109" fill="#ffba11" stroke="none" /><path d="M 79.12142395522702 97.74499172005258 l -14.570151222750498 -1.5736615168070336 a35.65488714467966,35.65488714467966 0 0,0 0.07115636828240002,-0.6096243089817915 l 14.540904501464508 1.824229564113687" fill="#ffb711" stroke="none" /><path d="M 79.21141760316559 97.0276538004421 l -8.31826381637279 -1.1893432351250968 a29.402859647150763,29.402859647150763 0 0,0 0.07594913580425175,-0.5004099112429724 l 8.296558787129236 1.3323522587601613" fill="#ff6309" stroke="none" /><path d="M 79.26566170972629 96.67025291283419 l -12.019699412620707 -1.930254949421589 a33.17370355066695,33.17370355066695 0 0,0 0.09539515256689261,-0.56302759045978 l 11.984692398533591 2.1368683281971967" fill="#ff970d" stroke="none" /><path d="M 79.32604984820605 96.31383870115002 l -13.134187641498348 -2.341823106878482 a34.34132753761776,34.34132753761776 0 0,0 0.10877088291137998,-0.5810584058644684 l 13.091931034677106 2.5675595902055233" fill="#ffa60f" stroke="none" /><path d="M 79.3925641242962 95.95851677861259 l -14.217678930351468 -2.7883386943755966 a35.48852051940129,35.48852051940129 0 0,0 0.1227238736692421,-0.5984451925078386 l 14.167575760767232 3.0326595430468375" fill="#ffb510" stroke="none" /><path d="M 79.46518482838121 95.60439243477599 l -11.001074483145262 -2.3548498401163886 a32.2502869987039,32.2502869987039 0 0,0 0.12087040988539086,-0.5418383472105649 l 10.958909686257835 2.5438663568769124" fill="#ff8a0c" stroke="none" /><path d="M 79.54389044137918 95.25157060432595 l -11.444756994875684 -2.6566449688333527 a32.74905209632605,32.74905209632605 0 0,0 0.13219264001515488,-0.548023835990703 l 11.397331554599715 2.8532540364834524" fill="#ff910d" stroke="none" /><path d="M 79.62865764111835 94.90015583598534 l -3.9844003316603422 -0.9974708794610608 a25.107358537832784,25.107358537832784 0 0,0 0.1085638215372654,-0.4183406903530449 l 3.9666401782527694 1.0659079953629695" fill="#ff2703" stroke="none" /><path d="M 79.71946130924805 94.55025226153421 l -11.843582827180937 -3.182585024587845 a33.26373930019005,33.26373930019005 0 0,0 0.1533509535566696,-0.5516849716321567 l 11.787045103057906 3.3859812996389445" fill="#ff980e" stroke="none" /><path d="M 79.81627453868168 94.20196356495316 l -13.956580789060805 -4.0092085120129255 a35.52101581206969,35.52101581206969 0 0,0 0.17387385495631316,-0.5862162015892796 l 13.885501036992784 4.248854100348744" fill="#ffb510" stroke="none" /><path d="M 79.91906864156998 93.8553929516997 l -12.780537865354544 -3.910744060960042 a34.36548043424162,34.36548043424162 0 0,0 0.17795512118546955,-0.5641663647800528 l 12.711327260400871 4.13016059216651" fill="#ffa60f" stroke="none" /><path d="M 80.02781315780177 93.51064311812611 l -10.732980264571934 -3.487356687238489 a32.28532330169223,32.28532330169223 0 0,0 0.17628202577263274,-0.5270608194604188 l 10.671360945027528 3.67159060962123" fill="#ff8b0c" stroke="none" /><path d="M 80.14247586403 93.16781622104843 l -9.917955095468788 -3.4123736403214964 a31.48857126289831,31.48857126289831 0 0,0 0.1807547740687217,-0.511018086991931 l 9.857747240590257 3.582589353740038" fill="#ff800b" stroke="none" /><path d="M 80.2630227832202 92.82701384747504 l -8.443975343334222 -3.0687839148187774 a29.984328261739257,29.984328261739257 0 0,0 0.18047054805451482,-0.48357134447468153 l 8.38990020677808 3.2136783963228" fill="#ff6b09" stroke="none" /><path d="M 80.38941819471856 92.48833698450439 l -31.3595083644894 -12.011987278328476 a54.58134308268813,54.58134308268813 0 0,0 0.34361931484055774,-0.8744736759188648 l 31.14809549976715 12.550009959143104" fill="#69ff28" stroke="none" /><path d="M 80.65960295795068 91.81776055985345 l -10.097593484782369 -4.2719354459022245 a31.96406980267251,31.96406980267251 0 0,0 0.21873970389909858,-0.5048813950495296 l 10.022563071040588 4.4451159855383535" fill="#ff860c" stroke="none" /><path d="M 80.803312248108 91.48605970444005 l -10.501953942412591 -4.657731063193894 a32.488494038193025,32.488494038193025 0 0,0 0.23112884450742863,-0.5092617715827968 l 10.42022278094181 4.837814843618761" fill="#ff8d0d" stroke="none" /><path d="M 80.95270993114464 91.15688171328213 l -6.665826131446912 -3.094754621050533 a28.34920024078771,28.34920024078771 0 0,0 0.2093005337368371,-0.4408403023406894 l 6.611567403868324 3.209037339031754" fill="#ff5507" stroke="none" /><path d="M 81.26839172434947 90.50648371742162 l -20.96220137165399 -10.624021019015933 a44.50071720093378,44.50071720093378 0 0,0 0.35217140078117376,-0.6802830524037349 l 20.7762205377127 10.983276793680004" fill="#d9ff1c" stroke="none" /><path d="M 81.43458229118936 90.18545643968196 l -10.167765323010155 -5.375153806876959 a32.50111864608794,32.50111864608794 0 0,0 0.26572280180346697,-0.49234399544229196 l 10.073734421988215 5.549378785651724" fill="#ff8e0d" stroke="none" /><path d="M 81.6062741919709 89.86733742301443 l -6.365971501412384 -3.5068610825089572 a28.267989254863448,28.267989254863448 0 0,0 0.23845039488222555,-0.4241766454854187 l 6.304663465237727 3.6159212379291605" fill="#ff5407" stroke="none" /><line stroke="#e1ed5e" stroke-width="0.3" x1="26.266209847984243" x2="21.928928074336255" y1="57.711370442889674" y2="55.22380399835377" /><path d="M 25.398753493254645 57.213857153982495 a86.0,86.0 0 0,1 29.58750427330803,-30.492523968695096" fill="none" id="id107" stroke="none" /><text fill="#e1ed5e" style="font-size:6.75px; font-family:Arial;" text-anchor="middle"><textPath startOffset="21.46611528233685" xlink:href="#id107">November</textPath></text><path d="M 81.78341655067845 89.55222093294921 l -10.386174667523761 -5.956795278322585 a32.97313802694008,32.97313802694008 0 0,0 0.28661558805583565,-0.4899189477953371 l 10.2820994049976 6.134693638471814" fill="#ff940d" stroke="none" /><path d="M 81.96595687620814 89.24020034530311 l -11.64295768340337 -6.946633719438142 a34.557808954604596,34.557808954604596 0 0,0 0.3091841118292052,-0.5082173853588114 l 11.521657773287949 7.146018878004028" fill="#ffa90f" stroke="none" /><path d="M 82.15384107792192 88.93136811851018 l -11.865128888754858 -7.359048211410032 a34.96197959189965,34.96197959189965 0 0,0 0.3216042684650882,-0.5087007192796442 l 11.736697024043806 7.562196578403892" fill="#ffae10" stroke="none" /><path d="M 82.34701348167596 88.62581576622439 l -8.603952602384888 -5.5437045701369385 a31.235265543455277,31.235265543455277 0 0,0 0.29510389425287364,-0.44946347686157073 l 8.507252072774094 5.690986110976176" fill="#ff7d0b" stroke="none" /><path d="M 82.7489923806493 88.02491185347247 l -20.928025007804482 -14.527553968503994 a46.47610753304134,46.47610753304134 0 0,0 0.4618560534658875,-0.6532626338801928 l 20.674856334534716 14.885643102715973" fill="#c2ff1e" stroke="none" /><path d="M 82.95767976084542 87.72973835380427 l -6.580147802072069 -4.737625749841522 a29.108233028390053,29.108233028390053 0 0,0 0.29626274675392666,-0.40410205362558804 l 6.497622442804509 4.8501902471386105" fill="#ff5f08" stroke="none" /><path d="M 83.17141714833178 87.43820079747576 l -9.05355959607932 -6.7580852598506755 a32.29772799013903,32.29772799013903 0 0,0 0.3363947708352687,-0.442656086667405 l 8.935888885019942 6.912926122399107" fill="#ff8b0c" stroke="none" /><path d="M 83.39014120810768 87.1503855733568 l -5.327101647124821 -4.121118850841922 a27.735104493737616,27.735104493737616 0 0,0 0.29537347353924925,-0.37509431574897567 l 5.255374092991601 4.2122055605439455" fill="#ff4c07" stroke="none" /><path d="M 83.6137871275137 86.86637796730984 l -10.785065763921518 -8.644277872093806 a34.821764846143296,34.821764846143296 0 0,0 0.3788964655192861,-0.46448226550426286 l 10.634670806325838 8.828644307206151" fill="#ffac0f" stroke="none" /><path d="M 83.84228863543731 86.58626213691792 l -2.3188028780159873 -1.9250135901105427 a24.013722633091092,24.013722633091092 0 0,0 0.26676888671258003,-0.31577021862937366 l 2.2853233778162827 1.9646427583690322" fill="#ff1702" stroke="none" /><path d="M 84.07557802195018 86.31012108654704 l -10.330925400709507 -8.881271671560464 a34.62369282313306,34.62369282313306 0 0,0 0.3924152668993854,-0.4485984859039195 l 10.176518270232279 9.057785713667327" fill="#ffaa0f" stroke="none" /><path d="M 84.31358615837235 86.03803664274999 l -21.002308369228427 -18.693467023716245 a49.11659058639452,49.11659058639452 0 0,0 0.567545383668892,-0.6266977879260369 l 20.677419344943488 19.052217598911838" fill="#a4ff21" stroke="none" /><path d="M 84.80347519578584 85.50635884689758 l -5.3481066400486235 -5.1007410896926695 a28.39052124666531,28.39052124666531 0 0,0 0.3403289890419787,-0.3507389389704724 l 5.259513387303526 5.192044224213266" fill="#ff5507" stroke="none" /><path d="M 85.05521093208273 85.24692304244772 l -9.908563557531373 -9.78145626804959 a34.92323663870601,34.92323663870601 0 0,0 0.4260039509105569,-0.42417455456173725 l 9.738723806453503 9.950566673261436" fill="#ffae10" stroke="none" /><path d="M 85.83668400450813 84.49514656593479 l -9.886840931732246 -10.823314231018934 a35.659254911241334,35.659254911241334 0 0,0 0.45675941722087204,-0.41008311464827363 l 9.699070526915403 10.991896354436486" fill="#ffb711" stroke="none" /><path d="M 86.10567301691215 84.25364557470407 l -17.941666646840165 -20.33317931451693 a48.117182432963716,48.117182432963716 0 0,0 0.6257667101946153,-0.5426587246732091 l 17.589006137998776 20.63900303260982" fill="#afff20" stroke="none" /><path d="M 86.93701828274178 83.55741782278169 l -3.8716012829744497 -4.873245912043775 a27.223971578789605,27.223971578789605 0 0,0 0.3694259818676234,-0.28834283858550547 l 3.787142745947401 4.939167139852502" fill="#ff4506" stroke="none" /><path d="M 87.22198572758235 83.33499621200491 l -7.450682872249257 -9.7171325404766 a33.24480869887389,33.24480869887389 0 0,0 0.4571222085412558,-0.34429497033602546 l 7.282314509949612 9.84394410031848" fill="#ff970e" stroke="none" /><path d="M 87.51073957382395 83.11751280151077 l -7.71643948879325 -10.430777039001637 a33.97476581760039,33.97476581760039 0 0,0 0.4731466375781273,-0.34376115418324993 l 7.535747534861341 10.562057428001554" fill="#ffa10e" stroke="none" /><path d="M 87.80319425747018 82.90503203632743 l -7.4845126798851895 -10.490246970171055 a33.88655157714992,33.88655157714992 0 0,0 0.4777501289945856,-0.3346944963601105 l 7.3028314113069435 10.617526309295108" fill="#ffa00e" stroke="none" /><path d="M 88.09926311788651 82.69761687909137 l -26.763546558976074 -38.911299428329286 a68.22686362247211,68.22686362247211 0 0,0 0.9733546693646611,-0.6572134177166491 l 26.089787195204874 39.3662247583446" fill="#39ff8c" stroke="none" /><path d="M 88.39885842347998 82.49532879139004 l -3.381659837104777 -5.102501611366182 a27.121367980107223,27.121367980107223 0 0,0 0.3913651811338425,-0.25455480034020345 l 3.2933276301866474 5.15995533586592" fill="#ff4406" stroke="none" /><path d="M 89.00827224532344 82.1063720568725 l -4.997394493802685 -8.135346849278887 a30.54766045085189,30.54766045085189 0 0,0 0.45041497447079115,-0.2713699823911078 l 4.856617453114245 8.220163441128614" fill="#ff730a" stroke="none" /><line stroke="#e1ed5e" stroke-width="0.3" x1="56.762969772571076" x2="54.21961505331055" y1="26.818313649435495" y2="22.513508569990535" /><path d="M 56.25429882871897 25.957352633546506 a86.0,86.0 0 0,1 42.265352541879196,-11.944610805530505" fill="none" id="id108" stroke="none" /><text fill="#e1ed5e" style="font-size:6.75px; font-family:Arial;" text-anchor="middle"><textPath startOffset="22.20632615414155" xlink:href="#id108">December</textPath></text><path d="M 89.3179101791058 81.91981866633112 l -5.741630695731685 -9.718110020638104 a32.28751458113765,32.28751458113765 0 0,0 0.48093524102635604,-0.2785887338243035 l 5.57349872224001 9.815502911852455" fill="#ff8b0c" stroke="none" /><path d="M 89.94658935756843 81.56283822128135 l -6.911573320913215 -12.67528006120834 a35.43719399330857,35.43719399330857 0 0,0 0.5380630877097058,-0.2874146671497557 l 6.692365186675203 12.792373454859845" fill="#ffb410" stroke="none" /><path d="M 90.58718382345135 81.22770947309562 l -5.0528503191181455 -10.077066459214226 a32.27291287870321,32.27291287870321 0 0,0 0.4987375012575456,-0.24472832587388985 l 4.878641550850174 10.162549945222946" fill="#ff8b0c" stroke="none" /><path d="M 90.91171255644093 81.06846463323043 l -5.829077246853387 -12.142373658377727 a34.469052661915356,34.469052661915356 0 0,0 0.5370964317542826,-0.2521739763855171 l 5.619202603799496 12.24091261740325" fill="#ffa80f" stroke="none" /><path d="M 91.23893434514133 80.91482961587045 l -5.091101344280765 -11.09049291790027 a33.203210481661515,33.203210481661515 0 0,0 0.5214767876744473,-0.23397143394601874 l 4.899442438139544 11.176484682362817" fill="#ff970d" stroke="none" /><path d="M 91.56875222667455 80.76684994638697 l -4.905249541382288 -11.189731700010416 a33.21767443425504,33.21767443425504 0 0,0 0.525655844901742,-0.22505839992782364 l 4.711909938690238 11.272509627901027" fill="#ff970d" stroke="none" /><path d="M 91.90106846888425 80.62456947434976 l -4.787757679457536 -11.453963517975074 a33.41434266758851,33.41434266758851 0 0,0 0.5325866418068141,-0.21725546364718226 l 4.589887168062341 11.534679867805833" fill="#ff9a0e" stroke="none" /><path d="M 92.23578459929587 80.48803036053334 l -4.198726495116197 -10.55166809124096 a32.35636401708326,32.35636401708326 0 0,0 0.5192685425312266,-0.2014681271812791 l 4.016474787585294 10.622378922312791" fill="#ff8c0c" stroke="none" /><path d="M 92.57280143429618 80.3572730644239 l -9.122842294391852 -24.127199303992583 a46.79434042155226,46.79434042155226 0 0,0 0.7558793964193143,-0.27839676082986947 l 8.706180572199967 24.280659332628776" fill="#bfff1e" stroke="none" /><path d="M 92.91201910852362 80.23233633223022 l -4.106787462817154 -11.453415939313219 a33.16743358082,33.16743358082 0 0,0 0.5390781885795036,-0.18807379491768783 l 3.909027270174365 11.522410587403117" fill="#ff960d" stroke="none" /><path d="M 93.25333710446033 80.11325718540243 l -3.9637134626170862 -11.68360587186545 a33.33765255560476,33.33765255560476 0 0,0 0.5450185137358742,-0.17968403498612082 l 3.762012126638803 11.750103631110804" fill="#ff990e" stroke="none" /><path d="M 93.59665428221793 80.00007090966166 l -4.3213674688915695 -13.49716956732768 a35.1720782925579,35.1720782925579 0 0,0 0.5781864713692593,-0.17964535112195343 l 4.088395624811581 13.569555053332158" fill="#ffb110" stroke="none" /><path d="M 93.94186890950719 79.89281104454417 l -3.5074765962846928 -11.641460646008959 a33.15837152113967,33.15837152113967 0 0,0 0.5479180610569803,-0.1599523069250512 l 3.3065683175042913 11.70011128185271" fill="#ff960d" stroke="none" /><path d="M 94.28887869178378 79.79150937346287 l -3.0346107303707455 -10.73780422272977 a32.1583736185232,32.1583736185232 0 0,0 0.5339853695195808,-0.14595837290389677 l 2.849327471627442 10.788449136459962" fill="#ff890c" stroke="none" /><path d="M 94.63758080256005 79.69619591428918 l -3.2272922211232897 -12.219542443885857 a33.6385375980946,33.6385375980946 0 0,0 0.5611086056308566,-0.14303907717956635 l 3.0164747268074334 12.273284517234288" fill="#ff9d0e" stroke="none" /><path d="M 94.98787191387505 79.60689891045804 l -6.284492117295415 -25.57003349519748 a47.33099797041254,47.33099797041254 0 0,0 0.7928535218293099,-0.18764281254709442 l 5.843414908503572 25.674422219885447" fill="#b8ff1f" stroke="none" /><path d="M 95.33964822691252 79.52364482259891 l -2.4966354052397715 -10.969556762084492 a32.25008283984124,32.25008283984124 0 0,0 0.5423500667400768,-0.11853671812027684 l 2.3074426143461735 11.010906978300637" fill="#ff8a0c" stroke="none" /><path d="M 95.692805502759 79.44645832069477 l -2.2603633034767956 -10.786248774728323 a32.02054467320163,32.02054467320163 0 0,0 0.5404360294924196,-0.10840638335798006 l 2.0743608645172396 10.823559114163514" fill="#ff870c" stroke="none" /><path d="M 96.40284397218896 79.31037775812273 l -1.3183916017736206 -7.582941634077104 a28.69669800898068,28.69669800898068 0 0,0 0.4873940028597999,-0.0804241866248323 l 1.1876683927749352 7.604512083641563" fill="#ff5a08" stroke="none" /></svg>