<?xml version="1.0" encoding="utf-8" ?>
<svg baseProfile="full" height="200mm" version="1.1" viewBox="0,0,200,200" width="200mm" xmlns="http://www.w3.org/2000/svg" xmlns:ev="http://www.w3.org/2001/xml-events" xmlns:xlink="http://www.w3.org/1999/xlink"><defs /><rect fill="#1a1a1a" height="200" width="200" x="0" y="0" /><text alignment-baseline="middle" fill="#e1ed5e" style="dominant-baseline: central; font-size:9.0px; font-family:Arial;" text-anchor="middle" x="100.0" y="100.0">2026</text><line stroke="#e1ed5e" stroke-width="0.3" x1="100.0" x2="100.0" y1="15.0" y2="10.0" /><path d="M 100.0 14.0 a86.0,86.0 0 0,1 42.46469731375804,11.215312516191453" fill="none" id="id145" stroke="none" /><text fill="#e1ed5e" style="font-size:6.75px; font-family:Arial;" text-anchor="middle"><textPath startOffset="22.20632615414155" xlink:href="#id145">January</textPath></text><path d="M 100.36148047927253 79.00311137660856 l 0.6572947916436868 -38.17950435567718 a59.185161899464234,59.185161899464234 0 0,0 1.0184733858164714,0.02630416276646649 l -1.314394812655026 38.16253340076836" fill="red" stroke="none" /><path d="M 102.16513564639614 79.11191278185805 l 5.387848492440496 -51.979121684850355 a73.25761190971104,73.25761190971104 0 0,0 1.2531701628252718,0.1408082693217259 l -6.281785358775493 51.87867746205803" fill="red" stroke="none" /><path d="M 103.2404852339499 79.25152402106235 l 6.5605808898943945 -42.00668886737336 a63.515916210440025,63.515916210440025 0 0,0 1.0787748694092538,0.17800709675228898 l -7.282684965442524 41.88753550768145" fill="red" stroke="none" /><path d="M 104.307194497241 79.44645832069477 l 12.921583491723009 -61.66062503791566 a84.0,84.0 0 0,0 1.4126291033858882,0.3087460076165178 l -13.981055319262426 61.429065532203275" fill="red" stroke="none" /><path d="M 105.01212808612495 79.60689891045804 l 9.163348300420033 -37.2833824272083 a59.39293629417104,59.39293629417104 0 0,0 0.9907056027973659,0.25255291713346567 l -9.803762791902424 37.12012651390597" fill="red" stroke="none" /><path d="M 106.40334571778207 80.00007090966166 l 9.744396375002234 -30.43522013609127 a52.95709444623357,52.95709444623357 0 0,0 0.8657657241677456,0.285429347353384 l -10.266844921412396 30.26297706447865" fill="red" stroke="none" /><path d="M 107.08798089147638 80.2323363322302 l 18.112030230151202 -50.512625162499866 a74.66163377931318,74.66163377931318 0 0,0 1.2060259887922982,0.4441895497442053 l -18.978838544716076 50.19337234494933" fill="red" stroke="none" /><path d="M 107.76421540070413 80.48803036053334 l 19.167214896769163 -48.16843632454811 a72.84187867786984,72.84187867786984 0 0,0 1.161016750617559,0.4736078839714085 l -19.99351551697511 47.831367554393125" fill="red" stroke="none" /><path d="M 108.43124777332544 80.76684994638697 l 15.139109205163262 -34.53495459380808 a58.70750212255175,58.70750212255175 0 0,0 0.9220373323889058,0.4136912742997737 l -15.731328656018947 34.26924298899178" fill="red" stroke="none" /><path d="M 108.76106565485865 80.91482961587045 l 15.459259054861057 -33.67656455248663 a58.05535980911672,58.05535980911672 0 0,0 0.9046180323992669,0.42473029581497734 l -16.03665529855992 33.40546927403165" fill="red" stroke="none" /><path d="M 109.41281617654863 81.2277094730956 l 25.972147070082144 -51.79711164675503 a78.94387973182657,78.94387973182657 0 0,0 1.2094935891795144,0.6195495933636195 l -26.859901146850415 51.342369528078905" fill="red" stroke="none" /><path d="M 109.73455568895987 81.39251694778311 l 17.140300542054206 -32.76347293466006 a57.97614178645666,57.97614178645666 0 0,0 0.8802847615137463,0.4702176334087698 l -17.701730350096263 32.46357657474954" fill="red" stroke="none" /><path d="M 110.36928655335952 81.73862282372117 l 21.46578470921367 -37.803448573108255 a64.47275741429283,64.47275741429283 0 0,0 0.9603471041029061,0.5562950288128439 l -22.113328545781904 37.42834938690537" fill="red" stroke="none" /><line stroke="#e1ed5e" stroke-width="0.3" x1="143.23703022742887" x2="145.7803849466894" y1="26.81831364943548" y2="22.513508569990506" /><path d="M 143.74570117128098 25.957352633546492 a86.0,86.0 0 0,1 28.547481713284135,27.462654790039103" fill="none" id="id146" stroke="none" /><text fill="#e1ed5e" style="font-size:6.75px; font-family:Arial;" text-anchor="middle"><textPath startOffset="19.985693538727396" xlink:href="#id146">February</textPath></text><path d="M 110.99172775467656 82.1063720568725 l 20.277295244232832 -33.00976742613361 a59.74033360658138,59.74033360658138 0 0,0 0.8715854308546749,0.5457867168417962 l -20.84249982745977 32.65583636796887" fill="red" stroke="none" /><path d="M 111.2981086023043 82.29822771554956 l 22.663065808072755 -35.50828234384269 a63.124252715402406,63.124252715402406 0 0,0 0.9108919069282438,0.5924694343729356 l -23.27092474078528 35.11291398531023" fill="red" stroke="none" /><path d="M 111.60114157652 82.49532879139004 l 15.772425652592625 -23.798617005904887 a49.55071947185057,49.55071947185057 0 0,0 0.7069125210735614,0.4773104898183668 l -16.17974286807273 23.523594603787853" fill="red" stroke="none" /><path d="M 111.90073688211348 82.69761687909136 l 3.2161726616366577 -4.675966885568803 a26.67524738706561,26.67524738706561 0 0,0 0.37608143310536707,0.2634690776713871 l -3.2961852343256757 4.61991296513348" fill="red" stroke="none" /><path d="M 112.19680574252982 82.90503203632743 l 16.821286575458803 -23.576611875723717 a49.96225663846357,49.96225663846357 0 0,0 0.695795045688223,0.5055246914679241 l -17.224626937500815 23.283567949439117" fill="red" stroke="none" /><path d="M 112.48926042617603 83.11751280151076 l 31.462509970100495 -42.52977387590551 a73.90246874725534,73.90246874725534 0 0,0 1.0161724808343275,0.7653600450995534 l -32.18992860469321 41.98189724130012" fill="red" stroke="none" /><path d="M 112.77801427241765 83.33499621200491 l 15.778717146847969 -20.57850112043841 a46.931498667915804,46.931498667915804 0 0,0 0.6368547265683127,0.4970752157088546 l -16.13060442857571 20.303847515506334" fill="red" stroke="none" /><path d="M 113.34407831869373 83.78471172551755 l 23.9433070349897 -29.095124934399202 a58.68034297508564,58.68034297508564 0 0,0 0.7744197516285233,0.6485542708690999 l -24.44058432357734 28.678669506136284" fill="red" stroke="none" /><path d="M 113.6212207817346 84.01681056812373 l 15.152167517165656 -17.779607834793524 a44.36027900576749,44.36027900576749 0 0,0 0.5769079662016597,0.5002889033445791 l -15.455969282014081 17.516153938029273" fill="red" stroke="none" /><path d="M 114.94478906791727 85.2469230424477 l 23.842598042983557 -23.53674462701152 a54.502952542670606,54.502952542670606 0 0,0 0.6533495661277947,0.6733341589429377 l -24.24421187281446 23.122846272518466" fill="red" stroke="none" /><path d="M 115.19652480421416 85.50635884689758 l 45.04131029608208 -42.9580181592517 a83.24235661796996,83.24235661796996 0 0,0 0.9800109881976415,1.0454073929191492 l -45.77408860625019 42.176341349454496" fill="red" stroke="none" /><path d="M 115.68641384162765 86.03803664274999 l 18.468758029344592 -16.4384368194681 a45.72483019586029,45.72483019586029 0 0,0 0.5182324582445734,0.5924292853121574 l -18.74898235116701 16.118091977952997" fill="red" stroke="none" /><path d="M 115.9244219780498 86.31012108654704 l 28.31307634207968 -24.340135379776495 a58.337280059724215,58.337280059724215 0 0,0 0.6480699179030139,0.7671103710225343 l -28.72785687346981 23.84916605912485" fill="red" stroke="none" /><line stroke="#e1ed5e" stroke-width="0.3" x1="172.23445277983987" x2="176.4835382374775" y1="55.19839476539836" y2="52.563006222186495" /><path d="M 173.08426987136738 54.67131705675599 a86.0,86.0 0 0,1 12.851231095245387,41.99856678651699" fill="none" id="id147" stroke="none" /><text fill="#e1ed5e" style="font-size:6.75px; font-family:Arial;" text-anchor="middle"><textPath startOffset="22.20632615414155" xlink:href="#id147">March</textPath></text><line stroke="#e1ed5e" stroke-width="0.3" x1="184.98032266829074" x2="189.97916517819016" y1="98.17113171792111" y2="98.06355123074" /><path d="M 185.9800911702706 98.14961562048488 a86.0,86.0 0 0,1 -9.607161424134198,41.387399972396054" fill="none" id="id148" stroke="none" /><text fill="#e1ed5e" style="font-size:6.75px; font-family:Arial;" text-anchor="middle"><textPath startOffset="21.466115282336823" xlink:href="#id148">April</textPath></text><line stroke="#e1ed5e" stroke-width="0.3" x1="174.80103733775053" x2="179.2010983576182" y1="140.37084112569926" y2="142.7455964860345" /><path d="M 175.68104954172406 140.8457921977663 a86.0,86.0 0 0,1 -30.038265399797805,32.042727171017184" fill="none" id="id149" stroke="none" /><text fill="#e1ed5e" style="font-size:6.75px; font-family:Arial;" text-anchor="middle"><textPath startOffset="22.206326154141568" xlink:href="#id149">May</textPath></text><line stroke="#e1ed5e" stroke-width="0.3" x1="143.8653032363475" x2="146.44561519142675" y1="172.8068346515853" y2="177.08958963109032" /><path d="M 144.38136562736335 173.6633856474863 a86.0,86.0 0 0,1 -40.68145358897372,12.25698825130547" fill="none" id="id150" stroke="none" /><text fill="#e1ed5e" style="font-size:6.75px; font-family:Arial;" text-anchor="middle"><textPath startOffset="21.466115282336833" xlink:href="#id150">June</textPath></text><line stroke="#e1ed5e" stroke-width="0.3" x1="102.19456741930631" x2="102.32365962044197" y1="184.97166512339345" y2="189.96999836594603" /><path d="M 102.22038585953345 185.97133177190398 a86.0,86.0 0 0,1 -42.740103519485714,-10.115201625700543" fill="none" id="id151" stroke="none" /><text fill="#e1ed5e" style="font-size:6.75px; font-family:Arial;" text-anchor="middle"><textPath startOffset="22.20632615414155" xlink:href="#id151">July</textPath></text><line stroke="#e1ed5e" stroke-width="0.3" x1="58.666819895761336" x2="56.23545636021788" y1="174.27360380694188" y2="178.64263932499728" /><path d="M 58.180547188652646 175.14741091055294 a86.0,86.0 0 0,1 -31.652253787137756,-30.449443065178592" fill="none" id="id152" stroke="none" /><text fill="#e1ed5e" style="font-size:6.75px; font-family:Arial;" text-anchor="middle"><textPath startOffset="22.20632615414155" xlink:href="#id152">August</textPath></text><line stroke="#e1ed5e" stroke-width="0.3" x1="26.63291911575756" x2="22.317208475507996" y1="142.92168965132927" y2="145.44649492493687" /><path d="M 25.769776987707644 143.4266507060508 a86.0,86.0 0 0,1 -11.730757126820373,-40.83630448921669" fill="none" id="id153" stroke="none" /><text fill="#e1ed5e" style="font-size:6.75px; font-family:Arial;" text-anchor="middle"><textPath startOffset="21.46611528233685" xlink:href="#id153">September</textPath></text><line stroke="#e1ed5e" stroke-width="0.3" x1="15.007084014347285" x2="10.007500721073583" y1="101.09737516637583" y2="101.16192664675087" /><path d="M 14.007167355692545 101.11028546245083 a86.0,86.0 0 0,1 10.666146001902534,-42.60595125391555" fill="none" id="id154" stroke="none" /><text fill="#e1ed5e" style="font-size:6.75px; font-family:Arial;" text-anchor="middle"><textPath startOffset="22.20632615414155" xlink:href="#id154">October</textPath></text><line stroke="#e1ed5e" stroke-width="0.3" x1="26.266209847984243" x2="21.928928074336255" y1="57.711370442889674" y2="55.22380399835377" /><path d="M 25.398753493254645 57.213857153982495 a86.0,86.0 0 0,1 29.58750427330803,-30.492523968695096" fill="none" id="id155" stroke="none" /><text fill="#e1ed5e" style="font-size:6.75px; font-family:Arial;" text-anchor="middle"><textPath startOffset="21.46611528233685" xlink:href="#id155">November</textPath></text><line stroke="#e1ed5e" stroke-width="0.3" x1="56.762969772571076" x2="54.21961505331055" y1="26.818313649435495" y2="22.513508569990535" /><path d="M 56.25429882871897 25.957352633546506 a86.0,86.0 0 0,1 42.265352541879196,-11.944610805530505" fill="none" id="id156" stroke="none" /><text fill="#e1ed5e" style="font-size:6.75px; font-family:Arial;" text-anchor="middle"><textPath startOffset="22.20632615414155" xlink:href="#id156">December</textPath></text></svg>